<?xml version="1.0" encoding="utf-8"?>
<!-- Generator: Adobe Illustrator 21.0.0, SVG Export Plug-In . SVG Version: 6.00 Build 0)  -->
<svg version="1.1" id="Ebene_1" xmlns="http://www.w3.org/2000/svg" xmlns:xlink="http://www.w3.org/1999/xlink" x="0px" y="0px"
	 viewBox="0 0 1024 550" style="enable-background:new 0 0 1024 550;" xml:space="preserve">
<style type="text/css">
	.st0{fill:none;stroke:#FFFFFF;stroke-linecap:round;stroke-miterlimit:10;stroke-dasharray:1.000000e-02,5.01;}
	.st1{fill:none;stroke:#FFFFFF;stroke-linecap:round;stroke-miterlimit:10;stroke-dasharray:1.000000e-02,5;}
	.st2{fill:none;stroke:#FFFFFF;stroke-linecap:round;stroke-miterlimit:10;stroke-dasharray:1.000000e-02,4.99;}
	.st3{fill:none;stroke:#FFFFFF;stroke-linecap:round;stroke-miterlimit:10;stroke-dasharray:1.000000e-02,4.97;}
	.st4{fill:none;stroke:#FFFFFF;stroke-linecap:round;stroke-miterlimit:10;stroke-dasharray:1.000000e-02,4.98;}
	.st5{fill:none;stroke:#FFFFFF;stroke-linecap:round;stroke-miterlimit:10;stroke-dasharray:1.000000e-02,5.04;}
	.st6{clip-path:url(#SVGID_2_);}
	.st7{fill:#2C4D5B;}
</style>
<title>160404-homepage-pattern</title>
<path class="st0" d="M333.9,294.6c-10.5,34-22.5,60.6-62.7,66.6c-5.7,1.7-11.4,3.3-17,5c-16.8,5.1-33.1,10.7-48.9,19.2
	c-23,9.4-36.6,37.1-58.4,50c-40.1,23.8-102.3,10-125.6-31.6c-10.6-19-15.3-42.9-9.9-64.2c6.2-22.7,24.3-31.5,19.3-57.3
	c-8.8-45.9,16.3-62.5,63.4-80c16.9-6.3,22-15,39.9-36.5c3-3.6,6.5-6.7,10.4-9.3c3.8-2.5,8-4.5,12.3-6c31.8-4.9,113.6-42.7,123.5-7.9
	c1.1,3.7-8.2,36.3-7.7,40.9c-1,26.2,8.7,39.1,26.6,54.5c3.8,3.3,35.2,22.1,39.1,30C339.1,272.6,335.4,289.8,333.9,294.6z"/>
<path class="st0" d="M333.9,294.6c-10.5,34-22.5,60.6-62.7,66.6c-5.7,1.7-11.4,3.3-17,5c-16.8,5.1-33.1,10.7-48.9,19.2
	c-23,9.4-36.6,37.1-58.4,50c-40.1,23.8-102.3,10-125.6-31.6c-10.6-19-15.3-42.9-9.9-64.2c6.2-22.7,24.3-31.5,19.3-57.3
	c-8.8-45.9,16.3-62.5,63.4-80c16.9-6.3,22-15,39.9-36.5c3-3.6,6.5-6.7,10.4-9.3c3.8-2.5,8-4.5,12.3-6c31.8-4.9,113.6-42.7,123.5-7.9
	c1.1,3.7-8.2,36.3-7.7,40.9c-1,26.2,8.7,39.1,26.6,54.5c3.8,3.3,35.2,22.1,39.1,30C339.1,272.6,335.4,289.8,333.9,294.6z"/>
<path class="st1" d="M99.3,216.1c13.1-5.4,19.1-13.1,31-25.8c2.4-2.6,5-5.2,7.8-8c3-2.9,6.4-5.4,10.1-7.2c3.7-1.8,7.7-3.1,11.8-3.9
	c27.9-2.7,93.8-33.6,106.4-6c1.5,3.3-4.6,29.6-4.1,33.7c2.6,21.8,9.5,32.9,23.1,46.4l0.2,0.2c3.9,4,28,19.6,30.7,26.5
	c0.7,4.2-2.5,18.3-3.9,22.5c-7.7,22.8-16.1,41.7-36.9,51c-5,2.2-10.7,3.5-17.1,5c-4.9,1.1-9.6,2.9-14.3,4.4
	c-14.2,4.5-28,10.1-41.4,16.6c-19,9.1-31.4,31-49.5,42.5c-34.8,22-87.7,13.6-109.7-22.5c-10-16.4-15.1-36.8-11.5-55.2
	c3.8-19.4,17.8-27.9,13.2-50.3C36.9,245.6,59.6,232.5,99.3,216.1z"/>
<path class="st1" d="M99.3,216.1c13.1-5.4,19.1-13.1,31-25.8c2.4-2.6,5-5.2,7.8-8c3-2.9,6.4-5.4,10.1-7.2c3.7-1.8,7.7-3.1,11.8-3.9
	c27.9-2.7,93.8-33.6,106.4-6c1.5,3.3-4.6,29.6-4.1,33.7c2.6,21.8,9.5,32.9,23.1,46.4l0.2,0.2c3.9,4,28,19.6,30.7,26.5
	c0.7,4.2-2.5,18.3-3.9,22.5c-7.7,22.8-16.1,41.7-36.9,51c-5,2.2-10.7,3.5-17.1,5c-4.9,1.1-9.6,2.9-14.3,4.4
	c-14.2,4.5-28,10.1-41.4,16.6c-19,9.1-31.4,31-49.5,42.5c-34.8,22-87.7,13.6-109.7-22.5c-10-16.4-15.1-36.8-11.5-55.2
	c3.8-19.4,17.8-27.9,13.2-50.3C36.9,245.6,59.6,232.5,99.3,216.1z"/>
<path class="st2" d="M104.4,230c12-5.6,18.2-13.7,29.7-24.3c2.6-2.4,5.3-4.5,8.1-6.7c3-2.3,6.3-4.1,9.9-5.2
	c3.6-1.1,7.4-1.7,11.2-1.8c23.9-0.5,75.3-24.4,89.2-4c2,2.9-1.3,22.8-0.4,26.5c4.2,17.4,10,27.2,19.7,38.4l0.1,0.2
	c3.2,4.2,20.9,17.1,22.6,23.2c0.3,3.7-2.4,14.7-3.7,18.2c-6.9,18.2-14.3,33.3-31.3,41.1c-4.1,1.9-8.8,3-13.9,4.3
	c-4,1-7.8,2.5-11.7,3.8c-11.6,3.9-22.9,8.5-33.8,13.9c-15.6,7.6-26.1,25-40.6,35C130,413,86.4,409.8,65.7,379.1
	c-9.3-13.7-14.7-30.5-13-46.1c1.7-16.2,11.4-24.4,7.2-43.3C51.9,254.7,72.1,245.1,104.4,230z"/>
<path class="st2" d="M104.4,230c12-5.6,18.2-13.7,29.7-24.3c2.6-2.4,5.3-4.5,8.1-6.7c3-2.3,6.3-4.1,9.9-5.2
	c3.6-1.1,7.4-1.7,11.2-1.8c23.9-0.5,75.3-24.4,89.2-4c2,2.9-1.3,22.8-0.4,26.5c4.2,17.4,10,27.2,19.7,38.4l0.1,0.2
	c3.2,4.2,20.9,17.1,22.6,23.2c0.3,3.7-2.4,14.7-3.7,18.2c-6.9,18.2-14.3,33.3-31.3,41.1c-4.1,1.9-8.8,3-13.9,4.3
	c-4,1-7.8,2.5-11.7,3.8c-11.6,3.9-22.9,8.5-33.8,13.9c-15.6,7.6-26.1,25-40.6,35C130,413,86.4,409.8,65.7,379.1
	c-9.3-13.7-14.7-30.5-13-46.1c1.7-16.2,11.4-24.4,7.2-43.3C51.9,254.7,72.1,245.1,104.4,230z"/>
<path class="st1" d="M109.6,243.9c10.9-5.8,17.4-14.2,28.4-22.8c2.6-2,5.4-3.8,8.4-5.4c3-1.7,6.3-2.7,9.7-3.1
	c3.6-0.4,7.1-0.3,10.7,0.3c20,1.7,58.2-15.7,72.1-2.1c2.6,2.6,1.9,16,3.2,19.4c5.3,12.9,10.1,21.8,16.3,30.4c0,0.1,0.1,0.1,0.1,0.2
	c2.4,4.6,13.9,14.6,14.5,19.9c-0.1,3.1-2.3,11.1-3.5,14c-6,13.7-12.5,24.9-25.7,31.2c-3.5,1.5-7.1,2.7-10.7,3.7
	c-3.1,0.9-6.1,2.1-9.1,3.1c-9,3.2-17.8,7-26.3,11.3c-12.2,6.2-20.8,19-31.7,27.5c-24.1,18.8-58.5,20.8-77.9-4.4
	c-8.7-11.3-14.3-24.5-14.7-37.2c-0.4-13,5-20.8,1.1-36.3C66.9,263.8,84.5,257.3,109.6,243.9z"/>
<path class="st1" d="M109.6,243.9c10.9-5.8,17.4-14.2,28.4-22.8c2.6-2,5.4-3.8,8.4-5.4c3-1.7,6.3-2.7,9.7-3.1
	c3.6-0.4,7.1-0.3,10.7,0.3c20,1.7,58.2-15.7,72.1-2.1c2.6,2.6,1.9,16,3.2,19.4c5.3,12.9,10.1,21.8,16.3,30.4c0,0.1,0.1,0.1,0.1,0.2
	c2.4,4.6,13.9,14.6,14.5,19.9c-0.1,3.1-2.3,11.1-3.5,14c-6,13.7-12.5,24.9-25.7,31.2c-3.5,1.5-7.1,2.7-10.7,3.7
	c-3.1,0.9-6.1,2.1-9.1,3.1c-9,3.2-17.8,7-26.3,11.3c-12.2,6.2-20.8,19-31.7,27.5c-24.1,18.8-58.5,20.8-77.9-4.4
	c-8.7-11.3-14.3-24.5-14.7-37.2c-0.4-13,5-20.8,1.1-36.3C66.9,263.8,84.5,257.3,109.6,243.9z"/>
<path class="st2" d="M114.7,257.8c9.7-6.2,16.7-14.7,27.1-21.3c2.7-1.7,5.6-3.1,8.7-4.2c3.1-1,6.3-1.4,9.5-1.1
	c3.5,0.4,6.9,1.2,10.1,2.4c16.1,3.9,41.9-7.9,55-0.1c3.4,2,4.9,9.3,6.9,12.2c6,8.7,9.8,16.8,12.8,22.3c0,0.1,0.1,0.1,0.1,0.2
	c1.5,4.9,6.8,12.1,6.4,16.6c-0.7,3.4-1.9,6.7-3.4,9.8c-4.9,9.1-10.7,16.6-20.2,21.3c-2.5,1.2-5,2.2-7.6,3c-2.2,0.8-4.3,1.7-6.4,2.5
	c-6.4,2.5-12.7,5.4-18.7,8.7c-8.7,4.7-15.5,13.1-22.8,20c-18.6,17.5-43.9,24.4-62,4.7c-8-8.8-13.8-18.4-16.3-28.3
	c-2.5-9.7-1.5-17.2-5-29.3C81.8,273,96.7,269.3,114.7,257.8z"/>
<path class="st2" d="M114.7,257.8c9.7-6.2,16.7-14.7,27.1-21.3c2.7-1.7,5.6-3.1,8.7-4.2c3.1-1,6.3-1.4,9.5-1.1
	c3.5,0.4,6.9,1.2,10.1,2.4c16.1,3.9,41.9-7.9,55-0.1c3.4,2,4.9,9.3,6.9,12.2c6,8.7,9.8,16.8,12.8,22.3c0,0.1,0.1,0.1,0.1,0.2
	c1.5,4.9,6.8,12.1,6.4,16.6c-0.7,3.4-1.9,6.7-3.4,9.8c-4.9,9.1-10.7,16.6-20.2,21.3c-2.5,1.2-5,2.2-7.6,3c-2.2,0.8-4.3,1.7-6.4,2.5
	c-6.4,2.5-12.7,5.4-18.7,8.7c-8.7,4.7-15.5,13.1-22.8,20c-18.6,17.5-43.9,24.4-62,4.7c-8-8.8-13.8-18.4-16.3-28.3
	c-2.5-9.7-1.5-17.2-5-29.3C81.8,273,96.7,269.3,114.7,257.8z"/>
<path class="st3" d="M231.3,275.8c0.7,8.2-1.3,14.1-5,18.9s-8.9,8.2-14.6,11.3c-11.5,6.3-25.2,11.3-33.3,22.8
	c-13.1,16-29.2,28-46,13.7c-14.2-12.1-22.6-23.6-29-41.6c-6.7-18.8,5.3-20.1,16.5-29.3c8.3-6.8,16-14.9,25.8-19.8
	c10.9-5.4,17.8-3.2,27.8,2.6c12.1,6.1,25.4-1.3,37.9,1.9C226.3,259.8,230.8,273,231.3,275.8z"/>
<path class="st3" d="M231.3,275.8c0.7,8.2-1.3,14.1-5,18.9s-8.9,8.2-14.6,11.3c-11.5,6.3-25.2,11.3-33.3,22.8
	c-13.1,16-29.2,28-46,13.7c-14.2-12.1-22.6-23.6-29-41.6c-6.7-18.8,5.3-20.1,16.5-29.3c8.3-6.8,16-14.9,25.8-19.8
	c10.9-5.4,17.8-3.2,27.8,2.6c12.1,6.1,25.4-1.3,37.9,1.9C226.3,259.8,230.8,273,231.3,275.8z"/>
<path class="st0" d="M498,42.4c44.7,28.3,69.5,80.5,70.5,132.5c0.3,7.5,0.1,15-0.6,22.4c-0.9,7.5-2.5,15-4.7,22.3
	c-5.9,19.4-15.6,37.3-28.8,52.8c-4.3,5.1-9,9.8-14,14.2c-12.6,10-30,20.2-47.2,24.2c-4.2,1-8.5,1.6-12.8,1.8
	c-24.9,3-35.6-23.5-53-37.6c-24-18.2-55.5-17.5-80.3-34.5c-4.5-2.9-8.7-6.1-12.8-9.5c-15.8-13.6-26.5-31.1-26.1-54.1
	c0.3-5.3,1.1-10.5,2.4-15.7c5.2-21.1,17.6-42.9,28.4-58.6c5-6.6,11.6-9.1,17.8-13.8c5.3-3.5,10.6-6.7,15.8-9.8
	c6.5-3.5,13.2-6.6,20.1-9.1c6.8-2.5,13.8-4.5,20.9-6c5.8-0.8,10.8,0,16.6,0c3.3,0.8,7.5,1.7,10.8,2.5c24,2.5,36.5-22.3,57.2-28.9
	C484.8,35.8,493.1,36.7,498,42.4C501.2,44.7,494.7,40,498,42.4z"/>
<path class="st0" d="M498,42.4c44.7,28.3,69.5,80.5,70.5,132.5c0.3,7.5,0.1,15-0.6,22.4c-0.9,7.5-2.5,15-4.7,22.3
	c-5.9,19.4-15.6,37.3-28.8,52.8c-4.3,5.1-9,9.8-14,14.2c-12.6,10-30,20.2-47.2,24.2c-4.2,1-8.5,1.6-12.8,1.8
	c-24.9,3-35.6-23.5-53-37.6c-24-18.2-55.5-17.5-80.3-34.5c-4.5-2.9-8.7-6.1-12.8-9.5c-15.8-13.6-26.5-31.1-26.1-54.1
	c0.3-5.3,1.1-10.5,2.4-15.7c5.2-21.1,17.6-42.9,28.4-58.6c5-6.6,11.6-9.1,17.8-13.8c5.3-3.5,10.6-6.7,15.8-9.8
	c6.5-3.5,13.2-6.6,20.1-9.1c6.8-2.5,13.8-4.5,20.9-6c5.8-0.8,10.8,0,16.6,0c3.3,0.8,7.5,1.7,10.8,2.5c24,2.5,36.5-22.3,57.2-28.9
	C484.8,35.8,493.1,36.7,498,42.4C501.2,44.7,494.7,40,498,42.4z"/>
<path class="st2" d="M356.8,103.8c4.3-3,8.7-5.7,13.1-8.3c5.3-3,10.8-5.7,16.5-7.9c5.5-2.3,11.3-4.2,17.1-5.5
	c4.7-1,8.9-0.5,13.6-0.7c2.8,0.5,6.1,1,8.9,1.4c20,0.9,30.7-18.2,48.1-22.5c5.4-1.4,12.2-0.5,16.4,3.8c2.6,1.7-2.3-1.7,0.4,0
	c36.9,23.6,60.2,63.4,62.7,107.1c0.4,6.2,0.4,12.4-0.1,18.6c-0.6,6.3-1.8,12.5-3.5,18.6c-2.3,8.2-5.5,16.2-9.5,23.8
	c-3.8,7.4-8.6,14.3-14.1,20.4c-4.2,4.6-8.9,8.8-13.8,12.6c-0.8,0.6-1.7,1.2-2.5,1.8c-12.1,8.1-27.5,15.6-42.9,18.6
	c-4,0.7-8.1,1.1-12.1,1.3c-19.3,1.3-27.7-17.9-41.5-28.3c-18.5-14.1-42.7-14-62.4-26.3c-4.1-2.5-8.2-5.1-12-8
	c-15.1-11.6-26.3-27-24.6-48c0.4-4.4,1.2-8.7,2.3-13c4.7-17.5,15.1-35.3,24.8-48.1C346.1,109.7,351.5,107.4,356.8,103.8z"/>
<path class="st2" d="M356.8,103.8c4.3-3,8.7-5.7,13.1-8.3c5.3-3,10.8-5.7,16.5-7.9c5.5-2.3,11.3-4.2,17.1-5.5
	c4.7-1,8.9-0.5,13.6-0.7c2.8,0.5,6.1,1,8.9,1.4c20,0.9,30.7-18.2,48.1-22.5c5.4-1.4,12.2-0.5,16.4,3.8c2.6,1.7-2.3-1.7,0.4,0
	c36.9,23.6,60.2,63.4,62.7,107.1c0.4,6.2,0.4,12.4-0.1,18.6c-0.6,6.3-1.8,12.5-3.5,18.6c-2.3,8.2-5.5,16.2-9.5,23.8
	c-3.8,7.4-8.6,14.3-14.1,20.4c-4.2,4.6-8.9,8.8-13.8,12.6c-0.8,0.6-1.7,1.2-2.5,1.8c-12.1,8.1-27.5,15.6-42.9,18.6
	c-4,0.7-8.1,1.1-12.1,1.3c-19.3,1.3-27.7-17.9-41.5-28.3c-18.5-14.1-42.7-14-62.4-26.3c-4.1-2.5-8.2-5.1-12-8
	c-15.1-11.6-26.3-27-24.6-48c0.4-4.4,1.2-8.7,2.3-13c4.7-17.5,15.1-35.3,24.8-48.1C346.1,109.7,351.5,107.4,356.8,103.8z"/>
<path class="st4" d="M376.6,118.7c3.5-2.4,7-4.6,10.4-6.7c4.2-2.5,8.5-4.8,13-6.7c4.3-2,8.8-3.7,13.4-5.1c3.6-1,6.9-1,10.6-1.4
	c2.2,0.1,4.8,0.2,7,0.4c15.9-0.7,25-13.4,39.1-16.2c4.3-0.8,9.5-0.3,13.1,2.7c1.9,1.2-1.2-1.1,0.8,0c30.4,17,51.6,47.6,54.9,81.8
	c0.5,4.9,0.7,9.9,0.5,14.8c-0.3,5-1.1,10-2.3,14.9c-1.6,6.7-4,13.2-7.2,19.3c-3.2,6-6.4,11.5-11.3,16.4c-4.2,4.1-8.8,7.8-13.7,11
	c-0.8,0.5-1.6,1.1-2.5,1.6c-11.8,6.9-26.6,12.7-41.1,14.9c-3.8,0.5-7.6,0.7-11.4,0.8c-13.7,0.7-20-12-30-19.1
	c-13.3-9.5-30.2-10-44.5-18.1c-3.6-2.1-7.5-4-11.2-6.4c-14.4-9.5-25.8-22.9-23-41.9c0.5-3.5,1.3-6.9,2.3-10.2
	c4.3-13.8,12.8-27.6,21.1-37.6C368.1,123.5,372.5,121.6,376.6,118.7z"/>
<path class="st4" d="M376.6,118.7c3.5-2.4,7-4.6,10.4-6.7c4.2-2.5,8.5-4.8,13-6.7c4.3-2,8.8-3.7,13.4-5.1c3.6-1,6.9-1,10.6-1.4
	c2.2,0.1,4.8,0.2,7,0.4c15.9-0.7,25-13.4,39.1-16.2c4.3-0.8,9.5-0.3,13.1,2.7c1.9,1.2-1.2-1.1,0.8,0c30.4,17,51.6,47.6,54.9,81.8
	c0.5,4.9,0.7,9.9,0.5,14.8c-0.3,5-1.1,10-2.3,14.9c-1.6,6.7-4,13.2-7.2,19.3c-3.2,6-6.4,11.5-11.3,16.4c-4.2,4.1-8.8,7.8-13.7,11
	c-0.8,0.5-1.6,1.1-2.5,1.6c-11.8,6.9-26.6,12.7-41.1,14.9c-3.8,0.5-7.6,0.7-11.4,0.8c-13.7,0.7-20-12-30-19.1
	c-13.3-9.5-30.2-10-44.5-18.1c-3.6-2.1-7.5-4-11.2-6.4c-14.4-9.5-25.8-22.9-23-41.9c0.5-3.5,1.3-6.9,2.3-10.2
	c4.3-13.8,12.8-27.6,21.1-37.6C368.1,123.5,372.5,121.6,376.6,118.7z"/>
<path class="st1" d="M396.5,133.6c2.6-1.8,5.2-3.5,7.7-5.2c3.1-2,6.3-3.8,9.5-5.5c3.1-1.7,6.4-3.2,9.7-4.6c2.5-0.9,5.1-1.6,7.6-2.1
	c1.6-0.2,3.5-0.5,5.1-0.7c11.9-2.3,19.4-8.6,30-9.8c3.3-0.4,6.7,0.1,9.7,1.5c1.2,0.6,0-0.5,1.2,0.1c24.1,10.3,42.9,31.2,47.1,56.4
	c0.6,3.6,1,7.3,1,11c0,3.8-0.4,7.5-1.1,11.2c-1,5.1-2.6,10.1-4.9,14.7c-2.3,4.7-4.4,8.7-8.6,12.3c-4.2,3.6-8.7,6.7-13.5,9.4
	c-0.8,0.5-1.6,0.9-2.5,1.3c-12.4,6-25.7,9.7-39.3,11.2c-3.6,0.4-7.2,0.3-10.7,0.4c-8,0.2-12.3-6.2-18.4-9.9c-8.2-5-18-5.7-26.6-9.9
	c-3.3-1.6-6.9-3-10.4-4.8c-13.6-7.4-25.6-18.7-21.5-35.9c0.6-2.6,1.3-5.1,2.2-7.5c4-10,9.9-19.2,17.4-27
	C390.2,137.3,393.4,135.7,396.5,133.6z"/>
<path class="st1" d="M396.5,133.6c2.6-1.8,5.2-3.5,7.7-5.2c3.1-2,6.3-3.8,9.5-5.5c3.1-1.7,6.4-3.2,9.7-4.6c2.5-0.9,5.1-1.6,7.6-2.1
	c1.6-0.2,3.5-0.5,5.1-0.7c11.9-2.3,19.4-8.6,30-9.8c3.3-0.4,6.7,0.1,9.7,1.5c1.2,0.6,0-0.5,1.2,0.1c24.1,10.3,42.9,31.2,47.1,56.4
	c0.6,3.6,1,7.3,1,11c0,3.8-0.4,7.5-1.1,11.2c-1,5.1-2.6,10.1-4.9,14.7c-2.3,4.7-4.4,8.7-8.6,12.3c-4.2,3.6-8.7,6.7-13.5,9.4
	c-0.8,0.5-1.6,0.9-2.5,1.3c-12.4,6-25.7,9.7-39.3,11.2c-3.6,0.4-7.2,0.3-10.7,0.4c-8,0.2-12.3-6.2-18.4-9.9c-8.2-5-18-5.7-26.6-9.9
	c-3.3-1.6-6.9-3-10.4-4.8c-13.6-7.4-25.6-18.7-21.5-35.9c0.6-2.6,1.3-5.1,2.2-7.5c4-10,9.9-19.2,17.4-27
	C390.2,137.3,393.4,135.7,396.5,133.6z"/>
<path class="st1" d="M468.6,128.8c27.7,1.4,50.8,29.6,40,56.1c-1.7,3.3-2.5,5.8-5.8,8.3c-5,3.5-10.2,6.5-15.8,8.9
	c-14.5,5-31.5,8.4-47.5,7.4c-5.3-0.3-10.5-1.1-15.6-2.4c-14.6-4.1-37-14.1-29.5-33.1c4.3-10.7,12.1-19.7,22-25.5
	c8.2-5.7,15.9-12.2,24.8-16.6C451.1,127,458.1,128.2,468.6,128.8z"/>
<path class="st1" d="M468.6,128.8c27.7,1.4,50.8,29.6,40,56.1c-1.7,3.3-2.5,5.8-5.8,8.3c-5,3.5-10.2,6.5-15.8,8.9
	c-14.5,5-31.5,8.4-47.5,7.4c-5.3-0.3-10.5-1.1-15.6-2.4c-14.6-4.1-37-14.1-29.5-33.1c4.3-10.7,12.1-19.7,22-25.5
	c8.2-5.7,15.9-12.2,24.8-16.6C451.1,127,458.1,128.2,468.6,128.8z"/>
<path class="st1" d="M301.8,395.9L301.8,395.9c2.3-13.2,6.9-25.7,13.8-37.1c5.4-8.9,11.5-17.4,17-26.3c8.4-13.5,12.9-59.3,30.3-62
	c25-4,44,21.4,58.4,37.8c20.1,23.1,50,36.2,56.7,68.1c11.4,53.9-18.4,138.8-90.5,104.8c-4.8-4.3-7.2-9.7-9.6-15
	c-0.8-1.8-1.5-3.5-2.4-5.3c-1-6.2-7.7-9.5-12.1-14.4c-2-1.5-4.1-2.8-6.2-4.1s-4.4-2.5-6.5-3.7c-2.3-1.5-4.6-3-7.1-4.2
	c-1.9-1.2-3.9-2.3-6-3.1c-2.1-0.9-4.4-1.7-6.7-2.5c-10.6-4-24.5-7.9-29.1-19.6C300.1,405,301,400.2,301.8,395.9z"/>
<path class="st1" d="M301.8,395.9L301.8,395.9c2.3-13.2,6.9-25.7,13.8-37.1c5.4-8.9,11.5-17.4,17-26.3c8.4-13.5,12.9-59.3,30.3-62
	c25-4,44,21.4,58.4,37.8c20.1,23.1,50,36.2,56.7,68.1c11.4,53.9-18.4,138.8-90.5,104.8c-4.8-4.3-7.2-9.7-9.6-15
	c-0.8-1.8-1.5-3.5-2.4-5.3c-1-6.2-7.7-9.5-12.1-14.4c-2-1.5-4.1-2.8-6.2-4.1s-4.4-2.5-6.5-3.7c-2.3-1.5-4.6-3-7.1-4.2
	c-1.9-1.2-3.9-2.3-6-3.1c-2.1-0.9-4.4-1.7-6.7-2.5c-10.6-4-24.5-7.9-29.1-19.6C300.1,405,301,400.2,301.8,395.9z"/>
<path class="st1" d="M351.5,344.7c3.7-5,6.7-15.6,10.5-25c3.7-9.2,8.1-17.3,14.8-18.1c20.8-2.6,36.7,18.3,47.7,32.9
	c5.4,6.6,11.8,12.2,17.8,17.9c5.7,5.4,11.2,10.8,15.5,17.1c3.5,5.1,6.1,10.8,7.5,16.8c3.9,16.4,3.6,36-1.8,52.9
	c-7.4,22.7-26.4,39-52.2,32.8c-4.6-1.2-9-2.9-13.2-5.1c-3.7-3.4-5.8-7.6-7.8-11.7c-0.7-1.4-1.3-2.8-2-4.1c-1.1-4.8-5.9-7.7-9.3-11.6
	c-1.5-1.2-3-2.4-4.6-3.6s-3.2-2.2-4.8-3.3c-1.7-1.3-3.4-2.6-5.2-3.7c-1.4-1.1-2.9-2-4.4-2.8l-0.7-0.4c-1.4-0.7-2.8-1.4-4.3-2
	c-7-3.2-15.8-6.3-20.9-12.5c-0.8-1-1.6-2.1-2.1-3.3c-1.6-3.1-1.4-6.6-1.5-9.9c-0.1-8.6,0.4-17.4,3.8-26.2c0.7-1.7,1.4-3.4,2.3-5
	C340.5,358.9,346.3,351.8,351.5,344.7z"/>
<path class="st1" d="M351.5,344.7c3.7-5,6.7-15.6,10.5-25c3.7-9.2,8.1-17.3,14.8-18.1c20.8-2.6,36.7,18.3,47.7,32.9
	c5.4,6.6,11.8,12.2,17.8,17.9c5.7,5.4,11.2,10.8,15.5,17.1c3.5,5.1,6.1,10.8,7.5,16.8c3.9,16.4,3.6,36-1.8,52.9
	c-7.4,22.7-26.4,39-52.2,32.8c-4.6-1.2-9-2.9-13.2-5.1c-3.7-3.4-5.8-7.6-7.8-11.7c-0.7-1.4-1.3-2.8-2-4.1c-1.1-4.8-5.9-7.7-9.3-11.6
	c-1.5-1.2-3-2.4-4.6-3.6s-3.2-2.2-4.8-3.3c-1.7-1.3-3.4-2.6-5.2-3.7c-1.4-1.1-2.9-2-4.4-2.8l-0.7-0.4c-1.4-0.7-2.8-1.4-4.3-2
	c-7-3.2-15.8-6.3-20.9-12.5c-0.8-1-1.6-2.1-2.1-3.3c-1.6-3.1-1.4-6.6-1.5-9.9c-0.1-8.6,0.4-17.4,3.8-26.2c0.7-1.7,1.4-3.4,2.3-5
	C340.5,358.9,346.3,351.8,351.5,344.7z"/>
<path class="st3" d="M370.4,356.9c3.1-3.2,5.8-9.3,9-14.6c3.1-5,6.5-9.5,11.1-9.8c16.5-1.1,29.4,15.2,36.9,28
	c3.3,4.5,7.1,8.5,10.7,12.5c3.4,3.7,6.6,7.7,9.4,11.9c2.2,3.4,3.9,7.1,5,11c3.5,11.7,4.7,25,2,37.3c-3.7,16.5-19.2,27.9-36.8,23.3
	c-3.2-0.9-6.3-2.2-9.2-4c-2.5-2.5-4.5-5.3-6.1-8.4c-0.5-1-1.1-2-1.6-2.9c-1.2-3.4-4.2-5.8-6.5-8.9c-1-1-2-2-3-3s-2-1.9-3.1-2.9
	c-1.1-1.1-2.2-2.2-3.4-3.2c-0.9-0.9-1.9-1.7-2.9-2.5l-0.5-0.4c-0.9-0.7-1.9-1.3-2.9-2c-4.9-3.1-10.9-5.7-15.1-9.8
	c-0.7-0.7-1.3-1.4-1.9-2.1c-1.5-2-2.1-4.2-2.9-6.3c-2.5-6.3-4.7-13.2-3-21c0.3-1.5,0.8-2.9,1.4-4.3C360,368,365.5,362.1,370.4,356.9
	z"/>
<path class="st3" d="M370.4,356.9c3.1-3.2,5.8-9.3,9-14.6c3.1-5,6.5-9.5,11.1-9.8c16.5-1.1,29.4,15.2,36.9,28
	c3.3,4.5,7.1,8.5,10.7,12.5c3.4,3.7,6.6,7.7,9.4,11.9c2.2,3.4,3.9,7.1,5,11c3.5,11.7,4.7,25,2,37.3c-3.7,16.5-19.2,27.9-36.8,23.3
	c-3.2-0.9-6.3-2.2-9.2-4c-2.5-2.5-4.5-5.3-6.1-8.4c-0.5-1-1.1-2-1.6-2.9c-1.2-3.4-4.2-5.8-6.5-8.9c-1-1-2-2-3-3s-2-1.9-3.1-2.9
	c-1.1-1.1-2.2-2.2-3.4-3.2c-0.9-0.9-1.9-1.7-2.9-2.5l-0.5-0.4c-0.9-0.7-1.9-1.3-2.9-2c-4.9-3.1-10.9-5.7-15.1-9.8
	c-0.7-0.7-1.3-1.4-1.9-2.1c-1.5-2-2.1-4.2-2.9-6.3c-2.5-6.3-4.7-13.2-3-21c0.3-1.5,0.8-2.9,1.4-4.3C360,368,365.5,362.1,370.4,356.9
	z"/>
<path class="st5" d="M396.9,365c2.4-1,4.9-1.5,7.5-1.4c12.2,0.6,22.1,12.2,26.2,23c1.2,2.4,2.4,4.8,3.5,7.1s2.2,4.6,3.2,6.7
	c0.9,1.8,1.7,3.5,2.5,5.2c3.2,7,5.8,14,5.8,21.7c0,10.4-12.1,16.7-21.4,13.7c-1.9-0.6-3.7-1.6-5.1-2.9c-6.6-6.6-9.9-14.9-14.9-23.2
	c-2.9-4.1-6.8-6.6-10.9-9c-2-1.2-4.1-2.4-6-3.7c-5.3-3.6-9.8-9.1-9.7-15.8c0.1-7.4,5.9-13.6,11.8-17.4
	C391.7,367.5,394.3,366.1,396.9,365z"/>
<path class="st5" d="M396.9,365c2.4-1,4.9-1.5,7.5-1.4c12.2,0.6,22.1,12.2,26.2,23c1.2,2.4,2.4,4.8,3.5,7.1s2.2,4.6,3.2,6.7
	c0.9,1.8,1.7,3.5,2.5,5.2c3.2,7,5.8,14,5.8,21.7c0,10.4-12.1,16.7-21.4,13.7c-1.9-0.6-3.7-1.6-5.1-2.9c-6.6-6.6-9.9-14.9-14.9-23.2
	c-2.9-4.1-6.8-6.6-10.9-9c-2-1.2-4.1-2.4-6-3.7c-5.3-3.6-9.8-9.1-9.7-15.8c0.1-7.4,5.9-13.6,11.8-17.4
	C391.7,367.5,394.3,366.1,396.9,365z"/>
<g>
	<g>
		<defs>
			<rect id="SVGID_1_" y="596" width="1024" height="550"/>
		</defs>
		<clipPath id="SVGID_2_">
			<use xlink:href="#SVGID_1_"  style="overflow:visible;"/>
		</clipPath>
		<g class="st6">
			<circle class="st7" cx="771.7" cy="543.7" r="1.7"/>
			<circle class="st7" cx="672.4" cy="494.6" r="1.7"/>
			<circle class="st7" cx="541.5" cy="461.7" r="1.7"/>
			<circle class="st7" cx="373" cy="413.4" r="1.6"/>
			<circle class="st7" cx="368.3" cy="396.7" r="1.6"/>
			<circle class="st7" cx="601" cy="334.7" r="1.7"/>
			<circle class="st7" cx="794.4" cy="293.5" r="1.7"/>
			<circle class="st7" cx="976.9" cy="234.4" r="1.7"/>
			<circle class="st7" cx="772.2" cy="223.1" r="1.7"/>
			<circle class="st7" cx="563.2" cy="236.2" r="1.7"/>
			<circle class="st7" cx="276.7" cy="306.9" r="1.6"/>
			<circle class="st7" cx="259.3" cy="393.6" r="1.6"/>
			<circle class="st7" cx="311.7" cy="470.7" r="1.6"/>
			<circle class="st7" cx="43.8" cy="544.9" r="1.7"/>
			<circle class="st7" cx="333.5" cy="550.6" r="1.7"/>
			<circle class="st7" cx="441.6" cy="547.3" r="1.7"/>
			<circle class="st7" cx="466.6" cy="540.2" r="1.7"/>
			<circle class="st7" cx="0.5" cy="368.8" r="1.6"/>
			<circle class="st7" cx="17.4" cy="277.7" r="1.6"/>
			<circle class="st7" cx="289.3" cy="278.2" r="1.6"/>
			<circle class="st7" cx="313" cy="275.2" r="1.6"/>
			<circle class="st7" cx="275.2" cy="262.2" r="1.6"/>
			<circle class="st7" cx="211.9" cy="260.2" r="1.6"/>
			<circle class="st7" cx="50.8" cy="278.2" r="1.6"/>
			<circle class="st7" cx="30.7" cy="342.1" r="1.6"/>
			<circle class="st7" cx="69.1" cy="405.1" r="1.6"/>
			<circle class="st7" cx="176.1" cy="540" r="1.7"/>
		</g>
	</g>
</g>
</svg>
