<svg id="Ebene_1" data-name="Ebene 1" xmlns="http://www.w3.org/2000/svg" viewBox="0 0 262 183.25"><defs><style>.cls-1{fill:#ffcb00;}.cls-2{fill:red;}.cls-3{fill:#1e1e1e;}.cls-4{isolation:isolate;}</style></defs><title>Artboard 1</title><g id="_5e20b02f-a974-4dc0-9902-f9966126e853" data-name="5e20b02f-a974-4dc0-9902-f9966126e853"><polygon class="cls-1" points="66.6 143.65 69.5 143.65 69.5 182.65 62.7 182.65 62.7 143.65 66.6 143.65"/><polygon class="cls-2" points="66.6 104.45 69.5 104.45 69.5 143.65 62.7 143.65 62.7 104.45 66.6 104.45"/><path class="cls-3" d="M32.7,79.85v-2.2c3.9,0,7.3-2.9,7.3-6.1A5.55,5.55,0,0,0,38.3,68l.4-.1a6.8,6.8,0,0,1,2.3,4.5c0,3.9-3.8,7.5-8.3,7.5m-3.9-13.4a3.08,3.08,0,0,0-.5-1.2c0-.4.2-.8.8-.5-.4.4,0,1,0,1s.7-.3.6-.8c1.1.3.3,1.7-.9,1.5m-.8,2a3.46,3.46,0,0,0-.8-1.6,2.59,2.59,0,0,0-1.7-.9,3.08,3.08,0,0,0-1.3.3,4.87,4.87,0,0,1-.4-1.1c0-.3.5-.6,1.4-.6,2,0,3.2.9,3.2,2.4a2.82,2.82,0,0,1-.4,1.5m5.1,25.9a.9.9,0,0,1,.5.1,28.28,28.28,0,0,0,2.9,4.7h0a16.28,16.28,0,0,1,3.1-.3h0a.4.4,0,0,1,.5.5,1.69,1.69,0,0,1-.3,1,3.32,3.32,0,0,0-2.1-.7c-.3,0-.6.1-.9.1h-.2l.6.6c1,1,1.8,1.8,1.8,2.3a2.07,2.07,0,0,1-.6,1,5.54,5.54,0,0,0-2-3h0v1.4c0,1.9-.2,2.2-.8,2.2h-.4a3.14,3.14,0,0,0,.5-2.1v-2h-.1a5.7,5.7,0,0,0-1.3-.1,2.88,2.88,0,0,0-2,.5,1.8,1.8,0,0,1-.6-.9c0-.4.2-.4.6-.4h.5a8.68,8.68,0,0,0,2.3.1h0a14.76,14.76,0,0,0-2.6-3.9c.1-.5.2-.8.7-.8M21.1,99h0a8.84,8.84,0,0,0,2.3,0h.5c.3,0,.6,0,.6.4a1.46,1.46,0,0,1-.6.9,2.88,2.88,0,0,0-2-.5c-.4,0-.9.1-1.3.1h-.1v2A3.14,3.14,0,0,0,21,104h-.4c-.7,0-.8-.3-.8-2.2v-1.4h0a5.08,5.08,0,0,0-2.1,3.2,1.33,1.33,0,0,1-.6-1c0-.5.8-1.4,1.8-2.3l.6-.5h-.2a2.77,2.77,0,0,0-.9-.1,2.38,2.38,0,0,0-2.1.7,2,2,0,0,1-.3-1.1.76.76,0,0,1,.2-.4c.1-.1.2-.1.4-.1h0a16.28,16.28,0,0,1,3.1.3h0a28.28,28.28,0,0,0,2.9-4.7.75.75,0,0,1,.5-.1c.4,0,.6.3.7.8A15.25,15.25,0,0,0,21.1,99M15,72.35a6.69,6.69,0,0,1,2.2-4.5l.4.1a5.78,5.78,0,0,0-1.7,3.6c0,3.2,3.5,6.1,7.4,6.1v2.2c-4.4,0-8.4-3.6-8.3-7.5m29.9,6.9a5.51,5.51,0,0,0,5.9,3.1A18.38,18.38,0,0,1,46.9,78l-3.7-5.8a8.62,8.62,0,0,0-2.7-4.7,3.46,3.46,0,0,0,1.2-.7c-2.4,0-4.7-1.2-6-1.2a1.25,1.25,0,0,0-1.4,1v.1c0,.7.8,1.5,2.2,1.5.4,0,.8-.1,1.2-.1a5.78,5.78,0,0,1,1.4,3.4c0,2.6-3,4.6-6.1,4.6h-.5a8.13,8.13,0,0,1-1.2-2.9c0-2,1.3-3.7,1.3-5.7a4.07,4.07,0,0,0-.8-2.4,3.13,3.13,0,0,0,.9-1.1,2.77,2.77,0,0,1-.9.1c-1.6,0-2.8-.3-4-.3-.6,0-.8.2-.8.4v.2a1.88,1.88,0,0,0-.8-.2,4.1,4.1,0,0,0-1.1-.1c-1.4,0-1.9.6-1.9,1.1a6.7,6.7,0,0,0,.7,1.8,4.42,4.42,0,0,1,1.5-.5c.8,0,1.4.7,1.8,1.6H26.1a7,7,0,0,1-2.5-.5h0a2.53,2.53,0,0,0,1.2,1,14,14,0,0,0,2.8.6,1,1,0,0,1-.5.6h-.2a14,14,0,0,1-2.8-.6h0c0,.5,1.4,1.8,2.6,2.2a13.81,13.81,0,0,0-3,4.9h-.5c-3.1,0-6.1-2-6.1-4.6a5.67,5.67,0,0,1,1.4-3.4,4.87,4.87,0,0,0,1.2.1c1.4,0,2.2-.8,2.2-1.5a1.24,1.24,0,0,0-1.3-1.2h-.1c-1.3,0-3.7,1.2-6,1.2a3.7,3.7,0,0,0,1.1.5,8.62,8.62,0,0,0-2.7,4.7l-3.6,5.8a14.91,14.91,0,0,1-3.9,4.4,5.5,5.5,0,0,0,5.9-3.1l1.9-3a3.7,3.7,0,0,0,.5,1.1L10,83.15a14.91,14.91,0,0,1-3.9,4.4,5.57,5.57,0,0,0,5.9-3.1l3.2-5.1a2.7,2.7,0,0,0,.8.7l-4.5,7.2a16.65,16.65,0,0,1-3.9,4.5,5.44,5.44,0,0,0,5.9-3.2l4.4-7.1.9.5-5.4,8.6A14.91,14.91,0,0,1,9.5,95a5.57,5.57,0,0,0,5.9-3.1l5.5-8.8,1,.4-6.3,10a14.91,14.91,0,0,1-3.9,4.4,5.57,5.57,0,0,0,5.9-3.1l6.7-10.7h.2a4.67,4.67,0,0,1,.3,1.7c0,3.4-2.2,6.3-4.9,8.6a1.7,1.7,0,0,0,.7.1h1.1a24.84,24.84,0,0,1-2.6,4,15,15,0,0,0-2.9-.3c-.9,0-1,.5-1,1A2.5,2.5,0,0,0,16,101c.2-.4.5-.9,2.1-.9h.2c-.5.5-1.9,1.8-1.9,2.6a1.91,1.91,0,0,0,1.6,1.6v-.5a4,4,0,0,1,1.2-2.3v.4c0,1.8.2,2.6,1.3,2.6a2,2,0,0,0,1.1-.3,2.74,2.74,0,0,1-.8-2.3v-1.7h.9s1.6-.1,2,.7c.4-.4,1.1-1,1.1-1.6s-.2-.9-1-.9c-.3,0-1.3.2-2.2.2a16.1,16.1,0,0,1,2.1-3,2,2,0,0,0,.8,1.2,8.5,8.5,0,0,1,1.5-4.1,20.68,20.68,0,0,1,.3,3.5c0,4.5-1.1,7.8-3.4,8.5a2,2,0,0,0,1.6,1c.8,0,1.3-1,1.8-1.8.2.7.9,2.3,1.6,2.3s1.3-1.6,1.6-2.3c.5.9.9,1.8,1.8,1.8a1.78,1.78,0,0,0,1.6-1c-2.3-.6-3.4-4-3.4-8.5a19.83,19.83,0,0,1,.3-3.5,7.6,7.6,0,0,1,1.5,4.1,2,2,0,0,0,.8-1.2,20.25,20.25,0,0,1,2.1,3c-.8,0-1.8-.2-2.2-.2-.8,0-1,.5-1,.9s.7,1.2,1.1,1.6c.4-.8,2-.7,2-.7H35v1.7a2.86,2.86,0,0,1-.8,2.3,1.5,1.5,0,0,0,1.1.4c1.1,0,1.3-.8,1.3-2.6v-.4a4.1,4.1,0,0,1,1.3,2.3v.5a1.81,1.81,0,0,0,1.6-1.6c0-1-1.5-2.1-1.9-2.6h.2c1.6,0,1.9.5,2.1.9a2.34,2.34,0,0,0,.8-1.8c0-.5-.1-1-1-1a13.58,13.58,0,0,0-2.9.3,25.65,25.65,0,0,1-2.6-4.1h1.1a1.48,1.48,0,0,0,.7-.1c-2.6-2.3-4.9-5.3-4.9-8.6a5.08,5.08,0,0,1,.3-1.7h.2l6.7,10.7a5.64,5.64,0,0,0,5.9,3.1,14.91,14.91,0,0,1-3.9-4.4l-6.3-10,1-.4,5.5,8.8A5.64,5.64,0,0,0,46.4,95a18.38,18.38,0,0,1-3.9-4.4L37.1,82l.9-.5,4.4,7.1a5.44,5.44,0,0,0,5.9,3.2,18.38,18.38,0,0,1-3.9-4.4l-4.5-7.2c.3-.2.5-.5.8-.7l3.2,5.1a5.51,5.51,0,0,0,5.9,3.1,18.38,18.38,0,0,1-3.9-4.4l-3.7-6a9.74,9.74,0,0,0,.5-1.1Z"/><polygon class="cls-3" points="69.5 65.55 69.5 104.65 66.6 104.65 62.7 104.65 62.7 65.55 69.5 65.55"/><path class="cls-3" d="M90.7,76.75a3.17,3.17,0,0,0-.7-2.3,3,3,0,0,0-2.2-.8h-2v6h1.8a3.72,3.72,0,0,0,2.3-.5,3,3,0,0,0,.8-2.4m-.3-7.4a2.58,2.58,0,0,0-.7-2.1,3,3,0,0,0-2.1-.5H85.8v5.5h2c1.8-.1,2.6-1,2.6-2.9m2.2,7.5a4.12,4.12,0,0,1-1.2,3.5,5.43,5.43,0,0,1-3.5.9H84V65.45h4.2a4.37,4.37,0,0,1,3.1.9,3.79,3.79,0,0,1,1,3.1,4.56,4.56,0,0,1-.5,2.3,2.87,2.87,0,0,1-1.9,1.1,3.28,3.28,0,0,1,2.2,1.4,4.68,4.68,0,0,1,.5,2.6"/><path class="cls-3" d="M103.1,81.15h-1.8v-1.4a3.19,3.19,0,0,1-2.8,1.6c-2,0-3-1.1-3-3.4v-7.9h1.8v7.1a5.85,5.85,0,0,0,.2,1.9,1.68,1.68,0,0,0,1.6,1c1.5,0,2.2-1.1,2.2-3.2v-6.7h1.8v8.6a9.6,9.6,0,0,0,0,2.4"/><path class="cls-3" d="M113.7,81.15h-1.8v-7.1a6.8,6.8,0,0,0-.2-2,1.64,1.64,0,0,0-1.5-1,2,2,0,0,0-1.8,1.1,4.56,4.56,0,0,0-.5,2.3v6.6h-1.8v-8.7A16.27,16.27,0,0,0,106,70h1.8v1.5a3.22,3.22,0,0,1,2.9-1.8c2,0,2.9,1.2,2.9,3.5Z"/><path class="cls-3" d="M122.5,75.75a16.55,16.55,0,0,0-.3-3.2,1.8,1.8,0,0,0-3.6,0,15,15,0,0,0-.3,2.9,11.24,11.24,0,0,0,.4,3.2,1.93,1.93,0,0,0,1.7,1.4,1.75,1.75,0,0,0,1.9-1.4,9.68,9.68,0,0,0,.2-2.9m1.8,5.4h-1.8V80a3,3,0,0,1-2.6,1.5,2.83,2.83,0,0,1-2.9-1.9,10.75,10.75,0,0,1-.5-4,8.22,8.22,0,0,1,.6-3.8,3.08,3.08,0,0,1,2.8-1.8,2.58,2.58,0,0,1,2.5,1.3v-6h1.8v13.8a19.7,19.7,0,0,0,.1,2.1"/><path class="cls-3" d="M132.9,74.65a9,9,0,0,0-.2-2.3,1.66,1.66,0,0,0-1.8-1.3c-1.2,0-1.9.7-2,2.2a7.08,7.08,0,0,0-.1,1.4Zm1.8,1.2h-5.8v.8a10.68,10.68,0,0,0,.3,2.5,1.89,1.89,0,0,0,1.8,1.1c1.3,0,2-.8,2-2.5h1.8a3.37,3.37,0,0,1-3,3.7H131a3.43,3.43,0,0,1-3.2-1.6,9.37,9.37,0,0,1-.7-3.7,11.83,11.83,0,0,1,.5-4.2,3.37,3.37,0,0,1,3.4-2,3.17,3.17,0,0,1,3.2,1.8,9.72,9.72,0,0,1,.5,3.8v.3Z"/><path class="cls-3" d="M143.6,78.15c0,2.2-1.2,3.2-3.5,3.2s-3.5-1.2-3.3-3.5h1.8v.6c.1,1.2.6,1.8,1.6,1.8a1.56,1.56,0,0,0,1.8-1.2v-.6a2.17,2.17,0,0,0-.5-1.4,13,13,0,0,0-1.5-1,13.24,13.24,0,0,1-2-1.2,2.27,2.27,0,0,1-.8-2,2.44,2.44,0,0,1,1-2.2,4,4,0,0,1,2.4-.7,3.29,3.29,0,0,1,2.5.8,4.38,4.38,0,0,1,.8,2.5h-1.8c0-1.4-.5-2.1-1.6-2.1a1.38,1.38,0,0,0-1.5,1.5,1.61,1.61,0,0,0,.6,1.3,14,14,0,0,0,1.6,1,18.76,18.76,0,0,1,1.8,1.2,3.94,3.94,0,0,1,.6,2"/><path class="cls-3" d="M158.5,81.15h-1.8v-7.4a5.54,5.54,0,0,0-.2-1.8,1.44,1.44,0,0,0-1.3-.8c-1.3,0-2,1-2,3v7.1h-1.8v-7.6a4.14,4.14,0,0,0-.2-1.6,1.29,1.29,0,0,0-1.3-.8,1.64,1.64,0,0,0-1.5,1,5.22,5.22,0,0,0-.4,2.1v6.9h-1.7v-9.2a11.48,11.48,0,0,0-.1-1.9H148v1.5a2.8,2.8,0,0,1,2.6-1.8,2.46,2.46,0,0,1,2.5,1.8,3.08,3.08,0,0,1,2.8-1.8,2.51,2.51,0,0,1,2.1,1,6.71,6.71,0,0,1,.6,2.8C158.5,73.55,158.5,81.15,158.5,81.15Z"/><path class="cls-3" d="M163.5,81.15h-1.8V70.05h1.8Zm.1-13.8h-1.9v-1.9h1.9v1.9Z"/><path class="cls-3" d="M174.2,81.15h-1.8v-7.1a6.8,6.8,0,0,0-.2-2,1.64,1.64,0,0,0-1.5-1,2,2,0,0,0-1.8,1.1,4.56,4.56,0,0,0-.5,2.3v6.6h-1.8v-8.7a16.27,16.27,0,0,0-.1-2.4h1.8v1.5a3.22,3.22,0,0,1,2.9-1.8c2,0,2.9,1.2,2.9,3.5Z"/><path class="cls-3" d="M179.3,81.15h-1.8V70.05h1.8Zm0-13.8h-1.9v-1.9h1.9Z"/><path class="cls-3" d="M188.6,78.15c0,2.2-1.2,3.2-3.5,3.2s-3.5-1.2-3.3-3.5h1.8v.6c.1,1.2.6,1.8,1.6,1.8a1.56,1.56,0,0,0,1.8-1.2v-.6a2.17,2.17,0,0,0-.5-1.4,7.1,7.1,0,0,0-1.4-1,13.24,13.24,0,0,1-2-1.2,2.27,2.27,0,0,1-.8-2,2.7,2.7,0,0,1,1-2.2,4,4,0,0,1,2.4-.7,3,3,0,0,1,2.4.8,4.07,4.07,0,0,1,.8,2.4h-1.8c0-1.4-.5-2.1-1.6-2.1a1.38,1.38,0,0,0-1.5,1.5,1.61,1.61,0,0,0,.6,1.3,8.64,8.64,0,0,0,1.6,1,18.76,18.76,0,0,1,1.8,1.2,3.48,3.48,0,0,1,.6,2.1"/><path class="cls-3" d="M195.7,81.15a5.7,5.7,0,0,1-1.3.1,2.42,2.42,0,0,1-2-.6,3.84,3.84,0,0,1-.5-2.1v-7.2h-1.7v-1.3h1.7v-2l1.8-.8v2.8h2v1.3h-2.1v7.1a2.08,2.08,0,0,0,.3,1.3,1.21,1.21,0,0,0,1,.3h.8Z"/><path class="cls-3" d="M203.2,74.65a9,9,0,0,0-.2-2.3,1.66,1.66,0,0,0-1.8-1.3c-1.2,0-1.9.7-2,2.2a7.08,7.08,0,0,0-.1,1.4Zm1.8,1.2h-5.7v.8a10.68,10.68,0,0,0,.3,2.5,1.89,1.89,0,0,0,1.8,1.1c1.3,0,2-.8,2-2.5h1.8a3.31,3.31,0,0,1-3,3.7h-.7a3.43,3.43,0,0,1-3.2-1.6,8.38,8.38,0,0,1-.8-3.8,11.83,11.83,0,0,1,.5-4.2,3.37,3.37,0,0,1,3.4-2,3.17,3.17,0,0,1,3.2,1.8,9.72,9.72,0,0,1,.5,3.8Z"/><path class="cls-3" d="M212.4,71.55H212a2.09,2.09,0,0,0-1.9.8,3.61,3.61,0,0,0-.6,2v6.9h-1.8V70.15h1.8v1.4a3.08,3.08,0,0,1,2.8-1.8c.1,0,.2.6.2,1.8"/><path class="cls-3" d="M216.2,81.15h-1.8V70.05h1.8Zm.1-13.8h-1.9v-1.9h1.9Z"/><path class="cls-3" d="M227,81.15h-1.8v-1.4a3.31,3.31,0,0,1-2.8,1.6c-2,0-3-1.1-3-3.4v-7.9h1.8v7.1a5.85,5.85,0,0,0,.2,1.9,1.68,1.68,0,0,0,1.6,1c1.5,0,2.2-1.1,2.2-3.2v-6.7H227v11"/><path class="cls-3" d="M242.5,81.15h-1.8v-7.4a5.54,5.54,0,0,0-.2-1.8,1.29,1.29,0,0,0-1.3-.8c-1.3,0-2,1-2,3v7.1h-1.8v-7.6a4.14,4.14,0,0,0-.2-1.6,1.29,1.29,0,0,0-1.3-.8,1.64,1.64,0,0,0-1.5,1,4,4,0,0,0-.4,2.1v6.9h-1.8v-9.2a11.48,11.48,0,0,0-.1-1.9h1.8v1.5a2.8,2.8,0,0,1,2.6-1.8,2.46,2.46,0,0,1,2.5,1.8,3.08,3.08,0,0,1,2.8-1.8,2.44,2.44,0,0,1,2.2,1,6.71,6.71,0,0,1,.6,2.8l-.1,7.5Z"/><path class="cls-3" d="M87.9,90h-.7a1,1,0,0,0-1.1.6,5.85,5.85,0,0,0-.2,1.3v1.6h1.9v1.3H86v9.8H84.2v-9.8H82.6v-1.3h1.6v-1.2a5.69,5.69,0,0,1,.4-2.6,2.29,2.29,0,0,1,2.4-1.1h.9Z"/><path class="cls-3" d="M97.7,104.65H95.9v-1.4a3.31,3.31,0,0,1-2.8,1.6c-2,0-3-1.1-3-3.4v-7.9h1.8v7.1a5.85,5.85,0,0,0,.2,1.9,1.68,1.68,0,0,0,1.6,1c1.5,0,2.2-1.1,2.2-3.2v-6.7h1.8v8.7a8.85,8.85,0,0,0,0,2.3"/><path class="cls-3" d="M93,91H91.4v-2.1H93Zm3.5,0H94.7v-2.1h1.8Z"/><path class="cls-3" d="M105.5,95h-.4a2.09,2.09,0,0,0-1.9.8,3,3,0,0,0-.6,2v6.9h-1.8V93.45h1.8v1.4a3.08,3.08,0,0,1,2.8-1.8c.1,0,.2.6.1,1.9"/><polygon class="cls-3" points="122.3 88.65 118.1 104.65 115.8 104.65 111.7 88.65 113.7 88.65 117 102.85 120.4 88.65 122.3 88.65"/><path class="cls-3" d="M129,98.05a9,9,0,0,0-.2-2.3,1.66,1.66,0,0,0-1.8-1.3c-1.2,0-1.9.7-2,2.2a7.08,7.08,0,0,0-.1,1.4Zm1.8,1.2H125v.8a10.68,10.68,0,0,0,.3,2.5,1.89,1.89,0,0,0,1.8,1.1c1.3,0,2-.8,2-2.5h1.8a3.31,3.31,0,0,1-3,3.7H127a3.43,3.43,0,0,1-3.2-1.6,8.22,8.22,0,0,1-.6-3.8,11.83,11.83,0,0,1,.5-4.2,3.37,3.37,0,0,1,3.4-2,3.17,3.17,0,0,1,3.2,1.8,9.72,9.72,0,0,1,.5,3.8Z"/><path class="cls-3" d="M138.2,95h-.4a2.09,2.09,0,0,0-1.9.8,3,3,0,0,0-.6,2v6.9h-1.8V93.45h1.8v1.4a3.08,3.08,0,0,1,2.8-1.8c.1,0,.2.6.2,1.8"/><path class="cls-3" d="M142,104.65h-1.8V88.75H142Zm5.8,0h-2l-3.7-6.2,3.3-4.9h2l-3.5,4.9Z"/><path class="cls-3" d="M155.1,98.05a9,9,0,0,0-.2-2.3,1.66,1.66,0,0,0-1.8-1.3c-1.2,0-1.9.7-2,2.2a7.08,7.08,0,0,0-.1,1.4Zm1.8,1.2h-5.8v.8a7.07,7.07,0,0,0,.2,2.5,1.89,1.89,0,0,0,1.8,1.1c1.3,0,2-.8,2-2.5h1.8a3.31,3.31,0,0,1-3,3.7h-.7a3.43,3.43,0,0,1-3.2-1.6,8.22,8.22,0,0,1-.6-3.8,11.83,11.83,0,0,1,.5-4.2,3.37,3.37,0,0,1,3.4-2,3.17,3.17,0,0,1,3.2,1.8,12,12,0,0,1,.5,3.8C156.9,98.75,156.9,99.25,156.9,99.25Z"/><path class="cls-3" d="M167,104.65h-1.8v-7.1a5,5,0,0,0-.2-2.1,1.64,1.64,0,0,0-1.5-1c-1.5,0-2.2,1.1-2.2,3.3v6.8h-1.8V88.65h1.8v6.1a3.22,3.22,0,0,1,2.8-1.5c1.9,0,2.9,1.2,2.9,3.5Z"/><path class="cls-3" d="M175,95h-.4a2.09,2.09,0,0,0-1.9.8,3,3,0,0,0-.6,2v6.9h-1.8V93.45h1.8v1.4a3.08,3.08,0,0,1,2.8-1.8c.1,0,.2.6.2,1.8"/><path class="cls-3" d="M189.9,104.65h-1.8v-1.4a3.31,3.31,0,0,1-2.8,1.6c-2,0-3-1.1-3-3.4v-7.9h1.8v7.1a5.85,5.85,0,0,0,.2,1.9,1.68,1.68,0,0,0,1.6,1c1.5,0,2.2-1.1,2.2-3.2v-6.7h1.8v11"/><path class="cls-3" d="M200.6,104.65h-1.8v-7.1a6.8,6.8,0,0,0-.2-2,1.64,1.64,0,0,0-1.5-1,2,2,0,0,0-1.8,1.1,4.42,4.42,0,0,0-.5,2.2v6.7H193v-8.7a16.27,16.27,0,0,0-.1-2.4h1.8V95a3.22,3.22,0,0,1,2.9-1.8c2,0,2.9,1.2,2.9,3.5Z"/><path class="cls-3" d="M209.4,99.15a16.55,16.55,0,0,0-.3-3.2,1.8,1.8,0,0,0-3.6,0,15.26,15.26,0,0,0-.3,3,11.24,11.24,0,0,0,.4,3.2,1.93,1.93,0,0,0,1.7,1.4,1.75,1.75,0,0,0,1.9-1.4c.1-1.1.2-2.1.2-3m1.8,5.4h-1.8v-1.3a3,3,0,0,1-2.6,1.5,2.83,2.83,0,0,1-2.9-1.9,10.75,10.75,0,0,1-.5-4,8.22,8.22,0,0,1,.6-3.8,3.08,3.08,0,0,1,2.8-1.8,2.58,2.58,0,0,1,2.5,1.3v-5.9h1.8v13.8a8,8,0,0,0,.1,2.1"/><path class="cls-3" d="M89.2,122.55a16.55,16.55,0,0,0-.3-3.2,1.8,1.8,0,0,0-3.6,0,15,15,0,0,0-.3,2.9,11.24,11.24,0,0,0,.4,3.2,1.93,1.93,0,0,0,1.7,1.4,1.75,1.75,0,0,0,1.9-1.4c.1-1,.2-2,.2-2.9M91,128H89.2v-1.3a3,3,0,0,1-2.6,1.5,2.83,2.83,0,0,1-2.9-1.9,10.75,10.75,0,0,1-.5-4,8.22,8.22,0,0,1,.6-3.8,3.08,3.08,0,0,1,2.8-1.8,2.58,2.58,0,0,1,2.5,1.3v-5.8h1.8V126a7.4,7.4,0,0,0,.1,2"/><path class="cls-3" d="M95.9,128.05H94.1V117h1.8Zm.1-13.9H94.1v-1.9H96Z"/><path class="cls-3" d="M104.7,122.15a13.33,13.33,0,0,0-.3-2.8,1.85,1.85,0,0,0-2.3-1.3,1.83,1.83,0,0,0-1.3,1.5,15.44,15.44,0,0,0-.4,3,8.31,8.31,0,0,0,.3,2.7,1.83,1.83,0,0,0,1.8,1.4,2,2,0,0,0,2-1.7,8.83,8.83,0,0,0,.2-2.8m1.8-5.3v11.6a3.81,3.81,0,0,1-1,3,4,4,0,0,1-3,.9c-2.4,0-3.5-1.1-3.5-3.2h1.8c0,1.4.6,2,1.8,2a1.83,1.83,0,0,0,1.8-1,5.11,5.11,0,0,0,.3-2.1v-1.5a3.17,3.17,0,0,1-2.6,1.3,2.71,2.71,0,0,1-2.8-1.8,8.28,8.28,0,0,1-.5-3.5,10.75,10.75,0,0,1,.5-4,2.83,2.83,0,0,1,2.9-1.9,2.7,2.7,0,0,1,2.7,1.6V117Z"/><path class="cls-3" d="M111.5,128.05h-1.8V117h1.8Zm.1-13.9h-1.9v-1.9h1.9Z"/><path class="cls-3" d="M119.1,128.05a5.7,5.7,0,0,1-1.3.1,2.42,2.42,0,0,1-2-.6,3.51,3.51,0,0,1-.5-2v-7.2h-1.7v-1.3h1.7v-2l1.8-.8v2.8h2v1.3h-2v7.1a2.08,2.08,0,0,0,.3,1.3,1.21,1.21,0,0,0,1,.3l.8-.1Z"/><path class="cls-3" d="M126.3,123.65v-1.3h-.4c-2.4,0-3.5.8-3.5,2.4s.5,2.3,1.6,2.1a2.11,2.11,0,0,0,1.8-1.1,4.65,4.65,0,0,0,.5-2.1m1.8,4.3h-1.8v-1.4a3.66,3.66,0,0,1-3,1.6,2.51,2.51,0,0,1-2.1-1,3.89,3.89,0,0,1-.7-2.3,3.32,3.32,0,0,1,1.8-3.2,13.2,13.2,0,0,1,3.9-.6v-.5a6.15,6.15,0,0,0-.2-1.9,1.42,1.42,0,0,0-1.5-.9,1.84,1.84,0,0,0-1.3.4,1.22,1.22,0,0,0-.5,1.2v.1h-1.8v-.1a2.59,2.59,0,0,1,1.1-2.3,4,4,0,0,1,2.6-.6,3.32,3.32,0,0,1,2.7.9,4.52,4.52,0,0,1,.7,2.8v4.1c0,1.5,0,2.7.1,3.7"/><polygon class="cls-3" points="133 128.05 131.3 128.05 131.3 112.05 132.1 112.05 133 112.05 133 128.05"/><path class="cls-3" d="M141.7,121.55a9,9,0,0,0-.2-2.3,1.66,1.66,0,0,0-1.8-1.3c-1.2,0-1.9.7-2,2.2a7.08,7.08,0,0,0-.1,1.4Zm1.7,1.1h-5.8v.8a10.68,10.68,0,0,0,.3,2.5,1.89,1.89,0,0,0,1.8,1.1c1.3,0,2-.8,2-2.4h1.8a3.31,3.31,0,0,1-3,3.7h-.7a3.43,3.43,0,0,1-3.2-1.6,8.22,8.22,0,0,1-.6-3.8,11.83,11.83,0,0,1,.5-4.2,3.29,3.29,0,0,1,3.3-2,3.17,3.17,0,0,1,3.2,1.8,9.72,9.72,0,0,1,.5,3.8Z"/><polygon class="cls-3" points="153.7 128.05 151.8 128.05 151.8 112.05 152.8 112.05 153.7 112.05 153.7 128.05"/><path class="cls-3" d="M164.7,128.05H163V121a6.8,6.8,0,0,0-.2-2,1.64,1.64,0,0,0-1.5-1,2,2,0,0,0-1.8,1.1,4.42,4.42,0,0,0-.5,2.2V128h-1.8v-8.7a16.27,16.27,0,0,0-.1-2.4h1.8v1.5a3.22,3.22,0,0,1,2.9-1.8c2,0,2.9,1.2,2.9,3.5Z"/><path class="cls-3" d="M172.3,113.35h-.7a1.15,1.15,0,0,0-1.1.6,5.85,5.85,0,0,0-.2,1.3v1.6h1.9v1.3h-1.9V128h-1.8v-9.9h-1.6v-1.3h1.6v-1.2a4.68,4.68,0,0,1,.5-2.6,2.29,2.29,0,0,1,2.4-1.1h.9v1.5Z"/><path class="cls-3" d="M179.1,118.35h-.4a2.09,2.09,0,0,0-1.9.8,2.88,2.88,0,0,0-.5,2v6.9h-1.8V117h1.8v1.5a3.08,3.08,0,0,1,2.8-1.8c.1,0,.2.6.2,1.8"/><path class="cls-3" d="M186,123.65v-1.3h-.4c-2.4,0-3.5.8-3.5,2.4s.5,2.3,1.6,2.1a2.11,2.11,0,0,0,1.8-1.1,4.65,4.65,0,0,0,.5-2.1m1.8,4.3H186v-1.4a3.66,3.66,0,0,1-3,1.6,2.51,2.51,0,0,1-2.1-1,3.89,3.89,0,0,1-.7-2.3,3.32,3.32,0,0,1,1.8-3.2,13.2,13.2,0,0,1,3.9-.6v-.5a6.15,6.15,0,0,0-.2-1.9,1.42,1.42,0,0,0-1.5-.9,1.84,1.84,0,0,0-1.3.4,1.22,1.22,0,0,0-.5,1.2v.1h-1.8v-.1a2.59,2.59,0,0,1,1.1-2.3,4.84,4.84,0,0,1,2.6-.7,3.32,3.32,0,0,1,2.7.9,4.52,4.52,0,0,1,.7,2.8v4.1a15.3,15.3,0,0,0,.1,3.8"/><path class="cls-3" d="M197.1,125c0,2.2-1.2,3.2-3.5,3.2s-3.5-1.2-3.3-3.5h1.8v.6c.1,1.2.6,1.8,1.6,1.8a1.56,1.56,0,0,0,1.8-1.2v-.6a2.17,2.17,0,0,0-.5-1.4,5.6,5.6,0,0,0-1.5-1,13.24,13.24,0,0,1-2-1.2,2.27,2.27,0,0,1-.8-2,2.7,2.7,0,0,1,1-2.2,4,4,0,0,1,2.4-.7,3,3,0,0,1,2.4.8,4.38,4.38,0,0,1,.8,2.5h-1.8c0-1.4-.5-2.1-1.6-2.1a1.38,1.38,0,0,0-1.5,1.5,1.61,1.61,0,0,0,.6,1.3,8.64,8.64,0,0,0,1.6,1,18.76,18.76,0,0,1,1.8,1.2,3.72,3.72,0,0,1,.7,2"/><path class="cls-3" d="M204,128.05a5.7,5.7,0,0,1-1.3.1,2.42,2.42,0,0,1-2-.6,3.84,3.84,0,0,1-.5-2.1v-7.2h-1.7V117h1.7v-2l1.8-.8V117h2v1.3h-2v7.1a2.08,2.08,0,0,0,.3,1.3,1.21,1.21,0,0,0,1,.3l.7-.2Z"/><path class="cls-3" d="M210.8,118.35h-.4a2.09,2.09,0,0,0-1.9.8,3,3,0,0,0-.6,2v6.9h-1.8V117h1.8v1.5a3.08,3.08,0,0,1,2.8-1.8c.1,0,.2.6.2,1.8"/><path class="cls-3" d="M220.5,128.05h-1.8v-1.4a3.19,3.19,0,0,1-2.8,1.6c-2,0-3-1.1-3-3.4V117h1.8v7.1a5.85,5.85,0,0,0,.2,1.9,1.68,1.68,0,0,0,1.6,1c1.4,0,2.1-1,2.1-3.2V117h1.8v8.7a19.26,19.26,0,0,0,.1,2.4"/><path class="cls-3" d="M225.4,128.05h-1.8v-15.9h1.8Zm5.8,0h-2l-3.7-6.2,3.3-4.9h2l-3.5,4.9Z"/><path class="cls-3" d="M237.3,128.05a5.7,5.7,0,0,1-1.3.1,2.42,2.42,0,0,1-2-.6,3.84,3.84,0,0,1-.5-2.1v-7.2h-1.7V117h1.7v-2l1.8-.8V117h2v1.3h-2v7.1a2.08,2.08,0,0,0,.3,1.3,1.21,1.21,0,0,0,1,.3l.8-.1Z"/><path class="cls-3" d="M247.1,128.05h-1.8v-1.4a3.19,3.19,0,0,1-2.8,1.6c-2,0-3-1.1-3-3.4V117h1.8v7.1a5.85,5.85,0,0,0,.2,1.9,1.68,1.68,0,0,0,1.6,1c1.5,0,2.2-1.1,2.2-3.2v-6.7h1.8v8.7a8.84,8.84,0,0,0,0,2.3"/><path class="cls-3" d="M254.9,118.35h-.4a2.09,2.09,0,0,0-1.9.8,3,3,0,0,0-.6,2v6.9h-1.8V117H252v1.5a3.08,3.08,0,0,1,2.8-1.8c.1,0,.2.6.2,1.8"/></g><g class="cls-4"><path d="M13.6,13.09a6.17,6.17,0,0,0,.84.21.58.58,0,0,0,.4-.11.85.85,0,0,0,.2-.31h.29l.1,2.74h-.3a5,5,0,0,0-.83-1.41,2.63,2.63,0,0,0-2-.81,3,3,0,0,0-2.2.95,4.31,4.31,0,0,0-.95,3.13,3.94,3.94,0,0,0,.95,2.81,3.07,3.07,0,0,0,2.34,1,4.09,4.09,0,0,0,.55,0,3.36,3.36,0,0,0,.6-.14,1.74,1.74,0,0,0,.58-.26.43.43,0,0,0,.11-.33V18.44q0-.75-.21-.94a1.72,1.72,0,0,0-.93-.23V17h3.31v.24a1.24,1.24,0,0,0-.64.16,1,1,0,0,0-.27.84v2.56q0,.23-1.12.61a6.69,6.69,0,0,1-2.16.38,4.79,4.79,0,0,1-3.21-1.11,4.1,4.1,0,0,1-1.44-3.29,4.53,4.53,0,0,1,1.15-3.11,4.26,4.26,0,0,1,3.35-1.43A5.36,5.36,0,0,1,13.6,13.09Z"/><path d="M21.23,16.3a2.26,2.26,0,0,1,.67,1.75h-4a3.38,3.38,0,0,0,.67,2.14,1.86,1.86,0,0,0,1.43.67,1.8,1.8,0,0,0,1.12-.35,3.5,3.5,0,0,0,.84-1l.22.08a3.61,3.61,0,0,1-1,1.49,2.42,2.42,0,0,1-1.75.69,2.14,2.14,0,0,1-1.84-.9,3.46,3.46,0,0,1-.65-2.08,3.38,3.38,0,0,1,.76-2.2,2.42,2.42,0,0,1,2-.93A2.24,2.24,0,0,1,21.23,16.3Zm-3,.49a2.52,2.52,0,0,0-.29.86h2.68a2.63,2.63,0,0,0-.24-.95,1.09,1.09,0,0,0-1-.56A1.21,1.21,0,0,0,18.19,16.78Z"/><path d="M22.71,21.45a1.36,1.36,0,0,0,.89-.25,1.39,1.39,0,0,0,.21-.92V16.2H22.73v-.42h1.09a4.62,4.62,0,0,1,.27-1.69A1.91,1.91,0,0,1,26,12.76,2.21,2.21,0,0,1,27,13a.67.67,0,0,1,.44.6.54.54,0,0,1-.15.37.49.49,0,0,1-.68.05,1.84,1.84,0,0,1-.32-.39l-.11-.16a.91.91,0,0,0-.21-.23.54.54,0,0,0-.33-.09.64.64,0,0,0-.65.48,2,2,0,0,0-.09.67v1.5h1.58v.42H24.9v4.08a1.44,1.44,0,0,0,.19.92,1.78,1.78,0,0,0,1,.26v.18H22.71Z"/><path d="M27.92,16.55A2.68,2.68,0,0,1,30,15.68a2.82,2.82,0,0,1,2.08.83,3,3,0,0,1,.83,2.2,3.27,3.27,0,0,1-.8,2.2,2.6,2.6,0,0,1-2.07.93,2.73,2.73,0,0,1-2.06-.9,3.15,3.15,0,0,1-.84-2.25A3,3,0,0,1,27.92,16.55Zm.38-2.82a.61.61,0,0,1,.45-.19.62.62,0,0,1,.46.19.65.65,0,0,1,0,.91.62.62,0,0,1-.46.19.61.61,0,0,1-.45-.19.65.65,0,0,1,0-.91Zm.64,2.66a2.6,2.6,0,0,0-.64,2,4.47,4.47,0,0,0,.51,2.11,1.57,1.57,0,0,0,1.42,1,1.21,1.21,0,0,0,1.1-.65,3.36,3.36,0,0,0,.38-1.71A4.53,4.53,0,0,0,31.22,17a1.53,1.53,0,0,0-1.42-1A1.27,1.27,0,0,0,28.93,16.39Zm2.7-1.75a.65.65,0,1,1,0-.91.65.65,0,0,1,0,.91Z"/><path d="M33.34,21.42a1.54,1.54,0,0,0,.77-.21.85.85,0,0,0,.19-.66V17.69a2.44,2.44,0,0,0-.12-.9.43.43,0,0,0-.43-.27l-.17,0-.22,0v-.21l.74-.26.53-.19.65-.27s0,0,.05,0a.55.55,0,0,1,0,.13v1a4.86,4.86,0,0,1,.79-.88,1.21,1.21,0,0,1,.79-.32.74.74,0,0,1,.53.19.69.69,0,0,1,0,.92.5.5,0,0,1-.39.18.73.73,0,0,1-.49-.22.68.68,0,0,0-.38-.22q-.22,0-.55.36a1.1,1.1,0,0,0-.32.74v2.86a1,1,0,0,0,.25.76,1.28,1.28,0,0,0,.84.2v.21H33.34Z"/><path d="M41.55,15.84a2,2,0,0,1,.49.37v-2a1.14,1.14,0,0,0-.09-.53c-.06-.1-.19-.15-.41-.15h-.13l-.25,0v-.21l.52-.13.57-.16.5-.16.34-.12h0v.67c0,.24,0,.49,0,.75s0,.51,0,.76v5.19a1.18,1.18,0,0,0,.1.58q.1.17.54.17h.14l.14,0v.21l-.92.32-1,.38,0-.06v-.78a3.33,3.33,0,0,1-.62.55,2,2,0,0,1-1.07.29,2.14,2.14,0,0,1-1.75-.83A3,3,0,0,1,37.93,19a3.63,3.63,0,0,1,.8-2.37,2.44,2.44,0,0,1,2-1A1.8,1.8,0,0,1,41.55,15.84Zm.18,4.94a.81.81,0,0,0,.3-.55V17.5a1.38,1.38,0,0,0-.44-1.16,1.42,1.42,0,0,0-.86-.34,1.39,1.39,0,0,0-1.24.71A3.21,3.21,0,0,0,39,18.45a3.51,3.51,0,0,0,.47,1.82,1.54,1.54,0,0,0,1.41.8A1.11,1.11,0,0,0,41.73,20.77Z"/><path d="M48.66,16.3a2.26,2.26,0,0,1,.67,1.75h-4A3.38,3.38,0,0,0,46,20.19a1.86,1.86,0,0,0,1.43.67,1.8,1.8,0,0,0,1.12-.35,3.5,3.5,0,0,0,.84-1l.22.08a3.61,3.61,0,0,1-1,1.49,2.42,2.42,0,0,1-1.75.69,2.14,2.14,0,0,1-1.84-.9,3.46,3.46,0,0,1-.65-2.08,3.38,3.38,0,0,1,.76-2.2,2.42,2.42,0,0,1,2-.93A2.24,2.24,0,0,1,48.66,16.3Zm-3,.49a2.52,2.52,0,0,0-.29.86H48a2.63,2.63,0,0,0-.24-.95,1.09,1.09,0,0,0-1-.56A1.21,1.21,0,0,0,45.62,16.78Z"/><path d="M49.94,21.42a1.54,1.54,0,0,0,.77-.21.85.85,0,0,0,.19-.66V17.69a2.44,2.44,0,0,0-.12-.9.43.43,0,0,0-.43-.27l-.17,0-.22,0v-.21l.74-.26.53-.19.65-.27s0,0,.05,0a.55.55,0,0,1,0,.13v1a4.86,4.86,0,0,1,.79-.88,1.21,1.21,0,0,1,.79-.32.74.74,0,0,1,.53.19.69.69,0,0,1,0,.92.5.5,0,0,1-.39.18.73.73,0,0,1-.49-.22.68.68,0,0,0-.38-.22q-.22,0-.55.36a1.1,1.1,0,0,0-.32.74v2.86a1,1,0,0,0,.25.76,1.28,1.28,0,0,0,.84.2v.21H49.94Z"/><path d="M57.52,15.78v.46H56.23v3.66a2.43,2.43,0,0,0,.08.73.59.59,0,0,0,.6.44.71.71,0,0,0,.4-.11,2.06,2.06,0,0,0,.38-.34l.17.14-.14.19a2,2,0,0,1-.7.63,1.58,1.58,0,0,1-.71.18,1,1,0,0,1-1-.67,2.76,2.76,0,0,1-.15-1V16.24h-.69l0,0a.08.08,0,0,1,0-.05.15.15,0,0,1,0-.1l.18-.16a5.57,5.57,0,0,0,.63-.59q.19-.23.91-1.19h.1s0,0,0,.1v1.56Z"/><path d="M65,15.84a2,2,0,0,1,.49.37v-2a1.14,1.14,0,0,0-.09-.53c-.06-.1-.19-.15-.41-.15h-.13l-.25,0v-.21l.52-.13.57-.16.5-.16.34-.12h0v.67c0,.24,0,.49,0,.75s0,.51,0,.76v5.19a1.18,1.18,0,0,0,.1.58q.1.17.54.17h.14l.14,0v.21l-.92.32-1,.38,0-.06v-.78a3.33,3.33,0,0,1-.62.55,2,2,0,0,1-1.07.29,2.14,2.14,0,0,1-1.75-.83A3,3,0,0,1,61.39,19a3.63,3.63,0,0,1,.8-2.37,2.44,2.44,0,0,1,2-1A1.8,1.8,0,0,1,65,15.84Zm.18,4.94a.81.81,0,0,0,.3-.55V17.5a1.38,1.38,0,0,0-.44-1.16,1.42,1.42,0,0,0-.86-.34A1.39,1.39,0,0,0,63,16.7a3.21,3.21,0,0,0-.44,1.74A3.51,3.51,0,0,0,63,20.27a1.54,1.54,0,0,0,1.41.8A1.11,1.11,0,0,0,65.19,20.77Z"/><path d="M69.59,15.75v4.06a1.66,1.66,0,0,0,.12.69.87.87,0,0,0,.86.48,1.47,1.47,0,0,0,.84-.29,2.45,2.45,0,0,0,.48-.44V16.79a.81.81,0,0,0-.19-.64,1.44,1.44,0,0,0-.76-.18v-.21H73v4.47a.86.86,0,0,0,.16.59.89.89,0,0,0,.66.14v.18l-.51.14-.55.17-.72.27a0,0,0,0,1,0,0,.29.29,0,0,1,0-.07v-1a4.36,4.36,0,0,1-.79.76,2,2,0,0,1-1.14.38,1.63,1.63,0,0,1-1-.39,1.56,1.56,0,0,1-.5-1.3v-3.3a.83.83,0,0,0-.22-.67,1.31,1.31,0,0,0-.6-.15v-.18Z"/><path d="M74.13,21.42a1.54,1.54,0,0,0,.77-.21.85.85,0,0,0,.19-.66V17.69a2.44,2.44,0,0,0-.12-.9.43.43,0,0,0-.43-.27l-.17,0-.22,0v-.21l.74-.26.53-.19.65-.27s0,0,.05,0a.55.55,0,0,1,0,.13v1a4.86,4.86,0,0,1,.79-.88,1.21,1.21,0,0,1,.79-.32.74.74,0,0,1,.53.19.69.69,0,0,1,0,.92.5.5,0,0,1-.39.18.73.73,0,0,1-.49-.22A.68.68,0,0,0,77,16.5q-.22,0-.55.36a1.1,1.1,0,0,0-.32.74v2.86a1,1,0,0,0,.25.76,1.28,1.28,0,0,0,.84.2v.21H74.13Z"/><path d="M83,16.05a1.13,1.13,0,0,1,.57.9.61.61,0,0,1-.15.39.55.55,0,0,1-.45.18.56.56,0,0,1-.39-.15.88.88,0,0,1-.24-.44l-.08-.3a.77.77,0,0,0-.29-.48,1,1,0,0,0-.55-.13,1.51,1.51,0,0,0-1.22.63,2.64,2.64,0,0,0-.5,1.68A2.88,2.88,0,0,0,80.26,20a1.73,1.73,0,0,0,1.48.76,1.77,1.77,0,0,0,1.17-.43,4,4,0,0,0,.66-.79l.18.11A5,5,0,0,1,83,20.9a2.33,2.33,0,0,1-1.78.85A2.38,2.38,0,0,1,79.47,21a2.91,2.91,0,0,1-.76-2.12,3.31,3.31,0,0,1,.83-2.26,2.68,2.68,0,0,1,2.1-.95A2.3,2.3,0,0,1,83,16.05Z"/><path d="M84.29,21.45A1.11,1.11,0,0,0,85,21.2a1.54,1.54,0,0,0,.16-.89V14.22a1.13,1.13,0,0,0-.09-.52q-.09-.17-.45-.17h-.14l-.15,0v-.23l.69-.2.57-.17.61-.19v3.94A4.12,4.12,0,0,1,86.9,16a2.1,2.1,0,0,1,1.21-.38,1.39,1.39,0,0,1,1.4.86,3,3,0,0,1,.2,1.2v2.59a1.62,1.62,0,0,0,.16.88.94.94,0,0,0,.64.27v.18H87.76v-.18a1.19,1.19,0,0,0,.71-.26,1.55,1.55,0,0,0,.16-.88V17.74a2.09,2.09,0,0,0-.21-1,.8.8,0,0,0-.78-.38,1.56,1.56,0,0,0-1,.36q-.46.36-.46.46v3.13a1.49,1.49,0,0,0,.17.89,1.24,1.24,0,0,0,.7.25v.18h-2.8Z"/></g></svg>