<svg xmlns="http://www.w3.org/2000/svg" viewBox="0 0 127.94 88.04"><defs><style>.cls-1{fill:#f8d200;}.cls-2{fill:#e30613;}.cls-3{fill:#1d1d1b;}</style></defs><title>bmvi</title><g id="Adler_und_Saeulenelement" data-name="Adler und Saeulenelement"><polygon class="cls-1" points="31.43 68.03 32.93 68.03 32.93 88.03 29.43 88.03 29.43 68.03 31.43 68.03"/><polygon class="cls-2" points="31.43 47.93 32.93 47.93 32.93 68.03 29.43 68.03 29.43 47.93 31.43 47.93"/><polygon class="cls-3" points="32.93 28.04 32.93 48.03 31.43 48.03 29.43 48.03 29.43 28.04 32.93 28.04"/><path class="cls-3" d="M42.84,56.34a2.83,2.83,0,0,0,3,1.59,8.64,8.64,0,0,1-2-2.25l-1.87-3a4.43,4.43,0,0,0-1.38-2.43,2.43,2.43,0,0,0,.56-.28c-1.22,0-2.43-.62-3.1-.62a.63.63,0,0,0-.7.59c0,.38.42.76,1.13.76a3.86,3.86,0,0,0,.6-.06,2.85,2.85,0,0,1,.7,1.73c0,1.31-1.57,2.33-3.15,2.33h-.26a3.54,3.54,0,0,1-.62-1.49c0-1,.68-1.89.68-2.92a1.93,1.93,0,0,0-.43-1.2,1.82,1.82,0,0,0,.46-.55,1.13,1.13,0,0,1-.44.06c-.76,0-1.38-.2-2-.2-.34,0-.44.11-.44.21a.24.24,0,0,0,0,.09,2,2,0,0,0-.39-.11,3.07,3.07,0,0,0-.57-.05c-.73,0-1,.31-1,.57a2.23,2.23,0,0,0,.37.94,2.24,2.24,0,0,1,.78-.24c.39,0,.73.37.92.81a3.55,3.55,0,0,1-.58,0,4.38,4.38,0,0,1-1.3-.26s0,0,0,0,.2.36.6.51a7.8,7.8,0,0,0,1.44.29.63.63,0,0,1-.28.32h-.09a6.55,6.55,0,0,1-1.4-.42s0,0,0,0c0,.27.71.88,1.35,1.11A7.14,7.14,0,0,0,32,54.7H31.7c-1.58,0-3.15-1-3.15-2.33a2.85,2.85,0,0,1,.7-1.73,3.86,3.86,0,0,0,.6.06c.72,0,1.11-.38,1.13-.76a.63.63,0,0,0-.7-.59c-.67,0-1.87.62-3.1.62a2.43,2.43,0,0,0,.56.28,4.43,4.43,0,0,0-1.38,2.43l-1.87,3a8.65,8.65,0,0,1-2,2.25,2.83,2.83,0,0,0,3-1.59l1-1.53a4.21,4.21,0,0,0,.26.58l-1.91,3.05a8.61,8.61,0,0,1-2,2.25,2.83,2.83,0,0,0,3-1.59l1.64-2.63c.12.13.25.26.39.38l-2.32,3.71a8.58,8.58,0,0,1-2,2.25,2.83,2.83,0,0,0,3-1.59l2.26-3.62.46.27-2.76,4.41a8.59,8.59,0,0,1-2,2.25,2.83,2.83,0,0,0,3-1.59l2.84-4.54.51.18-3.21,5.13a8.67,8.67,0,0,1-2,2.25,2.83,2.83,0,0,0,3-1.59l3.42-5.47.1,0a2.83,2.83,0,0,1,.16.85,6.16,6.16,0,0,1-2.48,4.41,1.08,1.08,0,0,0,.38.05,3.46,3.46,0,0,0,.59,0,14,14,0,0,1-1.33,2.11,9.87,9.87,0,0,0-1.51-.14c-.44,0-.49.26-.49.49a1.16,1.16,0,0,0,.41.9c.08-.21.25-.48,1.06-.48h.08c-.24.27-1,.87-1,1.36a.89.89,0,0,0,.82.8,1,1,0,0,1,0-.27,2.09,2.09,0,0,1,.64-1.18,1.41,1.41,0,0,0,0,.2c0,.93.08,1.36.68,1.36a.94.94,0,0,0,.56-.21,1.27,1.27,0,0,1-.4-1.15c0-.14,0-.27,0-.45a2.42,2.42,0,0,0,0-.39,2.7,2.7,0,0,1,.46,0s.84-.07,1,.37c.23-.21.56-.5.56-.83s-.1-.46-.53-.46c-.16,0-.68.1-1.11.1A10.81,10.81,0,0,1,32,64.74a1.24,1.24,0,0,0,.41.63,4.43,4.43,0,0,1,.79-2.12,10.36,10.36,0,0,1,.15,1.84c0,2.31-.56,4-1.74,4.35a1,1,0,0,0,.82.51c.43,0,.67-.49.91-.95.13.34.47,1.17.82,1.17s.69-.83.82-1.17c.24.46.48.95.91.95a1,1,0,0,0,.82-.51c-1.18-.33-1.74-2-1.74-4.35a10.38,10.38,0,0,1,.15-1.84,4.43,4.43,0,0,1,.79,2.12,1.24,1.24,0,0,0,.41-.63,10.89,10.89,0,0,1,1.08,1.56c-.43,0-.95-.1-1.11-.1-.43,0-.53.24-.53.46s.33.62.56.83c.2-.44,1-.37,1-.37a2.7,2.7,0,0,1,.46,0,2.48,2.48,0,0,0,0,.39c0,.18,0,.32,0,.45a1.27,1.27,0,0,1-.4,1.15.94.94,0,0,0,.56.21c.59,0,.68-.43.68-1.36a1.59,1.59,0,0,0,0-.2A2.09,2.09,0,0,1,39.29,69a1,1,0,0,1,0,.27.89.89,0,0,0,.82-.8c0-.49-.75-1.09-1-1.36h.08c.82,0,1,.27,1.06.48a1.16,1.16,0,0,0,.41-.9c0-.23,0-.49-.49-.49a9.89,9.89,0,0,0-1.51.14,14,14,0,0,1-1.33-2.11,3.46,3.46,0,0,0,.59,0,1.08,1.08,0,0,0,.38-.05,6.16,6.16,0,0,1-2.48-4.41,2.84,2.84,0,0,1,.16-.85l.1,0,3.42,5.47a2.83,2.83,0,0,0,3,1.59,8.65,8.65,0,0,1-2-2.25l-3.21-5.13.51-.18,2.84,4.54a2.83,2.83,0,0,0,3,1.59,8.58,8.58,0,0,1-2-2.25L39,57.88l.46-.27,2.26,3.62a2.82,2.82,0,0,0,3,1.59,8.6,8.6,0,0,1-2-2.25l-2.32-3.71c.14-.12.27-.25.39-.38l1.64,2.63a2.83,2.83,0,0,0,3,1.59,8.61,8.61,0,0,1-2-2.25l-1.91-3.05a4.2,4.2,0,0,0,.26-.58ZM27.53,52.83a3.34,3.34,0,0,1,1.12-2.3l.21,0A3,3,0,0,0,28,52.43c0,1.67,1.78,3.12,3.8,3.12,0,.14,0,.29,0,.45a6.14,6.14,0,0,0,0,.69A4.26,4.26,0,0,1,27.53,52.83ZM30.62,66.5v0h0a7.08,7.08,0,0,0,1.16-.08l.27,0c.17,0,.29,0,.29.22a.83.83,0,0,1-.32.48,1.43,1.43,0,0,0-1-.27,5.35,5.35,0,0,0-.68.06h-.05V67a3.5,3.5,0,0,1,0,.52V68a1.62,1.62,0,0,0,.27,1.09l-.18,0C30.08,69.11,30,69,30,68c0-.2,0-.38,0-.5v-.18l0,0a2.66,2.66,0,0,0-1.05,1.58.7.7,0,0,1-.31-.48c0-.28.42-.7.91-1.18l.28-.28,0,0-.09,0a2,2,0,0,0-.46-.08,1.41,1.41,0,0,0-1.1.33,1.15,1.15,0,0,1-.14-.51.29.29,0,0,1,.06-.2.26.26,0,0,1,.19,0h0a11.19,11.19,0,0,1,1.6.15h0a14.14,14.14,0,0,0,1.49-2.4.61.61,0,0,1,.25,0c.23,0,.29.15.35.38A7.78,7.78,0,0,0,30.62,66.5Zm6.17-2.39a.62.62,0,0,1,.25,0,14.18,14.18,0,0,0,1.49,2.4h0a11.18,11.18,0,0,1,1.6-.15h0a.26.26,0,0,1,.19,0,.29.29,0,0,1,.06.2,1.14,1.14,0,0,1-.14.51,1.41,1.41,0,0,0-1.1-.33,2,2,0,0,0-.46.08h-.09l.32.32c.49.49.91.9.91,1.18a.71.71,0,0,1-.31.48,2.67,2.67,0,0,0-1.05-1.58l0,0v.18c0,.12,0,.31,0,.5,0,1-.1,1.12-.44,1.12l-.18,0A1.63,1.63,0,0,0,38.06,68v-.45a3.57,3.57,0,0,1,0-.52v-.08h-.05a5.35,5.35,0,0,0-.68-.06,1.43,1.43,0,0,0-1,.27.83.83,0,0,1-.32-.48c0-.2.13-.22.29-.22l.27,0a7.07,7.07,0,0,0,1.16.08h0v0a7.8,7.8,0,0,0-1.32-2C36.51,64.26,36.57,64.11,36.8,64.11Zm-2.65-13.3a2.09,2.09,0,0,0-.42-.83,1.15,1.15,0,0,0-.86-.45,2.11,2.11,0,0,0-.67.16A1.81,1.81,0,0,1,32,49.1c0-.14.25-.29.71-.29,1,0,1.65.47,1.65,1.25A1.85,1.85,0,0,1,34.15,50.81Zm.46-1a1.36,1.36,0,0,0-.25-.59c0-.2.09-.39.41-.24-.18.18,0,.5,0,.5s.36-.17.29-.4C35.55,49.18,35.17,49.9,34.61,49.79Zm2,6.9a5.71,5.71,0,0,0,0-.69c0-.13,0-.28,0-.45,2,0,3.74-1.46,3.74-3.12a3,3,0,0,0-.86-1.85l.21,0a3.34,3.34,0,0,1,1.12,2.3A4.26,4.26,0,0,1,36.62,56.69Z" transform="translate(-22.52 -21.31)"/></g><g id="Benennung"><path class="cls-3" d="M67.29,55.11a2.19,2.19,0,0,1-.62,1.76,2.82,2.82,0,0,1-1.82.47h-2V49.18H65a2.31,2.31,0,0,1,1.61.47,2.06,2.06,0,0,1,.51,1.57,2.19,2.19,0,0,1-.26,1.18,1.59,1.59,0,0,1-1,.68,1.65,1.65,0,0,1,1.1.71A2.62,2.62,0,0,1,67.29,55.11Zm-1.11-3.83a1.31,1.31,0,0,0-.37-1.06,1.67,1.67,0,0,0-1.06-.27H63.8v2.79h1Q66.18,52.74,66.18,51.28Zm.12,3.79A1.76,1.76,0,0,0,66,53.88a1.45,1.45,0,0,0-1.14-.39h-1v3.1h.87a2,2,0,0,0,1.22-.28A1.49,1.49,0,0,0,66.31,55.07Zm6.34,2.28h-.89v-.72a1.62,1.62,0,0,1-1.44.81q-1.52,0-1.53-1.75v-4h.89v3.64a3.09,3.09,0,0,0,.11,1,.77.77,0,0,0,.79.49q1.12,0,1.12-1.66V51.65h.9V56.1Q72.6,56.76,72.65,57.35Zm5.46,0h-.89V53.71a3.29,3.29,0,0,0-.1-1,.75.75,0,0,0-.78-.5,1,1,0,0,0-.89.57,2.4,2.4,0,0,0-.26,1.15v3.42h-.89V52.9q0-.76,0-1.24h.88v.78a1.57,1.57,0,0,1,1.48-.9q1.5,0,1.5,1.77Zm5.43,0h-.87v-.66a1.51,1.51,0,0,1-1.33.75,1.49,1.49,0,0,1-1.5-1,5.89,5.89,0,0,1-.26-2,4.92,4.92,0,0,1,.3-2,1.45,1.45,0,0,1,1.44-.93,1.43,1.43,0,0,1,1.29.67v-3h.9v7.1C83.49,56.48,83.51,56.84,83.54,57.35Zm-.91-2.79a5.7,5.7,0,0,0-.17-1.66.93.93,0,0,0-1.82,0,5.25,5.25,0,0,0-.16,1.51,5.38,5.38,0,0,0,.18,1.64.87.87,0,0,0,.85.7.94.94,0,0,0,1-.71A5.14,5.14,0,0,0,82.62,54.56Zm6.23.07h-3V55A3.57,3.57,0,0,0,86,56.26a.86.86,0,0,0,.88.55q1,0,1-1.25h.88a1.73,1.73,0,0,1-1.91,1.9,1.69,1.69,0,0,1-1.63-.8A4.25,4.25,0,0,1,85,54.73a6,6,0,0,1,.28-2.17,1.71,1.71,0,0,1,1.74-1,1.6,1.6,0,0,1,1.63.9,5.27,5.27,0,0,1,.25,1.93Zm-.9-.61a4.18,4.18,0,0,0-.11-1.16.85.85,0,0,0-.87-.68q-.93,0-1.05,1.11a6.49,6.49,0,0,0,0,.73Zm5.48,1.77q0,1.66-1.79,1.66t-1.72-1.84h.89q0,.17,0,.32.08.89.84.89a.77.77,0,0,0,.86-.88,1,1,0,0,0-.27-.75,3.3,3.3,0,0,0-.76-.5,5.62,5.62,0,0,1-1-.63A1.36,1.36,0,0,1,90,53a1.34,1.34,0,0,1,.49-1.12,1.88,1.88,0,0,1,1.21-.36,1.63,1.63,0,0,1,1.25.41,1.93,1.93,0,0,1,.4,1.27H92.5q0-1.06-.8-1.06a.73.73,0,0,0-.55.21.79.79,0,0,0-.2.57.82.82,0,0,0,.33.66,4.6,4.6,0,0,0,.8.5,4.31,4.31,0,0,1,.95.63A1.5,1.5,0,0,1,93.43,55.79ZM101,57.35h-.89V53.52a2.43,2.43,0,0,0-.11-.88.66.66,0,0,0-.68-.42q-1,0-1,1.55v3.58h-.89V53.47a2.67,2.67,0,0,0-.09-.84.66.66,0,0,0-.69-.42.85.85,0,0,0-.78.5,2.4,2.4,0,0,0-.24,1.14v3.49h-.89V52.64q0-.51,0-1h.89v.75A1.44,1.44,0,0,1,97,51.53a1.21,1.21,0,0,1,1.27.87,1.55,1.55,0,0,1,1.41-.87,1.21,1.21,0,0,1,1.11.51,2.67,2.67,0,0,1,.29,1.43Zm2.62-7.08h-1v-1h1Zm0,7.08h-.89v-5.7h.89Zm5.5,0h-.89V53.71a3.29,3.29,0,0,0-.1-1,.76.76,0,0,0-.78-.5,1,1,0,0,0-.89.57,2.4,2.4,0,0,0-.26,1.15v3.42h-.89V52.9q0-.76,0-1.24h.88v.78a1.57,1.57,0,0,1,1.48-.9q1.5,0,1.5,1.77Zm2.62-7.08h-1v-1h1Zm0,7.08h-.89v-5.7h.89Zm4.84-1.56q0,1.66-1.79,1.66T113,55.61h.89q0,.17,0,.32.08.89.84.89a.77.77,0,0,0,.86-.88,1,1,0,0,0-.27-.75,3.3,3.3,0,0,0-.76-.5,5.7,5.7,0,0,1-1-.63,1.36,1.36,0,0,1-.43-1.05,1.35,1.35,0,0,1,.48-1.12,1.88,1.88,0,0,1,1.21-.36,1.63,1.63,0,0,1,1.26.41,1.93,1.93,0,0,1,.39,1.27h-.89q0-1.06-.8-1.06a.72.72,0,0,0-.55.21.78.78,0,0,0-.2.57.83.83,0,0,0,.33.66,4.67,4.67,0,0,0,.8.5,4.37,4.37,0,0,1,.95.63A1.5,1.5,0,0,1,116.53,55.79Zm3.55,1.56a6.41,6.41,0,0,1-.65,0,1.34,1.34,0,0,1-1.05-.33,1.77,1.77,0,0,1-.24-1.07V52.31h-.85v-.66h.85V50.6l.89-.4v1.45h1v.66h-1v3.58a1,1,0,0,0,.14.64.64.64,0,0,0,.51.16l.41,0Zm4.79-2.72h-3V55a3.57,3.57,0,0,0,.16,1.25.86.86,0,0,0,.88.55c.66,0,1-.42,1-1.25h.88a1.73,1.73,0,0,1-1.91,1.9,1.69,1.69,0,0,1-1.63-.8,4.23,4.23,0,0,1-.33-1.93,5.93,5.93,0,0,1,.28-2.17,1.71,1.71,0,0,1,1.74-1,1.61,1.61,0,0,1,1.63.9,5.28,5.28,0,0,1,.25,1.93ZM124,54a4.2,4.2,0,0,0-.11-1.16.85.85,0,0,0-.87-.68c-.62,0-1,.37-1.05,1.11a6.51,6.51,0,0,0,0,.73Zm4.7-1.62-.19,0a1.17,1.17,0,0,0-1,.4,1.61,1.61,0,0,0-.32,1.05v3.53h-.9V52.69c0-.38,0-.73,0-1h.88v.75a1.54,1.54,0,0,1,1.45-.86C128.64,51.54,128.67,51.83,128.67,52.4Zm2-2.14h-1v-1h1Zm0,7.08h-.89v-5.7h.89Zm5.55,0h-.89v-.72a1.62,1.62,0,0,1-1.44.81q-1.53,0-1.53-1.75v-4h.89v3.64a3,3,0,0,0,.11,1,.76.76,0,0,0,.79.49q1.12,0,1.12-1.66V51.65h.9V56.1Q136.14,56.76,136.19,57.35Zm7.91,0h-.89V53.52a2.46,2.46,0,0,0-.11-.88.66.66,0,0,0-.68-.42q-1,0-1,1.55v3.58h-.89V53.47a2.63,2.63,0,0,0-.09-.84.66.66,0,0,0-.69-.42.85.85,0,0,0-.78.5,2.4,2.4,0,0,0-.24,1.14v3.49h-.89V52.64q0-.51,0-1h.89v.75a1.44,1.44,0,0,1,1.35-.87,1.21,1.21,0,0,1,1.27.87,1.55,1.55,0,0,1,1.41-.87,1.21,1.21,0,0,1,1.11.51,2.67,2.67,0,0,1,.29,1.43Zm-79.2,4.5h-.35a.57.57,0,0,0-.57.31,1.91,1.91,0,0,0-.09.69v.82h1v.66h-1v5H63v-5h-.84v-.66H63V63a2.82,2.82,0,0,1,.23-1.32,1.26,1.26,0,0,1,1.22-.59l.45,0Zm5,7.5H69v-.72a1.62,1.62,0,0,1-1.44.81Q66,69.44,66,67.69v-4h.89v3.64a3,3,0,0,0,.11,1,.76.76,0,0,0,.79.49q1.12,0,1.12-1.66V63.65h.9V68.1Q69.83,68.76,69.88,69.35Zm-.63-7h-.86V61.26h.86Zm-1.77,0h-.84V61.26h.84Zm6.42,2.06-.19,0a1.17,1.17,0,0,0-1,.4,1.61,1.61,0,0,0-.32,1.05v3.53h-.9V64.69c0-.38,0-.73,0-1h.88v.75a1.54,1.54,0,0,1,1.45-.86C73.86,63.54,73.89,63.83,73.89,64.4Zm8.62-3.22-2.16,8.17H79.2l-2.12-8.17h1l1.72,7.28,1.75-7.28Zm4.34,5.45h-3V67A3.57,3.57,0,0,0,84,68.26a.86.86,0,0,0,.88.55q1,0,1-1.25h.88a1.73,1.73,0,0,1-1.91,1.9,1.69,1.69,0,0,1-1.63-.8A4.23,4.23,0,0,1,83,66.73a6,6,0,0,1,.28-2.17,1.71,1.71,0,0,1,1.74-1,1.6,1.6,0,0,1,1.63.9,5.27,5.27,0,0,1,.25,1.93Zm-.9-.61a4.19,4.19,0,0,0-.11-1.16.85.85,0,0,0-.87-.68q-.93,0-1.05,1.11a6.49,6.49,0,0,0,0,.73Zm4.7-1.62-.19,0a1.17,1.17,0,0,0-1,.4,1.61,1.61,0,0,0-.32,1.05v3.53h-.9V64.69q0-.58,0-1h.88v.75a1.54,1.54,0,0,1,1.45-.86C90.62,63.54,90.65,63.83,90.65,64.4Zm4.93,4.95H94.52l-1.88-3.19,1.71-2.51h1l-1.77,2.49Zm-3,0h-.89V61.18h.89Zm7.58-2.72h-3V67a3.57,3.57,0,0,0,.16,1.25.86.86,0,0,0,.88.55q1,0,1-1.25h.88a1.73,1.73,0,0,1-1.91,1.9,1.69,1.69,0,0,1-1.63-.8,4.23,4.23,0,0,1-.33-1.93,6,6,0,0,1,.28-2.17,1.71,1.71,0,0,1,1.74-1,1.6,1.6,0,0,1,1.63.9,5.27,5.27,0,0,1,.25,1.93Zm-.9-.61a4.15,4.15,0,0,0-.11-1.16.85.85,0,0,0-.87-.68q-.93,0-1.05,1.11a6.29,6.29,0,0,0,0,.73Zm6.15,3.33h-.89V65.71a3.36,3.36,0,0,0-.1-1,.76.76,0,0,0-.78-.5q-1.15,0-1.15,1.68v3.46h-.89V61.18h.89v3.13a1.69,1.69,0,0,1,1.43-.78q1.49,0,1.49,1.79Zm4.06-4.95-.19,0a1.17,1.17,0,0,0-1,.4,1.61,1.61,0,0,0-.32,1.05v3.53h-.9V64.69c0-.38,0-.73,0-1H108v.75a1.54,1.54,0,0,1,1.45-.86C109.46,63.54,109.49,63.83,109.49,64.4Zm7.66,4.95h-.89v-.72a1.62,1.62,0,0,1-1.44.81q-1.53,0-1.53-1.75v-4h.89v3.64a3,3,0,0,0,.11,1,.76.76,0,0,0,.79.49q1.12,0,1.12-1.66V63.65h.9V68.1C117.11,68.54,117.13,69,117.16,69.35Zm5.46,0h-.89V65.71a3.29,3.29,0,0,0-.1-1,.76.76,0,0,0-.78-.5,1,1,0,0,0-.89.57,2.4,2.4,0,0,0-.26,1.15v3.42h-.89V64.9q0-.76,0-1.24h.88v.78a1.57,1.57,0,0,1,1.48-.9q1.5,0,1.5,1.77Zm5.44,0h-.87v-.66a1.52,1.52,0,0,1-1.33.75,1.49,1.49,0,0,1-1.5-1,5.88,5.88,0,0,1-.26-2,4.91,4.91,0,0,1,.31-2,1.45,1.45,0,0,1,1.43-.93,1.43,1.43,0,0,1,1.29.67v-3h.9v7.1C128,68.48,128,68.84,128,69.35Zm-.92-2.79A5.78,5.78,0,0,0,127,64.9a.93.93,0,0,0-1.82,0,5.29,5.29,0,0,0-.16,1.51,5.38,5.38,0,0,0,.18,1.64.87.87,0,0,0,.85.7.94.94,0,0,0,1-.71A5.14,5.14,0,0,0,127.13,66.56ZM66.45,81.35h-.87v-.66a1.51,1.51,0,0,1-1.33.75,1.49,1.49,0,0,1-1.5-1,5.88,5.88,0,0,1-.26-2,4.92,4.92,0,0,1,.3-2,1.45,1.45,0,0,1,1.44-.93,1.43,1.43,0,0,1,1.29.67v-3h.9v7.1C66.41,80.48,66.42,80.84,66.45,81.35Zm-.92-2.79a5.7,5.7,0,0,0-.17-1.66.93.93,0,0,0-1.82,0,5.29,5.29,0,0,0-.16,1.51,5.42,5.42,0,0,0,.18,1.64.87.87,0,0,0,.85.7.94.94,0,0,0,1-.71A5.14,5.14,0,0,0,65.54,78.56ZM69,74.26H68v-1h1Zm0,7.08h-.89v-5.7H69Zm5.45-5.7c0,.08,0,.23,0,.45s0,.38,0,.5v5a2,2,0,0,1-.49,1.51,2.15,2.15,0,0,1-1.55.47q-1.76,0-1.79-1.65h.95q0,1,.88,1a.9.9,0,0,0,.92-.5,2.69,2.69,0,0,0,.16-1.08v-.77a1.53,1.53,0,0,1-1.32.67,1.45,1.45,0,0,1-1.46-.89,4.79,4.79,0,0,1-.26-1.83,5.65,5.65,0,0,1,.28-2.06,1.45,1.45,0,0,1,1.45-1,1.43,1.43,0,0,1,1.37.79v-.67Zm-.93,2.67a4.74,4.74,0,0,0-.16-1.42,1,1,0,0,0-1.85.09,6.35,6.35,0,0,0-.14,1.57,5,5,0,0,0,.14,1.4.86.86,0,0,0,.87.7,1,1,0,0,0,1-.85A6.16,6.16,0,0,0,73.5,78.32ZM77,74.26H76v-1h1Zm0,7.08h-.89v-5.7H77Zm3.89,0a6.39,6.39,0,0,1-.65,0,1.35,1.35,0,0,1-1.05-.33A1.77,1.77,0,0,1,78.9,80V76.31h-.85v-.66h.85V74.6l.89-.4v1.45h1v.66h-1v3.58a1.05,1.05,0,0,0,.14.64.64.64,0,0,0,.51.16l.41,0Zm4.64,0h-.87V80.6a1.77,1.77,0,0,1-1.53.84A1.38,1.38,0,0,1,82,81a1.91,1.91,0,0,1-.35-1.2,1.61,1.61,0,0,1,.93-1.63,5.26,5.26,0,0,1,2-.29V77.6a2.82,2.82,0,0,0-.11-1,.74.74,0,0,0-.77-.45,1,1,0,0,0-.68.23.78.78,0,0,0-.27.63v.06h-.89V77a1.31,1.31,0,0,1,.56-1.16,2.25,2.25,0,0,1,1.31-.34,1.67,1.67,0,0,1,1.37.47,2.21,2.21,0,0,1,.36,1.42v2.1Q85.44,80.56,85.49,81.35Zm-.94-2.2v-.68h-.23q-1.78,0-1.79,1.22t.84,1.1a1,1,0,0,0,.94-.54A2.25,2.25,0,0,0,84.56,79.15ZM88,81.35H87.1V73.18H88Zm5.36-2.72h-3V79a3.57,3.57,0,0,0,.16,1.25.86.86,0,0,0,.88.55q1,0,1-1.25h.88a1.73,1.73,0,0,1-1.91,1.9,1.69,1.69,0,0,1-1.63-.8,4.23,4.23,0,0,1-.33-1.93,6,6,0,0,1,.28-2.17,1.71,1.71,0,0,1,1.74-1,1.61,1.61,0,0,1,1.63.9,5.3,5.3,0,0,1,.25,1.93Zm-.9-.61a4.16,4.16,0,0,0-.11-1.16.85.85,0,0,0-.87-.68c-.62,0-1,.37-1.05,1.11a6.26,6.26,0,0,0,0,.73Zm6.16,3.33h-1V73.18h1Zm5.65,0h-.89V77.71a3.29,3.29,0,0,0-.1-1,.75.75,0,0,0-.78-.5,1,1,0,0,0-.89.57,2.4,2.4,0,0,0-.26,1.15v3.42h-.89V76.9q0-.76,0-1.24h.88v.78a1.57,1.57,0,0,1,1.48-.9q1.5,0,1.5,1.77Zm3.88-7.5h-.35a.57.57,0,0,0-.57.31,1.91,1.91,0,0,0-.09.69v.82h1v.66h-1v5h-.89v-5h-.84v-.66h.84V75a2.83,2.83,0,0,1,.23-1.32,1.26,1.26,0,0,1,1.22-.59l.45,0Zm3.49,2.55-.19,0a1.17,1.17,0,0,0-1,.4,1.61,1.61,0,0,0-.32,1.05v3.53h-.9V76.69c0-.38,0-.73,0-1h.88v.75a1.54,1.54,0,0,1,1.45-.86C111.59,75.54,111.62,75.83,111.62,76.4Zm4.46,4.95h-.87V80.6a1.77,1.77,0,0,1-1.53.84,1.38,1.38,0,0,1-1.12-.47,1.9,1.9,0,0,1-.35-1.2,1.61,1.61,0,0,1,.93-1.63,5.25,5.25,0,0,1,2-.29V77.6a2.83,2.83,0,0,0-.11-1,.74.74,0,0,0-.77-.45,1,1,0,0,0-.68.23.78.78,0,0,0-.27.63v.06h-.89V77a1.31,1.31,0,0,1,.56-1.16,2.25,2.25,0,0,1,1.31-.34,1.68,1.68,0,0,1,1.37.47,2.22,2.22,0,0,1,.36,1.42v2.1Q116,80.56,116.08,81.35Zm-.94-2.2v-.68h-.23q-1.78,0-1.79,1.22t.84,1.1a1,1,0,0,0,.94-.54A2.25,2.25,0,0,0,115.14,79.15Zm5.7.64q0,1.66-1.79,1.66t-1.72-1.84h.89q0,.17,0,.32.08.89.84.89a.77.77,0,0,0,.86-.88,1,1,0,0,0-.27-.75,3.3,3.3,0,0,0-.76-.5,5.66,5.66,0,0,1-1-.63,1.36,1.36,0,0,1-.43-1.05,1.34,1.34,0,0,1,.49-1.12,1.88,1.88,0,0,1,1.21-.36,1.63,1.63,0,0,1,1.25.41,1.92,1.92,0,0,1,.39,1.27h-.89q0-1.06-.8-1.06a.73.73,0,0,0-.55.21.79.79,0,0,0-.2.57.82.82,0,0,0,.33.66,4.67,4.67,0,0,0,.8.5,4.37,4.37,0,0,1,.95.63A1.51,1.51,0,0,1,120.84,79.79Zm3.55,1.56a6.38,6.38,0,0,1-.65,0,1.35,1.35,0,0,1-1.05-.33,1.77,1.77,0,0,1-.24-1.07V76.31h-.85v-.66h.85V74.6l.89-.4v1.45h1v.66h-1v3.58a1.06,1.06,0,0,0,.14.64.64.64,0,0,0,.51.16l.41,0Zm3.49-4.95-.19,0a1.17,1.17,0,0,0-1,.4,1.61,1.61,0,0,0-.32,1.05v3.53h-.9V76.69c0-.38,0-.73,0-1h.88v.75a1.54,1.54,0,0,1,1.45-.86C127.85,75.54,127.88,75.83,127.88,76.4Zm4.94,4.95h-.89v-.72a1.62,1.62,0,0,1-1.44.81q-1.53,0-1.53-1.75v-4h.89v3.64a3,3,0,0,0,.11,1,.76.76,0,0,0,.79.49q1.12,0,1.12-1.66V75.65h.9V80.1Q132.77,80.76,132.82,81.35Zm5.49,0h-1.05l-1.87-3.19,1.71-2.51h1l-1.78,2.49Zm-3,0h-.89V73.18h.89Zm6.11,0a6.44,6.44,0,0,1-.66,0,1.35,1.35,0,0,1-1.05-.33,1.77,1.77,0,0,1-.24-1.07V76.31h-.85v-.66h.85V74.6l.89-.4v1.45h1v.66h-1v3.58a1.06,1.06,0,0,0,.14.64.64.64,0,0,0,.51.16l.41,0Zm5,0h-.89v-.72a1.62,1.62,0,0,1-1.44.81q-1.52,0-1.53-1.75v-4h.89v3.64a3.09,3.09,0,0,0,.11,1,.77.77,0,0,0,.79.49q1.12,0,1.12-1.66V75.65h.9V80.1Q146.4,80.76,146.45,81.35Zm4-4.95-.19,0a1.17,1.17,0,0,0-1,.4,1.61,1.61,0,0,0-.32,1.05v3.53h-.9V76.69c0-.38,0-.73,0-1h.88v.75a1.54,1.54,0,0,1,1.45-.86C150.43,75.54,150.46,75.83,150.46,76.4Z" transform="translate(-22.52 -21.31)"/></g><g id="Foerderzusatz"><path class="cls-3" d="M29,22.73a2.71,2.71,0,0,0-1.39-.35c-1.39,0-2.75.91-2.75,3.27s1.06,3.41,2.56,3.41a3.66,3.66,0,0,0,1.31-.23V26.56L28,26.4c-.11,0-.16-.06-.16-.13a1,1,0,0,1,.13-.34h2.6a.92.92,0,0,1,0,.13c0,.18-.1.32-.39.4l-.26.07v2.38a4.09,4.09,0,0,1-2.83.89c-2,0-3.58-1.24-3.58-4a3.9,3.9,0,0,1,4.09-4.13,4.49,4.49,0,0,1,2.19.51c0,.34.07,1,.07,1.14,0,.35-.1.58-.4.58a1,1,0,0,1-.26,0Zm3.56,4.19c0,1.41.68,2.07,1.66,2.07a2.05,2.05,0,0,0,1.42-.52.57.57,0,0,1,.17.39c0,.29-.75.93-2,.93S31.35,29,31.35,27s1.2-3,2.5-3a1.77,1.77,0,0,1,1.94,1.93,4.05,4.05,0,0,1-.14,1Zm2-.6a2.39,2.39,0,0,0,.06-.49c0-.63-.23-1.16-.89-1.16s-1.07.54-1.15,1.65ZM40,24.78H38.57V29l.77.15c.11,0,.16.06.16.15a.64.64,0,0,1-.11.32H36.67a.86.86,0,0,1,0-.1c0-.21.14-.3.35-.38L37.4,29V24.78h-.84a.9.9,0,0,1,0-.1c0-.22.14-.33.35-.39l.5-.14V24c0-1.84,1.12-2.72,2.1-2.72.57,0,.8.25.8.6a.59.59,0,0,1-.34.54,1.1,1.1,0,0,0-.75-.33c-.49,0-.66.27-.66.95,0,.35,0,1.08,0,1.08h1.52Zm5.87,2.07a2.73,2.73,0,0,1-2.77,2.94A2.53,2.53,0,0,1,40.46,27a2.77,2.77,0,0,1,2.82-3C44.7,24,45.83,24.87,45.83,26.85Zm-3.7-3.62a.6.6,0,0,1-.62-.62.61.61,0,0,1,.62-.64.6.6,0,0,1,.62.64A.59.59,0,0,1,42.12,23.23Zm-.44,3.67c0,1.53.62,2.21,1.46,2.21s1.47-.66,1.47-2.19-.63-2.23-1.47-2.23S41.68,25.36,41.68,26.9Zm2.51-3.67a.6.6,0,0,1-.63-.62.62.62,0,1,1,1.23,0A.59.59,0,0,1,44.19,23.23Zm4.29,1.83h0c.24-.39.66-1,1.4-1,.54,0,.79.25.79.6a1,1,0,0,1-.21.58,1.75,1.75,0,0,0-.76-.17,1.32,1.32,0,0,0-1.19.58V29l.82.15c.11,0,.16.06.16.15a.78.78,0,0,1-.11.32H46.65a.9.9,0,0,1,0-.1c0-.21.14-.3.35-.38l.4-.14V24.83l-.81-.13a.89.89,0,0,1,0-.11c0-.19.15-.33.42-.35l1.55-.15ZM56,29l.83.11a.44.44,0,0,1,0,.09c0,.21-.15.34-.42.36l-1.5.14V29h0a1.88,1.88,0,0,1-1.62.81c-1.12,0-2.17-.72-2.17-2.7A2.86,2.86,0,0,1,54.07,24a3.52,3.52,0,0,1,.81.1v-2L54.07,22a1.2,1.2,0,0,1,0-.12c0-.19.15-.33.42-.35L56,21.38Zm-1.15-4a1.37,1.37,0,0,0-1-.34c-.92,0-1.61.66-1.61,2.17s.64,2.06,1.4,2.06a1.48,1.48,0,0,0,1.16-.48Zm3.85,1.88c0,1.41.68,2.07,1.66,2.07a2.05,2.05,0,0,0,1.42-.52.57.57,0,0,1,.17.39c0,.29-.75.93-2,.93S57.52,29,57.52,27s1.2-3,2.5-3A1.77,1.77,0,0,1,62,25.94a4.05,4.05,0,0,1-.14,1Zm2-.6a2.39,2.39,0,0,0,.06-.49c0-.63-.23-1.16-.89-1.16s-1.07.54-1.15,1.65Zm3.92-1.25h0c.24-.39.66-1,1.4-1,.54,0,.79.25.79.6a1,1,0,0,1-.21.58A1.75,1.75,0,0,0,65.9,25a1.32,1.32,0,0,0-1.19.58V29l.82.15c.11,0,.16.06.16.15a.78.78,0,0,1-.11.32H62.83a.9.9,0,0,1,0-.1c0-.21.14-.3.35-.38l.4-.14V24.83l-.81-.13a.9.9,0,0,1,0-.11c0-.19.15-.33.42-.35l1.55-.15Zm6.05-.28H69.14v3.33c0,.51.16.93.73.93a1.58,1.58,0,0,0,.9-.27.84.84,0,0,1,.1.38c0,.11-.4.65-1.44.65A1.31,1.31,0,0,1,68,28.31V24.78h-.86a.89.89,0,0,1,0-.1.38.38,0,0,1,.35-.39l.56-.14.26-1.54h.84v1.54h1.69Zm8,4.24.83.11a.44.44,0,0,1,0,.09c0,.21-.15.34-.42.36l-1.5.14V29h0a1.88,1.88,0,0,1-1.62.81c-1.12,0-2.17-.72-2.17-2.7A2.86,2.86,0,0,1,76.74,24a3.52,3.52,0,0,1,.81.1v-2L76.74,22a1.2,1.2,0,0,1,0-.12c0-.19.15-.33.42-.35l1.55-.15Zm-1.15-4a1.37,1.37,0,0,0-1-.34c-.92,0-1.61.66-1.61,2.17s.64,2.06,1.4,2.06a1.48,1.48,0,0,0,1.16-.48Zm7.73,4,.83.11a.44.44,0,0,1,0,.09c0,.21-.15.34-.42.36l-1.5.14V29h0a2,2,0,0,1-1.69.82c-1.22,0-1.79-.72-1.79-2.06V24.83l-.81-.13a.9.9,0,0,1,0-.11c0-.19.15-.33.42-.35l1.55-.15v3.59c0,1,.55,1.28,1,1.28a1.57,1.57,0,0,0,1.23-.55V24.83l-.81-.13a.89.89,0,0,1,0-.11c0-.19.15-.33.42-.35l1.55-.15Zm3.23-4h0c.24-.39.66-1,1.4-1,.54,0,.79.25.79.6a1,1,0,0,1-.2.58,1.75,1.75,0,0,0-.76-.17,1.32,1.32,0,0,0-1.19.58V29l.82.15c.11,0,.16.06.16.15a.78.78,0,0,1-.11.32H86.69a.89.89,0,0,1,0-.1c0-.21.14-.3.35-.38l.4-.14V24.83l-.81-.13a.9.9,0,0,1,0-.11c0-.19.15-.33.42-.35l1.55-.15Zm5.31-.36c-.76,0-1.42.55-1.42,2S93,29,94,29a1.78,1.78,0,0,0,1.3-.55.67.67,0,0,1,.18.39c0,.28-.63.95-1.88.95-1.48,0-2.44-.93-2.44-2.82A2.74,2.74,0,0,1,94,24c1.25,0,1.57.62,1.57.95a.66.66,0,0,1-.58.68A1.25,1.25,0,0,0,93.82,24.7Zm4.23.14h0A2.22,2.22,0,0,1,99.83,24c1.14,0,1.79.67,1.79,2v3l.66.15c.11,0,.16.06.16.15a.77.77,0,0,1-.11.32H99.74a.9.9,0,0,1,0-.1c0-.21.14-.31.35-.38l.38-.14V26.16c0-1-.52-1.27-1.11-1.27a1.71,1.71,0,0,0-1.3.52V29l.64.15c.11,0,.16.06.16.15a.65.65,0,0,1-.11.32H96.15a.86.86,0,0,1,0-.1c0-.21.14-.31.35-.38l.4-.14V22.12L96.08,22a1.15,1.15,0,0,1,0-.12c0-.19.15-.33.42-.35l1.56-.15Zm5.86.58a.7.7,0,1,1,0-1.4.7.7,0,1,1,0,1.4Zm0,4.39a.7.7,0,1,1,0-1.4.7.7,0,1,1,0,1.4Z" transform="translate(-22.52 -21.31)"/></g></svg>