<?xml version="1.0" encoding="utf-8"?>
<!-- Generator: Adobe Illustrator 21.0.0, SVG Export Plug-In . SVG Version: 6.00 Build 0)  -->
<svg version="1.1" xmlns="http://www.w3.org/2000/svg" xmlns:xlink="http://www.w3.org/1999/xlink" x="0px" y="0px"
	 viewBox="0 0 154 104" style="enable-background:new 0 0 154 104;" xml:space="preserve">
<style type="text/css">
	.st0{fill:#FFFFFF;}
</style>
<g id="Hintergrund">
	<rect x="-236.7" class="st0" width="174" height="104"/>
</g>
<g id="Name">
	<path d="M57.4,36.8c0,0.3,0,0.5-0.1,0.7c-0.1,0.2-0.2,0.4-0.3,0.6c-0.1,0.2-0.3,0.3-0.4,0.4c-0.2,0.1-0.3,0.2-0.5,0.2v0
		c0.2,0,0.4,0.1,0.6,0.2c0.2,0.1,0.3,0.2,0.5,0.4c0.1,0.2,0.2,0.4,0.3,0.6c0.1,0.2,0.1,0.5,0.1,0.7c0,0.3-0.1,0.6-0.2,0.9
		c-0.1,0.3-0.3,0.5-0.5,0.7c-0.2,0.2-0.5,0.4-0.9,0.5c-0.4,0.1-0.8,0.2-1.3,0.2h-1.7v-8.2h1.6c0.5,0,0.9,0,1.2,0.1
		c0.3,0.1,0.6,0.2,0.9,0.4c0.2,0.2,0.4,0.4,0.5,0.7C57.3,36.2,57.4,36.4,57.4,36.8z M56.3,36.8c0-0.4-0.1-0.7-0.4-0.9
		c-0.3-0.2-0.7-0.4-1.3-0.4h-0.5v2.8h0.5c0.6,0,1-0.1,1.3-0.4C56.2,37.6,56.3,37.3,56.3,36.8z M56.5,40.6c0-0.4-0.1-0.8-0.4-1.1
		c-0.3-0.3-0.7-0.4-1.2-0.4h-0.7V42h0.6c0.6,0,1.1-0.1,1.3-0.4C56.3,41.4,56.5,41.1,56.5,40.6z M62.9,42.9H62v-0.6h0
		c0,0-0.1,0.1-0.2,0.2c-0.1,0.1-0.2,0.2-0.3,0.3c-0.1,0.1-0.3,0.2-0.4,0.2S60.7,43,60.5,43c-0.3,0-0.5,0-0.7-0.1
		c-0.2-0.1-0.4-0.2-0.5-0.4c-0.1-0.2-0.3-0.4-0.3-0.6c-0.1-0.3-0.1-0.6-0.1-1v-3.7h1v3.7c0,0.5,0.1,0.8,0.2,1
		c0.2,0.2,0.4,0.3,0.7,0.3c0.3,0,0.5-0.1,0.7-0.2c0.2-0.1,0.3-0.3,0.5-0.4v-4.4h1V42.9z M67.4,42.9v-3.7c0-0.5-0.1-0.8-0.2-1
		c-0.2-0.2-0.4-0.3-0.7-0.3c-0.3,0-0.5,0.1-0.7,0.2s-0.3,0.3-0.5,0.4v4.4h-1v-5.7h0.9v0.6h0c0,0,0.1-0.1,0.2-0.2
		c0.1-0.1,0.2-0.2,0.3-0.3c0.1-0.1,0.3-0.2,0.5-0.2c0.2-0.1,0.4-0.1,0.6-0.1c0.3,0,0.5,0,0.7,0.1c0.2,0.1,0.4,0.2,0.5,0.4
		c0.1,0.2,0.3,0.4,0.3,0.6c0.1,0.3,0.1,0.6,0.1,1v3.7H67.4z M69.6,40.1c0-0.6,0.1-1.1,0.2-1.5c0.2-0.4,0.3-0.7,0.6-0.9
		s0.5-0.4,0.8-0.5c0.3-0.1,0.6-0.1,0.9-0.1c0.2,0,0.3,0,0.5,0c0.1,0,0.2,0.1,0.3,0.1v-2.7l1-0.1v8.5H73v-0.6h0c0,0-0.1,0.1-0.1,0.2
		c-0.1,0.1-0.2,0.2-0.3,0.2c-0.1,0.1-0.2,0.2-0.4,0.2C72,43,71.8,43,71.6,43c-0.3,0-0.5-0.1-0.8-0.2c-0.2-0.1-0.5-0.3-0.6-0.5
		c-0.2-0.2-0.3-0.5-0.4-0.9C69.6,41.1,69.6,40.6,69.6,40.1z M71.8,42.2c0.2,0,0.3,0,0.4-0.1c0.1,0,0.2-0.1,0.3-0.1
		c0.1-0.1,0.2-0.1,0.2-0.2c0.1-0.1,0.1-0.1,0.1-0.2v-3.5c-0.1-0.1-0.2-0.1-0.3-0.1c-0.1,0-0.3-0.1-0.4-0.1c-0.2,0-0.4,0-0.6,0.1
		c-0.2,0.1-0.4,0.2-0.5,0.4s-0.3,0.4-0.3,0.7c-0.1,0.3-0.1,0.6-0.1,1c0,0.4,0,0.7,0.1,1c0.1,0.3,0.2,0.5,0.3,0.6
		c0.1,0.2,0.3,0.3,0.4,0.4C71.5,42.1,71.7,42.2,71.8,42.2z M79,39.1c0,0.2,0,0.5,0,0.6c0,0.2,0,0.3,0,0.5H76c0,0.7,0.2,1.2,0.4,1.5
		c0.3,0.3,0.6,0.5,1.1,0.5c0.2,0,0.3,0,0.5-0.1c0.1,0,0.3-0.1,0.4-0.1c0.1-0.1,0.2-0.1,0.2-0.2c0.1-0.1,0.1-0.1,0.1-0.1l0.4,0.7
		c0,0-0.1,0.1-0.2,0.2c-0.1,0.1-0.2,0.2-0.3,0.2c-0.1,0.1-0.3,0.1-0.5,0.2C77.9,43,77.7,43,77.4,43c-0.4,0-0.7-0.1-1-0.2
		c-0.3-0.1-0.5-0.3-0.7-0.6s-0.4-0.6-0.5-1c-0.1-0.4-0.2-0.8-0.2-1.4c0-0.5,0.1-0.9,0.2-1.3c0.1-0.4,0.3-0.7,0.5-0.9
		c0.2-0.2,0.4-0.4,0.7-0.5c0.3-0.1,0.5-0.2,0.8-0.2c0.5,0,1,0.2,1.3,0.5S79,38.4,79,39.1z M77.2,37.8c-0.3,0-0.6,0.1-0.8,0.4
		c-0.2,0.3-0.3,0.7-0.4,1.2h2.1c0,0,0-0.1,0-0.2c0-0.1,0-0.2,0-0.2c0-0.4-0.1-0.7-0.2-0.9C77.7,37.9,77.5,37.8,77.2,37.8z
		 M82.8,38.3c-0.1-0.1-0.2-0.2-0.3-0.3c-0.2-0.1-0.4-0.2-0.7-0.2c-0.3,0-0.4,0.1-0.6,0.2c-0.1,0.1-0.2,0.3-0.2,0.4
		c0,0.2,0.1,0.4,0.2,0.5c0.1,0.1,0.3,0.3,0.6,0.4l0.4,0.2c0.4,0.2,0.7,0.5,0.9,0.7c0.2,0.3,0.3,0.6,0.3,1c0,0.5-0.2,0.8-0.5,1.1
		c-0.3,0.3-0.8,0.5-1.4,0.5c-0.2,0-0.4,0-0.6-0.1s-0.3-0.1-0.5-0.2c-0.1-0.1-0.2-0.1-0.3-0.2c-0.1-0.1-0.2-0.1-0.2-0.2l0.5-0.8
		c0,0,0.1,0.1,0.2,0.2c0.1,0.1,0.1,0.1,0.2,0.2c0.1,0.1,0.2,0.1,0.3,0.1c0.1,0,0.3,0.1,0.4,0.1c0.3,0,0.5-0.1,0.7-0.2
		c0.2-0.1,0.2-0.3,0.2-0.5c0-0.1,0-0.3-0.1-0.4c0-0.1-0.1-0.2-0.2-0.3c-0.1-0.1-0.2-0.2-0.3-0.2c-0.1-0.1-0.2-0.2-0.4-0.2l-0.4-0.2
		c-0.4-0.2-0.6-0.5-0.8-0.7c-0.2-0.3-0.3-0.6-0.3-1c0-0.2,0-0.4,0.1-0.6c0.1-0.2,0.2-0.3,0.4-0.5c0.2-0.1,0.3-0.2,0.5-0.3
		c0.2-0.1,0.4-0.1,0.6-0.1c0.2,0,0.4,0,0.6,0.1c0.2,0,0.3,0.1,0.4,0.2c0.1,0.1,0.2,0.1,0.3,0.2c0.1,0.1,0.1,0.1,0.2,0.2L82.8,38.3z
		 M87.5,42.9v-3.7c0-0.5-0.1-0.8-0.2-1c-0.1-0.2-0.4-0.3-0.7-0.3c-0.2,0-0.3,0-0.4,0.1c-0.1,0-0.2,0.1-0.3,0.1
		c-0.1,0.1-0.2,0.1-0.2,0.2c-0.1,0.1-0.1,0.1-0.2,0.2v4.4h-1v-5.7h0.9v0.6h0c0-0.1,0.1-0.1,0.2-0.2c0.1-0.1,0.2-0.2,0.3-0.3
		c0.1-0.1,0.3-0.2,0.4-0.2s0.3-0.1,0.5-0.1c0.7,0,1.1,0.3,1.4,0.8c0.1-0.1,0.1-0.2,0.2-0.3c0.1-0.1,0.2-0.2,0.3-0.2
		c0.1-0.1,0.3-0.1,0.4-0.2s0.3-0.1,0.5-0.1c1.2,0,1.7,0.7,1.7,2v3.8h-1v-3.7c0-0.5-0.1-0.8-0.2-1c-0.2-0.2-0.4-0.3-0.7-0.3
		c-0.3,0-0.5,0.1-0.7,0.2c-0.2,0.1-0.3,0.3-0.4,0.4c0,0.1,0,0.2,0,0.3c0,0.1,0,0.2,0,0.3v3.8H87.5z M93.8,42.9h-1v-5.7h1V42.9z
		 M93.4,35.8c-0.2,0-0.4-0.1-0.5-0.2c-0.1-0.1-0.2-0.3-0.2-0.5c0-0.2,0.1-0.4,0.2-0.5c0.1-0.1,0.3-0.2,0.5-0.2
		c0.2,0,0.3,0.1,0.5,0.2c0.1,0.1,0.2,0.3,0.2,0.5c0,0.2-0.1,0.4-0.2,0.5C93.7,35.7,93.6,35.8,93.4,35.8z M98.4,42.9v-3.7
		c0-0.5-0.1-0.8-0.2-1c-0.2-0.2-0.4-0.3-0.7-0.3c-0.3,0-0.5,0.1-0.7,0.2s-0.3,0.3-0.5,0.4v4.4h-1v-5.7h0.9v0.6h0
		c0,0,0.1-0.1,0.2-0.2c0.1-0.1,0.2-0.2,0.3-0.3c0.1-0.1,0.3-0.2,0.5-0.2c0.2-0.1,0.4-0.1,0.6-0.1c0.3,0,0.5,0,0.7,0.1
		c0.2,0.1,0.4,0.2,0.5,0.4s0.3,0.4,0.3,0.6c0.1,0.3,0.1,0.6,0.1,1v3.7H98.4z M101.8,42.9h-1v-5.7h1V42.9z M101.3,35.8
		c-0.2,0-0.4-0.1-0.5-0.2s-0.2-0.3-0.2-0.5c0-0.2,0.1-0.4,0.2-0.5s0.3-0.2,0.5-0.2c0.2,0,0.3,0.1,0.5,0.2c0.1,0.1,0.2,0.3,0.2,0.5
		c0,0.2-0.1,0.4-0.2,0.5C101.7,35.7,101.5,35.8,101.3,35.8z M105.7,38.3c-0.1-0.1-0.2-0.2-0.3-0.3c-0.2-0.1-0.4-0.2-0.7-0.2
		c-0.3,0-0.4,0.1-0.6,0.2c-0.1,0.1-0.2,0.3-0.2,0.4c0,0.2,0.1,0.4,0.2,0.5c0.1,0.1,0.3,0.3,0.6,0.4l0.4,0.2c0.4,0.2,0.7,0.5,0.9,0.7
		c0.2,0.3,0.3,0.6,0.3,1c0,0.5-0.2,0.8-0.5,1.1c-0.3,0.3-0.8,0.5-1.4,0.5c-0.2,0-0.4,0-0.6-0.1s-0.3-0.1-0.5-0.2
		c-0.1-0.1-0.2-0.1-0.3-0.2c-0.1-0.1-0.2-0.1-0.2-0.2l0.5-0.8c0,0,0.1,0.1,0.2,0.2c0.1,0.1,0.1,0.1,0.2,0.2c0.1,0.1,0.2,0.1,0.3,0.1
		c0.1,0,0.3,0.1,0.4,0.1c0.3,0,0.5-0.1,0.7-0.2s0.2-0.3,0.2-0.5c0-0.1,0-0.3-0.1-0.4c0-0.1-0.1-0.2-0.2-0.3
		c-0.1-0.1-0.2-0.2-0.3-0.2c-0.1-0.1-0.2-0.2-0.4-0.2l-0.4-0.2c-0.4-0.2-0.6-0.5-0.8-0.7c-0.2-0.3-0.3-0.6-0.3-1
		c0-0.2,0-0.4,0.1-0.6c0.1-0.2,0.2-0.3,0.4-0.5c0.2-0.1,0.3-0.2,0.5-0.3c0.2-0.1,0.4-0.1,0.6-0.1c0.2,0,0.4,0,0.6,0.1
		c0.2,0,0.3,0.1,0.4,0.2c0.1,0.1,0.2,0.1,0.3,0.2c0.1,0.1,0.1,0.1,0.2,0.2L105.7,38.3z M109.9,37.9h-1.2v3.2c0,0.4,0.1,0.7,0.2,0.8
		c0.1,0.1,0.3,0.2,0.5,0.2c0.1,0,0.3,0,0.4-0.1c0.1,0,0.2-0.1,0.2-0.1l0.1,0.8c0,0-0.1,0.1-0.3,0.1c-0.2,0.1-0.4,0.1-0.6,0.1
		c-0.5,0-0.9-0.1-1.1-0.4c-0.2-0.3-0.4-0.7-0.4-1.4v-3.3H107v-0.6l0.7-0.1l0.1-1.6h0.9v1.6h1.4L109.9,37.9z M114.6,39.1
		c0,0.2,0,0.5,0,0.6c0,0.2,0,0.3,0,0.5h-2.9c0,0.7,0.2,1.2,0.4,1.5c0.3,0.3,0.6,0.5,1.1,0.5c0.2,0,0.3,0,0.5-0.1
		c0.1,0,0.3-0.1,0.4-0.1c0.1-0.1,0.2-0.1,0.2-0.2c0.1-0.1,0.1-0.1,0.1-0.1l0.4,0.7c0,0-0.1,0.1-0.2,0.2c-0.1,0.1-0.2,0.2-0.3,0.2
		c-0.1,0.1-0.3,0.1-0.5,0.2S113.2,43,113,43c-0.4,0-0.7-0.1-1-0.2c-0.3-0.1-0.5-0.3-0.7-0.6c-0.2-0.2-0.4-0.6-0.5-1
		c-0.1-0.4-0.2-0.8-0.2-1.4c0-0.5,0.1-0.9,0.2-1.3c0.1-0.4,0.3-0.7,0.5-0.9c0.2-0.2,0.4-0.4,0.7-0.5c0.3-0.1,0.5-0.2,0.8-0.2
		c0.5,0,1,0.2,1.3,0.5C114.4,37.9,114.6,38.4,114.6,39.1z M112.7,37.8c-0.3,0-0.6,0.1-0.8,0.4c-0.2,0.3-0.3,0.7-0.4,1.2h2.1
		c0,0,0-0.1,0-0.2c0-0.1,0-0.2,0-0.2c0-0.4-0.1-0.7-0.2-0.9C113.3,37.9,113.1,37.8,112.7,37.8z M118.4,38c0,0-0.1,0-0.2-0.1
		c-0.1,0-0.2,0-0.3,0c-0.3,0-0.5,0.1-0.7,0.2c-0.2,0.2-0.3,0.3-0.4,0.5v4.2h-1v-5.7h0.9v0.8h0c0-0.1,0.1-0.2,0.2-0.3
		c0.1-0.1,0.1-0.2,0.2-0.3c0.1-0.1,0.2-0.1,0.3-0.2c0.1,0,0.3-0.1,0.5-0.1c0.1,0,0.2,0,0.3,0c0.1,0,0.1,0,0.2,0.1L118.4,38z
		 M120.3,42.9h-1v-5.7h1V42.9z M119.8,35.8c-0.2,0-0.4-0.1-0.5-0.2c-0.1-0.1-0.2-0.3-0.2-0.5c0-0.2,0.1-0.4,0.2-0.5
		c0.1-0.1,0.3-0.2,0.5-0.2c0.2,0,0.3,0.1,0.5,0.2c0.1,0.1,0.2,0.3,0.2,0.5c0,0.2-0.1,0.4-0.2,0.5C120.1,35.7,120,35.8,119.8,35.8z
		 M125.7,42.9h-0.9v-0.6h0c0,0-0.1,0.1-0.2,0.2c-0.1,0.1-0.2,0.2-0.3,0.3c-0.1,0.1-0.3,0.2-0.4,0.2c-0.2,0.1-0.4,0.1-0.6,0.1
		c-0.3,0-0.5,0-0.7-0.1c-0.2-0.1-0.4-0.2-0.5-0.4c-0.1-0.2-0.3-0.4-0.3-0.6c-0.1-0.3-0.1-0.6-0.1-1v-3.7h1v3.7c0,0.5,0.1,0.8,0.2,1
		c0.2,0.2,0.4,0.3,0.7,0.3c0.3,0,0.5-0.1,0.7-0.2c0.2-0.1,0.3-0.3,0.5-0.4v-4.4h1V42.9z M130.2,42.9v-3.7c0-0.5-0.1-0.8-0.2-1
		c-0.1-0.2-0.4-0.3-0.7-0.3c-0.2,0-0.3,0-0.4,0.1c-0.1,0-0.2,0.1-0.3,0.1c-0.1,0.1-0.2,0.1-0.2,0.2s-0.1,0.1-0.2,0.2v4.4h-1v-5.7
		h0.9v0.6h0c0-0.1,0.1-0.1,0.2-0.2c0.1-0.1,0.2-0.2,0.3-0.3c0.1-0.1,0.3-0.2,0.4-0.2c0.2-0.1,0.3-0.1,0.5-0.1c0.7,0,1.1,0.3,1.4,0.8
		c0.1-0.1,0.1-0.2,0.2-0.3c0.1-0.1,0.2-0.2,0.3-0.2c0.1-0.1,0.3-0.1,0.4-0.2c0.2,0,0.3-0.1,0.5-0.1c1.2,0,1.7,0.7,1.7,2v3.8h-1v-3.7
		c0-0.5-0.1-0.8-0.2-1c-0.2-0.2-0.4-0.3-0.7-0.3c-0.3,0-0.5,0.1-0.7,0.2c-0.2,0.1-0.3,0.3-0.4,0.4c0,0.1,0,0.2,0,0.3
		c0,0.1,0,0.2,0,0.3v3.8H130.2z M55.3,49.9h-1.2v4.9h-1v-4.9h-0.7v-0.6l0.7-0.1V48c0-0.3,0-0.6,0.1-0.8s0.2-0.4,0.3-0.5
		c0.1-0.1,0.3-0.2,0.5-0.3s0.4-0.1,0.6-0.1c0.2,0,0.4,0,0.5,0.1s0.2,0.1,0.3,0.1l-0.2,0.8c0,0-0.1-0.1-0.2-0.1
		c-0.1,0-0.2-0.1-0.3-0.1c-0.2,0-0.4,0.1-0.5,0.2c-0.1,0.1-0.2,0.4-0.2,0.8v1h1.3L55.3,49.9z M60.2,54.9h-0.9v-0.6h0
		c0,0-0.1,0.1-0.2,0.2c-0.1,0.1-0.2,0.2-0.3,0.3c-0.1,0.1-0.3,0.2-0.4,0.2S58,55,57.8,55c-0.3,0-0.5,0-0.7-0.1
		c-0.2-0.1-0.4-0.2-0.5-0.4c-0.1-0.2-0.3-0.4-0.3-0.6c-0.1-0.3-0.1-0.6-0.1-1v-3.7h1v3.7c0,0.5,0.1,0.8,0.2,1
		c0.2,0.2,0.4,0.3,0.7,0.3c0.3,0,0.5-0.1,0.7-0.2c0.2-0.1,0.3-0.3,0.5-0.4v-4.4h1V54.9z M57.8,47.5c0,0.2-0.1,0.3-0.2,0.4
		c-0.1,0.1-0.2,0.2-0.4,0.2S57,48.1,56.9,48c-0.1-0.1-0.2-0.3-0.2-0.4c0-0.2,0.1-0.3,0.2-0.4c0.1-0.1,0.2-0.2,0.4-0.2
		s0.3,0.1,0.4,0.2C57.8,47.2,57.8,47.3,57.8,47.5z M59.7,47.5c0,0.2-0.1,0.3-0.2,0.4c-0.1,0.1-0.2,0.2-0.4,0.2s-0.3-0.1-0.4-0.2
		c-0.1-0.1-0.2-0.3-0.2-0.4c0-0.2,0.1-0.3,0.2-0.4c0.1-0.1,0.2-0.2,0.4-0.2s0.3,0.1,0.4,0.2C59.6,47.2,59.7,47.3,59.7,47.5z
		 M64.2,50c0,0-0.1,0-0.2-0.1c-0.1,0-0.2,0-0.3,0c-0.3,0-0.5,0.1-0.7,0.2c-0.2,0.2-0.3,0.3-0.4,0.5v4.2h-1v-5.7h0.9v0.8h0
		c0-0.1,0.1-0.2,0.2-0.3c0.1-0.1,0.1-0.2,0.2-0.3c0.1-0.1,0.2-0.1,0.3-0.2c0.1,0,0.3-0.1,0.5-0.1c0.1,0,0.2,0,0.3,0
		c0.1,0,0.1,0,0.2,0.1L64.2,50z M72.6,46.7l-2.7,8.2h-0.8l-2.6-8.2h1.1l1.6,5.5c0.1,0.3,0.2,0.6,0.2,0.9c0.1,0.3,0.1,0.5,0.1,0.7h0
		c0-0.2,0-0.4,0.1-0.7c0.1-0.3,0.2-0.6,0.2-0.9l1.6-5.5H72.6z M76.5,51.1c0,0.2,0,0.5,0,0.6c0,0.2,0,0.3,0,0.5h-2.9
		c0,0.7,0.2,1.2,0.4,1.5c0.3,0.3,0.6,0.5,1.1,0.5c0.2,0,0.3,0,0.5-0.1c0.1,0,0.3-0.1,0.4-0.1c0.1-0.1,0.2-0.1,0.2-0.2
		c0.1-0.1,0.1-0.1,0.1-0.1l0.4,0.7c0,0-0.1,0.1-0.2,0.2c-0.1,0.1-0.2,0.2-0.3,0.2c-0.1,0.1-0.3,0.1-0.5,0.2S75.2,55,75,55
		c-0.4,0-0.7-0.1-1-0.2c-0.3-0.1-0.5-0.3-0.7-0.6s-0.4-0.6-0.5-1c-0.1-0.4-0.2-0.8-0.2-1.4c0-0.5,0.1-0.9,0.2-1.3
		c0.1-0.4,0.3-0.7,0.5-0.9c0.2-0.2,0.4-0.4,0.7-0.5c0.3-0.1,0.5-0.2,0.8-0.2c0.5,0,1,0.2,1.3,0.5C76.4,49.9,76.5,50.4,76.5,51.1z
		 M74.7,49.8c-0.3,0-0.6,0.1-0.8,0.4c-0.2,0.3-0.3,0.7-0.4,1.2h2.1c0,0,0-0.1,0-0.2c0-0.1,0-0.2,0-0.2c0-0.4-0.1-0.7-0.2-0.9
		C75.3,49.9,75,49.8,74.7,49.8z M80.3,50c0,0-0.1,0-0.2-0.1s-0.2,0-0.3,0c-0.3,0-0.5,0.1-0.7,0.2c-0.2,0.2-0.3,0.3-0.4,0.5v4.2h-1
		v-5.7h0.9v0.8h0c0-0.1,0.1-0.2,0.2-0.3c0.1-0.1,0.1-0.2,0.2-0.3c0.1-0.1,0.2-0.1,0.3-0.2c0.1,0,0.3-0.1,0.5-0.1c0.1,0,0.2,0,0.3,0
		c0.1,0,0.1,0,0.2,0.1L80.3,50z M83.5,51.8l2,3.1h-1.2l-1.6-2.7h-0.4v2.7h-1v-8.4l1-0.1v5h0.4l1.5-2.2h1.1L83.5,51.8z M89.7,51.1
		c0,0.2,0,0.5,0,0.6c0,0.2,0,0.3,0,0.5h-2.9c0,0.7,0.2,1.2,0.4,1.5c0.3,0.3,0.6,0.5,1.1,0.5c0.2,0,0.3,0,0.5-0.1
		c0.1,0,0.3-0.1,0.4-0.1c0.1-0.1,0.2-0.1,0.2-0.2c0.1-0.1,0.1-0.1,0.1-0.1l0.4,0.7c0,0-0.1,0.1-0.2,0.2c-0.1,0.1-0.2,0.2-0.3,0.2
		c-0.1,0.1-0.3,0.1-0.5,0.2S88.4,55,88.1,55c-0.4,0-0.7-0.1-1-0.2c-0.3-0.1-0.5-0.3-0.7-0.6s-0.4-0.6-0.5-1
		c-0.1-0.4-0.2-0.8-0.2-1.4c0-0.5,0.1-0.9,0.2-1.3c0.1-0.4,0.3-0.7,0.5-0.9c0.2-0.2,0.4-0.4,0.7-0.5c0.3-0.1,0.5-0.2,0.8-0.2
		c0.5,0,1,0.2,1.3,0.5C89.6,49.9,89.7,50.4,89.7,51.1z M87.9,49.8c-0.3,0-0.6,0.1-0.8,0.4c-0.2,0.3-0.3,0.7-0.4,1.2h2.1
		c0,0,0-0.1,0-0.2c0-0.1,0-0.2,0-0.2c0-0.4-0.1-0.7-0.2-0.9C88.4,49.9,88.2,49.8,87.9,49.8z M94.1,54.9v-3.7c0-0.5-0.1-0.8-0.2-1
		c-0.2-0.2-0.4-0.3-0.7-0.3c-0.3,0-0.5,0.1-0.7,0.2c-0.2,0.1-0.3,0.3-0.5,0.4v4.4h-1v-8.4l1-0.1v3.4h0c0,0,0.1-0.1,0.1-0.2
		c0.1-0.1,0.2-0.2,0.3-0.2c0.1-0.1,0.3-0.1,0.4-0.2C93,49,93.2,49,93.4,49c0.5,0,0.9,0.2,1.2,0.5c0.3,0.3,0.4,0.9,0.4,1.6v3.7H94.1z
		 M99,50c0,0-0.1,0-0.2-0.1s-0.2,0-0.3,0c-0.3,0-0.5,0.1-0.7,0.2c-0.2,0.2-0.3,0.3-0.4,0.5v4.2h-1v-5.7h0.9v0.8h0
		c0-0.1,0.1-0.2,0.2-0.3c0.1-0.1,0.1-0.2,0.2-0.3c0.1-0.1,0.2-0.1,0.3-0.2c0.1,0,0.3-0.1,0.5-0.1c0.1,0,0.2,0,0.3,0
		c0.1,0,0.1,0,0.2,0.1L99,50z M106.2,54.9h-0.9v-0.6h0c0,0-0.1,0.1-0.2,0.2c-0.1,0.1-0.2,0.2-0.3,0.3c-0.1,0.1-0.3,0.2-0.4,0.2
		s-0.4,0.1-0.6,0.1c-0.3,0-0.5,0-0.7-0.1c-0.2-0.1-0.4-0.2-0.5-0.4c-0.1-0.2-0.3-0.4-0.3-0.6c-0.1-0.3-0.1-0.6-0.1-1v-3.7h1v3.7
		c0,0.5,0.1,0.8,0.2,1c0.2,0.2,0.4,0.3,0.7,0.3c0.3,0,0.5-0.1,0.7-0.2c0.2-0.1,0.3-0.3,0.5-0.4v-4.4h1V54.9z M110.8,54.9v-3.7
		c0-0.5-0.1-0.8-0.2-1c-0.2-0.2-0.4-0.3-0.7-0.3c-0.3,0-0.5,0.1-0.7,0.2s-0.3,0.3-0.5,0.4v4.4h-1v-5.7h0.9v0.6h0
		c0,0,0.1-0.1,0.2-0.2c0.1-0.1,0.2-0.2,0.3-0.3c0.1-0.1,0.3-0.2,0.5-0.2c0.2-0.1,0.4-0.1,0.6-0.1c0.3,0,0.5,0,0.7,0.1
		c0.2,0.1,0.4,0.2,0.5,0.4s0.3,0.4,0.3,0.6c0.1,0.3,0.1,0.6,0.1,1v3.7H110.8z M113,52.1c0-0.6,0.1-1.1,0.2-1.5
		c0.2-0.4,0.3-0.7,0.6-0.9s0.5-0.4,0.8-0.5c0.3-0.1,0.6-0.1,0.9-0.1c0.2,0,0.3,0,0.5,0c0.1,0,0.2,0.1,0.3,0.1v-2.7l1-0.1v8.5h-0.9
		v-0.6h0c0,0-0.1,0.1-0.1,0.2c-0.1,0.1-0.2,0.2-0.3,0.2c-0.1,0.1-0.2,0.2-0.4,0.2c-0.2,0.1-0.4,0.1-0.6,0.1c-0.3,0-0.5-0.1-0.8-0.2
		c-0.2-0.1-0.5-0.3-0.6-0.5c-0.2-0.2-0.3-0.5-0.4-0.9C113,53.1,113,52.6,113,52.1z M115.2,54.2c0.2,0,0.3,0,0.4-0.1
		c0.1,0,0.2-0.1,0.3-0.1c0.1-0.1,0.2-0.1,0.2-0.2c0.1-0.1,0.1-0.1,0.1-0.2v-3.5c-0.1-0.1-0.2-0.1-0.3-0.1c-0.1,0-0.3-0.1-0.4-0.1
		c-0.2,0-0.4,0-0.6,0.1c-0.2,0.1-0.4,0.2-0.5,0.4c-0.1,0.2-0.3,0.4-0.3,0.7c-0.1,0.3-0.1,0.6-0.1,1c0,0.4,0,0.7,0.1,1
		c0.1,0.3,0.2,0.5,0.3,0.6c0.1,0.2,0.3,0.3,0.4,0.4C114.9,54.1,115.1,54.2,115.2,54.2z M52.6,64.1c0-0.6,0.1-1.1,0.2-1.5
		c0.2-0.4,0.3-0.7,0.6-0.9s0.5-0.4,0.8-0.5c0.3-0.1,0.6-0.1,0.9-0.1c0.2,0,0.3,0,0.5,0c0.1,0,0.2,0.1,0.3,0.1v-2.7l1-0.1v8.5H56
		v-0.6h0c0,0-0.1,0.1-0.1,0.2s-0.2,0.2-0.3,0.2c-0.1,0.1-0.2,0.2-0.4,0.2C55,67,54.8,67,54.6,67c-0.3,0-0.5-0.1-0.8-0.2
		c-0.2-0.1-0.5-0.3-0.6-0.5c-0.2-0.2-0.3-0.5-0.4-0.9C52.6,65.1,52.6,64.6,52.6,64.1z M54.9,66.2c0.2,0,0.3,0,0.4-0.1
		c0.1,0,0.2-0.1,0.3-0.1c0.1-0.1,0.2-0.1,0.2-0.2c0.1-0.1,0.1-0.1,0.1-0.2v-3.5c-0.1-0.1-0.2-0.1-0.3-0.1c-0.1,0-0.3-0.1-0.4-0.1
		c-0.2,0-0.4,0-0.6,0.1c-0.2,0.1-0.4,0.2-0.5,0.4s-0.3,0.4-0.3,0.7c-0.1,0.3-0.1,0.6-0.1,1c0,0.4,0,0.7,0.1,1
		c0.1,0.3,0.2,0.5,0.3,0.6c0.1,0.2,0.3,0.3,0.4,0.4C54.5,66.1,54.7,66.2,54.9,66.2z M59.3,66.9h-1v-5.7h1V66.9z M58.9,59.8
		c-0.2,0-0.4-0.1-0.5-0.2s-0.2-0.3-0.2-0.5c0-0.2,0.1-0.4,0.2-0.5s0.3-0.2,0.5-0.2c0.2,0,0.3,0.1,0.5,0.2s0.2,0.3,0.2,0.5
		c0,0.2-0.1,0.4-0.2,0.5S59,59.8,58.9,59.8z M64.9,61.9h-0.7c0.2,0.3,0.3,0.6,0.3,1c0,0.3,0,0.6-0.1,0.8c-0.1,0.2-0.2,0.4-0.4,0.6
		c-0.2,0.2-0.4,0.3-0.6,0.4c-0.2,0.1-0.5,0.1-0.8,0.1c-0.1,0-0.1,0-0.2,0s-0.1,0-0.2,0c-0.1,0-0.2,0.1-0.3,0.2
		c-0.1,0.1-0.2,0.2-0.2,0.3c0,0.1,0,0.2,0.1,0.3c0.1,0.1,0.2,0.1,0.4,0.1H63c0.3,0,0.5,0,0.7,0.1c0.2,0.1,0.4,0.1,0.6,0.3
		c0.2,0.1,0.3,0.3,0.4,0.5c0.1,0.2,0.1,0.4,0.1,0.7c0,0.3-0.1,0.6-0.2,0.8s-0.3,0.5-0.6,0.7c-0.2,0.2-0.5,0.3-0.9,0.4
		c-0.3,0.1-0.7,0.2-1.1,0.2c-0.6,0-1.1-0.1-1.4-0.4c-0.3-0.3-0.5-0.6-0.5-1.1c0-0.2,0-0.4,0.1-0.6c0.1-0.2,0.2-0.3,0.3-0.4
		c0.1-0.1,0.2-0.2,0.3-0.3c0.1-0.1,0.2-0.1,0.3-0.2v0c-0.2-0.2-0.4-0.4-0.4-0.8c0-0.2,0-0.3,0.1-0.4s0.1-0.2,0.2-0.3
		c0.1-0.1,0.2-0.1,0.2-0.2c0.1,0,0.1-0.1,0.2-0.1v0c-0.3-0.1-0.5-0.3-0.7-0.6c-0.2-0.3-0.3-0.7-0.3-1.1c0-0.3,0.1-0.6,0.2-0.8
		c0.1-0.2,0.2-0.4,0.4-0.6s0.4-0.3,0.6-0.4c0.2-0.1,0.5-0.1,0.8-0.1s0.5,0,0.8,0.1H65L64.9,61.9z M62.2,66.7c-0.2,0-0.3,0-0.4,0
		c-0.1,0-0.1,0.1-0.2,0.1c-0.1,0.1-0.1,0.1-0.2,0.2s-0.1,0.2-0.1,0.3c0,0.1-0.1,0.2-0.1,0.4c0,0.6,0.3,0.9,1,0.9
		c0.6,0,1-0.1,1.3-0.3c0.3-0.2,0.4-0.5,0.4-0.8c0-0.3-0.1-0.5-0.3-0.6c-0.2-0.1-0.4-0.2-0.7-0.2H62.2z M63.5,62.9
		c0-0.4-0.1-0.7-0.3-0.9c-0.2-0.2-0.4-0.3-0.7-0.3c-0.3,0-0.5,0.1-0.7,0.3c-0.2,0.2-0.3,0.5-0.3,0.9s0.1,0.7,0.3,0.9
		c0.2,0.2,0.4,0.3,0.7,0.3c0.3,0,0.5-0.1,0.7-0.3C63.4,63.6,63.5,63.3,63.5,62.9z M67,66.9h-1v-5.7h1V66.9z M66.5,59.8
		c-0.2,0-0.4-0.1-0.5-0.2c-0.1-0.1-0.2-0.3-0.2-0.5c0-0.2,0.1-0.4,0.2-0.5c0.1-0.1,0.3-0.2,0.5-0.2c0.2,0,0.3,0.1,0.5,0.2
		c0.1,0.1,0.2,0.3,0.2,0.5c0,0.2-0.1,0.4-0.2,0.5C66.8,59.7,66.7,59.8,66.5,59.8z M70.9,61.9h-1.2v3.2c0,0.4,0.1,0.7,0.2,0.8
		c0.1,0.1,0.3,0.2,0.5,0.2c0.1,0,0.3,0,0.4-0.1c0.1,0,0.2-0.1,0.2-0.1l0.1,0.8c0,0-0.1,0.1-0.3,0.1C70.6,67,70.4,67,70.1,67
		c-0.5,0-0.9-0.1-1.1-0.4c-0.2-0.3-0.4-0.7-0.4-1.4v-3.3H68v-0.6l0.7-0.1l0.1-1.6h0.9v1.6H71L70.9,61.9z M71.6,65.4
		c0-0.3,0.1-0.6,0.2-0.8c0.1-0.2,0.3-0.4,0.5-0.5c0.2-0.1,0.5-0.2,0.8-0.3c0.3-0.1,0.6-0.1,0.9-0.1h0.3v-0.5c0-0.5-0.1-0.8-0.3-1
		c-0.2-0.2-0.4-0.3-0.7-0.3c-0.3,0-0.5,0.1-0.7,0.2c-0.2,0.1-0.3,0.2-0.5,0.3l-0.4-0.6c0.1-0.1,0.1-0.1,0.2-0.2
		c0.1-0.1,0.2-0.2,0.4-0.2s0.3-0.1,0.5-0.2c0.2,0,0.4-0.1,0.6-0.1c0.6,0,1,0.2,1.3,0.5c0.3,0.3,0.5,0.8,0.5,1.6v2.6
		c0,0.2,0,0.5,0,0.7c0,0.2,0,0.4,0,0.5h-0.9l0-0.6h0c0,0.1-0.1,0.2-0.1,0.2c-0.1,0.1-0.1,0.2-0.2,0.2c-0.1,0.1-0.2,0.1-0.3,0.2
		C73.5,67,73.3,67,73.2,67c-0.2,0-0.4,0-0.6-0.1c-0.2-0.1-0.3-0.2-0.5-0.3c-0.1-0.1-0.2-0.3-0.3-0.5C71.7,65.9,71.6,65.7,71.6,65.4z
		 M73.4,66.2c0.1,0,0.3,0,0.4-0.1c0.1,0,0.2-0.1,0.3-0.1c0.1-0.1,0.1-0.1,0.2-0.2c0.1-0.1,0.1-0.1,0.1-0.2v-1.3l-0.3,0
		c-0.5,0-0.8,0.1-1,0.2c-0.2,0.1-0.4,0.4-0.4,0.7c0,0.3,0.1,0.5,0.2,0.7C72.9,66.1,73.1,66.2,73.4,66.2z M77.7,65.5
		c0,0.2,0,0.4,0.1,0.5c0.1,0.1,0.2,0.1,0.4,0.1c0.1,0,0.2,0,0.2,0s0.1,0,0.1,0l0.1,0.7c0,0-0.1,0.1-0.3,0.1S78,67,77.8,67
		c-0.3,0-0.6-0.1-0.8-0.3c-0.2-0.2-0.3-0.6-0.3-1.1v-7.2l1-0.1V65.5z M83.1,63.1c0,0.2,0,0.5,0,0.6c0,0.2,0,0.3,0,0.5h-2.9
		c0,0.7,0.2,1.2,0.4,1.5c0.3,0.3,0.6,0.5,1.1,0.5c0.2,0,0.3,0,0.5-0.1c0.1,0,0.3-0.1,0.4-0.1c0.1-0.1,0.2-0.1,0.2-0.2
		c0.1-0.1,0.1-0.1,0.1-0.1l0.4,0.7c0,0-0.1,0.1-0.2,0.2c-0.1,0.1-0.2,0.2-0.3,0.2c-0.1,0.1-0.3,0.1-0.5,0.2C82,67,81.8,67,81.5,67
		c-0.4,0-0.7-0.1-1-0.2c-0.3-0.1-0.5-0.3-0.7-0.6c-0.2-0.2-0.4-0.6-0.5-1c-0.1-0.4-0.2-0.8-0.2-1.4c0-0.5,0.1-0.9,0.2-1.3
		c0.1-0.4,0.3-0.7,0.5-0.9c0.2-0.2,0.4-0.4,0.7-0.5c0.3-0.1,0.5-0.2,0.8-0.2c0.5,0,1,0.2,1.3,0.5C82.9,61.9,83.1,62.4,83.1,63.1z
		 M81.3,61.8c-0.3,0-0.6,0.1-0.8,0.4c-0.2,0.3-0.3,0.7-0.4,1.2h2.1c0,0,0-0.1,0-0.2c0-0.1,0-0.2,0-0.2c0-0.4-0.1-0.7-0.2-0.9
		C81.8,61.9,81.6,61.8,81.3,61.8z M87.5,59.4h-0.9v-0.7h2.8v0.7h-0.9v6.7h0.9v0.7h-2.8v-0.7h0.9V59.4z M93.7,66.9v-3.7
		c0-0.5-0.1-0.8-0.2-1c-0.2-0.2-0.4-0.3-0.7-0.3c-0.3,0-0.5,0.1-0.7,0.2s-0.3,0.3-0.5,0.4v4.4h-1v-5.7h0.9v0.6h0
		c0,0,0.1-0.1,0.2-0.2c0.1-0.1,0.2-0.2,0.3-0.3c0.1-0.1,0.3-0.2,0.5-0.2c0.2-0.1,0.4-0.1,0.6-0.1c0.3,0,0.5,0,0.7,0.1
		c0.2,0.1,0.4,0.2,0.5,0.4c0.1,0.2,0.3,0.4,0.3,0.6c0.1,0.3,0.1,0.6,0.1,1v3.7H93.7z M98.5,61.9h-1.2v4.9h-1v-4.9h-0.7v-0.6l0.7-0.1
		V60c0-0.3,0-0.6,0.1-0.8c0.1-0.2,0.2-0.4,0.3-0.5c0.1-0.1,0.3-0.2,0.5-0.3s0.4-0.1,0.6-0.1c0.2,0,0.4,0,0.5,0.1s0.2,0.1,0.3,0.1
		l-0.2,0.8c0,0-0.1-0.1-0.2-0.1c-0.1,0-0.2-0.1-0.3-0.1c-0.2,0-0.4,0.1-0.5,0.2c-0.1,0.1-0.2,0.4-0.2,0.8v1h1.3L98.5,61.9z M102,62
		c0,0-0.1,0-0.2-0.1s-0.2,0-0.3,0c-0.3,0-0.5,0.1-0.7,0.2c-0.2,0.2-0.3,0.3-0.4,0.5v4.2h-1v-5.7h0.9v0.8h0c0-0.1,0.1-0.2,0.2-0.3
		c0.1-0.1,0.1-0.2,0.2-0.3c0.1-0.1,0.2-0.1,0.3-0.2c0.1,0,0.3-0.1,0.5-0.1c0.1,0,0.2,0,0.3,0c0.1,0,0.1,0,0.2,0.1L102,62z
		 M102.5,65.4c0-0.3,0.1-0.6,0.2-0.8s0.3-0.4,0.5-0.5c0.2-0.1,0.5-0.2,0.8-0.3c0.3-0.1,0.6-0.1,0.9-0.1h0.3v-0.5
		c0-0.5-0.1-0.8-0.3-1c-0.2-0.2-0.4-0.3-0.7-0.3c-0.3,0-0.5,0.1-0.7,0.2c-0.2,0.1-0.3,0.2-0.5,0.3l-0.4-0.6c0.1-0.1,0.1-0.1,0.2-0.2
		c0.1-0.1,0.2-0.2,0.4-0.2s0.3-0.1,0.5-0.2c0.2,0,0.4-0.1,0.6-0.1c0.6,0,1,0.2,1.3,0.5c0.3,0.3,0.5,0.8,0.5,1.6v2.6
		c0,0.2,0,0.5,0,0.7c0,0.2,0,0.4,0,0.5h-0.9l0-0.6h0c0,0.1-0.1,0.2-0.1,0.2c-0.1,0.1-0.1,0.2-0.2,0.2c-0.1,0.1-0.2,0.1-0.3,0.2
		c-0.1,0.1-0.3,0.1-0.5,0.1c-0.2,0-0.4,0-0.6-0.1c-0.2-0.1-0.3-0.2-0.5-0.3c-0.1-0.1-0.2-0.3-0.3-0.5
		C102.6,65.9,102.5,65.7,102.5,65.4z M104.3,66.2c0.1,0,0.3,0,0.4-0.1c0.1,0,0.2-0.1,0.3-0.1c0.1-0.1,0.1-0.1,0.2-0.2
		c0.1-0.1,0.1-0.1,0.1-0.2v-1.3l-0.3,0c-0.5,0-0.8,0.1-1,0.2c-0.2,0.1-0.4,0.4-0.4,0.7c0,0.3,0.1,0.5,0.2,0.7
		C103.8,66.1,104,66.2,104.3,66.2z M110.1,62.3c-0.1-0.1-0.2-0.2-0.3-0.3c-0.2-0.1-0.4-0.2-0.7-0.2c-0.3,0-0.4,0.1-0.6,0.2
		c-0.1,0.1-0.2,0.3-0.2,0.4c0,0.2,0.1,0.4,0.2,0.5c0.1,0.1,0.3,0.3,0.6,0.4l0.4,0.2c0.4,0.2,0.7,0.5,0.9,0.7c0.2,0.3,0.3,0.6,0.3,1
		c0,0.5-0.2,0.8-0.5,1.1c-0.3,0.3-0.8,0.5-1.4,0.5c-0.2,0-0.4,0-0.6-0.1c-0.2,0-0.3-0.1-0.5-0.2c-0.1-0.1-0.2-0.1-0.3-0.2
		c-0.1-0.1-0.2-0.1-0.2-0.2l0.5-0.8c0,0,0.1,0.1,0.2,0.2c0.1,0.1,0.1,0.1,0.2,0.2c0.1,0.1,0.2,0.1,0.3,0.1c0.1,0,0.3,0.1,0.4,0.1
		c0.3,0,0.5-0.1,0.7-0.2c0.2-0.1,0.2-0.3,0.2-0.5c0-0.1,0-0.3-0.1-0.4c0-0.1-0.1-0.2-0.2-0.3c-0.1-0.1-0.2-0.2-0.3-0.2
		c-0.1-0.1-0.2-0.2-0.4-0.2l-0.4-0.2c-0.4-0.2-0.6-0.5-0.8-0.7c-0.2-0.3-0.3-0.6-0.3-1c0-0.2,0-0.4,0.1-0.6c0.1-0.2,0.2-0.3,0.4-0.5
		c0.2-0.1,0.3-0.2,0.5-0.3c0.2-0.1,0.4-0.1,0.6-0.1c0.2,0,0.4,0,0.6,0.1c0.2,0,0.3,0.1,0.4,0.2c0.1,0.1,0.2,0.1,0.3,0.2
		c0.1,0.1,0.1,0.1,0.2,0.2L110.1,62.3z M114.2,61.9H113v3.2c0,0.4,0.1,0.7,0.2,0.8c0.1,0.1,0.3,0.2,0.5,0.2c0.1,0,0.3,0,0.4-0.1
		c0.1,0,0.2-0.1,0.2-0.1l0.1,0.8c0,0-0.1,0.1-0.3,0.1c-0.2,0.1-0.4,0.1-0.6,0.1c-0.5,0-0.9-0.1-1.1-0.4c-0.2-0.3-0.4-0.7-0.4-1.4
		v-3.3h-0.7v-0.6l0.7-0.1l0.1-1.6h0.9v1.6h1.4L114.2,61.9z M117.8,62c0,0-0.1,0-0.2-0.1s-0.2,0-0.3,0c-0.3,0-0.5,0.1-0.7,0.2
		c-0.2,0.2-0.3,0.3-0.4,0.5v4.2h-1v-5.7h0.9v0.8h0c0-0.1,0.1-0.2,0.2-0.3c0.1-0.1,0.1-0.2,0.2-0.3c0.1-0.1,0.2-0.1,0.3-0.2
		c0.1,0,0.3-0.1,0.5-0.1c0.1,0,0.2,0,0.3,0s0.1,0,0.2,0.1L117.8,62z M122.8,66.9h-0.9v-0.6h0c0,0-0.1,0.1-0.2,0.2
		c-0.1,0.1-0.2,0.2-0.3,0.3c-0.1,0.1-0.3,0.2-0.4,0.2s-0.4,0.1-0.6,0.1c-0.3,0-0.5,0-0.7-0.1c-0.2-0.1-0.4-0.2-0.5-0.4
		c-0.1-0.2-0.3-0.4-0.3-0.6c-0.1-0.3-0.1-0.6-0.1-1v-3.7h1v3.7c0,0.5,0.1,0.8,0.2,1c0.2,0.2,0.4,0.3,0.7,0.3c0.3,0,0.5-0.1,0.7-0.2
		c0.2-0.1,0.3-0.3,0.5-0.4v-4.4h1V66.9z M126.4,63.8l2,3.1h-1.2l-1.6-2.7h-0.4v2.7h-1v-8.4l1-0.1v5h0.4l1.5-2.2h1.1L126.4,63.8z
		 M131.7,61.9h-1.2v3.2c0,0.4,0.1,0.7,0.2,0.8c0.1,0.1,0.3,0.2,0.5,0.2c0.1,0,0.3,0,0.4-0.1c0.1,0,0.2-0.1,0.2-0.1l0.1,0.8
		c0,0-0.1,0.1-0.3,0.1c-0.2,0.1-0.4,0.1-0.6,0.1c-0.5,0-0.9-0.1-1.1-0.4c-0.2-0.3-0.4-0.7-0.4-1.4v-3.3h-0.7v-0.6l0.7-0.1l0.1-1.6
		h0.9v1.6h1.4L131.7,61.9z M136.8,66.9h-0.9v-0.6h0c0,0-0.1,0.1-0.2,0.2c-0.1,0.1-0.2,0.2-0.3,0.3c-0.1,0.1-0.3,0.2-0.4,0.2
		s-0.4,0.1-0.6,0.1c-0.3,0-0.5,0-0.7-0.1c-0.2-0.1-0.4-0.2-0.5-0.4c-0.1-0.2-0.3-0.4-0.3-0.6c-0.1-0.3-0.1-0.6-0.1-1v-3.7h1v3.7
		c0,0.5,0.1,0.8,0.2,1c0.2,0.2,0.4,0.3,0.7,0.3c0.3,0,0.5-0.1,0.7-0.2c0.2-0.1,0.3-0.3,0.5-0.4v-4.4h1V66.9z M140.7,62
		c0,0-0.1,0-0.2-0.1s-0.2,0-0.3,0c-0.3,0-0.5,0.1-0.7,0.2c-0.2,0.2-0.3,0.3-0.4,0.5v4.2h-1v-5.7h0.9v0.8h0c0-0.1,0.1-0.2,0.2-0.3
		c0.1-0.1,0.1-0.2,0.2-0.3c0.1-0.1,0.2-0.1,0.3-0.2c0.1,0,0.3-0.1,0.5-0.1c0.1,0,0.2,0,0.3,0s0.1,0,0.2,0.1L140.7,62z"/>
	<polygon points="44.1,34.9 45.6,34.9 45.6,54.9 42.1,54.9 42.1,34.9 	"/>
	<polygon points="44.1,94.5 45.6,94.5 45.6,94.9 42.1,94.9 42.1,94.5 	"/>
	<polygon points="44.1,73.6 45.6,73.6 45.6,74.9 42.1,74.9 42.1,73.6 	"/>
	<polygon points="44.1,92.5 45.6,92.5 45.6,92.9 42.1,92.9 42.1,92.5 	"/>
	<polygon points="44.1,90.5 45.6,90.5 45.6,90.9 42.1,90.9 42.1,90.5 	"/>
	<polygon points="44.1,88.5 45.6,88.5 45.6,88.9 42.1,88.9 42.1,88.5 	"/>
	<polygon points="44.1,86.5 45.6,86.5 45.6,86.9 42.1,86.9 42.1,86.5 	"/>
	<polygon points="44.1,84.5 45.6,84.5 45.6,84.9 42.1,84.9 42.1,84.5 	"/>
	<polygon points="44.1,82.5 45.6,82.5 45.6,82.9 42.1,82.9 42.1,82.5 	"/>
	<polygon points="44.1,80.5 45.6,80.5 45.6,80.9 42.1,80.9 42.1,80.5 	"/>
	<polygon points="44.1,78.5 45.6,78.5 45.6,78.9 42.1,78.9 42.1,78.5 	"/>
	<polygon points="44.1,76.5 45.6,76.5 45.6,76.9 42.1,76.9 42.1,76.5 	"/>
	<polygon points="44.1,71.1 45.6,71.1 45.6,72.4 42.1,72.4 42.1,71.1 	"/>
	<polygon points="44.1,68.6 45.6,68.6 45.6,69.9 42.1,69.9 42.1,68.6 	"/>
	<polygon points="44.1,66.1 45.6,66.1 45.6,67.4 42.1,67.4 42.1,66.1 	"/>
	<polygon points="44.1,63.6 45.6,63.6 45.6,64.9 42.1,64.9 42.1,63.6 	"/>
	<polygon points="44.1,61.1 45.6,61.1 45.6,62.4 42.1,62.4 42.1,61.1 	"/>
	<polygon points="44.1,58.6 45.6,58.6 45.6,59.9 42.1,59.9 42.1,58.6 	"/>
	<polygon points="44.1,56.1 45.6,56.1 45.6,57.4 42.1,57.4 42.1,56.1 	"/>
	<g>
		<path d="M33,41.9c1,1.6,1.8,1.6,3,1.6c-1-0.8-1.7-1.8-2-2.3l-1.9-3c-0.2-0.9-0.7-1.8-1.4-2.4c0.2-0.1,0.4-0.2,0.6-0.3
			c-1.2,0-2.4-0.6-3.1-0.6c-0.4,0-0.7,0.3-0.7,0.6c0,0.4,0.4,0.8,1.1,0.8c0.2,0,0.4,0,0.6-0.1c0.4,0.5,0.7,1,0.7,1.7
			c0,1.3-1.6,2.3-3.1,2.3c-0.1,0-0.2,0-0.3,0c-0.1-0.3-0.6-0.9-0.6-1.5c0-1,0.7-1.9,0.7-2.9c0-0.6-0.3-1-0.4-1.2
			c0.2-0.2,0.4-0.4,0.5-0.6c-0.1,0-0.2,0.1-0.4,0.1c-0.8,0-1.4-0.2-2-0.2c-0.3,0-0.4,0.1-0.4,0.2c0,0,0,0.1,0,0.1
			c-0.1-0.1-0.2-0.1-0.4-0.1c-0.2,0-0.4-0.1-0.6-0.1c-0.7,0-1,0.3-1,0.6c0,0.2,0.2,0.6,0.4,0.9c0.3-0.1,0.6-0.2,0.8-0.2
			c0.4,0,0.7,0.4,0.9,0.8c-0.3,0-0.3,0-0.6,0c-0.7,0-1.2-0.3-1.3-0.3c0,0,0,0,0,0c0,0.1,0.2,0.4,0.6,0.5c0.5,0.2,1.3,0.3,1.4,0.3
			c0,0-0.1,0.3-0.3,0.3c0,0-0.1,0-0.1,0c-0.5-0.1-0.7-0.2-1.4-0.4c0,0,0,0,0,0c0,0.3,0.7,0.9,1.3,1.1c-0.5,0.7-1.2,1.4-1.5,2.4
			c-0.1,0-0.2,0-0.3,0c-1.6,0-3.1-1-3.1-2.3c0-0.7,0.3-1.2,0.7-1.7c0.2,0,0.4,0.1,0.6,0.1c0.7,0,1.1-0.4,1.1-0.8
			c0-0.3-0.3-0.6-0.7-0.6c-0.7,0-1.9,0.6-3.1,0.6c0.1,0.1,0.3,0.2,0.6,0.3c-0.7,0.6-1.2,1.5-1.4,2.4l-1.9,3c-0.3,0.5-1,1.5-2,2.3
			c1.2,0,2,0,3-1.6l1-1.5c0.1,0.2,0.2,0.4,0.3,0.6L15,44c-0.3,0.5-1,1.5-2,2.3c1.2,0,2,0,3-1.6l1.6-2.6c0.1,0.1,0.3,0.3,0.4,0.4
			l-2.3,3.7c-0.3,0.5-1,1.5-2,2.2c1.2,0,2,0,3-1.6l2.3-3.6c0.1,0.1,0.3,0.2,0.5,0.3l-2.8,4.4c-0.3,0.5-1,1.5-2,2.2c1.2,0,2,0,3-1.6
			l2.8-4.5c0.2,0.1,0.3,0.1,0.5,0.2L18,49.2c-0.3,0.5-1,1.5-2,2.2c1.2,0,2,0,3-1.6l3.4-5.5c0,0,0.1,0,0.1,0c0.1,0.3,0.2,0.6,0.2,0.8
			c0,1.7-1.1,3.2-2.5,4.4c0.1,0,0.2,0.1,0.4,0.1c0.3,0,0.5,0,0.6,0c-0.3,0.7-1,1.6-1.3,2.1c-0.4-0.1-1.1-0.1-1.5-0.1
			c-0.4,0-0.5,0.3-0.5,0.5c0,0.4,0.2,0.7,0.4,0.9c0.1-0.2,0.2-0.5,1.1-0.5c0,0,0,0,0.1,0c-0.2,0.3-1,0.9-1,1.4
			c0,0.3,0.4,0.8,0.8,0.8c0-0.1,0-0.2,0-0.3c0-0.4,0.3-0.9,0.6-1.2c0,0.1,0,0.1,0,0.2c0,0.9,0.1,1.4,0.7,1.4c0.3,0,0.5-0.2,0.6-0.2
			c-0.4-0.4-0.4-0.6-0.4-1.2c0-0.1,0-0.3,0-0.5c0-0.1,0-0.3,0-0.4c0.2,0,0.3,0,0.5,0c0,0,0.8-0.1,1,0.4c0.2-0.2,0.6-0.5,0.6-0.8
			c0-0.2-0.1-0.5-0.5-0.5c-0.2,0-0.7,0.1-1.1,0.1c0.1-0.3,0.6-1,1.1-1.6c0.1,0.2,0.2,0.4,0.4,0.6c0-0.4,0.2-1.5,0.8-2.1
			c0.1,0.4,0.2,0.9,0.2,1.8c0,2.3-0.6,4-1.7,4.3c0.2,0.3,0.5,0.5,0.8,0.5c0.4,0,0.7-0.5,0.9-0.9c0.1,0.3,0.5,1.2,0.8,1.2
			s0.7-0.8,0.8-1.2c0.2,0.5,0.5,0.9,0.9,0.9c0.3,0,0.7-0.2,0.8-0.5c-1.2-0.3-1.7-2-1.7-4.3c0-1,0.1-1.4,0.1-1.8
			c0.6,0.7,0.8,1.8,0.8,2.1c0.2-0.2,0.3-0.4,0.4-0.6c0.4,0.5,1,1.3,1.1,1.6c-0.4,0-0.9-0.1-1.1-0.1c-0.4,0-0.5,0.2-0.5,0.5
			c0,0.3,0.3,0.6,0.6,0.8c0.2-0.4,1-0.4,1-0.4c0.2,0,0.2,0,0.5,0c0,0.1,0,0.3,0,0.4c0,0.2,0,0.3,0,0.5c0,0.5,0,0.8-0.4,1.2
			c0.1,0,0.3,0.2,0.6,0.2c0.6,0,0.7-0.4,0.7-1.4c0-0.1,0-0.1,0-0.2c0.3,0.3,0.6,0.8,0.6,1.2c0,0.1,0,0.2,0,0.3
			c0.5,0,0.8-0.5,0.8-0.8c0-0.5-0.7-1.1-1-1.4c0,0,0.1,0,0.1,0c0.8,0,1,0.3,1.1,0.5c0.2-0.2,0.4-0.5,0.4-0.9c0-0.2,0-0.5-0.5-0.5
			c-0.4,0-1.1,0.1-1.5,0.1c-0.3-0.5-1-1.4-1.3-2.1c0.1,0,0.3,0,0.6,0c0.1,0,0.3,0,0.4-0.1C27.1,48.5,26,47,26,45.3
			c0-0.3,0.1-0.6,0.2-0.8c0,0,0.1,0,0.1,0l3.4,5.5c1,1.6,1.8,1.6,3,1.6c-1-0.8-1.7-1.8-2-2.2l-3.2-5.1c0.2-0.1,0.3-0.1,0.5-0.2
			l2.8,4.5c1,1.6,1.8,1.6,3,1.6c-1-0.8-1.7-1.7-2-2.2l-2.8-4.4c0.2-0.1,0.3-0.2,0.5-0.3l2.3,3.6c1,1.6,1.8,1.6,3,1.6
			c-1-0.8-1.7-1.7-2-2.2l-2.3-3.7c0.1-0.1,0.3-0.2,0.4-0.4l1.6,2.6c1,1.6,1.8,1.6,3,1.6c-1-0.8-1.7-1.7-2-2.3l-1.9-3.1
			c0.1-0.2,0.2-0.4,0.3-0.6L33,41.9z M17.7,38.4c0-1.1,0.8-2,1.1-2.3c0.1,0,0.1,0,0.2,0c-0.3,0.4-0.9,1-0.9,1.9
			c0,1.7,1.8,3.1,3.8,3.1c0,0.1,0,0.3,0,0.4c0,0.2,0,0.5,0,0.7C19.7,42.2,17.7,40.3,17.7,38.4z M20.8,52L20.8,52L20.8,52
			c0.7,0,1,0,1.2,0c0.1,0,0.2,0,0.3,0c0.2,0,0.3,0,0.3,0.2c0,0.1-0.2,0.4-0.3,0.5c-0.2-0.2-0.6-0.3-1-0.3c-0.2,0-0.5,0-0.7,0.1l0,0
			l0,0l0,0.1c0,0.1,0,0.3,0,0.5l0,0.2l0,0.3c0,0.5,0.1,0.9,0.3,1.1c0,0-0.1,0-0.2,0c-0.3,0-0.4-0.1-0.4-1.1c0-0.2,0-0.4,0-0.5l0-0.2
			l0,0c-0.5,0.4-1,1.1-1.1,1.6c-0.2-0.1-0.3-0.3-0.3-0.5c0-0.3,0.4-0.7,0.9-1.2l0.3-0.3l0,0l-0.1,0c-0.1,0-0.3-0.1-0.5-0.1
			c-0.5,0-0.9,0.1-1.1,0.3c-0.1-0.1-0.1-0.4-0.1-0.5c0-0.1,0-0.2,0.1-0.2c0,0,0.1,0,0.2,0h0c0.6,0,1.3,0.1,1.6,0.2l0,0l0,0
			c0-0.1,1.2-1.6,1.5-2.4c0.1,0,0.1,0,0.2,0c0.2,0,0.3,0.2,0.4,0.4C21.4,50.9,21,51.6,20.8,52z M27,49.6c0.1,0,0.2,0,0.2,0
			c0.3,0.8,1.4,2.3,1.5,2.4l0,0l0,0c0.3,0,1-0.2,1.6-0.2h0c0.1,0,0.1,0,0.2,0c0,0,0.1,0.1,0.1,0.2c0,0.1-0.1,0.4-0.1,0.5
			c-0.2-0.2-0.6-0.3-1.1-0.3c-0.2,0-0.4,0-0.5,0.1l0,0l0,0l0.3,0.3c0.5,0.5,0.9,0.9,0.9,1.2c0,0.2-0.2,0.4-0.3,0.5
			c0-0.5-0.5-1.2-1.1-1.6l0,0l0,0.2c0,0.1,0,0.3,0,0.5c0,1-0.1,1.1-0.4,1.1c-0.1,0-0.1,0-0.2,0c0.2-0.2,0.3-0.5,0.3-1.1l0-0.3l0-0.2
			c0-0.2,0-0.4,0-0.5l0-0.1l-0.1,0c-0.2,0-0.5-0.1-0.7-0.1c-0.5,0-0.8,0-1,0.3c-0.2-0.1-0.3-0.3-0.3-0.5c0-0.2,0.1-0.2,0.3-0.2
			c0.1,0,0.2,0,0.3,0c0.2,0,0.5,0.1,1.2,0.1h0l0,0c-0.2-0.5-0.6-1.1-1.3-2C26.7,49.8,26.7,49.6,27,49.6z M24.3,36.3
			c-0.1-0.3-0.2-0.6-0.4-0.8C23.7,35.3,23.4,35,23,35c-0.2,0-0.5,0.1-0.7,0.2c-0.1-0.1-0.2-0.4-0.2-0.6c0-0.1,0.2-0.3,0.7-0.3
			c1,0,1.6,0.5,1.6,1.2C24.5,35.9,24.4,36.1,24.3,36.3z M24.8,35.3c0-0.2-0.1-0.4-0.2-0.6c0-0.2,0.1-0.4,0.4-0.2
			c-0.2,0.2,0,0.5,0,0.5s0.4-0.2,0.3-0.4C25.7,34.7,25.3,35.4,24.8,35.3z M26.8,42.2c0-0.2,0-0.5,0-0.7c0-0.1,0-0.3,0-0.4
			c2,0,3.7-1.5,3.7-3.1c0-0.8-0.5-1.5-0.9-1.9c0.1,0,0.1,0,0.2,0c0.3,0.3,1.1,1.2,1.1,2.3C31,40.3,29.1,42.2,26.8,42.2z"/>
	</g>
	<g>
		<path d="M15.3,11.4c-0.1,0-0.2,0-0.3,0s-0.2,0-0.3,0.1c-0.1,0-0.2,0.1-0.2,0.2c0,0.1-0.1,0.2-0.1,0.3v0.5c0,0.4,0,0.6,0,0.7
			s0,0.2,0,0.3c-0.4,0.2-0.8,0.3-1.2,0.4c-0.4,0.1-0.8,0.1-1.2,0.1c-0.4,0-0.8-0.1-1.2-0.2c-0.4-0.2-0.7-0.4-1-0.7
			c-0.3-0.3-0.5-0.6-0.7-1c-0.2-0.4-0.3-0.9-0.3-1.4c0-0.5,0.1-0.9,0.2-1.4C9.5,9.1,9.7,8.7,10,8.4c0.3-0.3,0.6-0.5,1-0.7
			c0.4-0.2,0.8-0.2,1.3-0.2c0.4,0,0.7,0,0.9,0.1c0.3,0.1,0.5,0.2,0.7,0.3l0.2-0.3h0.4l0,2.2h-0.4c-0.1-0.2-0.1-0.5-0.2-0.7
			c-0.1-0.2-0.2-0.5-0.4-0.6C13.4,8.3,13.2,8.1,13,8c-0.2-0.1-0.5-0.2-0.8-0.2c-0.3,0-0.6,0.1-0.9,0.2c-0.3,0.1-0.5,0.3-0.7,0.6
			c-0.2,0.2-0.3,0.6-0.4,0.9c-0.1,0.4-0.1,0.8-0.1,1.2c0,0.4,0,0.8,0.1,1.1c0.1,0.4,0.2,0.7,0.4,0.9c0.2,0.3,0.4,0.5,0.7,0.6
			c0.3,0.2,0.6,0.2,0.9,0.2c0.3,0,0.5,0,0.7-0.1c0.2-0.1,0.4-0.2,0.5-0.3c0-0.2,0-0.3,0-0.5c0-0.2,0-0.3,0-0.4v-0.4
			c0-0.1,0-0.2-0.1-0.3c0-0.1-0.1-0.2-0.2-0.2c-0.1,0-0.2-0.1-0.4-0.1c-0.2,0-0.3,0-0.4,0v-0.3h2.8V11.4z"/>
		<path d="M19.7,12.9c-0.2,0.4-0.4,0.6-0.7,0.8s-0.7,0.3-1.1,0.3c-0.4,0-0.7-0.1-0.9-0.2c-0.3-0.1-0.5-0.3-0.7-0.5s-0.3-0.5-0.4-0.8
			s-0.1-0.6-0.1-0.9c0-0.3,0-0.6,0.1-0.8s0.2-0.5,0.4-0.7c0.2-0.2,0.4-0.4,0.6-0.5c0.3-0.1,0.5-0.2,0.9-0.2c0.3,0,0.6,0.1,0.8,0.2
			S19,9.8,19.1,10c0.1,0.2,0.2,0.4,0.3,0.6c0.1,0.2,0.1,0.5,0.1,0.7v0.3h-2.9c0,0.3,0,0.6,0.1,0.8c0.1,0.2,0.1,0.4,0.3,0.6
			c0.1,0.2,0.3,0.3,0.5,0.4s0.4,0.2,0.7,0.2c0.3,0,0.5-0.1,0.7-0.2c0.2-0.1,0.4-0.3,0.6-0.7L19.7,12.9z M18.7,11.2
			c0-0.2,0-0.3,0-0.5c0-0.2-0.1-0.4-0.1-0.5c-0.1-0.1-0.2-0.2-0.3-0.3c-0.1-0.1-0.3-0.1-0.5-0.1c-0.3,0-0.6,0.1-0.8,0.4
			c-0.2,0.3-0.3,0.6-0.3,1.1H18.7z"/>
		<path d="M23.5,7.5c0,0.1,0,0.2-0.1,0.3S23.2,8,23,8c-0.1,0-0.2,0-0.2-0.1c-0.1,0-0.1-0.1-0.2-0.2s-0.1-0.1-0.2-0.2
			s-0.1-0.2-0.1-0.2c-0.2,0-0.4,0.1-0.5,0.4c-0.1,0.3-0.2,0.7-0.2,1.3v0.5h1.1V10h-1.1v3.2c0,0.1,0,0.2,0.1,0.3
			c0,0.1,0.1,0.1,0.2,0.1c0.1,0,0.2,0,0.3,0.1s0.2,0,0.3,0v0.3h-2.3v-0.3c0.1,0,0.1,0,0.2,0c0.1,0,0.1,0,0.2,0
			c0.1,0,0.1-0.1,0.2-0.1c0-0.1,0.1-0.2,0.1-0.3V10H20V9.5h0.9V9.3c0-0.7,0.2-1.2,0.5-1.6C21.7,7.2,22.1,7,22.7,7
			c0.3,0,0.5,0.1,0.6,0.2C23.4,7.3,23.5,7.4,23.5,7.5z"/>
		<path d="M27.5,11.7c0,0.3,0,0.6-0.1,0.9c-0.1,0.3-0.2,0.6-0.4,0.8c-0.2,0.2-0.4,0.4-0.7,0.5c-0.3,0.1-0.6,0.2-0.9,0.2
			c-0.3,0-0.5-0.1-0.8-0.2c-0.3-0.1-0.5-0.3-0.7-0.5c-0.2-0.2-0.4-0.4-0.5-0.7c-0.1-0.3-0.2-0.6-0.2-1c0-0.7,0.2-1.3,0.6-1.7
			c0.4-0.4,0.9-0.7,1.6-0.7c0.6,0,1.1,0.2,1.5,0.6C27.3,10.4,27.5,11,27.5,11.7z M24.9,7.8c0,0.2-0.1,0.3-0.2,0.4
			c-0.1,0.1-0.2,0.2-0.4,0.2S24.1,8.3,24,8.2c-0.1-0.1-0.2-0.2-0.2-0.4s0.1-0.3,0.2-0.4c0.1-0.1,0.2-0.2,0.4-0.2s0.3,0.1,0.4,0.2
			C24.9,7.5,24.9,7.7,24.9,7.8z M26.5,11.7c0-0.2,0-0.5-0.1-0.7c0-0.2-0.1-0.5-0.2-0.6c-0.1-0.2-0.2-0.3-0.4-0.4
			c-0.2-0.1-0.3-0.2-0.6-0.2c-0.2,0-0.4,0.1-0.6,0.2c-0.2,0.1-0.3,0.3-0.4,0.5c-0.1,0.2-0.2,0.4-0.2,0.6c0,0.2-0.1,0.5-0.1,0.7
			c0,0.3,0,0.6,0.1,0.8c0,0.2,0.1,0.5,0.2,0.7c0.1,0.2,0.2,0.3,0.4,0.5c0.2,0.1,0.3,0.2,0.6,0.2c0.4,0,0.7-0.2,0.9-0.5
			C26.4,12.8,26.5,12.3,26.5,11.7z M26.8,7.8c0,0.2-0.1,0.3-0.2,0.4c-0.1,0.1-0.2,0.2-0.4,0.2S26,8.3,25.9,8.2
			c-0.1-0.1-0.2-0.2-0.2-0.4s0.1-0.3,0.2-0.4c0.1-0.1,0.2-0.2,0.4-0.2s0.3,0.1,0.4,0.2C26.8,7.5,26.8,7.7,26.8,7.8z"/>
		<path d="M31.5,10.1c0,0.2,0,0.3-0.1,0.4s-0.2,0.2-0.3,0.2c-0.2,0-0.3,0-0.4-0.1c-0.1-0.1-0.1-0.2-0.1-0.3c0-0.1,0-0.1,0-0.2
			c0-0.1,0-0.1,0-0.2c-0.1,0-0.3,0.1-0.5,0.2s-0.3,0.3-0.5,0.5v2.6c0,0.1,0,0.2,0.1,0.3c0,0.1,0.1,0.1,0.2,0.1
			c0.1,0,0.2,0.1,0.3,0.1c0.1,0,0.2,0,0.3,0v0.3h-2.3v-0.3c0.1,0,0.1,0,0.2,0c0.1,0,0.1,0,0.2,0c0.1,0,0.1-0.1,0.2-0.1
			c0-0.1,0.1-0.2,0.1-0.3v-2.7c0-0.1,0-0.2-0.1-0.3c0-0.1-0.1-0.2-0.2-0.2c-0.1,0-0.1-0.1-0.2-0.1c-0.1,0-0.2,0-0.3,0V9.6l1.5-0.1
			l0.1,0.1v0.6h0c0.2-0.2,0.4-0.4,0.6-0.6s0.4-0.2,0.6-0.2s0.3,0.1,0.5,0.2C31.4,9.7,31.5,9.9,31.5,10.1z"/>
		<path d="M36.7,13.9L35.2,14l-0.1-0.1v-0.4l0,0c-0.2,0.2-0.3,0.3-0.6,0.4c-0.2,0.1-0.5,0.2-0.7,0.2c-0.3,0-0.5-0.1-0.7-0.2
			c-0.2-0.1-0.4-0.3-0.6-0.5c-0.2-0.2-0.3-0.5-0.4-0.7c-0.1-0.3-0.2-0.6-0.2-1c0-0.3,0.1-0.6,0.2-0.9c0.1-0.3,0.3-0.5,0.5-0.8
			c0.2-0.2,0.4-0.4,0.7-0.5c0.3-0.1,0.5-0.2,0.8-0.2c0.2,0,0.4,0,0.6,0.1c0.2,0.1,0.4,0.1,0.5,0.2V8.1c0-0.1,0-0.2-0.1-0.3
			c0-0.1-0.1-0.2-0.2-0.2c-0.1-0.1-0.2-0.1-0.3-0.1c-0.1,0-0.3,0-0.5-0.1V7.1L35.9,7l0.1,0.1v6c0,0.1,0,0.2,0.1,0.3
			c0,0.1,0.1,0.1,0.2,0.2c0.1,0,0.1,0.1,0.2,0.1s0.2,0,0.3,0V13.9z M35.1,13.1v-2.6c0-0.1-0.1-0.2-0.1-0.3s-0.1-0.2-0.2-0.2
			c-0.1-0.1-0.2-0.1-0.3-0.2c-0.1,0-0.3-0.1-0.4-0.1c-0.2,0-0.3,0-0.5,0.1c-0.2,0.1-0.3,0.2-0.4,0.4c-0.1,0.2-0.2,0.4-0.3,0.6
			c-0.1,0.3-0.1,0.5-0.1,0.9c0,0.3,0,0.5,0.1,0.7c0,0.2,0.1,0.4,0.2,0.6c0.1,0.2,0.2,0.3,0.4,0.4c0.2,0.1,0.4,0.2,0.6,0.2
			c0.2,0,0.4-0.1,0.6-0.2C34.9,13.3,35,13.2,35.1,13.1z"/>
		<path d="M41.1,12.9c-0.2,0.4-0.4,0.6-0.7,0.8s-0.7,0.3-1.1,0.3c-0.4,0-0.7-0.1-0.9-0.2c-0.3-0.1-0.5-0.3-0.7-0.5s-0.3-0.5-0.4-0.8
			s-0.1-0.6-0.1-0.9c0-0.3,0-0.6,0.1-0.8c0.1-0.3,0.2-0.5,0.4-0.7c0.2-0.2,0.4-0.4,0.6-0.5s0.5-0.2,0.9-0.2c0.3,0,0.6,0.1,0.8,0.2
			c0.2,0.1,0.4,0.2,0.6,0.4c0.1,0.2,0.2,0.4,0.3,0.6C41,10.8,41,11,41,11.3v0.3h-2.9c0,0.3,0,0.6,0.1,0.8c0.1,0.2,0.1,0.4,0.3,0.6
			c0.1,0.2,0.3,0.3,0.5,0.4c0.2,0.1,0.4,0.2,0.7,0.2c0.3,0,0.5-0.1,0.7-0.2c0.2-0.1,0.4-0.3,0.6-0.7L41.1,12.9z M40.1,11.2
			c0-0.2,0-0.3,0-0.5c0-0.2-0.1-0.4-0.1-0.5c-0.1-0.1-0.2-0.2-0.3-0.3c-0.1-0.1-0.3-0.1-0.5-0.1c-0.3,0-0.6,0.1-0.8,0.4
			c-0.2,0.3-0.3,0.6-0.3,1.1H40.1z"/>
		<path d="M45,10.1c0,0.2,0,0.3-0.1,0.4c-0.1,0.1-0.2,0.2-0.3,0.2c-0.2,0-0.3,0-0.4-0.1c-0.1-0.1-0.1-0.2-0.1-0.3c0-0.1,0-0.1,0-0.2
			c0-0.1,0-0.1,0-0.2c-0.1,0-0.3,0.1-0.5,0.2c-0.2,0.1-0.3,0.3-0.5,0.5v2.6c0,0.1,0,0.2,0.1,0.3s0.1,0.1,0.2,0.1
			c0.1,0,0.2,0.1,0.3,0.1c0.1,0,0.2,0,0.3,0v0.3h-2.3v-0.3c0.1,0,0.1,0,0.2,0s0.1,0,0.2,0c0.1,0,0.1-0.1,0.2-0.1
			c0-0.1,0.1-0.2,0.1-0.3v-2.7c0-0.1,0-0.2-0.1-0.3c0-0.1-0.1-0.2-0.2-0.2c-0.1,0-0.1-0.1-0.2-0.1s-0.2,0-0.3,0V9.6L43,9.5l0.1,0.1
			v0.6h0c0.2-0.2,0.4-0.4,0.6-0.6c0.2-0.1,0.4-0.2,0.6-0.2c0.2,0,0.3,0.1,0.5,0.2S45,9.9,45,10.1z"/>
		<path d="M48.1,13.8c-0.2,0.1-0.4,0.1-0.6,0.2S47.2,14,46.9,14c-0.4,0-0.6-0.1-0.8-0.3s-0.2-0.5-0.2-0.8v-3h-0.8V9.5h0.8V8.2h0.8
			v1.4H48V10h-1.3v2.5c0,0.2,0,0.3,0,0.5s0,0.2,0.1,0.3c0,0.1,0.1,0.2,0.2,0.2s0.2,0.1,0.4,0.1c0.1,0,0.2,0,0.3,0s0.2,0,0.3-0.1
			V13.8z"/>
		<path d="M55.6,13.9L54.1,14L54,13.9v-0.4l0,0c-0.2,0.2-0.3,0.3-0.6,0.4c-0.2,0.1-0.5,0.2-0.7,0.2c-0.3,0-0.5-0.1-0.7-0.2
			c-0.2-0.1-0.4-0.3-0.6-0.5c-0.2-0.2-0.3-0.5-0.4-0.7s-0.2-0.6-0.2-1c0-0.3,0.1-0.6,0.2-0.9c0.1-0.3,0.3-0.5,0.5-0.8
			c0.2-0.2,0.4-0.4,0.7-0.5c0.3-0.1,0.5-0.2,0.8-0.2c0.2,0,0.4,0,0.6,0.1c0.2,0.1,0.4,0.1,0.5,0.2V8.1c0-0.1,0-0.2-0.1-0.3
			c0-0.1-0.1-0.2-0.2-0.2c-0.1-0.1-0.2-0.1-0.3-0.1c-0.1,0-0.3,0-0.5-0.1V7.1L54.8,7l0.1,0.1v6c0,0.1,0,0.2,0.1,0.3
			c0,0.1,0.1,0.1,0.2,0.2c0.1,0,0.1,0.1,0.2,0.1s0.2,0,0.3,0V13.9z M54,13.1v-2.6c0-0.1-0.1-0.2-0.1-0.3s-0.1-0.2-0.2-0.2
			c-0.1-0.1-0.2-0.1-0.3-0.2c-0.1,0-0.3-0.1-0.4-0.1c-0.2,0-0.3,0-0.5,0.1c-0.2,0.1-0.3,0.2-0.4,0.4c-0.1,0.2-0.2,0.4-0.3,0.6
			c-0.1,0.3-0.1,0.5-0.1,0.9c0,0.3,0,0.5,0.1,0.7c0,0.2,0.1,0.4,0.2,0.6c0.1,0.2,0.2,0.3,0.4,0.4s0.4,0.2,0.6,0.2
			c0.2,0,0.4-0.1,0.6-0.2C53.7,13.3,53.9,13.2,54,13.1z"/>
		<path d="M60.8,13.9L59.3,14l-0.1-0.1v-0.6h0c-0.1,0.1-0.2,0.2-0.2,0.2c-0.1,0.1-0.2,0.2-0.3,0.2c-0.1,0.1-0.3,0.1-0.4,0.2
			c-0.1,0-0.3,0.1-0.5,0.1c-0.4,0-0.7-0.1-0.9-0.4c-0.2-0.3-0.3-0.6-0.3-1.1v-2.1c0-0.1,0-0.2-0.1-0.3c0-0.1-0.1-0.1-0.2-0.2
			c-0.1,0-0.1-0.1-0.2-0.1c-0.1,0-0.2,0-0.3,0V9.6l1.5-0.1l0.1,0.1v3.1c0,0.3,0.1,0.6,0.2,0.7s0.3,0.2,0.5,0.2c0.2,0,0.3,0,0.4-0.1
			c0.1-0.1,0.2-0.1,0.3-0.2c0.1-0.1,0.2-0.1,0.2-0.2c0.1-0.1,0.1-0.1,0.1-0.2v-2.5c0-0.1,0-0.2-0.1-0.3c0-0.1-0.1-0.1-0.2-0.2
			c-0.1,0-0.1-0.1-0.2-0.1s-0.2,0-0.4,0V9.6L60,9.5l0.1,0.1V13c0,0.1,0,0.2,0.1,0.3c0,0.1,0.1,0.1,0.2,0.2c0.1,0,0.1,0.1,0.2,0.1
			c0.1,0,0.2,0,0.2,0V13.9z"/>
		<path d="M64.7,10.1c0,0.2,0,0.3-0.1,0.4c-0.1,0.1-0.2,0.2-0.3,0.2c-0.2,0-0.3,0-0.4-0.1c-0.1-0.1-0.1-0.2-0.1-0.3
			c0-0.1,0-0.1,0-0.2c0-0.1,0-0.1,0-0.2c-0.1,0-0.3,0.1-0.5,0.2s-0.3,0.3-0.5,0.5v2.6c0,0.1,0,0.2,0.1,0.3s0.1,0.1,0.2,0.1
			c0.1,0,0.2,0.1,0.3,0.1s0.2,0,0.3,0v0.3h-2.3v-0.3c0.1,0,0.1,0,0.2,0c0.1,0,0.1,0,0.2,0c0.1,0,0.1-0.1,0.2-0.1
			c0-0.1,0.1-0.2,0.1-0.3v-2.7c0-0.1,0-0.2-0.1-0.3c0-0.1-0.1-0.2-0.2-0.2c-0.1,0-0.1-0.1-0.2-0.1s-0.2,0-0.3,0V9.6l1.5-0.1l0.1,0.1
			v0.6h0c0.2-0.2,0.4-0.4,0.6-0.6s0.4-0.2,0.6-0.2c0.2,0,0.3,0.1,0.5,0.2S64.7,9.9,64.7,10.1z"/>
		<path d="M67.1,14.1c-0.6,0-1.1-0.2-1.5-0.6c-0.4-0.4-0.5-1-0.5-1.7c0-0.3,0-0.6,0.1-0.9c0.1-0.3,0.2-0.5,0.4-0.7
			c0.2-0.2,0.4-0.4,0.7-0.5c0.3-0.1,0.6-0.2,0.9-0.2c0.4,0,0.8,0.1,1.1,0.3c0.3,0.2,0.4,0.5,0.4,0.9c0,0.1,0,0.3-0.1,0.4
			s-0.2,0.2-0.4,0.2c-0.2,0-0.3,0-0.4-0.1c-0.1-0.1-0.1-0.2-0.1-0.3c0-0.1,0-0.3,0.1-0.4c0-0.1,0.1-0.2,0.1-0.3
			c-0.1-0.1-0.1-0.2-0.2-0.2c-0.1,0-0.2,0-0.3,0c-0.1,0-0.3,0-0.4,0.1s-0.3,0.2-0.4,0.3c-0.1,0.1-0.2,0.4-0.3,0.6
			C66.1,11,66,11.3,66,11.7c0,0.6,0.1,1,0.4,1.4c0.2,0.4,0.6,0.5,1,0.5c0.3,0,0.5-0.1,0.7-0.2c0.2-0.1,0.4-0.4,0.5-0.6l0.3,0.2
			c-0.2,0.4-0.5,0.6-0.8,0.8C67.8,14,67.5,14.1,67.1,14.1z"/>
		<path d="M74.1,13.9h-2.2v-0.3c0.1,0,0.1,0,0.2,0s0.2,0,0.2,0c0.1,0,0.1-0.1,0.2-0.1c0-0.1,0.1-0.2,0.1-0.3v-2.3
			c0-0.3-0.1-0.6-0.2-0.7C72.2,10,72,9.9,71.8,9.9c-0.2,0-0.3,0-0.4,0.1c-0.1,0-0.3,0.1-0.4,0.2c-0.1,0.1-0.2,0.1-0.2,0.2
			c-0.1,0.1-0.1,0.1-0.1,0.2v2.5c0,0.1,0,0.2,0.1,0.3c0,0.1,0.1,0.1,0.2,0.2c0.1,0,0.1,0.1,0.2,0.1s0.1,0,0.2,0v0.3h-2.2v-0.3
			c0.1,0,0.1,0,0.2,0c0.1,0,0.1,0,0.2,0c0.1,0,0.1-0.1,0.2-0.1c0-0.1,0.1-0.2,0.1-0.3V8c0-0.1,0-0.2-0.1-0.3c0-0.1-0.1-0.2-0.2-0.2
			c-0.1,0-0.1-0.1-0.3-0.1c-0.1,0-0.2,0-0.3,0V7.1L70.6,7l0.1,0.1v3.1h0c0.1-0.1,0.2-0.2,0.3-0.3s0.2-0.2,0.3-0.2
			c0.1-0.1,0.2-0.1,0.4-0.2c0.2,0,0.3-0.1,0.5-0.1c0.4,0,0.7,0.1,0.9,0.4c0.2,0.2,0.3,0.6,0.3,1.1v2.3c0,0.1,0,0.2,0.1,0.3
			c0,0.1,0.1,0.1,0.2,0.2c0.1,0,0.1,0,0.2,0.1c0.1,0,0.1,0,0.2,0V13.9z"/>
	</g>
</g>
<g id="Adler_und_Saeulenelement">
</g>
</svg>
