<?xml version="1.0" encoding="utf-8"?>
<!-- Generator: Adobe Illustrator 21.0.0, SVG Export Plug-In . SVG Version: 6.00 Build 0)  -->
<svg version="1.1" xmlns="http://www.w3.org/2000/svg" xmlns:xlink="http://www.w3.org/1999/xlink" x="0px" y="0px"
	 viewBox="0 0 205 170" style="enable-background:new 0 0 205 170;" xml:space="preserve">
<style type="text/css">
	.st0{fill:#F8D200;}
	.st1{fill:#E30613;}
</style>
<g id="Adler_und_Saeulenelement">
	<polygon class="st0" points="53.9,89.3 55.4,89.3 55.4,109.3 51.9,109.3 51.9,89.3 	"/>
	<polygon class="st1" points="53.9,69.2 55.4,69.2 55.4,89.3 51.9,89.3 51.9,69.2 	"/>
	<polygon points="55.4,49.3 55.4,69.3 53.9,69.3 51.9,69.3 51.9,49.3 	"/>
	<g>
		<path d="M42.8,56.3c1,1.6,1.8,1.6,3,1.6c-1-0.8-1.7-1.8-2-2.3l-1.9-3c-0.2-0.9-0.7-1.8-1.4-2.4c0.2-0.1,0.4-0.2,0.6-0.3
			c-1.2,0-2.4-0.6-3.1-0.6c-0.4,0-0.7,0.3-0.7,0.6c0,0.4,0.4,0.8,1.1,0.8c0.2,0,0.4,0,0.6-0.1c0.4,0.5,0.7,1,0.7,1.7
			c0,1.3-1.6,2.3-3.1,2.3c-0.1,0-0.2,0-0.3,0c-0.1-0.3-0.6-0.9-0.6-1.5c0-1,0.7-1.9,0.7-2.9c0-0.6-0.3-1-0.4-1.2
			c0.2-0.2,0.4-0.4,0.5-0.6c-0.1,0-0.2,0.1-0.4,0.1c-0.8,0-1.4-0.2-2-0.2c-0.3,0-0.4,0.1-0.4,0.2c0,0,0,0.1,0,0.1
			c-0.1-0.1-0.2-0.1-0.4-0.1c-0.2,0-0.4-0.1-0.6-0.1c-0.7,0-1,0.3-1,0.6c0,0.2,0.2,0.6,0.4,0.9c0.3-0.1,0.6-0.2,0.8-0.2
			c0.4,0,0.7,0.4,0.9,0.8c-0.3,0-0.3,0-0.6,0c-0.7,0-1.2-0.3-1.3-0.3c0,0,0,0,0,0c0,0.1,0.2,0.4,0.6,0.5c0.5,0.2,1.3,0.3,1.4,0.3
			c0,0-0.1,0.3-0.3,0.3c0,0-0.1,0-0.1,0c-0.5-0.1-0.7-0.2-1.4-0.4c0,0,0,0,0,0c0,0.3,0.7,0.9,1.3,1.1c-0.5,0.7-1.2,1.4-1.5,2.4
			c-0.1,0-0.2,0-0.3,0c-1.6,0-3.1-1-3.1-2.3c0-0.7,0.3-1.2,0.7-1.7c0.2,0,0.4,0.1,0.6,0.1c0.7,0,1.1-0.4,1.1-0.8
			c0-0.3-0.3-0.6-0.7-0.6c-0.7,0-1.9,0.6-3.1,0.6c0.1,0.1,0.3,0.2,0.6,0.3c-0.7,0.6-1.2,1.5-1.4,2.4l-1.9,3c-0.3,0.5-1,1.5-2,2.3
			c1.2,0,2,0,3-1.6l1-1.5c0.1,0.2,0.2,0.4,0.3,0.6l-1.9,3.1c-0.3,0.5-1,1.5-2,2.3c1.2,0,2,0,3-1.6l1.6-2.6c0.1,0.1,0.3,0.3,0.4,0.4
			l-2.3,3.7c-0.3,0.5-1,1.5-2,2.2c1.2,0,2,0,3-1.6l2.3-3.6c0.1,0.1,0.3,0.2,0.5,0.3l-2.8,4.4c-0.3,0.5-1,1.5-2,2.2c1.2,0,2,0,3-1.6
			l2.8-4.5c0.2,0.1,0.3,0.1,0.5,0.2l-3.2,5.1c-0.3,0.5-1,1.5-2,2.2c1.2,0,2,0,3-1.6l3.4-5.5c0,0,0.1,0,0.1,0
			c0.1,0.3,0.2,0.6,0.2,0.8c0,1.7-1.1,3.2-2.5,4.4c0.1,0,0.2,0.1,0.4,0.1c0.3,0,0.5,0,0.6,0c-0.3,0.7-1,1.6-1.3,2.1
			c-0.4-0.1-1.1-0.1-1.5-0.1c-0.4,0-0.5,0.3-0.5,0.5c0,0.4,0.2,0.7,0.4,0.9c0.1-0.2,0.2-0.5,1.1-0.5c0,0,0,0,0.1,0
			c-0.2,0.3-1,0.9-1,1.4c0,0.3,0.4,0.8,0.8,0.8c0-0.1,0-0.2,0-0.3c0-0.4,0.3-0.9,0.6-1.2c0,0.1,0,0.1,0,0.2c0,0.9,0.1,1.4,0.7,1.4
			c0.3,0,0.5-0.2,0.6-0.2c-0.4-0.4-0.4-0.6-0.4-1.2c0-0.1,0-0.3,0-0.5c0-0.1,0-0.3,0-0.4c0.2,0,0.3,0,0.5,0c0,0,0.8-0.1,1,0.4
			c0.2-0.2,0.6-0.5,0.6-0.8c0-0.2-0.1-0.5-0.5-0.5c-0.2,0-0.7,0.1-1.1,0.1c0.1-0.3,0.6-1,1.1-1.6c0.1,0.2,0.2,0.4,0.4,0.6
			c0-0.4,0.2-1.5,0.8-2.1c0.1,0.4,0.2,0.9,0.2,1.8c0,2.3-0.6,4-1.7,4.3c0.2,0.3,0.5,0.5,0.8,0.5c0.4,0,0.7-0.5,0.9-0.9
			c0.1,0.3,0.5,1.2,0.8,1.2c0.3,0,0.7-0.8,0.8-1.2c0.2,0.5,0.5,0.9,0.9,0.9c0.3,0,0.7-0.2,0.8-0.5c-1.2-0.3-1.7-2-1.7-4.3
			c0-1,0.1-1.4,0.1-1.8c0.6,0.7,0.8,1.8,0.8,2.1c0.2-0.2,0.3-0.4,0.4-0.6c0.4,0.5,1,1.3,1.1,1.6c-0.4,0-0.9-0.1-1.1-0.1
			c-0.4,0-0.5,0.2-0.5,0.5c0,0.3,0.3,0.6,0.6,0.8c0.2-0.4,1-0.4,1-0.4c0.2,0,0.2,0,0.5,0c0,0.1,0,0.3,0,0.4c0,0.2,0,0.3,0,0.5
			c0,0.5,0,0.8-0.4,1.2c0.1,0,0.3,0.2,0.6,0.2c0.6,0,0.7-0.4,0.7-1.4c0-0.1,0-0.1,0-0.2c0.3,0.3,0.6,0.8,0.6,1.2c0,0.1,0,0.2,0,0.3
			c0.5,0,0.8-0.5,0.8-0.8c0-0.5-0.7-1.1-1-1.4c0,0,0.1,0,0.1,0c0.8,0,1,0.3,1.1,0.5c0.2-0.2,0.4-0.5,0.4-0.9c0-0.2,0-0.5-0.5-0.5
			c-0.4,0-1.1,0.1-1.5,0.1c-0.3-0.5-1-1.4-1.3-2.1c0.1,0,0.3,0,0.6,0c0.1,0,0.3,0,0.4-0.1c-1.4-1.2-2.5-2.7-2.5-4.4
			c0-0.3,0.1-0.6,0.2-0.8c0,0,0.1,0,0.1,0l3.4,5.5c1,1.6,1.8,1.6,3,1.6c-1-0.8-1.7-1.8-2-2.2l-3.2-5.1c0.2-0.1,0.3-0.1,0.5-0.2
			l2.8,4.5c1,1.6,1.8,1.6,3,1.6c-1-0.8-1.7-1.7-2-2.2L39,57.9c0.2-0.1,0.3-0.2,0.5-0.3l2.3,3.6c1,1.6,1.8,1.6,3,1.6
			c-1-0.8-1.7-1.7-2-2.2l-2.3-3.7c0.1-0.1,0.3-0.2,0.4-0.4l1.6,2.6c1,1.6,1.8,1.6,3,1.6c-1-0.8-1.7-1.7-2-2.3l-1.9-3.1
			c0.1-0.2,0.2-0.4,0.3-0.6L42.8,56.3z M27.5,52.8c0-1.1,0.8-2,1.1-2.3c0.1,0,0.1,0,0.2,0c-0.3,0.4-0.9,1-0.9,1.9
			c0,1.7,1.8,3.1,3.8,3.1c0,0.1,0,0.3,0,0.4c0,0.2,0,0.5,0,0.7C29.5,56.7,27.5,54.8,27.5,52.8z M30.6,66.5L30.6,66.5L30.6,66.5
			c0.7,0,1,0,1.2,0c0.1,0,0.2,0,0.3,0c0.2,0,0.3,0,0.3,0.2c0,0.1-0.2,0.4-0.3,0.5c-0.2-0.2-0.6-0.3-1-0.3c-0.2,0-0.5,0-0.7,0.1l0,0
			l0,0l0,0.1c0,0.1,0,0.3,0,0.5l0,0.2l0,0.3c0,0.5,0.1,0.9,0.3,1.1c0,0-0.1,0-0.2,0C30.1,69.1,30,69,30,68c0-0.2,0-0.4,0-0.5l0-0.2
			l0,0c-0.5,0.4-1,1.1-1.1,1.6c-0.2-0.1-0.3-0.3-0.3-0.5c0-0.3,0.4-0.7,0.9-1.2l0.3-0.3l0,0l-0.1,0c-0.1,0-0.3-0.1-0.5-0.1
			c-0.5,0-0.9,0.1-1.1,0.3C28,67.1,28,66.8,28,66.7c0-0.1,0-0.2,0.1-0.2c0,0,0.1,0,0.2,0h0c0.6,0,1.3,0.1,1.6,0.2l0,0l0,0
			c0-0.1,1.2-1.6,1.5-2.4c0.1,0,0.1,0,0.2,0c0.2,0,0.3,0.2,0.4,0.4C31.2,65.4,30.8,66,30.6,66.5z M36.8,64.1c0.1,0,0.2,0,0.2,0
			c0.3,0.8,1.4,2.3,1.5,2.4l0,0l0,0c0.3,0,1-0.2,1.6-0.2h0c0.1,0,0.1,0,0.2,0c0,0,0.1,0.1,0.1,0.2c0,0.1-0.1,0.4-0.1,0.5
			c-0.2-0.2-0.6-0.3-1.1-0.3c-0.2,0-0.4,0-0.5,0.1l0,0l0,0l0.3,0.3c0.5,0.5,0.9,0.9,0.9,1.2c0,0.2-0.2,0.4-0.3,0.5
			c0-0.5-0.5-1.2-1.1-1.6l0,0l0,0.2c0,0.1,0,0.3,0,0.5c0,1-0.1,1.1-0.4,1.1c-0.1,0-0.1,0-0.2,0c0.2-0.2,0.3-0.5,0.3-1.1l0-0.3l0-0.2
			c0-0.2,0-0.4,0-0.5l0-0.1l-0.1,0c-0.2,0-0.5-0.1-0.7-0.1c-0.5,0-0.8,0-1,0.3C36.2,67,36,66.8,36,66.7c0-0.2,0.1-0.2,0.3-0.2
			c0.1,0,0.2,0,0.3,0c0.2,0,0.5,0.1,1.2,0.1h0l0,0c-0.2-0.5-0.6-1.1-1.3-2C36.5,64.3,36.6,64.1,36.8,64.1z M34.1,50.8
			c-0.1-0.3-0.2-0.6-0.4-0.8c-0.2-0.2-0.5-0.5-0.9-0.5c-0.2,0-0.5,0.1-0.7,0.2c-0.1-0.1-0.2-0.4-0.2-0.6c0-0.1,0.2-0.3,0.7-0.3
			c1,0,1.6,0.5,1.6,1.2C34.4,50.3,34.2,50.6,34.1,50.8z M34.6,49.8c0-0.2-0.1-0.4-0.2-0.6c0-0.2,0.1-0.4,0.4-0.2
			c-0.2,0.2,0,0.5,0,0.5s0.4-0.2,0.3-0.4C35.6,49.2,35.2,49.9,34.6,49.8z M36.6,56.7c0-0.2,0-0.5,0-0.7c0-0.1,0-0.3,0-0.4
			c2,0,3.7-1.5,3.7-3.1c0-0.8-0.5-1.5-0.9-1.9c0.1,0,0.1,0,0.2,0c0.3,0.3,1.1,1.2,1.1,2.3C40.9,54.8,38.9,56.6,36.6,56.7z"/>
	</g>
</g>
<g id="Benennung">
	<path d="M67.3,55.1c0,0.8-0.2,1.4-0.6,1.8c-0.4,0.3-1,0.5-1.8,0.5h-2v-8.2H65c0.7,0,1.3,0.2,1.6,0.5c0.3,0.3,0.5,0.8,0.5,1.6
		c0,0.5-0.1,0.9-0.3,1.2c-0.2,0.3-0.5,0.5-1,0.7c0.5,0.1,0.9,0.4,1.1,0.7C67.2,54.1,67.3,54.5,67.3,55.1z M66.2,51.3
		c0-0.5-0.1-0.9-0.4-1.1c-0.2-0.2-0.6-0.3-1.1-0.3h-0.9v2.8h1C65.7,52.7,66.2,52.3,66.2,51.3z M66.3,55.1c0-0.5-0.1-0.9-0.3-1.2
		c-0.2-0.3-0.6-0.4-1.1-0.4h-1v3.1h0.9c0.6,0,1-0.1,1.2-0.3C66.2,56.1,66.3,55.7,66.3,55.1z M72.6,57.3h-0.9l0-0.7
		c-0.3,0.5-0.8,0.8-1.4,0.8c-1,0-1.5-0.6-1.5-1.8v-4h0.9v3.6c0,0.5,0,0.8,0.1,1c0.1,0.3,0.4,0.5,0.8,0.5c0.7,0,1.1-0.6,1.1-1.7v-3.5
		h0.9v4.4C72.6,56.5,72.6,57,72.6,57.3z M78.1,57.3h-0.9v-3.6c0-0.5,0-0.8-0.1-1c-0.1-0.3-0.4-0.5-0.8-0.5c-0.4,0-0.7,0.2-0.9,0.6
		c-0.2,0.3-0.3,0.7-0.3,1.2v3.4h-0.9v-4.5c0-0.5,0-0.9,0-1.2h0.9v0.8c0.3-0.6,0.8-0.9,1.5-0.9c1,0,1.5,0.6,1.5,1.8V57.3z M83.5,57.3
		h-0.9l0-0.7c-0.3,0.5-0.8,0.7-1.3,0.7c-0.7,0-1.2-0.3-1.5-1c-0.2-0.4-0.3-1.1-0.3-2c0-0.9,0.1-1.5,0.3-2c0.3-0.6,0.8-0.9,1.4-0.9
		c0.6,0,1,0.2,1.3,0.7v-3h0.9v7.1C83.5,56.5,83.5,56.8,83.5,57.3z M82.6,54.6c0-0.8-0.1-1.3-0.2-1.7c-0.2-0.5-0.5-0.7-0.9-0.7
		c-0.4,0-0.7,0.2-0.9,0.7c-0.1,0.3-0.2,0.8-0.2,1.5c0,0.7,0.1,1.3,0.2,1.6c0.2,0.5,0.4,0.7,0.8,0.7c0.5,0,0.8-0.2,1-0.7
		C82.6,55.8,82.6,55.3,82.6,54.6z M88.8,54.6h-3V55c0,0.6,0.1,1,0.2,1.3c0.2,0.4,0.4,0.6,0.9,0.6c0.7,0,1-0.4,1-1.3h0.9
		c-0.1,1.3-0.7,1.9-1.9,1.9c-0.8,0-1.3-0.3-1.6-0.8c-0.2-0.4-0.3-1-0.3-1.9c0-1,0.1-1.7,0.3-2.2c0.3-0.7,0.9-1,1.7-1
		c0.8,0,1.4,0.3,1.6,0.9c0.2,0.4,0.2,1,0.2,1.9V54.6z M87.9,54c0-0.5,0-0.9-0.1-1.2c-0.1-0.5-0.4-0.7-0.9-0.7c-0.6,0-1,0.4-1.1,1.1
		c0,0.3,0,0.5,0,0.7H87.9z M93.4,55.8c0,1.1-0.6,1.7-1.8,1.7c-1.2,0-1.7-0.6-1.7-1.8h0.9c0,0.1,0,0.2,0,0.3c0.1,0.6,0.3,0.9,0.8,0.9
		c0.6,0,0.9-0.3,0.9-0.9c0-0.3-0.1-0.6-0.3-0.7c-0.1-0.1-0.4-0.3-0.8-0.5c-0.5-0.3-0.9-0.5-1-0.6C90.2,53.8,90,53.4,90,53
		c0-0.5,0.2-0.9,0.5-1.1c0.3-0.2,0.7-0.4,1.2-0.4c0.6,0,1,0.1,1.3,0.4c0.2,0.3,0.4,0.7,0.4,1.3h-0.9c0-0.7-0.3-1.1-0.8-1.1
		c-0.2,0-0.4,0.1-0.6,0.2c-0.1,0.1-0.2,0.3-0.2,0.6c0,0.3,0.1,0.5,0.3,0.7c0.1,0.1,0.4,0.3,0.8,0.5c0.5,0.2,0.8,0.5,0.9,0.6
		C93.3,55,93.4,55.4,93.4,55.8z M101,57.3h-0.9v-3.8c0-0.4,0-0.7-0.1-0.9c-0.1-0.3-0.3-0.4-0.7-0.4c-0.7,0-1,0.5-1,1.5v3.6h-0.9
		v-3.9c0-0.4,0-0.7-0.1-0.8c-0.1-0.3-0.3-0.4-0.7-0.4c-0.3,0-0.6,0.2-0.8,0.5c-0.2,0.3-0.2,0.7-0.2,1.1v3.5h-0.9v-4.7
		c0-0.3,0-0.7,0-1h0.9v0.7c0.3-0.6,0.8-0.9,1.3-0.9c0.6,0,1.1,0.3,1.3,0.9c0.3-0.6,0.8-0.9,1.4-0.9c0.5,0,0.9,0.2,1.1,0.5
		c0.2,0.3,0.3,0.8,0.3,1.4V57.3z M103.7,50.3h-1v-1h1V50.3z M103.6,57.3h-0.9v-5.7h0.9V57.3z M109.1,57.3h-0.9v-3.6
		c0-0.5,0-0.8-0.1-1c-0.1-0.3-0.4-0.5-0.8-0.5c-0.4,0-0.7,0.2-0.9,0.6c-0.2,0.3-0.3,0.7-0.3,1.2v3.4h-0.9v-4.5c0-0.5,0-0.9,0-1.2
		h0.9v0.8c0.3-0.6,0.8-0.9,1.5-0.9c1,0,1.5,0.6,1.5,1.8V57.3z M111.7,50.3h-1v-1h1V50.3z M111.7,57.3h-0.9v-5.7h0.9V57.3z
		 M116.5,55.8c0,1.1-0.6,1.7-1.8,1.7c-1.2,0-1.7-0.6-1.7-1.8h0.9c0,0.1,0,0.2,0,0.3c0.1,0.6,0.3,0.9,0.8,0.9c0.6,0,0.9-0.3,0.9-0.9
		c0-0.3-0.1-0.6-0.3-0.7c-0.1-0.1-0.4-0.3-0.8-0.5c-0.5-0.3-0.9-0.5-1-0.6c-0.3-0.3-0.4-0.6-0.4-1.1c0-0.5,0.2-0.9,0.5-1.1
		c0.3-0.2,0.7-0.4,1.2-0.4c0.6,0,1,0.1,1.3,0.4c0.2,0.3,0.4,0.7,0.4,1.3h-0.9c0-0.7-0.3-1.1-0.8-1.1c-0.2,0-0.4,0.1-0.6,0.2
		c-0.1,0.1-0.2,0.3-0.2,0.6c0,0.3,0.1,0.5,0.3,0.7c0.1,0.1,0.4,0.3,0.8,0.5c0.5,0.2,0.8,0.5,0.9,0.6C116.4,55,116.5,55.4,116.5,55.8
		z M120.1,57.3c-0.3,0-0.5,0-0.7,0c-0.5,0-0.9-0.1-1.1-0.3c-0.2-0.2-0.2-0.6-0.2-1.1v-3.7h-0.8v-0.7h0.8v-1.1l0.9-0.4v1.4h1v0.7h-1
		v3.6c0,0.3,0,0.5,0.1,0.6c0.1,0.1,0.3,0.2,0.5,0.2c0,0,0.2,0,0.4,0V57.3z M124.9,54.6h-3V55c0,0.6,0.1,1,0.2,1.3
		c0.2,0.4,0.4,0.6,0.9,0.6c0.7,0,1-0.4,1-1.3h0.9c-0.1,1.3-0.7,1.9-1.9,1.9c-0.8,0-1.3-0.3-1.6-0.8c-0.2-0.4-0.3-1-0.3-1.9
		c0-1,0.1-1.7,0.3-2.2c0.3-0.7,0.9-1,1.7-1c0.8,0,1.4,0.3,1.6,0.9c0.2,0.4,0.2,1,0.2,1.9V54.6z M124,54c0-0.5,0-0.9-0.1-1.2
		c-0.1-0.5-0.4-0.7-0.9-0.7c-0.6,0-1,0.4-1.1,1.1c0,0.3,0,0.5,0,0.7H124z M128.7,52.4c-0.1,0-0.2,0-0.2,0c-0.4,0-0.8,0.1-1,0.4
		c-0.2,0.3-0.3,0.6-0.3,1.1v3.5h-0.9v-4.7c0-0.4,0-0.7,0-1h0.9v0.7c0.3-0.6,0.8-0.9,1.4-0.9C128.6,51.5,128.7,51.8,128.7,52.4z
		 M130.7,50.3h-1v-1h1V50.3z M130.6,57.3h-0.9v-5.7h0.9V57.3z M136.2,57.3h-0.9l0-0.7c-0.3,0.5-0.8,0.8-1.4,0.8
		c-1,0-1.5-0.6-1.5-1.8v-4h0.9v3.6c0,0.5,0,0.8,0.1,1c0.1,0.3,0.4,0.5,0.8,0.5c0.7,0,1.1-0.6,1.1-1.7v-3.5h0.9v4.4
		C136.1,56.5,136.2,57,136.2,57.3z M144.1,57.3h-0.9v-3.8c0-0.4,0-0.7-0.1-0.9c-0.1-0.3-0.3-0.4-0.7-0.4c-0.7,0-1,0.5-1,1.5v3.6
		h-0.9v-3.9c0-0.4,0-0.7-0.1-0.8c-0.1-0.3-0.3-0.4-0.7-0.4c-0.3,0-0.6,0.2-0.8,0.5c-0.2,0.3-0.2,0.7-0.2,1.1v3.5h-0.9v-4.7
		c0-0.3,0-0.7,0-1h0.9v0.7c0.3-0.6,0.8-0.9,1.3-0.9c0.6,0,1.1,0.3,1.3,0.9c0.3-0.6,0.8-0.9,1.4-0.9c0.5,0,0.9,0.2,1.1,0.5
		c0.2,0.3,0.3,0.8,0.3,1.4V57.3z M64.9,61.8c-0.1,0-0.2,0-0.3,0c-0.3,0-0.5,0.1-0.6,0.3c-0.1,0.1-0.1,0.4-0.1,0.7v0.8h1v0.7h-1v5H63
		v-5h-0.8v-0.7H63V63c0-0.6,0.1-1.1,0.2-1.3c0.2-0.4,0.6-0.6,1.2-0.6c0.2,0,0.3,0,0.5,0V61.8z M69.9,69.3H69l0-0.7
		c-0.3,0.5-0.8,0.8-1.4,0.8c-1,0-1.5-0.6-1.5-1.8v-4h0.9v3.6c0,0.5,0,0.8,0.1,1c0.1,0.3,0.4,0.5,0.8,0.5c0.7,0,1.1-0.6,1.1-1.7v-3.5
		h0.9v4.4C69.8,68.5,69.8,69,69.9,69.3z M69.2,62.3h-0.9v-1.1h0.9V62.3z M67.5,62.3h-0.8v-1.1h0.8V62.3z M73.9,64.4
		c-0.1,0-0.2,0-0.2,0c-0.4,0-0.8,0.1-1,0.4c-0.2,0.3-0.3,0.6-0.3,1.1v3.5h-0.9v-4.7c0-0.4,0-0.7,0-1h0.9v0.7
		c0.3-0.6,0.8-0.9,1.4-0.9C73.9,63.5,73.9,63.8,73.9,64.4z M82.5,61.2l-2.2,8.2h-1.2l-2.1-8.2h1l1.7,7.3l1.8-7.3H82.5z M86.8,66.6
		h-3V67c0,0.6,0.1,1,0.2,1.3c0.2,0.4,0.4,0.6,0.9,0.6c0.7,0,1-0.4,1-1.3h0.9c-0.1,1.3-0.7,1.9-1.9,1.9c-0.8,0-1.3-0.3-1.6-0.8
		c-0.2-0.4-0.3-1-0.3-1.9c0-1,0.1-1.7,0.3-2.2c0.3-0.7,0.9-1,1.7-1c0.8,0,1.4,0.3,1.6,0.9c0.2,0.4,0.2,1,0.2,1.9V66.6z M85.9,66
		c0-0.5,0-0.9-0.1-1.2c-0.1-0.5-0.4-0.7-0.9-0.7c-0.6,0-1,0.4-1.1,1.1c0,0.3,0,0.5,0,0.7H85.9z M90.6,64.4c-0.1,0-0.2,0-0.2,0
		c-0.4,0-0.8,0.1-1,0.4c-0.2,0.3-0.3,0.6-0.3,1.1v3.5h-0.9v-4.7c0-0.4,0-0.7,0-1h0.9v0.7c0.3-0.6,0.8-0.9,1.4-0.9
		C90.6,63.5,90.6,63.8,90.6,64.4z M95.6,69.3h-1.1l-1.9-3.2l1.7-2.5h1l-1.8,2.5L95.6,69.3z M92.6,69.3h-0.9v-8.2h0.9V69.3z
		 M100.2,66.6h-3V67c0,0.6,0.1,1,0.2,1.3c0.2,0.4,0.4,0.6,0.9,0.6c0.7,0,1-0.4,1-1.3h0.9c-0.1,1.3-0.7,1.9-1.9,1.9
		c-0.8,0-1.3-0.3-1.6-0.8c-0.2-0.4-0.3-1-0.3-1.9c0-1,0.1-1.7,0.3-2.2c0.3-0.7,0.9-1,1.7-1c0.8,0,1.4,0.3,1.6,0.9
		c0.2,0.4,0.2,1,0.2,1.9V66.6z M99.3,66c0-0.5,0-0.9-0.1-1.2c-0.1-0.5-0.4-0.7-0.9-0.7c-0.6,0-1,0.4-1.1,1.1c0,0.3,0,0.5,0,0.7H99.3
		z M105.4,69.3h-0.9v-3.6c0-0.5,0-0.8-0.1-1c-0.1-0.3-0.4-0.5-0.8-0.5c-0.8,0-1.2,0.6-1.2,1.7v3.5h-0.9v-8.2h0.9v3.1
		c0.4-0.5,0.8-0.8,1.4-0.8c1,0,1.5,0.6,1.5,1.8V69.3z M109.5,64.4c-0.1,0-0.2,0-0.2,0c-0.4,0-0.8,0.1-1,0.4
		c-0.2,0.3-0.3,0.6-0.3,1.1v3.5h-0.9v-4.7c0-0.4,0-0.7,0-1h0.9v0.7c0.3-0.6,0.8-0.9,1.4-0.9C109.5,63.5,109.5,63.8,109.5,64.4z
		 M117.2,69.3h-0.9l0-0.7c-0.3,0.5-0.8,0.8-1.4,0.8c-1,0-1.5-0.6-1.5-1.8v-4h0.9v3.6c0,0.5,0,0.8,0.1,1c0.1,0.3,0.4,0.5,0.8,0.5
		c0.7,0,1.1-0.6,1.1-1.7v-3.5h0.9v4.4C117.1,68.5,117.1,69,117.2,69.3z M122.6,69.3h-0.9v-3.6c0-0.5,0-0.8-0.1-1
		c-0.1-0.3-0.4-0.5-0.8-0.5c-0.4,0-0.7,0.2-0.9,0.6c-0.2,0.3-0.3,0.7-0.3,1.2v3.4h-0.9v-4.5c0-0.5,0-0.9,0-1.2h0.9v0.8
		c0.3-0.6,0.8-0.9,1.5-0.9c1,0,1.5,0.6,1.5,1.8V69.3z M128,69.3h-0.9l0-0.7c-0.3,0.5-0.8,0.7-1.3,0.7c-0.7,0-1.2-0.3-1.5-1
		c-0.2-0.4-0.3-1.1-0.3-2c0-0.9,0.1-1.5,0.3-2c0.3-0.6,0.7-0.9,1.4-0.9c0.6,0,1,0.2,1.3,0.7v-3h0.9v7.1C128,68.5,128,68.8,128,69.3z
		 M127.1,66.6c0-0.8-0.1-1.3-0.2-1.7c-0.2-0.5-0.5-0.7-0.9-0.7c-0.4,0-0.7,0.2-0.9,0.7c-0.1,0.3-0.2,0.8-0.2,1.5
		c0,0.7,0.1,1.3,0.2,1.6c0.2,0.5,0.4,0.7,0.8,0.7c0.5,0,0.8-0.2,1-0.7C127.1,67.8,127.1,67.3,127.1,66.6z M66.5,81.3h-0.9l0-0.7
		c-0.3,0.5-0.8,0.7-1.3,0.7c-0.7,0-1.2-0.3-1.5-1c-0.2-0.4-0.3-1.1-0.3-2c0-0.9,0.1-1.5,0.3-2c0.3-0.6,0.8-0.9,1.4-0.9
		c0.6,0,1,0.2,1.3,0.7v-3h0.9v7.1C66.4,80.5,66.4,80.8,66.5,81.3z M65.5,78.6c0-0.8-0.1-1.3-0.2-1.7c-0.2-0.5-0.5-0.7-0.9-0.7
		c-0.4,0-0.7,0.2-0.9,0.7c-0.1,0.3-0.2,0.8-0.2,1.5c0,0.7,0.1,1.3,0.2,1.6c0.2,0.5,0.4,0.7,0.8,0.7c0.5,0,0.8-0.2,1-0.7
		C65.5,79.8,65.5,79.3,65.5,78.6z M69,74.3h-1v-1h1V74.3z M69,81.3h-0.9v-5.7H69V81.3z M74.4,75.7c0,0.1,0,0.2,0,0.4
		c0,0.2,0,0.4,0,0.5v5c0,0.7-0.2,1.2-0.5,1.5c-0.3,0.3-0.8,0.5-1.5,0.5c-1.2,0-1.8-0.6-1.8-1.7h0.9c0,0.7,0.3,1,0.9,1
		c0.5,0,0.8-0.2,0.9-0.5c0.1-0.2,0.2-0.6,0.2-1.1v-0.8c-0.3,0.4-0.8,0.7-1.3,0.7c-0.7,0-1.2-0.3-1.5-0.9c-0.2-0.4-0.3-1-0.3-1.8
		c0-0.9,0.1-1.6,0.3-2.1c0.3-0.6,0.8-1,1.4-1c0.6,0,1.1,0.3,1.4,0.8v-0.7H74.4z M73.5,78.3c0-0.6-0.1-1.1-0.2-1.4
		c-0.2-0.5-0.5-0.7-0.9-0.7c-0.5,0-0.8,0.3-0.9,0.8c-0.1,0.3-0.1,0.8-0.1,1.6c0,0.7,0,1.1,0.1,1.4c0.1,0.5,0.4,0.7,0.9,0.7
		c0.5,0,0.9-0.3,1-0.8C73.5,79.5,73.5,79,73.5,78.3z M77,74.3h-1v-1h1V74.3z M77,81.3h-0.9v-5.7H77V81.3z M80.8,81.3
		c-0.3,0-0.5,0-0.7,0c-0.5,0-0.9-0.1-1.1-0.3c-0.2-0.2-0.2-0.6-0.2-1.1v-3.7h-0.8v-0.7h0.8v-1.1l0.9-0.4v1.4h1v0.7h-1v3.6
		c0,0.3,0,0.5,0.1,0.6c0.1,0.1,0.3,0.2,0.5,0.2c0,0,0.2,0,0.4,0V81.3z M85.5,81.3h-0.9l0-0.7c-0.4,0.6-0.9,0.8-1.5,0.8
		c-0.5,0-0.9-0.2-1.1-0.5c-0.2-0.3-0.3-0.7-0.3-1.2c0-0.8,0.3-1.3,0.9-1.6c0.4-0.2,1.1-0.3,2-0.3v-0.2c0-0.5,0-0.8-0.1-1
		c-0.1-0.3-0.4-0.5-0.8-0.5c-0.3,0-0.5,0.1-0.7,0.2c-0.2,0.2-0.3,0.4-0.3,0.6v0.1h-0.9V77c0-0.5,0.2-0.9,0.6-1.2
		c0.3-0.2,0.8-0.3,1.3-0.3c0.7,0,1.1,0.2,1.4,0.5c0.2,0.3,0.4,0.8,0.4,1.4v2.1C85.4,80.2,85.5,80.8,85.5,81.3z M84.6,79.1v-0.7h-0.2
		c-1.2,0-1.8,0.4-1.8,1.2c0,0.7,0.3,1.1,0.8,1.1c0.4,0,0.7-0.2,0.9-0.5C84.5,80,84.6,79.6,84.6,79.1z M88,81.3h-0.9v-8.2h0.4H88
		V81.3z M93.3,78.6h-3V79c0,0.6,0.1,1,0.2,1.3c0.2,0.4,0.4,0.6,0.9,0.6c0.7,0,1-0.4,1-1.3h0.9c-0.1,1.3-0.7,1.9-1.9,1.9
		c-0.8,0-1.3-0.3-1.6-0.8c-0.2-0.4-0.3-1-0.3-1.9c0-1,0.1-1.7,0.3-2.2c0.3-0.7,0.9-1,1.7-1c0.8,0,1.4,0.3,1.6,0.9
		c0.2,0.4,0.2,1,0.2,1.9V78.6z M92.4,78c0-0.5,0-0.9-0.1-1.2c-0.1-0.5-0.4-0.7-0.9-0.7c-0.6,0-1,0.4-1.1,1.1c0,0.3,0,0.5,0,0.7H92.4
		z M98.6,81.3h-1v-8.2h0.5h0.5V81.3z M104.3,81.3h-0.9v-3.6c0-0.5,0-0.8-0.1-1c-0.1-0.3-0.4-0.5-0.8-0.5c-0.4,0-0.7,0.2-0.9,0.6
		c-0.2,0.3-0.3,0.7-0.3,1.2v3.4h-0.9v-4.5c0-0.5,0-0.9,0-1.2h0.9v0.8c0.3-0.6,0.8-0.9,1.5-0.9c1,0,1.5,0.6,1.5,1.8V81.3z
		 M108.1,73.8c-0.1,0-0.2,0-0.3,0c-0.3,0-0.5,0.1-0.6,0.3c-0.1,0.1-0.1,0.4-0.1,0.7v0.8h1v0.7h-1v5h-0.9v-5h-0.8v-0.7h0.8V75
		c0-0.6,0.1-1.1,0.2-1.3c0.2-0.4,0.6-0.6,1.2-0.6c0.2,0,0.3,0,0.5,0V73.8z M111.6,76.4c-0.1,0-0.2,0-0.2,0c-0.4,0-0.8,0.1-1,0.4
		c-0.2,0.3-0.3,0.6-0.3,1.1v3.5h-0.9v-4.7c0-0.4,0-0.7,0-1h0.9v0.7c0.3-0.6,0.8-0.9,1.4-0.9C111.6,75.5,111.6,75.8,111.6,76.4z
		 M116.1,81.3h-0.9l0-0.7c-0.4,0.6-0.9,0.8-1.5,0.8c-0.5,0-0.9-0.2-1.1-0.5c-0.2-0.3-0.3-0.7-0.3-1.2c0-0.8,0.3-1.3,0.9-1.6
		c0.4-0.2,1.1-0.3,2-0.3v-0.2c0-0.5,0-0.8-0.1-1c-0.1-0.3-0.4-0.5-0.8-0.5c-0.3,0-0.5,0.1-0.7,0.2c-0.2,0.2-0.3,0.4-0.3,0.6v0.1
		h-0.9V77c0-0.5,0.2-0.9,0.6-1.2c0.3-0.2,0.8-0.3,1.3-0.3c0.7,0,1.1,0.2,1.4,0.5c0.2,0.3,0.4,0.8,0.4,1.4v2.1
		C116,80.2,116,80.8,116.1,81.3z M115.1,79.1v-0.7h-0.2c-1.2,0-1.8,0.4-1.8,1.2c0,0.7,0.3,1.1,0.8,1.1c0.4,0,0.7-0.2,0.9-0.5
		C115.1,80,115.1,79.6,115.1,79.1z M120.8,79.8c0,1.1-0.6,1.7-1.8,1.7c-1.2,0-1.7-0.6-1.7-1.8h0.9c0,0.1,0,0.2,0,0.3
		c0.1,0.6,0.3,0.9,0.8,0.9c0.6,0,0.9-0.3,0.9-0.9c0-0.3-0.1-0.6-0.3-0.7c-0.1-0.1-0.4-0.3-0.8-0.5c-0.5-0.3-0.9-0.5-1-0.6
		c-0.3-0.3-0.4-0.6-0.4-1.1c0-0.5,0.2-0.9,0.5-1.1c0.3-0.2,0.7-0.4,1.2-0.4c0.6,0,1,0.1,1.3,0.4c0.2,0.3,0.4,0.7,0.4,1.3h-0.9
		c0-0.7-0.3-1.1-0.8-1.1c-0.2,0-0.4,0.1-0.6,0.2c-0.1,0.1-0.2,0.3-0.2,0.6c0,0.3,0.1,0.5,0.3,0.7c0.1,0.1,0.4,0.3,0.8,0.5
		c0.5,0.2,0.8,0.5,0.9,0.6C120.7,79,120.8,79.4,120.8,79.8z M124.4,81.3c-0.3,0-0.5,0-0.7,0c-0.5,0-0.9-0.1-1.1-0.3
		c-0.2-0.2-0.2-0.6-0.2-1.1v-3.7h-0.8v-0.7h0.8v-1.1l0.9-0.4v1.4h1v0.7h-1v3.6c0,0.3,0,0.5,0.1,0.6c0.1,0.1,0.3,0.2,0.5,0.2
		c0,0,0.2,0,0.4,0V81.3z M127.9,76.4c-0.1,0-0.2,0-0.2,0c-0.4,0-0.8,0.1-1,0.4c-0.2,0.3-0.3,0.6-0.3,1.1v3.5h-0.9v-4.7
		c0-0.4,0-0.7,0-1h0.9v0.7c0.3-0.6,0.8-0.9,1.4-0.9C127.8,75.5,127.9,75.8,127.9,76.4z M132.8,81.3h-0.9l0-0.7
		c-0.3,0.5-0.8,0.8-1.4,0.8c-1,0-1.5-0.6-1.5-1.8v-4h0.9v3.6c0,0.5,0,0.8,0.1,1c0.1,0.3,0.4,0.5,0.8,0.5c0.7,0,1.1-0.6,1.1-1.7v-3.5
		h0.9v4.4C132.8,80.5,132.8,81,132.8,81.3z M138.3,81.3h-1.1l-1.9-3.2l1.7-2.5h1l-1.8,2.5L138.3,81.3z M135.3,81.3h-0.9v-8.2h0.9
		V81.3z M141.5,81.3c-0.3,0-0.5,0-0.7,0c-0.5,0-0.9-0.1-1.1-0.3c-0.2-0.2-0.2-0.6-0.2-1.1v-3.7h-0.8v-0.7h0.8v-1.1l0.9-0.4v1.4h1
		v0.7h-1v3.6c0,0.3,0,0.5,0.1,0.6c0.1,0.1,0.3,0.2,0.5,0.2c0,0,0.2,0,0.4,0V81.3z M146.4,81.3h-0.9l0-0.7c-0.3,0.5-0.8,0.8-1.4,0.8
		c-1,0-1.5-0.6-1.5-1.8v-4h0.9v3.6c0,0.5,0,0.8,0.1,1c0.1,0.3,0.4,0.5,0.8,0.5c0.7,0,1.1-0.6,1.1-1.7v-3.5h0.9v4.4
		C146.4,80.5,146.4,81,146.4,81.3z M150.5,76.4c-0.1,0-0.2,0-0.2,0c-0.4,0-0.8,0.1-1,0.4c-0.2,0.3-0.3,0.6-0.3,1.1v3.5h-0.9v-4.7
		c0-0.4,0-0.7,0-1h0.9v0.7c0.3-0.6,0.8-0.9,1.4-0.9C150.4,75.5,150.5,75.8,150.5,76.4z"/>
</g>
<g id="Foerderzusatz">
	<path d="M29,22.7c-0.2-0.2-0.8-0.4-1.4-0.4c-1.4,0-2.7,0.9-2.7,3.3c0,2.3,1.1,3.4,2.6,3.4c0.5,0,1-0.1,1.3-0.2v-2.3L28,26.4
		c-0.1,0-0.2-0.1-0.2-0.1c0-0.1,0.1-0.2,0.1-0.3h2.6c0,0,0,0.1,0,0.1c0,0.2-0.1,0.3-0.4,0.4L30,26.5v2.4c-0.3,0.3-1.2,0.9-2.8,0.9
		c-2,0-3.6-1.2-3.6-4c0-3,2.2-4.1,4.1-4.1c1.2,0,1.8,0.3,2.2,0.5c0,0.3,0.1,1,0.1,1.1c0,0.4-0.1,0.6-0.4,0.6c-0.1,0-0.2,0-0.3,0
		L29,22.7z M32.6,26.9c0,1.4,0.7,2.1,1.7,2.1c0.7,0,1.1-0.3,1.4-0.5c0.1,0.1,0.2,0.3,0.2,0.4c0,0.3-0.8,0.9-2,0.9
		c-1.4,0-2.5-0.8-2.5-2.8s1.2-3,2.5-3c1.3,0,1.9,0.8,1.9,1.9c0,0.3-0.1,0.7-0.1,1H32.6z M34.6,26.3c0-0.1,0.1-0.3,0.1-0.5
		c0-0.6-0.2-1.2-0.9-1.2c-0.7,0-1.1,0.5-1.2,1.7H34.6z M40,24.8h-1.4V29l0.8,0.1c0.1,0,0.2,0.1,0.2,0.1c0,0.1-0.1,0.3-0.1,0.3h-2.7
		c0,0,0-0.1,0-0.1c0-0.2,0.1-0.3,0.4-0.4l0.4-0.1v-4.3h-0.8c0,0,0-0.1,0-0.1c0-0.2,0.1-0.3,0.4-0.4l0.5-0.1V24
		c0-1.8,1.1-2.7,2.1-2.7c0.6,0,0.8,0.3,0.8,0.6c0,0.3-0.2,0.4-0.3,0.5c-0.1-0.1-0.4-0.3-0.8-0.3c-0.5,0-0.7,0.3-0.7,0.9
		c0,0.4,0,1.1,0,1.1h1.5L40,24.8z M45.8,26.9c0,2-1.4,2.9-2.8,2.9c-1.4,0-2.6-0.9-2.6-2.8c0-1.9,1.4-3,2.8-3
		C44.7,24,45.8,24.9,45.8,26.9z M42.1,23.2c-0.3,0-0.6-0.3-0.6-0.6c0-0.4,0.3-0.6,0.6-0.6c0.4,0,0.6,0.3,0.6,0.6
		C42.7,23,42.5,23.2,42.1,23.2z M41.7,26.9c0,1.5,0.6,2.2,1.5,2.2c0.8,0,1.5-0.7,1.5-2.2c0-1.5-0.6-2.2-1.5-2.2
		C42.3,24.7,41.7,25.4,41.7,26.9z M44.2,23.2c-0.4,0-0.6-0.3-0.6-0.6c0-0.4,0.3-0.6,0.6-0.6c0.3,0,0.6,0.3,0.6,0.6
		C44.8,23,44.5,23.2,44.2,23.2z M48.5,25.1L48.5,25.1c0.3-0.4,0.7-1,1.4-1c0.5,0,0.8,0.3,0.8,0.6c0,0.3-0.1,0.5-0.2,0.6
		c-0.1,0-0.4-0.2-0.8-0.2c-0.6,0-0.9,0.3-1.2,0.6V29l0.8,0.1c0.1,0,0.2,0.1,0.2,0.1c0,0.1-0.1,0.3-0.1,0.3h-2.8c0,0,0-0.1,0-0.1
		c0-0.2,0.1-0.3,0.4-0.4l0.4-0.1v-4.2l-0.8-0.1c0,0,0-0.1,0-0.1c0-0.2,0.1-0.3,0.4-0.4l1.6-0.1L48.5,25.1z M56,29l0.8,0.1
		c0,0,0,0,0,0.1c0,0.2-0.1,0.3-0.4,0.4l-1.5,0.1V29h0c-0.3,0.4-0.7,0.8-1.6,0.8c-1.1,0-2.2-0.7-2.2-2.7c0-2.1,1.5-3.1,2.9-3.1
		c0.3,0,0.6,0.1,0.8,0.1v-2L54.1,22c0,0,0-0.1,0-0.1c0-0.2,0.1-0.3,0.4-0.4l1.6-0.1V29z M54.9,25c-0.2-0.2-0.5-0.3-1-0.3
		c-0.9,0-1.6,0.7-1.6,2.2c0,1.5,0.6,2.1,1.4,2.1c0.7,0,1-0.3,1.2-0.5V25z M58.7,26.9c0,1.4,0.7,2.1,1.7,2.1c0.7,0,1.1-0.3,1.4-0.5
		c0.1,0.1,0.2,0.3,0.2,0.4c0,0.3-0.8,0.9-2,0.9c-1.4,0-2.5-0.8-2.5-2.8s1.2-3,2.5-3c1.3,0,1.9,0.8,1.9,1.9c0,0.3-0.1,0.7-0.1,1H58.7
		z M60.7,26.3c0-0.1,0.1-0.3,0.1-0.5c0-0.6-0.2-1.2-0.9-1.2c-0.7,0-1.1,0.5-1.2,1.7H60.7z M64.6,25.1L64.6,25.1c0.3-0.4,0.7-1,1.4-1
		c0.5,0,0.8,0.3,0.8,0.6c0,0.3-0.1,0.5-0.2,0.6c-0.1,0-0.4-0.2-0.8-0.2c-0.6,0-0.9,0.3-1.2,0.6V29l0.8,0.1c0.1,0,0.2,0.1,0.2,0.1
		c0,0.1-0.1,0.3-0.1,0.3h-2.8c0,0,0-0.1,0-0.1c0-0.2,0.1-0.3,0.4-0.4l0.4-0.1v-4.2l-0.8-0.1c0,0,0-0.1,0-0.1c0-0.2,0.1-0.3,0.4-0.4
		l1.6-0.1L64.6,25.1z M70.7,24.8h-1.6v3.3c0,0.5,0.2,0.9,0.7,0.9c0.4,0,0.8-0.2,0.9-0.3c0.1,0.1,0.1,0.3,0.1,0.4
		c0,0.1-0.4,0.6-1.4,0.6c-1,0-1.4-0.6-1.4-1.5v-3.5h-0.9c0,0,0-0.1,0-0.1c0-0.2,0.1-0.3,0.4-0.4l0.6-0.1l0.3-1.5h0.8v1.5h1.7
		L70.7,24.8z M78.7,29l0.8,0.1c0,0,0,0,0,0.1c0,0.2-0.1,0.3-0.4,0.4l-1.5,0.1V29h0c-0.3,0.4-0.7,0.8-1.6,0.8c-1.1,0-2.2-0.7-2.2-2.7
		c0-2.1,1.5-3.1,2.9-3.1c0.3,0,0.6,0.1,0.8,0.1v-2L76.7,22c0,0,0-0.1,0-0.1c0-0.2,0.1-0.3,0.4-0.4l1.6-0.1V29z M77.6,25
		c-0.2-0.2-0.5-0.3-1-0.3c-0.9,0-1.6,0.7-1.6,2.2c0,1.5,0.6,2.1,1.4,2.1c0.7,0,1-0.3,1.2-0.5V25z M85.3,29l0.8,0.1c0,0,0,0,0,0.1
		c0,0.2-0.1,0.3-0.4,0.4l-1.5,0.1V29h0c-0.2,0.2-0.7,0.8-1.7,0.8c-1.2,0-1.8-0.7-1.8-2.1v-2.9l-0.8-0.1c0,0,0-0.1,0-0.1
		c0-0.2,0.1-0.3,0.4-0.4l1.6-0.1v3.6c0,1,0.5,1.3,1,1.3c0.6,0,1-0.3,1.2-0.5v-3.6l-0.8-0.1c0,0,0-0.1,0-0.1c0-0.2,0.1-0.3,0.4-0.4
		l1.6-0.1V29z M88.5,25.1L88.5,25.1c0.3-0.4,0.7-1,1.4-1c0.5,0,0.8,0.3,0.8,0.6c0,0.3-0.1,0.5-0.2,0.6c-0.1,0-0.4-0.2-0.8-0.2
		c-0.6,0-0.9,0.3-1.2,0.6V29l0.8,0.1c0.1,0,0.2,0.1,0.2,0.1c0,0.1-0.1,0.3-0.1,0.3h-2.8c0,0,0-0.1,0-0.1c0-0.2,0.1-0.3,0.4-0.4
		l0.4-0.1v-4.2l-0.8-0.1c0,0,0-0.1,0-0.1c0-0.2,0.1-0.3,0.4-0.4l1.6-0.1L88.5,25.1z M93.8,24.7c-0.8,0-1.4,0.5-1.4,2
		c0,1.4,0.6,2.3,1.6,2.3c0.7,0,1.1-0.4,1.3-0.5c0.1,0.1,0.2,0.3,0.2,0.4c0,0.3-0.6,0.9-1.9,0.9c-1.5,0-2.4-0.9-2.4-2.8
		c0-1.9,1.3-3,2.8-3c1.3,0,1.6,0.6,1.6,0.9c0,0.3-0.1,0.6-0.6,0.7C94.8,25.2,94.6,24.7,93.8,24.7z M98.1,24.8L98.1,24.8
		c0.3-0.3,0.8-0.8,1.8-0.8c1.1,0,1.8,0.7,1.8,2v3l0.7,0.1c0.1,0,0.2,0.1,0.2,0.1c0,0.1-0.1,0.3-0.1,0.3h-2.6c0,0,0-0.1,0-0.1
		c0-0.2,0.1-0.3,0.4-0.4l0.4-0.1v-2.9c0-1-0.5-1.3-1.1-1.3c-0.7,0-1.1,0.3-1.3,0.5V29l0.6,0.1c0.1,0,0.2,0.1,0.2,0.1
		c0,0.1-0.1,0.3-0.1,0.3h-2.6c0,0,0-0.1,0-0.1c0-0.2,0.1-0.3,0.4-0.4l0.4-0.1v-6.9L96.1,22c0,0,0-0.1,0-0.1c0-0.2,0.1-0.3,0.4-0.4
		l1.6-0.1V24.8z M103.9,25.4c-0.4,0-0.7-0.3-0.7-0.7c0-0.4,0.3-0.7,0.7-0.7c0.4,0,0.7,0.3,0.7,0.7C104.6,25.1,104.3,25.4,103.9,25.4
		z M103.9,29.8c-0.4,0-0.7-0.3-0.7-0.7c0-0.4,0.3-0.7,0.7-0.7c0.4,0,0.7,0.3,0.7,0.7C104.6,29.5,104.3,29.8,103.9,29.8z M27.5,135.8
		c0,0.5,0.2,0.6,0.4,0.6c0.3,0,0.4-0.1,0.4-0.2c0.1,0.1,0.1,0.2,0.1,0.3c0,0.1-0.3,0.6-1,0.6c-0.5,0-0.9-0.2-1-0.8h0
		c-0.1,0.2-0.5,0.8-1.5,0.8c-0.9,0-1.5-0.6-1.5-1.5c0-1.2,1.3-1.7,2.6-1.7h0.3v-0.5c0-1-0.3-1.4-1-1.4c-0.3,0-0.5,0.1-0.6,0.1
		c-0.1,0.2-0.2,0.6-0.3,1c0,0-0.2,0-0.3,0c-0.4,0-0.6-0.2-0.6-0.5c0-0.7,0.9-1.2,2-1.2c1.3,0,1.8,0.7,1.8,2V135.8z M26,134.6
		c-0.9,0-1.4,0.4-1.4,1c0,0.5,0.3,0.8,0.7,0.8s0.8-0.3,1-0.5v-1.3L26,134.6z M34,136.4l0.8,0.1c0,0,0,0,0,0.1c0,0.2-0.1,0.3-0.4,0.4
		l-1.5,0.1v-0.8h0c-0.2,0.2-0.7,0.8-1.7,0.8c-1.2,0-1.8-0.7-1.8-2.1v-2.9l-0.8-0.1c0,0,0-0.1,0-0.1c0-0.2,0.1-0.3,0.4-0.4l1.6-0.1
		v3.6c0,1,0.5,1.3,1,1.3c0.6,0,1-0.3,1.2-0.5v-3.6l-0.8-0.1c0,0,0-0.1,0-0.1c0-0.2,0.1-0.3,0.4-0.4l1.6-0.1V136.4z M38.7,132.1h-1.4
		v4.3l0.8,0.1c0.1,0,0.2,0.1,0.2,0.1c0,0.1-0.1,0.3-0.1,0.3h-2.7c0,0,0-0.1,0-0.1c0-0.2,0.1-0.3,0.4-0.4l0.4-0.1v-4.3h-0.8
		c0,0,0-0.1,0-0.1c0-0.2,0.1-0.3,0.4-0.4l0.5-0.1v-0.1c0-1.8,1.1-2.7,2.1-2.7c0.6,0,0.8,0.3,0.8,0.6c0,0.3-0.2,0.4-0.3,0.5
		c-0.1-0.1-0.4-0.3-0.8-0.3c-0.5,0-0.7,0.3-0.7,0.9c0,0.4,0,1.1,0,1.1h1.5L38.7,132.1z M44.5,132.2h-0.9c0.2,0.3,0.4,0.6,0.4,1
		c0,1.2-1,1.9-2.2,1.9c-0.2,0-0.4,0-0.5-0.1c-0.2,0.1-0.3,0.3-0.3,0.5c0,0.3,0.2,0.4,0.6,0.4h1.3c1,0,1.6,0.5,1.6,1.3
		c0,1.1-1.1,2.2-3,2.2c-1.4,0-2.1-0.5-2.1-1.3c0-0.8,0.6-1.2,1-1.3v0c-0.3-0.2-0.5-0.4-0.5-0.8c0-0.7,0.6-1,0.8-1.1v0
		c-0.6-0.3-1-0.9-1-1.7c0-1.2,1-1.8,2.2-1.8c0.3,0,0.6,0,0.9,0.1h2L44.5,132.2z M41.2,137c-0.2,0-0.3,0-0.4,0
		c-0.3,0.2-0.5,0.5-0.5,0.8c0,0.6,0.4,1,1.2,1c1.1,0,1.8-0.5,1.8-1.1c0-0.5-0.3-0.7-0.8-0.7H41.2z M40.7,133.2c0,0.9,0.5,1.3,1,1.3
		c0.6,0,1.1-0.4,1.1-1.3c0-0.8-0.4-1.2-1-1.2C41.2,132,40.7,132.3,40.7,133.2z M46.9,132.4L46.9,132.4c0.3-0.4,0.7-1,1.4-1
		c0.5,0,0.8,0.2,0.8,0.6c0,0.3-0.1,0.5-0.2,0.6c-0.1,0-0.4-0.2-0.8-0.2c-0.6,0-0.9,0.3-1.2,0.6v3.4l0.8,0.1c0.1,0,0.2,0.1,0.2,0.1
		c0,0.1-0.1,0.3-0.1,0.3h-2.8c0,0,0-0.1,0-0.1c0-0.2,0.1-0.3,0.4-0.4l0.4-0.1v-4.2l-0.8-0.1c0,0,0-0.1,0-0.1c0-0.2,0.1-0.3,0.4-0.4
		l1.6-0.1L46.9,132.4z M54.8,136.4l0.8,0.1c0,0,0,0,0,0.1c0,0.2-0.1,0.3-0.4,0.4l-1.5,0.1v-0.8h0c-0.2,0.2-0.7,0.8-1.7,0.8
		c-1.2,0-1.8-0.7-1.8-2.1v-2.9l-0.8-0.1c0,0,0-0.1,0-0.1c0-0.2,0.1-0.3,0.4-0.4l1.6-0.1v3.6c0,1,0.5,1.3,1,1.3c0.6,0,1-0.3,1.2-0.5
		v-3.6l-0.8-0.1c0,0,0-0.1,0-0.1c0-0.2,0.1-0.3,0.4-0.4l1.6-0.1V136.4z M61.7,136.4l0.7,0.1c0.1,0,0.2,0.1,0.2,0.1
		c0,0.1-0.1,0.3-0.1,0.3h-2.6c0,0,0-0.1,0-0.1c0-0.2,0.1-0.3,0.4-0.4l0.4-0.1v-2.9c0-1-0.5-1.3-1.1-1.3c-0.7,0-1.1,0.3-1.3,0.5v3.6
		l0.6,0.1c0.1,0,0.2,0.1,0.2,0.1c0,0.1-0.1,0.3-0.1,0.3h-2.6c0,0,0-0.1,0-0.1c0-0.2,0.1-0.3,0.4-0.4l0.4-0.1v-4.2l-0.8-0.1
		c0,0,0-0.1,0-0.1c0-0.2,0.1-0.3,0.4-0.4l1.6-0.1l-0.1,0.8h0c0.3-0.3,0.8-0.9,1.9-0.9c1.1,0,1.7,0.7,1.7,2V136.4z M68.1,136.4
		l0.8,0.1c0,0,0,0,0,0.1c0,0.2-0.1,0.3-0.4,0.4l-1.5,0.1v-0.7h0c-0.3,0.4-0.7,0.8-1.6,0.8c-1.1,0-2.2-0.7-2.2-2.7
		c0-2.1,1.5-3.1,2.9-3.1c0.3,0,0.6,0.1,0.8,0.1v-2l-0.8-0.1c0,0,0-0.1,0-0.1c0-0.2,0.1-0.3,0.4-0.4l1.6-0.1V136.4z M66.9,132.4
		c-0.2-0.2-0.5-0.3-1-0.3c-0.9,0-1.6,0.7-1.6,2.2c0,1.5,0.6,2.1,1.4,2.1c0.7,0,1-0.3,1.2-0.5V132.4z M73.2,134.3
		c0,1.4,0.7,2.1,1.7,2.1c0.7,0,1.1-0.3,1.4-0.5c0.1,0.1,0.2,0.3,0.2,0.4c0,0.3-0.8,0.9-2,0.9c-1.4,0-2.5-0.8-2.5-2.8
		c0-2,1.2-3,2.5-3c1.3,0,1.9,0.8,1.9,1.9c0,0.3-0.1,0.7-0.1,1H73.2z M75.2,133.7c0-0.1,0.1-0.3,0.1-0.5c0-0.6-0.2-1.2-0.9-1.2
		c-0.7,0-1.1,0.5-1.2,1.7H75.2z M79.3,136.4l0.7,0.1c0.1,0,0.2,0.1,0.2,0.1c0,0.1-0.1,0.3-0.1,0.3h-2.6c0,0,0-0.1,0-0.1
		c0-0.2,0.1-0.3,0.4-0.4l0.4-0.1v-4.2l-0.8-0.1c0,0,0-0.1,0-0.1c0-0.2,0.1-0.3,0.4-0.4l1.6-0.1V136.4z M78.7,130.3
		c-0.4,0-0.7-0.3-0.7-0.7c0-0.4,0.3-0.7,0.7-0.7c0.4,0,0.8,0.3,0.8,0.7C79.4,130,79.1,130.3,78.7,130.3z M86.1,136.4l0.7,0.1
		c0.1,0,0.2,0.1,0.2,0.1c0,0.1-0.1,0.3-0.1,0.3h-2.6c0,0,0-0.1,0-0.1c0-0.2,0.1-0.3,0.4-0.4l0.4-0.1v-2.9c0-1-0.5-1.3-1.1-1.3
		c-0.6,0-1.1,0.3-1.3,0.5v3.6l0.6,0.1c0.1,0,0.2,0.1,0.2,0.1c0,0.1-0.1,0.3-0.1,0.3h-2.6c0,0,0-0.1,0-0.1c0-0.2,0.1-0.3,0.4-0.4
		l0.4-0.1v-4.2l-0.8-0.1c0,0,0-0.1,0-0.1c0-0.2,0.1-0.3,0.4-0.4l1.6-0.1l-0.1,0.8h0c0.3-0.3,0.8-0.9,1.9-0.9c1.1,0,1.7,0.7,1.7,2
		V136.4z M88.8,134.3c0,1.4,0.7,2.1,1.7,2.1c0.7,0,1.1-0.3,1.4-0.5c0.1,0.1,0.2,0.3,0.2,0.4c0,0.3-0.8,0.9-2,0.9
		c-1.4,0-2.5-0.8-2.5-2.8c0-2,1.2-3,2.5-3c1.3,0,1.9,0.8,1.9,1.9c0,0.3-0.1,0.7-0.1,1H88.8z M90.8,133.7c0-0.1,0.1-0.3,0.1-0.5
		c0-0.6-0.2-1.2-0.9-1.2c-0.7,0-1.1,0.5-1.2,1.7H90.8z M95.6,132.2c-0.1-0.1-0.4-0.2-0.8-0.2c-0.4,0-0.8,0.2-0.8,0.6
		c0,0.5,0.5,0.8,1.1,1.1c0.7,0.4,1.4,0.9,1.4,1.8c0,0.9-0.8,1.6-2,1.6c-0.6,0-1.2-0.2-1.4-0.3c0-0.3-0.1-0.6-0.1-0.9
		c0-0.5,0.1-0.6,0.5-0.6c0.1,0,0.1,0,0.1,0l0.2,1c0.1,0.1,0.4,0.2,0.8,0.2c0.6,0,0.9-0.2,0.9-0.7c0-0.5-0.5-0.8-1.1-1.1
		c-0.7-0.4-1.4-0.9-1.4-1.9c0-0.9,0.8-1.5,1.9-1.5c0.7,0,1.1,0.2,1.3,0.4c0,0.2,0,0.4,0,0.6c0,0.4-0.1,0.7-0.5,0.7
		c-0.1,0-0.1,0-0.1,0L95.6,132.2z M104.1,133L104.1,133c1.1,0.2,1.8,0.8,1.8,1.9c0,1.3-1,2.2-3.1,2.2H100c0,0,0-0.1,0-0.1
		c0-0.2,0.1-0.3,0.4-0.4l0.5-0.1v-6.6l-0.7-0.2c-0.1,0-0.2-0.1-0.2-0.1c0-0.1,0.1-0.2,0.1-0.3h2.7c2,0,3,0.7,3,2
		C105.8,132.2,105.1,132.7,104.1,133z M102.7,129.9h-0.6v2.9h0.6c1.3,0,1.8-0.6,1.8-1.4C104.5,130.3,103.9,129.9,102.7,129.9z
		 M102.8,133.4h-0.8v2.9h0.7c1.3,0,1.9-0.6,1.9-1.5C104.7,134,104,133.4,102.8,133.4z M108.2,134.3c0,1.4,0.7,2.1,1.7,2.1
		c0.7,0,1.1-0.3,1.4-0.5c0.1,0.1,0.2,0.3,0.2,0.4c0,0.3-0.8,0.9-2,0.9c-1.4,0-2.5-0.8-2.5-2.8c0-2,1.2-3,2.5-3
		c1.3,0,1.9,0.8,1.9,1.9c0,0.3-0.1,0.7-0.1,1H108.2z M110.2,133.7c0-0.1,0.1-0.3,0.1-0.5c0-0.6-0.2-1.2-0.9-1.2
		c-0.7,0-1.1,0.5-1.2,1.7H110.2z M115.1,132.2c-0.1-0.1-0.4-0.2-0.8-0.2c-0.4,0-0.8,0.2-0.8,0.6c0,0.5,0.5,0.8,1.1,1.1
		c0.7,0.4,1.4,0.9,1.4,1.8c0,0.9-0.8,1.6-2,1.6c-0.6,0-1.2-0.2-1.4-0.3c0-0.3-0.1-0.6-0.1-0.9c0-0.5,0.1-0.6,0.5-0.6
		c0.1,0,0.1,0,0.1,0l0.2,1c0.1,0.1,0.4,0.2,0.8,0.2c0.6,0,0.9-0.2,0.9-0.7c0-0.5-0.5-0.8-1.1-1.1c-0.7-0.4-1.4-0.9-1.4-1.9
		c0-0.9,0.8-1.5,1.9-1.5c0.7,0,1.1,0.2,1.3,0.4c0,0.2,0,0.4,0,0.6c0,0.4-0.1,0.7-0.5,0.7c-0.1,0-0.1,0-0.1,0L115.1,132.2z
		 M119.6,132.1c-0.8,0-1.4,0.5-1.4,2c0,1.4,0.6,2.3,1.6,2.3c0.7,0,1.1-0.4,1.3-0.5c0.1,0.1,0.2,0.3,0.2,0.4c0,0.3-0.6,0.9-1.9,0.9
		c-1.5,0-2.4-0.9-2.4-2.8c0-1.9,1.3-3,2.8-3c1.3,0,1.6,0.6,1.6,0.9c0,0.3-0.1,0.6-0.6,0.7C120.6,132.6,120.4,132.1,119.6,132.1z
		 M123.9,132.2L123.9,132.2c0.2-0.3,0.8-0.8,1.8-0.8c1.1,0,1.8,0.7,1.8,2v3l0.7,0.1c0.1,0,0.2,0.1,0.2,0.1c0,0.1-0.1,0.3-0.1,0.3
		h-2.6c0,0,0-0.1,0-0.1c0-0.2,0.1-0.3,0.4-0.4l0.4-0.1v-2.9c0-1-0.5-1.3-1.1-1.3c-0.7,0-1.1,0.3-1.3,0.5v3.6l0.6,0.1
		c0.1,0,0.2,0.1,0.2,0.1c0,0.1-0.1,0.3-0.1,0.3H122c0,0,0-0.1,0-0.1c0-0.2,0.1-0.3,0.4-0.4l0.4-0.1v-6.9l-0.8-0.1c0,0,0-0.1,0-0.1
		c0-0.2,0.1-0.3,0.4-0.4l1.6-0.1V132.2z M130.6,136.4l0.7,0.1c0.1,0,0.2,0.1,0.2,0.1c0,0.1-0.1,0.3-0.1,0.3h-2.6c0,0,0-0.1,0-0.1
		c0-0.2,0.1-0.3,0.4-0.4l0.4-0.1v-6.9l-0.8-0.1c0,0,0-0.1,0-0.1c0-0.2,0.1-0.3,0.4-0.4l1.5-0.1V136.4z M137.3,136.4l0.8,0.1
		c0,0,0,0,0,0.1c0,0.2-0.1,0.3-0.4,0.4l-1.5,0.1v-0.8h0c-0.2,0.2-0.7,0.8-1.7,0.8c-1.2,0-1.8-0.7-1.8-2.1v-2.9l-0.8-0.1
		c0,0,0-0.1,0-0.1c0-0.2,0.1-0.3,0.4-0.4l1.6-0.1v3.6c0,1,0.5,1.3,1,1.3c0.6,0,1-0.3,1.2-0.5v-3.6l-0.8-0.1c0,0,0-0.1,0-0.1
		c0-0.2,0.1-0.3,0.4-0.4l1.6-0.1V136.4z M141.4,132.2c-0.1-0.1-0.4-0.2-0.8-0.2c-0.4,0-0.8,0.2-0.8,0.6c0,0.5,0.5,0.8,1.1,1.1
		c0.7,0.4,1.4,0.9,1.4,1.8c0,0.9-0.8,1.6-2,1.6c-0.6,0-1.2-0.2-1.4-0.3c0-0.3-0.1-0.6-0.1-0.9c0-0.5,0.1-0.6,0.5-0.6
		c0.1,0,0.1,0,0.1,0l0.2,1c0.1,0.1,0.4,0.2,0.8,0.2c0.6,0,0.9-0.2,0.9-0.7c0-0.5-0.5-0.8-1.1-1.1c-0.7-0.4-1.4-0.9-1.4-1.9
		c0-0.9,0.8-1.5,1.9-1.5c0.7,0,1.1,0.2,1.3,0.4c0,0.2,0,0.4,0,0.6c0,0.4-0.1,0.7-0.5,0.7c-0.1,0-0.1,0-0.1,0L141.4,132.2z
		 M145.9,132.2c-0.1-0.1-0.4-0.2-0.8-0.2c-0.4,0-0.8,0.2-0.8,0.6c0,0.5,0.5,0.8,1.1,1.1c0.7,0.4,1.4,0.9,1.4,1.8
		c0,0.9-0.8,1.6-2,1.6c-0.6,0-1.2-0.2-1.4-0.3c0-0.3-0.1-0.6-0.1-0.9c0-0.5,0.1-0.6,0.5-0.6c0.1,0,0.1,0,0.1,0l0.2,1
		c0.1,0.1,0.4,0.2,0.8,0.2c0.6,0,0.9-0.2,0.9-0.7c0-0.5-0.5-0.8-1.1-1.1c-0.7-0.4-1.4-0.9-1.4-1.9c0-0.9,0.8-1.5,1.9-1.5
		c0.7,0,1.1,0.2,1.3,0.4c0,0.2,0,0.4,0,0.6c0,0.4-0.1,0.7-0.5,0.7c-0.1,0-0.1,0-0.1,0L145.9,132.2z M149.1,134.3
		c0,1.4,0.7,2.1,1.7,2.1c0.7,0,1.1-0.3,1.4-0.5c0.1,0.1,0.2,0.3,0.2,0.4c0,0.3-0.8,0.9-2,0.9c-1.4,0-2.4-0.8-2.4-2.8
		c0-2,1.2-3,2.5-3c1.3,0,1.9,0.8,1.9,1.9c0,0.3-0.1,0.7-0.1,1H149.1z M151,133.7c0-0.1,0.1-0.3,0.1-0.5c0-0.6-0.2-1.2-0.9-1.2
		c-0.7,0-1.1,0.5-1.2,1.7H151z M155.9,132.2c-0.1-0.1-0.4-0.2-0.8-0.2c-0.4,0-0.8,0.2-0.8,0.6c0,0.5,0.5,0.8,1.1,1.1
		c0.7,0.4,1.4,0.9,1.4,1.8c0,0.9-0.8,1.6-2,1.6c-0.6,0-1.2-0.2-1.4-0.3c0-0.3-0.1-0.6-0.1-0.9c0-0.5,0.1-0.6,0.5-0.6
		c0.1,0,0.1,0,0.1,0l0.2,1c0.1,0.1,0.4,0.2,0.8,0.2c0.6,0,0.9-0.2,0.9-0.7c0-0.5-0.5-0.8-1.1-1.1c-0.7-0.4-1.4-0.9-1.4-1.9
		c0-0.9,0.8-1.5,1.9-1.5c0.7,0,1.1,0.2,1.3,0.4c0,0.2,0,0.4,0,0.6c0,0.4-0.1,0.7-0.5,0.7c-0.1,0-0.1,0-0.1,0L155.9,132.2z
		 M28.4,147.6l0.8,0.1c0,0,0,0,0,0.1c0,0.2-0.1,0.3-0.4,0.4l-1.5,0.1v-0.7h0c-0.3,0.4-0.7,0.8-1.6,0.8c-1.1,0-2.2-0.7-2.2-2.7
		c0-2.1,1.5-3.1,2.9-3.1c0.3,0,0.6,0.1,0.8,0.1v-2l-0.8-0.1c0,0,0-0.1,0-0.1c0-0.2,0.1-0.3,0.4-0.4l1.6-0.1V147.6z M27.2,143.6
		c-0.2-0.2-0.5-0.3-1-0.3c-0.9,0-1.6,0.7-1.6,2.2c0,1.5,0.6,2.1,1.4,2.1c0.7,0,1-0.3,1.2-0.5V143.6z M31.1,145.5
		c0,1.4,0.7,2.1,1.7,2.1c0.7,0,1.1-0.3,1.4-0.5c0.1,0.1,0.2,0.3,0.2,0.4c0,0.3-0.8,0.9-2,0.9c-1.4,0-2.5-0.8-2.5-2.8
		c0-2,1.2-3,2.5-3c1.3,0,1.9,0.8,1.9,1.9c0,0.3-0.1,0.7-0.1,1H31.1z M33.1,144.9c0-0.1,0.1-0.3,0.1-0.5c0-0.6-0.2-1.2-0.9-1.2
		c-0.7,0-1.1,0.5-1.2,1.7H33.1z M37.9,143.4c-0.1-0.1-0.4-0.2-0.8-0.2c-0.4,0-0.8,0.2-0.8,0.6c0,0.5,0.5,0.8,1.1,1.1
		c0.7,0.4,1.4,0.9,1.4,1.8c0,0.9-0.8,1.6-2,1.6c-0.6,0-1.2-0.2-1.4-0.3c0-0.3-0.1-0.6-0.1-0.9c0-0.5,0.1-0.6,0.5-0.6
		c0.1,0,0.1,0,0.1,0l0.2,1c0.1,0.1,0.4,0.2,0.8,0.2c0.6,0,0.9-0.2,0.9-0.7c0-0.5-0.5-0.8-1.1-1.1c-0.7-0.4-1.4-0.9-1.4-1.9
		c0-0.9,0.8-1.5,1.9-1.5c0.7,0,1.1,0.2,1.3,0.4c0,0.2,0,0.4,0,0.6c0,0.4-0.1,0.7-0.5,0.7c-0.1,0-0.1,0-0.1,0L37.9,143.4z
		 M44.7,148.2h-2.6c0,0,0-0.1,0-0.1c0-0.2,0.1-0.3,0.4-0.4l0.5-0.1V141l-0.7-0.2c-0.1,0-0.2-0.1-0.2-0.1c0-0.1,0.1-0.2,0.1-0.3h2.5
		c2.9,0,4.6,1.1,4.6,3.8C49.3,146.9,47.6,148.2,44.7,148.2z M44.7,141h-0.5v6.5h0.5c2.1,0,3.3-1.1,3.3-3.3
		C48,142.1,46.8,141,44.7,141z M51.6,145.5c0,1.4,0.7,2.1,1.7,2.1c0.7,0,1.1-0.3,1.4-0.5c0.1,0.1,0.2,0.3,0.2,0.4
		c0,0.3-0.8,0.9-2,0.9c-1.4,0-2.5-0.8-2.5-2.8c0-2,1.2-3,2.5-3c1.3,0,1.9,0.8,1.9,1.9c0,0.3-0.1,0.7-0.1,1H51.6z M53.5,144.9
		c0-0.1,0.1-0.3,0.1-0.5c0-0.6-0.2-1.2-0.9-1.2c-0.7,0-1.1,0.5-1.2,1.7H53.5z M60.8,147.6l0.8,0.1c0,0,0,0,0,0.1
		c0,0.2-0.1,0.3-0.4,0.4l-1.5,0.1v-0.8h0c-0.2,0.2-0.7,0.8-1.7,0.8c-1.2,0-1.8-0.7-1.8-2.1v-2.9l-0.8-0.1c0,0,0-0.1,0-0.1
		c0-0.2,0.1-0.3,0.4-0.4l1.6-0.1v3.6c0,1,0.5,1.3,1,1.3c0.6,0,1-0.3,1.2-0.5v-3.6l-0.8-0.1c0,0,0-0.1,0-0.1c0-0.2,0.1-0.3,0.4-0.4
		l1.6-0.1V147.6z M65.6,143.3H64v3.3c0,0.5,0.2,0.9,0.7,0.9c0.4,0,0.8-0.2,0.9-0.3c0.1,0.1,0.1,0.3,0.1,0.4c0,0.1-0.4,0.6-1.4,0.6
		s-1.4-0.6-1.4-1.5v-3.5H62c0,0,0-0.1,0-0.1c0-0.2,0.1-0.3,0.4-0.4l0.6-0.1l0.3-1.5H64v1.5h1.7L65.6,143.3z M68.9,143.4
		c-0.1-0.1-0.4-0.2-0.8-0.2c-0.4,0-0.8,0.2-0.8,0.6c0,0.5,0.5,0.8,1.1,1.1c0.7,0.4,1.4,0.9,1.4,1.8c0,0.9-0.8,1.6-2,1.6
		c-0.6,0-1.2-0.2-1.4-0.3c0-0.3-0.1-0.6-0.1-0.9c0-0.5,0.1-0.6,0.5-0.6c0.1,0,0.1,0,0.1,0l0.2,1c0.1,0.1,0.4,0.2,0.8,0.2
		c0.6,0,0.9-0.2,0.9-0.7c0-0.5-0.5-0.8-1.1-1.1c-0.7-0.4-1.4-0.9-1.4-1.9c0-0.9,0.8-1.5,1.9-1.5c0.7,0,1.1,0.2,1.3,0.4
		c0,0.2,0,0.4,0,0.6c0,0.4-0.1,0.7-0.5,0.7c-0.1,0-0.1,0-0.1,0L68.9,143.4z M73.4,143.3c-0.8,0-1.4,0.5-1.4,2c0,1.4,0.6,2.3,1.6,2.3
		c0.7,0,1.1-0.4,1.3-0.5c0.1,0.1,0.2,0.3,0.2,0.4c0,0.3-0.6,0.9-1.9,0.9c-1.5,0-2.4-0.9-2.4-2.8c0-1.9,1.3-3,2.8-3
		c1.3,0,1.6,0.6,1.6,0.9c0,0.3-0.1,0.6-0.6,0.7C74.4,143.8,74.2,143.3,73.4,143.3z M77.7,143.4L77.7,143.4c0.3-0.3,0.8-0.8,1.8-0.8
		c1.1,0,1.8,0.7,1.8,2v3l0.7,0.1c0.1,0,0.2,0.1,0.2,0.1c0,0.1-0.1,0.3-0.1,0.3h-2.6c0,0,0-0.1,0-0.1c0-0.2,0.1-0.3,0.4-0.4l0.4-0.1
		v-2.9c0-1-0.5-1.3-1.1-1.3c-0.7,0-1.1,0.3-1.3,0.5v3.6l0.6,0.1c0.1,0,0.2,0.1,0.2,0.1c0,0.1-0.1,0.3-0.1,0.3h-2.6c0,0,0-0.1,0-0.1
		c0-0.2,0.1-0.3,0.4-0.4l0.4-0.1v-6.9l-0.8-0.1c0,0,0-0.1,0-0.1c0-0.2,0.1-0.3,0.4-0.4l1.6-0.1V143.4z M83.8,145.5
		c0,1.4,0.7,2.1,1.7,2.1c0.7,0,1.1-0.3,1.4-0.5c0.1,0.1,0.2,0.3,0.2,0.4c0,0.3-0.8,0.9-2,0.9c-1.4,0-2.5-0.8-2.5-2.8
		c0-2,1.2-3,2.5-3c1.3,0,1.9,0.8,1.9,1.9c0,0.3-0.1,0.7-0.1,1H83.8z M85.8,144.9c0-0.1,0.1-0.3,0.1-0.5c0-0.6-0.2-1.2-0.9-1.2
		c-0.7,0-1.1,0.5-1.2,1.7H85.8z M93.4,147.6l0.7,0.1c0.1,0,0.2,0.1,0.2,0.1c0,0.1-0.1,0.3-0.1,0.3h-2.6c0,0,0-0.1,0-0.1
		c0-0.2,0.1-0.3,0.4-0.4l0.4-0.1v-2.9c0-1-0.5-1.3-1.1-1.3c-0.6,0-1.1,0.3-1.3,0.5v3.6l0.6,0.1c0.1,0,0.2,0.1,0.2,0.1
		c0,0.1-0.1,0.3-0.1,0.3h-2.6c0,0,0-0.1,0-0.1c0-0.2,0.1-0.3,0.4-0.4l0.4-0.1v-4.2l-0.8-0.1c0,0,0-0.1,0-0.1c0-0.2,0.1-0.3,0.4-0.4
		l1.6-0.1l-0.1,0.8h0c0.3-0.3,0.8-0.9,1.9-0.9c1.1,0,1.7,0.7,1.7,2V147.6z M101.4,144.1L101.4,144.1c1.1,0.2,1.8,0.8,1.8,1.9
		c0,1.3-1,2.2-3.1,2.2h-2.9c0,0,0-0.1,0-0.1c0-0.2,0.1-0.3,0.4-0.4l0.5-0.1V141l-0.7-0.2c-0.1,0-0.2-0.1-0.2-0.1
		c0-0.1,0.1-0.2,0.1-0.3h2.7c2,0,3,0.7,3,2C103,143.4,102.3,143.9,101.4,144.1z M99.9,141h-0.6v2.9h0.6c1.3,0,1.8-0.6,1.8-1.4
		C101.7,141.5,101.2,141,99.9,141z M100,144.6h-0.8v2.9h0.7c1.3,0,1.9-0.6,1.9-1.5C101.9,145.2,101.3,144.6,100,144.6z M109.3,147.6
		l0.8,0.1c0,0,0,0,0,0.1c0,0.2-0.1,0.3-0.4,0.4l-1.5,0.1v-0.8h0c-0.2,0.2-0.7,0.8-1.7,0.8c-1.2,0-1.8-0.7-1.8-2.1v-2.9l-0.8-0.1
		c0,0,0-0.1,0-0.1c0-0.2,0.1-0.3,0.4-0.4l1.6-0.1v3.6c0,1,0.5,1.3,1,1.3c0.6,0,1-0.3,1.2-0.5v-3.6l-0.8-0.1c0,0,0-0.1,0-0.1
		c0-0.2,0.1-0.3,0.4-0.4l1.5-0.1V147.6z M116.2,147.6l0.7,0.1c0.1,0,0.2,0.1,0.2,0.1c0,0.1-0.1,0.3-0.1,0.3h-2.6c0,0,0-0.1,0-0.1
		c0-0.2,0.1-0.3,0.4-0.4l0.4-0.1v-2.9c0-1-0.5-1.3-1.1-1.3c-0.6,0-1.1,0.3-1.3,0.5v3.6l0.7,0.1c0.1,0,0.2,0.1,0.2,0.1
		c0,0.1-0.1,0.3-0.1,0.3h-2.6c0,0,0-0.1,0-0.1c0-0.2,0.1-0.3,0.4-0.4l0.4-0.1v-4.2l-0.8-0.1c0,0,0-0.1,0-0.1c0-0.2,0.1-0.3,0.4-0.4
		l1.5-0.1l-0.1,0.8h0c0.3-0.3,0.8-0.9,1.9-0.9c1.1,0,1.7,0.7,1.7,2V147.6z M122.5,147.6l0.8,0.1c0,0,0,0,0,0.1
		c0,0.2-0.1,0.3-0.4,0.4l-1.5,0.1v-0.7h0c-0.3,0.4-0.7,0.8-1.6,0.8c-1.1,0-2.2-0.7-2.2-2.7c0-2.1,1.5-3.1,2.9-3.1
		c0.3,0,0.6,0.1,0.8,0.1v-2l-0.8-0.1c0,0,0-0.1,0-0.1c0-0.2,0.1-0.3,0.4-0.4l1.6-0.1V147.6z M121.4,143.6c-0.2-0.2-0.5-0.3-1-0.3
		c-0.9,0-1.6,0.7-1.6,2.2c0,1.5,0.6,2.1,1.4,2.1c0.7,0,1-0.3,1.2-0.5V143.6z M125.2,145.5c0,1.4,0.7,2.1,1.7,2.1
		c0.7,0,1.1-0.3,1.4-0.5c0.1,0.1,0.2,0.3,0.2,0.4c0,0.3-0.8,0.9-2,0.9c-1.4,0-2.5-0.8-2.5-2.8c0-2,1.2-3,2.5-3
		c1.3,0,1.9,0.8,1.9,1.9c0,0.3-0.1,0.7-0.1,1H125.2z M127.2,144.9c0-0.1,0.1-0.3,0.1-0.5c0-0.6-0.2-1.2-0.9-1.2
		c-0.7,0-1.1,0.5-1.2,1.7H127.2z M132,143.4c-0.1-0.1-0.4-0.2-0.8-0.2c-0.4,0-0.8,0.2-0.8,0.6c0,0.5,0.5,0.8,1.1,1.1
		c0.7,0.4,1.4,0.9,1.4,1.8c0,0.9-0.8,1.6-2,1.6c-0.6,0-1.2-0.2-1.4-0.3c0-0.3-0.1-0.6-0.1-0.9c0-0.5,0.1-0.6,0.5-0.6
		c0.1,0,0.1,0,0.1,0l0.2,1c0.1,0.1,0.4,0.2,0.8,0.2c0.6,0,0.9-0.2,0.9-0.7c0-0.5-0.5-0.8-1.1-1.1c-0.7-0.4-1.4-0.9-1.4-1.9
		c0-0.9,0.8-1.5,1.9-1.5c0.7,0,1.1,0.2,1.3,0.4c0,0.2,0,0.4,0,0.6c0,0.4-0.1,0.7-0.5,0.7c-0.1,0-0.1,0-0.1,0L132,143.4z
		 M137.1,143.3h-1.6v3.3c0,0.5,0.2,0.9,0.7,0.9c0.4,0,0.8-0.2,0.9-0.3c0.1,0.1,0.1,0.3,0.1,0.4c0,0.1-0.4,0.6-1.4,0.6
		c-1,0-1.4-0.6-1.4-1.5v-3.5h-0.9c0,0,0-0.1,0-0.1c0-0.2,0.1-0.3,0.4-0.4l0.6-0.1l0.3-1.5h0.8v1.5h1.7L137.1,143.3z M141.9,147
		c0,0.5,0.2,0.6,0.4,0.6c0.3,0,0.4-0.1,0.4-0.2c0.1,0.1,0.1,0.2,0.1,0.3c0,0.1-0.3,0.6-1,0.6c-0.5,0-0.9-0.2-1-0.8h0
		c-0.1,0.2-0.5,0.8-1.5,0.8c-0.9,0-1.5-0.6-1.5-1.5c0-1.2,1.3-1.7,2.6-1.7h0.3v-0.5c0-1-0.3-1.4-1-1.4c-0.3,0-0.5,0.1-0.6,0.1
		c-0.1,0.2-0.2,0.6-0.2,1c0,0-0.2,0-0.3,0c-0.4,0-0.6-0.2-0.6-0.5c0-0.7,0.9-1.2,2-1.2c1.3,0,1.8,0.7,1.8,2V147z M140.4,145.8
		c-0.9,0-1.4,0.4-1.4,1c0,0.5,0.3,0.8,0.7,0.8c0.5,0,0.8-0.3,1-0.5v-1.3L140.4,145.8z M148.3,143.4h-0.9c0.2,0.3,0.4,0.6,0.4,1
		c0,1.2-1,1.9-2.2,1.9c-0.2,0-0.4,0-0.5-0.1c-0.2,0.1-0.3,0.2-0.3,0.5c0,0.3,0.2,0.4,0.6,0.4h1.3c1,0,1.6,0.5,1.6,1.3
		c0,1.1-1.1,2.2-3,2.2c-1.4,0-2.1-0.5-2.1-1.3c0-0.8,0.6-1.2,1-1.3v0c-0.3-0.2-0.5-0.4-0.5-0.8c0-0.7,0.6-1,0.8-1.1v0
		c-0.6-0.3-1-0.9-1-1.7c0-1.2,1-1.8,2.2-1.8c0.3,0,0.6,0,0.9,0.1h2L148.3,143.4z M145.1,148.2c-0.2,0-0.3,0-0.4,0
		c-0.3,0.2-0.5,0.5-0.5,0.8c0,0.6,0.4,1,1.2,1c1.1,0,1.8-0.5,1.8-1.1c0-0.5-0.3-0.7-0.8-0.7H145.1z M144.6,144.4
		c0,0.9,0.5,1.3,1,1.3c0.6,0,1.1-0.4,1.1-1.3c0-0.8-0.4-1.2-1-1.2C145,143.2,144.6,143.5,144.6,144.4z M150.2,145.5
		c0,1.4,0.7,2.1,1.7,2.1c0.7,0,1.1-0.3,1.4-0.5c0.1,0.1,0.2,0.3,0.2,0.4c0,0.3-0.8,0.9-2,0.9c-1.4,0-2.4-0.8-2.4-2.8
		c0-2,1.2-3,2.5-3c1.3,0,1.9,0.8,1.9,1.9c0,0.3-0.1,0.7-0.1,1H150.2z M152.2,144.9c0-0.1,0.1-0.3,0.1-0.5c0-0.6-0.2-1.2-0.9-1.2
		c-0.7,0-1.1,0.5-1.2,1.7H152.2z M157,143.4c-0.1-0.1-0.4-0.2-0.8-0.2c-0.4,0-0.8,0.2-0.8,0.6c0,0.5,0.5,0.8,1.1,1.1
		c0.7,0.4,1.4,0.9,1.4,1.8c0,0.9-0.8,1.6-2,1.6c-0.6,0-1.2-0.2-1.4-0.3c0-0.3-0.1-0.6-0.1-0.9c0-0.5,0.1-0.6,0.5-0.6
		c0.1,0,0.1,0,0.1,0l0.2,1c0.1,0.1,0.4,0.2,0.8,0.2c0.6,0,0.9-0.2,0.9-0.7c0-0.5-0.5-0.8-1.1-1.1c-0.7-0.4-1.4-0.9-1.4-1.9
		c0-0.9,0.8-1.5,1.9-1.5c0.7,0,1.1,0.2,1.3,0.4c0,0.2,0,0.4,0,0.6c0,0.4-0.1,0.7-0.5,0.7c-0.1,0-0.1,0-0.1,0L157,143.4z"/>
</g>
</svg>
