<?xml version="1.0" encoding="utf-8"?>
<!-- Generator: Adobe Illustrator 21.0.0, SVG Export Plug-In . SVG Version: 6.00 Build 0)  -->
<svg version="1.1" id="Ebene_1" xmlns="http://www.w3.org/2000/svg" xmlns:xlink="http://www.w3.org/1999/xlink" x="0px" y="0px"
	 viewBox="0 0 262 183.3" style="enable-background:new 0 0 262 183.3;" xml:space="preserve">
<style type="text/css">
	.st0{fill:#FFCB00;}
	.st1{fill:#FF0000;}
	.st2{fill:#1E1E1E;}
	.st3{enable-background:new    ;}
</style>
<title>HG_Bilder</title>
<g id="_x35_e20b02f-a974-4dc0-9902-f9966126e853">
	<polygon class="st0" points="66.6,143.7 69.5,143.7 69.5,182.7 62.7,182.7 62.7,143.7 	"/>
	<polygon class="st1" points="66.6,104.5 69.5,104.5 69.5,143.7 62.7,143.7 62.7,104.5 	"/>
	<path class="st2" d="M32.7,79.9c0-0.4,0-0.9,0-1.3c0-0.2,0-0.5,0-0.9c3.9,0,7.3-2.9,7.3-6.1c-0.1-1.4-0.7-2.6-1.7-3.6l0.4-0.1
		c1.3,1.1,2.1,2.7,2.3,4.5C41,76.3,37.2,79.9,32.7,79.9 M28.8,66.5c-0.1-0.4-0.2-0.8-0.5-1.2c0-0.4,0.2-0.8,0.8-0.5
		c-0.4,0.4,0,1,0,1s0.7-0.3,0.6-0.8C30.8,65.3,30,66.7,28.8,66.5 M28,68.5c-0.1-0.6-0.4-1.1-0.8-1.6s-1-0.8-1.7-0.9
		c-0.4,0-0.9,0.1-1.3,0.3c-0.2-0.4-0.3-0.7-0.4-1.1c0-0.3,0.5-0.6,1.4-0.6c2,0,3.2,0.9,3.2,2.4C28.4,67.5,28.3,68,28,68.5
		 M33.1,94.4c0.2,0,0.3,0,0.5,0.1c0.8,1.7,1.8,3.2,2.9,4.7l0,0c1-0.2,2.1-0.3,3.1-0.3l0,0c0.1,0,0.3,0,0.4,0.1
		c0.1,0.1,0.1,0.3,0.1,0.4c0,0.4-0.1,0.7-0.3,1c-0.6-0.5-1.4-0.7-2.1-0.7c-0.3,0-0.6,0.1-0.9,0.1h-0.2l0.6,0.6c1,1,1.8,1.8,1.8,2.3
		c-0.1,0.4-0.3,0.7-0.6,1c-0.3-1.2-1-2.2-2-3l0,0v0.4c0,0.2,0,0.6,0,1c0,1.9-0.2,2.2-0.8,2.2c-0.1,0-0.2,0-0.4,0
		c0.4-0.6,0.6-1.4,0.5-2.1v-0.9c0-0.3,0-0.7,0-1v-0.1h-0.1c-0.4-0.1-0.9-0.1-1.3-0.1c-0.7-0.1-1.4,0.1-2,0.5
		c-0.3-0.2-0.5-0.6-0.6-0.9c0-0.4,0.2-0.4,0.6-0.4h0.5c0.7,0.1,1.5,0.2,2.3,0.1l0,0l0,0c-0.7-1.4-1.5-2.8-2.6-3.9
		c0.1-0.5,0.2-0.8,0.7-0.8 M21.1,99L21.1,99L21.1,99c0.7,0.1,1.5,0.1,2.3,0h0.5c0.3,0,0.6,0,0.6,0.4c-0.1,0.4-0.3,0.7-0.6,0.9
		c-0.6-0.4-1.3-0.6-2-0.5c-0.4,0-0.9,0.1-1.3,0.1h-0.1v0.1c0,0.3,0,0.7,0,1v0.9c-0.1,0.7,0.1,1.5,0.5,2.1c-0.1,0-0.2,0-0.4,0
		c-0.7,0-0.8-0.3-0.8-2.2c0-0.4,0-0.7,0-1v-0.4l0,0c-1.1,0.7-1.8,1.9-2.1,3.2c-0.3-0.2-0.6-0.6-0.6-1c0-0.5,0.8-1.4,1.8-2.3l0.6-0.5
		l0,0h-0.2c-0.3-0.1-0.6-0.1-0.9-0.1c-0.8-0.1-1.5,0.1-2.1,0.7c-0.2-0.3-0.3-0.7-0.3-1.1c0-0.1,0.1-0.3,0.2-0.4s0.2-0.1,0.4-0.1l0,0
		c1,0,2.1,0.1,3.1,0.3l0,0c1.1-1.5,2.1-3,2.9-4.7c0.1-0.1,0.3-0.1,0.5-0.1c0.4,0,0.6,0.3,0.7,0.8C22.6,96.4,21.7,97.7,21.1,99
		 M15,72.4c0.1-1.7,0.9-3.3,2.2-4.5l0.4,0.1c-1,1-1.6,2.3-1.7,3.6c0,3.2,3.5,6.1,7.4,6.1c0,0.3,0,0.6,0,0.9c0,0.4,0,0.9,0,1.3
		C18.9,79.9,14.9,76.3,15,72.4 M44.9,79.3c1.1,2.3,3.5,3.5,5.9,3.1c-1.5-1.2-2.8-2.7-3.9-4.4l-3.7-5.8c-0.4-1.8-1.3-3.5-2.7-4.7
		c0.5-0.2,0.9-0.4,1.2-0.7c-2.4,0-4.7-1.2-6-1.2c-0.7-0.1-1.3,0.4-1.4,1v0.1c0,0.7,0.8,1.5,2.2,1.5c0.4,0,0.8-0.1,1.2-0.1
		c0.8,0.9,1.3,2.1,1.4,3.4c0,2.6-3,4.6-6.1,4.6h-0.5c-0.6-0.9-1-1.9-1.2-2.9c0-2,1.3-3.7,1.3-5.7c0-0.9-0.3-1.7-0.8-2.4
		c0.4-0.3,0.7-0.7,0.9-1.1c-0.3,0.1-0.6,0.1-0.9,0.1c-1.6,0-2.8-0.3-4-0.3c-0.6,0-0.8,0.2-0.8,0.4c0,0.1,0,0.1,0,0.2
		c-0.2-0.1-0.5-0.2-0.8-0.2c-0.4-0.1-0.7-0.1-1.1-0.1c-1.4,0-1.9,0.6-1.9,1.1c0.1,0.6,0.4,1.2,0.7,1.8c0.5-0.3,1-0.4,1.5-0.5
		c0.8,0,1.4,0.7,1.8,1.6c-0.4,0-0.8,0-1.1,0c-0.9,0-1.7-0.2-2.5-0.5l0,0c0,0,0.4,0.7,1.2,1c0.9,0.3,1.9,0.5,2.8,0.6
		c-0.1,0.3-0.3,0.5-0.5,0.6c-0.1,0-0.1,0-0.2,0c-0.9-0.1-1.9-0.3-2.8-0.6l0,0c0,0.5,1.4,1.8,2.6,2.2c-1.3,1.4-2.4,3.1-3,4.9h-0.5
		c-3.1,0-6.1-2-6.1-4.6c0.1-1.2,0.5-2.4,1.4-3.4c0.4,0.1,0.8,0.1,1.2,0.1c1.4,0,2.2-0.8,2.2-1.5c0-0.7-0.6-1.2-1.3-1.2h-0.1
		c-1.3,0-3.7,1.2-6,1.2c0.3,0.2,0.7,0.4,1.1,0.5c-1.4,1.2-2.3,2.9-2.7,4.7l-3.6,5.8c-1,1.7-2.3,3.2-3.9,4.4c2.5,0.4,4.9-0.9,5.9-3.1
		l1.9-3c0.1,0.4,0.3,0.8,0.5,1.1L10,83.2c-1,1.7-2.3,3.2-3.9,4.4C8.5,88,11,86.7,12,84.5l3.2-5.1c0.2,0.3,0.5,0.5,0.8,0.7l-4.5,7.2
		c-1,1.7-2.3,3.2-3.9,4.5c2.5,0.4,4.9-0.9,5.9-3.2l4.4-7.1l0.9,0.5l-5.4,8.6c-1,1.7-2.3,3.2-3.9,4.4c2.4,0.4,4.9-0.9,5.9-3.1
		l5.5-8.8l1,0.4l-6.3,10c-1,1.7-2.3,3.2-3.9,4.4c2.4,0.4,4.9-0.9,5.9-3.1l6.7-10.7h0.2c0.2,0.5,0.3,1.1,0.3,1.7
		c0,3.4-2.2,6.3-4.9,8.6c0.2,0.1,0.5,0.1,0.7,0.1c0.4,0,0.8,0,1.1,0c-0.7,1.4-1.6,2.7-2.6,4c-1-0.2-2-0.3-2.9-0.3s-1,0.5-1,1
		c0,0.7,0.3,1.3,0.8,1.8c0.2-0.4,0.5-0.9,2.1-0.9h0.2c-0.5,0.5-1.9,1.8-1.9,2.6c0.1,0.8,0.8,1.5,1.6,1.6c0-0.2,0-0.4,0-0.5
		c0.1-0.9,0.6-1.7,1.2-2.3c0,0.1,0,0.3,0,0.4c0,1.8,0.2,2.6,1.3,2.6c0.4,0,0.8-0.1,1.1-0.3c-0.6-0.6-0.9-1.4-0.8-2.3
		c0-0.3,0-0.5,0-0.9c0-0.3,0-0.5,0-0.8c0.3,0,0.6,0,0.9,0c0,0,1.6-0.1,2,0.7c0.4-0.4,1.1-1,1.1-1.6s-0.2-0.9-1-0.9
		c-0.3,0-1.3,0.2-2.2,0.2c0.6-1.1,1.3-2.1,2.1-3c0.1,0.5,0.4,0.9,0.8,1.2c0.1-1.5,0.7-2.9,1.5-4.1c0.2,1.2,0.3,2.3,0.3,3.5
		c0,4.5-1.1,7.8-3.4,8.5c0.3,0.6,0.9,0.9,1.6,1c0.8,0,1.3-1,1.8-1.8c0.2,0.7,0.9,2.3,1.6,2.3s1.3-1.6,1.6-2.3
		c0.5,0.9,0.9,1.8,1.8,1.8c0.7,0,1.3-0.4,1.6-1c-2.3-0.6-3.4-4-3.4-8.5c0-1.2,0.1-2.4,0.3-3.5c0.9,1.2,1.4,2.6,1.5,4.1
		c0.4-0.3,0.7-0.7,0.8-1.2c0.8,0.9,1.5,2,2.1,3c-0.8,0-1.8-0.2-2.2-0.2c-0.8,0-1,0.5-1,0.9s0.7,1.2,1.1,1.6c0.4-0.8,2-0.7,2-0.7
		c0.3,0,0.6,0,0.9,0c0,0.3,0,0.5,0,0.8c0,0.4,0,0.6,0,0.9c0.1,0.8-0.2,1.7-0.8,2.3c0.3,0.3,0.7,0.4,1.1,0.4c1.1,0,1.3-0.8,1.3-2.6
		c0-0.1,0-0.3,0-0.4c0.7,0.6,1.1,1.4,1.3,2.3c0,0.2,0,0.4,0,0.5c0.8-0.1,1.5-0.7,1.6-1.6c0-1-1.5-2.1-1.9-2.6h0.2
		c1.6,0,1.9,0.5,2.1,0.9c0.5-0.4,0.8-1.1,0.8-1.8c0-0.5-0.1-1-1-1c-1,0-2,0.1-2.9,0.3c-1-1.3-1.9-2.7-2.6-4.1c0.4,0,0.8,0,1.1,0
		s0.5,0,0.7-0.1c-2.6-2.3-4.9-5.3-4.9-8.6c0-0.6,0.1-1.1,0.3-1.7h0.2l6.7,10.7c1.1,2.2,3.5,3.5,5.9,3.1c-1.6-1.2-2.9-2.7-3.9-4.4
		l-6.3-10l1-0.4l5.5,8.8c1.1,2.2,3.5,3.5,5.9,3.1c-1.5-1.2-2.8-2.7-3.9-4.4L37.1,82l0.9-0.5l4.4,7.1c1,2.3,3.4,3.6,5.9,3.2
		c-1.5-1.2-2.8-2.7-3.9-4.4l-4.5-7.2c0.3-0.2,0.5-0.5,0.8-0.7l3.2,5.1c1.1,2.3,3.5,3.5,5.9,3.1c-1.5-1.2-2.8-2.7-3.9-4.4l-3.7-6
		c0.2-0.4,0.4-0.8,0.5-1.1L44.9,79.3z"/>
	<polygon class="st2" points="69.5,65.6 69.5,104.7 66.6,104.7 62.7,104.7 62.7,65.6 	"/>
	<path class="st2" d="M90.7,76.8c0.1-0.8-0.2-1.7-0.7-2.3c-0.6-0.6-1.4-0.8-2.2-0.8h-2v6h1.8c0.8,0.1,1.6-0.1,2.3-0.5
		C90.5,78.6,90.8,77.7,90.7,76.8 M90.4,69.4c0.1-0.8-0.2-1.6-0.7-2.1c-0.6-0.4-1.3-0.6-2.1-0.5h-1.8v5.5h2
		C89.6,72.2,90.4,71.3,90.4,69.4 M92.6,76.9c0.2,1.3-0.3,2.6-1.2,3.5c-1,0.7-2.3,1-3.5,0.9H84V65.5h4.2c1.1-0.1,2.2,0.2,3.1,0.9
		c0.8,0.8,1.1,1.9,1,3.1c0,0.8-0.1,1.6-0.5,2.3c-0.5,0.6-1.1,1-1.9,1.1c0.9,0.1,1.7,0.7,2.2,1.4C92.5,75.1,92.7,76,92.6,76.9"/>
	<path class="st2" d="M103.1,81.2h-1.8v-1.4c-0.6,1-1.6,1.6-2.8,1.6c-2,0-3-1.1-3-3.4v-7.9h1.8v7.1c0,0.7,0,1.3,0.2,1.9
		c0.2,0.6,0.9,1,1.6,1c1.5,0,2.2-1.1,2.2-3.2v-6.7h1.8v8.6C103,79.7,103,80.5,103.1,81.2"/>
	<path class="st2" d="M113.7,81.2h-1.8v-7.1c0-0.7,0-1.3-0.2-2c-0.2-0.6-0.9-1-1.5-1c-0.8,0-1.4,0.4-1.8,1.1s-0.5,1.5-0.5,2.3v6.6
		h-1.8v-8.7c0-1,0-1.8-0.1-2.4h1.8v1.5c0.5-1.1,1.7-1.8,2.9-1.8c2,0,2.9,1.2,2.9,3.5L113.7,81.2z"/>
	<path class="st2" d="M122.5,75.8c0-1.1-0.1-2.2-0.3-3.2c0-1-0.8-1.8-1.8-1.8s-1.8,0.8-1.8,1.8c-0.2,1-0.3,2-0.3,2.9
		c0,1.1,0.1,2.2,0.4,3.2c0.2,0.8,0.9,1.3,1.7,1.4c0.9,0.1,1.7-0.5,1.9-1.4C122.5,77.7,122.6,76.7,122.5,75.8 M124.3,81.2h-1.8V80
		c-0.5,0.9-1.5,1.5-2.6,1.5c-1.3,0.1-2.5-0.7-2.9-1.9c-0.4-1.3-0.6-2.6-0.5-4c-0.1-1.3,0.1-2.6,0.6-3.8c0.5-1.1,1.6-1.8,2.8-1.8
		c1-0.1,2,0.4,2.5,1.3v-6h1.8v13.8C124.2,79.5,124.2,80.2,124.3,81.2"/>
	<path class="st2" d="M132.9,74.7c0-0.8,0-1.5-0.2-2.3c-0.2-0.8-0.9-1.4-1.8-1.3c-1.2,0-1.9,0.7-2,2.2c-0.1,0.5-0.1,1-0.1,1.4
		C128.8,74.7,132.9,74.7,132.9,74.7z M134.7,75.9h-5.8v0.8c0,0.8,0.1,1.7,0.3,2.5c0.3,0.7,1,1.1,1.8,1.1c1.3,0,2-0.8,2-2.5h1.8
		c0.2,1.9-1.2,3.5-3,3.7c-0.3,0-0.5,0-0.8,0c-1.3,0.1-2.5-0.5-3.2-1.6c-0.5-1.2-0.7-2.4-0.7-3.7c-0.1-1.4,0.1-2.9,0.5-4.2
		c0.6-1.3,2-2.2,3.4-2c1.3-0.2,2.6,0.6,3.2,1.8c0.4,1.2,0.6,2.5,0.5,3.8V75.9L134.7,75.9z"/>
	<path class="st2" d="M143.6,78.2c0,2.2-1.2,3.2-3.5,3.2c-2.4,0-3.5-1.2-3.3-3.5h1.8c0,0.2,0,0.4,0,0.6c0.1,1.2,0.6,1.8,1.6,1.8
		c0.8,0.2,1.6-0.4,1.8-1.2c0-0.2,0-0.4,0-0.6c0-0.5-0.2-1.1-0.5-1.4c-0.5-0.4-1-0.7-1.5-1c-0.7-0.3-1.4-0.8-2-1.2
		c-0.6-0.5-0.9-1.3-0.8-2c-0.1-0.8,0.3-1.7,1-2.2s1.5-0.7,2.4-0.7c0.9-0.1,1.8,0.2,2.5,0.8c0.5,0.7,0.8,1.6,0.8,2.5h-1.8
		c0-1.4-0.5-2.1-1.6-2.1c-0.4,0-0.8,0.1-1.1,0.4s-0.4,0.7-0.4,1.1c0,0.5,0.2,1,0.6,1.3c0.5,0.4,1.1,0.7,1.6,1
		c0.6,0.3,1.2,0.8,1.8,1.2C143.3,76.7,143.6,77.4,143.6,78.2"/>
	<path class="st2" d="M158.5,81.2h-1.8v-7.4c0-0.6,0-1.2-0.2-1.8c-0.2-0.5-0.8-0.8-1.3-0.8c-1.3,0-2,1-2,3v7.1h-1.8v-7.6
		c0-0.6,0-1.1-0.2-1.6s-0.8-0.9-1.3-0.8c-0.7,0-1.2,0.4-1.5,1c-0.3,0.7-0.4,1.4-0.4,2.1v6.9h-1.7v-9.2c0-0.7,0-1.3-0.1-1.9h1.8v1.5
		c0.4-1.1,1.5-1.8,2.6-1.8c1.1-0.1,2.2,0.7,2.5,1.8c0.5-1.1,1.6-1.8,2.8-1.8c0.8,0,1.6,0.3,2.1,1c0.4,0.9,0.6,1.8,0.6,2.8
		C158.5,73.6,158.5,81.2,158.5,81.2z"/>
	<path class="st2" d="M163.5,81.2h-1.8V70.1h1.8V81.2z M163.6,67.4h-1.9v-1.9h1.9V67.4L163.6,67.4z"/>
	<path class="st2" d="M174.2,81.2h-1.8v-7.1c0-0.7,0-1.3-0.2-2c-0.2-0.6-0.9-1-1.5-1c-0.8,0-1.4,0.4-1.8,1.1
		c-0.4,0.7-0.5,1.5-0.5,2.3v6.6h-1.8v-8.7c0-1,0-1.8-0.1-2.4h1.8v1.5c0.5-1.1,1.7-1.8,2.9-1.8c2,0,2.9,1.2,2.9,3.5L174.2,81.2z"/>
	<path class="st2" d="M179.3,81.2h-1.8V70.1h1.8V81.2z M179.3,67.4h-1.9v-1.9h1.9V67.4z"/>
	<path class="st2" d="M188.6,78.2c0,2.2-1.2,3.2-3.5,3.2c-2.4,0-3.5-1.2-3.3-3.5h1.8c0,0.2,0,0.4,0,0.6c0.1,1.2,0.6,1.8,1.6,1.8
		c0.8,0.2,1.6-0.4,1.8-1.2c0-0.2,0-0.4,0-0.6c0-0.5-0.2-1.1-0.5-1.4c-0.4-0.4-0.9-0.7-1.4-1c-0.7-0.3-1.4-0.8-2-1.2
		c-0.6-0.5-0.9-1.3-0.8-2c0-0.8,0.3-1.7,1-2.2s1.5-0.7,2.4-0.7c0.9-0.1,1.8,0.2,2.4,0.8c0.5,0.7,0.8,1.5,0.8,2.4h-1.8
		c0-1.4-0.5-2.1-1.6-2.1c-0.4,0-0.8,0.1-1.1,0.4s-0.4,0.7-0.4,1.1c0,0.5,0.2,1,0.6,1.3c0.5,0.4,1,0.7,1.6,1c0.6,0.3,1.2,0.8,1.8,1.2
		C188.3,76.6,188.7,77.4,188.6,78.2"/>
	<path class="st2" d="M195.7,81.2c-0.4,0.1-0.9,0.1-1.3,0.1c-0.7,0.1-1.5-0.1-2-0.6c-0.4-0.6-0.5-1.4-0.5-2.1v-7.2h-1.7v-1.3h1.7v-2
		l1.8-0.8v2.8h2v1.3h-2.1v7.1c0,0.4,0,0.9,0.3,1.3c0.3,0.2,0.6,0.4,1,0.3h0.8V81.2z"/>
	<path class="st2" d="M203.2,74.7c0-0.8,0-1.5-0.2-2.3c-0.2-0.8-0.9-1.4-1.8-1.3c-1.2,0-1.9,0.7-2,2.2c-0.1,0.5-0.1,1-0.1,1.4
		C199.1,74.7,203.2,74.7,203.2,74.7z M205,75.9h-5.7v0.8c0,0.8,0.1,1.7,0.3,2.5c0.3,0.7,1,1.1,1.8,1.1c1.3,0,2-0.8,2-2.5h1.8
		c0.2,1.9-1.1,3.5-3,3.7c-0.2,0-0.5,0-0.7,0c-1.3,0.1-2.5-0.5-3.2-1.6c-0.6-1.2-0.8-2.5-0.8-3.8c-0.1-1.4,0.1-2.9,0.5-4.2
		c0.6-1.3,2-2.2,3.4-2c1.3-0.2,2.6,0.6,3.2,1.8c0.4,1.2,0.6,2.5,0.5,3.8L205,75.9z"/>
	<path class="st2" d="M212.4,71.6H212c-0.7-0.1-1.4,0.2-1.9,0.8c-0.4,0.6-0.6,1.3-0.6,2v6.9h-1.8v-9.1c0-0.8,0-1.4,0-2h1.8v1.4
		c0.5-1.1,1.6-1.8,2.8-1.8c0.1,0,0.2,0.6,0.2,1.8"/>
	<path class="st2" d="M216.2,81.2h-1.8V70.1h1.8V81.2z M216.3,67.4h-1.9v-1.9h1.9V67.4z"/>
	<path class="st2" d="M227,81.2h-1.8v-1.4c-0.6,1-1.7,1.6-2.8,1.6c-2,0-3-1.1-3-3.4v-7.9h1.8v7.1c0,0.7,0,1.3,0.2,1.9
		c0.2,0.6,0.9,1,1.6,1c1.5,0,2.2-1.1,2.2-3.2v-6.7h1.8v8.6C227,79.7,227,80.5,227,81.2"/>
	<path class="st2" d="M242.5,81.2h-1.8v-7.4c0-0.6,0-1.2-0.2-1.8c-0.2-0.5-0.8-0.9-1.3-0.8c-1.3,0-2,1-2,3v7.1h-1.8v-7.6
		c0-0.6,0-1.1-0.2-1.6s-0.8-0.9-1.3-0.8c-0.7,0-1.2,0.4-1.5,1c-0.3,0.7-0.5,1.4-0.4,2.1v6.9h-1.8v-9.2c0-0.7,0-1.3-0.1-1.9h1.8v1.5
		c0.4-1.1,1.5-1.8,2.6-1.8c1.1-0.1,2.2,0.7,2.5,1.8c0.5-1.1,1.6-1.8,2.8-1.8c0.8-0.1,1.7,0.3,2.2,1c0.4,0.9,0.6,1.8,0.6,2.8
		L242.5,81.2L242.5,81.2z"/>
	<path class="st2" d="M87.9,90h-0.7c-0.5-0.1-0.9,0.2-1.1,0.6c-0.1,0.4-0.2,0.9-0.2,1.3v1.6h1.9v1.3H86v9.8h-1.8v-9.8h-1.6v-1.3h1.6
		v-1.2c-0.1-0.9,0.1-1.8,0.4-2.6c0.5-0.8,1.4-1.3,2.4-1.1h0.9V90z"/>
	<path class="st2" d="M97.7,104.7h-1.8v-1.4c-0.6,1-1.7,1.6-2.8,1.6c-2,0-3-1.1-3-3.4v-7.9h1.8v7.1c0,0.7,0,1.3,0.2,1.9s0.9,1,1.6,1
		c1.5,0,2.2-1.1,2.2-3.2v-6.7h1.8v8.7C97.6,103.1,97.6,103.9,97.7,104.7"/>
	<path class="st2" d="M93,91h-1.6v-2.1H93V91z M96.5,91h-1.8v-2.1h1.8V91z"/>
	<path class="st2" d="M105.5,95h-0.4c-0.7-0.1-1.4,0.2-1.9,0.8c-0.4,0.6-0.7,1.3-0.6,2v6.9h-1.8v-9.2c0-0.8,0-1.4,0-2h1.8v1.4
		c0.5-1.1,1.6-1.8,2.8-1.8C105.5,93.1,105.6,93.7,105.5,95"/>
	<polygon class="st2" points="122.3,88.7 118.1,104.7 115.8,104.7 111.7,88.7 113.7,88.7 117,102.9 120.4,88.7 	"/>
	<path class="st2" d="M129,98.1c0-0.8,0-1.5-0.2-2.3s-0.9-1.4-1.8-1.3c-1.2,0-1.9,0.7-2,2.2c-0.1,0.5-0.1,1-0.1,1.4
		C124.9,98.1,129,98.1,129,98.1z M130.8,99.3H125v0.8c0,0.8,0.1,1.7,0.3,2.5c0.3,0.7,1,1.1,1.8,1.1c1.3,0,2-0.8,2-2.5h1.8
		c0.2,1.9-1.1,3.5-3,3.7c-0.3,0-0.6,0-0.9,0c-1.3,0.1-2.5-0.5-3.2-1.6c-0.5-1.2-0.7-2.5-0.6-3.8c-0.1-1.4,0.1-2.9,0.5-4.2
		c0.6-1.3,2-2.2,3.4-2c1.3-0.2,2.6,0.6,3.2,1.8c0.4,1.2,0.6,2.5,0.5,3.8L130.8,99.3z"/>
	<path class="st2" d="M138.2,95h-0.4c-0.7-0.1-1.4,0.2-1.9,0.8c-0.4,0.6-0.7,1.3-0.6,2v6.9h-1.8v-9.2c0-0.8,0-1.4,0-2h1.8v1.4
		c0.5-1.1,1.6-1.8,2.8-1.8c0.1,0,0.2,0.6,0.2,1.8"/>
	<path class="st2" d="M142,104.7h-1.8V88.8h1.8V104.7z M147.8,104.7h-2l-3.7-6.2l3.3-4.9h2l-3.5,4.9L147.8,104.7z"/>
	<path class="st2" d="M155.1,98.1c0-0.8,0-1.5-0.2-2.3s-0.9-1.4-1.8-1.3c-1.2,0-1.9,0.7-2,2.2c-0.1,0.5-0.1,1-0.1,1.4
		C151,98.1,155.1,98.1,155.1,98.1z M156.9,99.3h-5.8v0.8c-0.1,0.8,0,1.7,0.2,2.5c0.3,0.7,1,1.1,1.8,1.1c1.3,0,2-0.8,2-2.5h1.8
		c0.2,1.9-1.1,3.5-3,3.7c-0.2,0-0.5,0-0.7,0c-1.3,0.1-2.5-0.5-3.2-1.6c-0.5-1.2-0.7-2.5-0.6-3.8c-0.1-1.4,0.1-2.9,0.5-4.2
		c0.6-1.3,2-2.2,3.4-2c1.3-0.2,2.6,0.6,3.2,1.8c0.4,1.2,0.5,2.5,0.5,3.8C156.9,98.8,156.9,99.3,156.9,99.3z"/>
	<path class="st2" d="M167,104.7h-1.8v-7.1c0.1-0.7,0-1.4-0.2-2.1c-0.2-0.6-0.9-1-1.5-1c-1.5,0-2.2,1.1-2.2,3.3v6.8h-1.8V88.7h1.8
		v6.1c0.6-1,1.7-1.5,2.8-1.5c1.9,0,2.9,1.2,2.9,3.5V104.7z"/>
	<path class="st2" d="M175,95h-0.4c-0.7-0.1-1.4,0.2-1.9,0.8c-0.4,0.6-0.7,1.3-0.6,2v6.9h-1.8v-9.2c0-0.8,0-1.4,0-2h1.8v1.4
		c0.5-1.1,1.6-1.8,2.8-1.8c0.1,0,0.2,0.6,0.2,1.8"/>
	<path class="st2" d="M189.9,104.7h-1.8v-1.4c-0.6,1-1.7,1.6-2.8,1.6c-2,0-3-1.1-3-3.4v-7.9h1.8v7.1c0,0.7,0,1.3,0.2,1.9
		s0.9,1,1.6,1c1.5,0,2.2-1.1,2.2-3.2v-6.7h1.8v8.7C189.9,103.1,189.9,103.9,189.9,104.7"/>
	<path class="st2" d="M200.6,104.7h-1.8v-7.1c0-0.7,0-1.3-0.2-2c-0.2-0.6-0.9-1-1.5-1c-0.8,0-1.4,0.4-1.8,1.1
		c-0.4,0.7-0.5,1.5-0.5,2.2v6.7H193v-8.7c0-1,0-1.8-0.1-2.4h1.8V95c0.5-1.1,1.7-1.8,2.9-1.8c2,0,2.9,1.2,2.9,3.5L200.6,104.7z"/>
	<path class="st2" d="M209.4,99.2c0-1.1-0.1-2.2-0.3-3.2c0-1-0.8-1.8-1.8-1.8s-1.8,0.8-1.8,1.8c-0.2,1-0.3,2-0.3,3
		c0,1.1,0.1,2.2,0.4,3.2c0.2,0.8,0.9,1.3,1.7,1.4c0.9,0.1,1.7-0.5,1.9-1.4C209.3,101.1,209.4,100.1,209.4,99.2 M211.2,104.6h-1.8
		v-1.3c-0.5,0.9-1.5,1.5-2.6,1.5c-1.3,0.1-2.5-0.7-2.9-1.9c-0.4-1.3-0.6-2.6-0.5-4c-0.1-1.3,0.1-2.6,0.6-3.8
		c0.5-1.1,1.6-1.8,2.8-1.8c1-0.1,2,0.4,2.5,1.3v-5.9h1.8v13.8C211,103,211.1,103.7,211.2,104.6"/>
	<path class="st2" d="M89.2,122.6c0-1.1-0.1-2.2-0.3-3.2c0-1-0.8-1.8-1.8-1.8s-1.8,0.8-1.8,1.8c-0.2,1-0.3,2-0.3,2.9
		c0,1.1,0.1,2.2,0.4,3.2c0.2,0.8,0.9,1.3,1.7,1.4c0.9,0.1,1.7-0.5,1.9-1.4C89.1,124.5,89.2,123.5,89.2,122.6 M91,128h-1.8v-1.3
		c-0.5,0.9-1.5,1.5-2.6,1.5c-1.3,0.1-2.5-0.7-2.9-1.9c-0.4-1.3-0.6-2.6-0.5-4c-0.1-1.3,0.1-2.6,0.6-3.8c0.5-1.1,1.6-1.8,2.8-1.8
		c1-0.1,2,0.4,2.5,1.3v-5.8h1.8V126C90.8,126.4,90.9,127.1,91,128"/>
	<path class="st2" d="M95.9,128.1h-1.8V117h1.8V128.1z M96,114.2h-1.9v-1.9H96V114.2z"/>
	<path class="st2" d="M104.7,122.2c0-0.9-0.1-1.9-0.3-2.8c-0.3-1-1.3-1.6-2.3-1.3c-0.7,0.2-1.2,0.8-1.3,1.5c-0.2,1-0.4,2-0.4,3
		c0,0.9,0,1.8,0.3,2.7c0.2,0.8,0.9,1.4,1.8,1.4c1,0,1.8-0.7,2-1.7C104.7,124.1,104.8,123.1,104.7,122.2 M106.5,116.9
		c0,0.2,0,0.5,0,0.9s0,0.7,0,1v9.7c0.1,1.1-0.2,2.1-1,3c-0.8,0.7-1.9,1-3,0.9c-2.4,0-3.5-1.1-3.5-3.2h1.8c0,1.4,0.6,2,1.8,2
		c0.7,0.1,1.4-0.3,1.8-1c0.2-0.7,0.4-1.4,0.3-2.1v-1.5c-0.6,0.8-1.5,1.3-2.6,1.3c-1.2,0.1-2.4-0.6-2.8-1.8c-0.4-1.1-0.6-2.3-0.5-3.5
		c-0.1-1.4,0.1-2.7,0.5-4c0.4-1.2,1.6-2,2.9-1.9c1.1-0.1,2.2,0.5,2.7,1.6V117L106.5,116.9z"/>
	<path class="st2" d="M111.5,128.1h-1.8V117h1.8V128.1z M111.6,114.2h-1.9v-1.9h1.9V114.2z"/>
	<path class="st2" d="M119.1,128.1c-0.4,0.1-0.9,0.1-1.3,0.1c-0.7,0.1-1.5-0.1-2-0.6c-0.4-0.6-0.5-1.3-0.5-2v-7.2h-1.7v-1.3h1.7v-2
		l1.8-0.8v2.8h2v1.3h-2v7.1c0,0.4,0,0.9,0.3,1.3c0.3,0.2,0.6,0.4,1,0.3l0.8-0.1L119.1,128.1z"/>
	<path class="st2" d="M126.3,123.7v-1.3h-0.4c-2.4,0-3.5,0.8-3.5,2.4s0.5,2.3,1.6,2.1c0.7,0,1.4-0.4,1.8-1.1
		C126.1,125.2,126.3,124.5,126.3,123.7 M128.1,128h-1.8v-1.4c-0.7,1-1.8,1.6-3,1.6c-0.8,0-1.6-0.3-2.1-1s-0.7-1.5-0.7-2.3
		c-0.1-1.3,0.6-2.6,1.8-3.2c1.3-0.4,2.6-0.6,3.9-0.6v-0.5c0-0.6,0-1.3-0.2-1.9s-0.9-1-1.5-0.9c-0.5,0-1,0.1-1.3,0.4
		c-0.4,0.3-0.6,0.8-0.5,1.2v0.1h-1.8v-0.1c-0.1-0.9,0.4-1.8,1.1-2.3c0.8-0.5,1.7-0.7,2.6-0.6c1-0.1,2,0.2,2.7,0.9
		c0.5,0.8,0.8,1.8,0.7,2.8v4.1C128,125.8,128,127,128.1,128"/>
	<polygon class="st2" points="133,128.1 131.3,128.1 131.3,112.1 132.1,112.1 133,112.1 	"/>
	<path class="st2" d="M141.7,121.6c0-0.8,0-1.5-0.2-2.3s-0.9-1.4-1.8-1.3c-1.2,0-1.9,0.7-2,2.2c-0.1,0.5-0.1,1-0.1,1.4
		C137.6,121.6,141.7,121.6,141.7,121.6z M143.4,122.7h-5.8v0.8c0,0.8,0.1,1.7,0.3,2.5c0.3,0.7,1,1.1,1.8,1.1c1.3,0,2-0.8,2-2.4h1.8
		c0.2,1.9-1.1,3.5-3,3.7c-0.2,0-0.5,0-0.7,0c-1.3,0.1-2.5-0.5-3.2-1.6c-0.5-1.2-0.7-2.5-0.6-3.8c-0.1-1.4,0.1-2.9,0.5-4.2
		c0.5-1.3,1.9-2.1,3.3-2c1.3-0.2,2.6,0.6,3.2,1.8c0.4,1.2,0.6,2.5,0.5,3.8L143.4,122.7z"/>
	<polygon class="st2" points="153.7,128.1 151.8,128.1 151.8,112.1 152.8,112.1 153.7,112.1 	"/>
	<path class="st2" d="M164.7,128.1H163V121c0-0.7,0-1.3-0.2-2c-0.2-0.6-0.9-1-1.5-1c-0.8,0-1.4,0.4-1.8,1.1
		c-0.4,0.7-0.5,1.5-0.5,2.2v6.7h-1.8v-8.7c0-1,0-1.8-0.1-2.4h1.8v1.5c0.5-1.1,1.7-1.8,2.9-1.8c2,0,2.9,1.2,2.9,3.5L164.7,128.1z"/>
	<path class="st2" d="M172.3,113.4h-0.7c-0.5,0-0.9,0.2-1.1,0.6c-0.1,0.4-0.2,0.9-0.2,1.3v1.6h1.9v1.3h-1.9v9.8h-1.8v-9.9h-1.6v-1.3
		h1.6v-1.2c-0.1-0.9,0.1-1.8,0.5-2.6c0.5-0.8,1.4-1.3,2.4-1.1h0.9L172.3,113.4L172.3,113.4z"/>
	<path class="st2" d="M179.1,118.4h-0.4c-0.7-0.1-1.4,0.2-1.9,0.8c-0.4,0.6-0.6,1.3-0.5,2v6.9h-1.8V119c0-0.8,0-1.4,0-2h1.8v1.5
		c0.5-1.1,1.6-1.8,2.8-1.8c0.1,0,0.2,0.6,0.2,1.8"/>
	<path class="st2" d="M186,123.7v-1.3h-0.4c-2.4,0-3.5,0.8-3.5,2.4s0.5,2.3,1.6,2.1c0.7,0,1.4-0.4,1.8-1.1
		C185.8,125.2,186,124.5,186,123.7 M187.8,128H186v-1.4c-0.7,1-1.8,1.6-3,1.6c-0.8,0-1.6-0.3-2.1-1s-0.7-1.5-0.7-2.3
		c-0.1-1.3,0.6-2.6,1.8-3.2c1.3-0.4,2.6-0.6,3.9-0.6v-0.5c0-0.6,0-1.3-0.2-1.9s-0.9-1-1.5-0.9c-0.5,0-1,0.1-1.3,0.4
		c-0.4,0.3-0.6,0.8-0.5,1.2v0.1h-1.8v-0.1c-0.1-0.9,0.4-1.8,1.1-2.3c0.8-0.5,1.7-0.7,2.6-0.7c1-0.1,2,0.2,2.7,0.9
		c0.5,0.8,0.8,1.8,0.7,2.8v4.1C187.6,125.8,187.6,126.9,187.8,128"/>
	<path class="st2" d="M197.1,125c0,2.2-1.2,3.2-3.5,3.2c-2.4,0-3.5-1.2-3.3-3.5h1.8c0,0.2,0,0.4,0,0.6c0.1,1.2,0.6,1.8,1.6,1.8
		c0.8,0.2,1.6-0.4,1.8-1.2c0-0.2,0-0.4,0-0.6c0-0.5-0.2-1.1-0.5-1.4c-0.4-0.4-0.9-0.7-1.5-1c-0.7-0.3-1.4-0.8-2-1.2
		c-0.6-0.5-0.9-1.3-0.8-2c0-0.8,0.3-1.7,1-2.2s1.5-0.7,2.4-0.7c0.9-0.1,1.8,0.2,2.4,0.8c0.5,0.7,0.8,1.6,0.8,2.5h-1.8
		c0-1.4-0.5-2.1-1.6-2.1c-0.4,0-0.8,0.1-1.1,0.4s-0.4,0.7-0.4,1.1c0,0.5,0.2,1,0.6,1.3c0.5,0.4,1,0.7,1.6,1s1.2,0.8,1.8,1.2
		C196.8,123.6,197.1,124.3,197.1,125"/>
	<path class="st2" d="M204,128.1c-0.4,0.1-0.9,0.1-1.3,0.1c-0.7,0.1-1.5-0.1-2-0.6c-0.4-0.6-0.5-1.4-0.5-2.1v-7.2h-1.7V117h1.7v-2
		l1.8-0.8v2.8h2v1.3h-2v7.1c0,0.4,0,0.9,0.3,1.3c0.3,0.2,0.6,0.4,1,0.3l0.7-0.2V128.1z"/>
	<path class="st2" d="M210.8,118.4h-0.4c-0.7-0.1-1.4,0.2-1.9,0.8c-0.4,0.6-0.7,1.3-0.6,2v6.9h-1.8V119c0-0.8,0-1.4,0-2h1.8v1.5
		c0.5-1.1,1.6-1.8,2.8-1.8c0.1,0,0.2,0.6,0.2,1.8"/>
	<path class="st2" d="M220.5,128.1h-1.8v-1.4c-0.6,1-1.6,1.6-2.8,1.6c-2,0-3-1.1-3-3.4V117h1.8v7.1c0,0.7,0,1.3,0.2,1.9s0.9,1,1.6,1
		c1.4,0,2.1-1,2.1-3.2V117h1.8v8.7C220.4,126.5,220.4,127.3,220.5,128.1"/>
	<path class="st2" d="M225.4,128.1h-1.8v-15.9h1.8V128.1z M231.2,128.1h-2l-3.7-6.2l3.3-4.9h2l-3.5,4.9L231.2,128.1z"/>
	<path class="st2" d="M237.3,128.1c-0.4,0.1-0.9,0.1-1.3,0.1c-0.7,0.1-1.5-0.1-2-0.6c-0.4-0.6-0.5-1.4-0.5-2.1v-7.2h-1.7V117h1.7v-2
		l1.8-0.8v2.8h2v1.3h-2v7.1c0,0.4,0,0.9,0.3,1.3c0.3,0.2,0.6,0.4,1,0.3l0.8-0.1L237.3,128.1z"/>
	<path class="st2" d="M247.1,128.1h-1.8v-1.4c-0.6,1-1.6,1.6-2.8,1.6c-2,0-3-1.1-3-3.4V117h1.8v7.1c0,0.7,0,1.3,0.2,1.9s0.9,1,1.6,1
		c1.5,0,2.2-1.1,2.2-3.2v-6.7h1.8v8.7C247,126.5,247,127.3,247.1,128.1"/>
	<path class="st2" d="M254.9,118.4h-0.4c-0.7-0.1-1.4,0.2-1.9,0.8c-0.4,0.6-0.7,1.3-0.6,2v6.9h-1.8V119c0-0.8,0-1.4,0-2h1.8v1.5
		c0.5-1.1,1.6-1.8,2.8-1.8c0.1,0,0.2,0.6,0.2,1.8"/>
</g>
<g class="st3">
	<path d="M14.2,11.1c0.5,0.2,0.8,0.2,0.9,0.2c0.2,0,0.4,0,0.4-0.1c0.1-0.1,0.2-0.2,0.2-0.3h0.3l0.1,3h-0.3c-0.3-0.7-0.6-1.2-0.9-1.6
		c-0.6-0.6-1.3-0.9-2.2-0.9c-0.9,0-1.7,0.3-2.4,1c-0.7,0.7-1,1.9-1,3.5c0,1.3,0.3,2.4,1,3.1c0.7,0.7,1.6,1.1,2.6,1.1
		c0.2,0,0.4,0,0.6,0s0.5-0.1,0.7-0.2c0.3-0.1,0.6-0.2,0.6-0.3c0.1-0.1,0.1-0.2,0.1-0.4V17c0-0.6-0.1-0.9-0.2-1
		c-0.2-0.1-0.5-0.2-1-0.3v-0.3h3.7v0.3c-0.4,0-0.6,0.1-0.7,0.2c-0.2,0.2-0.3,0.5-0.3,0.9v2.8c0,0.2-0.4,0.4-1.2,0.7
		c-0.8,0.3-1.6,0.4-2.4,0.4c-1.4,0-2.6-0.4-3.6-1.2c-1.1-0.9-1.6-2.1-1.6-3.6c0-1.3,0.4-2.5,1.3-3.4c0.9-1.1,2.2-1.6,3.7-1.6
		C13.1,10.9,13.7,11,14.2,11.1z"/>
	<path d="M22.7,14.7c0.5,0.5,0.7,1.1,0.7,1.9H19c0,1.1,0.3,1.9,0.7,2.4c0.4,0.5,1,0.7,1.6,0.7c0.5,0,0.9-0.1,1.2-0.4
		s0.6-0.6,0.9-1.1l0.2,0.1c-0.2,0.6-0.6,1.1-1.1,1.7c-0.5,0.5-1.2,0.8-1.9,0.8c-0.9,0-1.6-0.3-2-1c-0.5-0.7-0.7-1.4-0.7-2.3
		c0-0.9,0.3-1.8,0.8-2.4c0.6-0.7,1.3-1,2.2-1C21.6,14,22.2,14.2,22.7,14.7z M19.3,15.2c-0.1,0.3-0.3,0.6-0.3,1h3
		c-0.1-0.5-0.1-0.8-0.3-1c-0.2-0.4-0.6-0.6-1.2-0.6C20,14.5,19.6,14.7,19.3,15.2z"/>
	<path d="M24.3,20.4c0.5,0,0.8-0.1,1-0.3c0.2-0.2,0.2-0.5,0.2-1v-4.5h-1.2v-0.5h1.2c0-0.7,0.1-1.4,0.3-1.9c0.4-1,1.1-1.5,2.1-1.5
		c0.4,0,0.8,0.1,1.1,0.2c0.3,0.2,0.5,0.4,0.5,0.7c0,0.2-0.1,0.3-0.2,0.4c-0.1,0.1-0.2,0.2-0.4,0.2c-0.1,0-0.3,0-0.3-0.1
		c-0.1-0.1-0.2-0.2-0.3-0.4l-0.1-0.2c-0.1-0.1-0.1-0.2-0.2-0.2c-0.1-0.1-0.2-0.1-0.4-0.1c-0.4,0-0.6,0.2-0.7,0.5
		c-0.1,0.2-0.1,0.4-0.1,0.7v1.7h1.7v0.5h-1.7v4.5c0,0.5,0.1,0.9,0.2,1c0.1,0.1,0.5,0.2,1.1,0.3v0.2h-3.7V20.4z"/>
	<path d="M30.1,15c0.6-0.6,1.4-1,2.3-1c0.9,0,1.7,0.3,2.3,0.9s0.9,1.4,0.9,2.4c0,0.9-0.3,1.7-0.9,2.4c-0.6,0.7-1.4,1-2.3,1
		c-0.9,0-1.7-0.3-2.3-1c-0.6-0.7-0.9-1.5-0.9-2.5C29.2,16.4,29.5,15.6,30.1,15z M30.5,11.8c0.1-0.1,0.3-0.2,0.5-0.2
		c0.2,0,0.4,0.1,0.5,0.2c0.1,0.1,0.2,0.3,0.2,0.5c0,0.2-0.1,0.4-0.2,0.5c-0.1,0.1-0.3,0.2-0.5,0.2c-0.2,0-0.4-0.1-0.5-0.2
		c-0.1-0.1-0.2-0.3-0.2-0.5C30.3,12.1,30.4,12,30.5,11.8z M31.2,14.8c-0.5,0.4-0.7,1.2-0.7,2.2c0,0.8,0.2,1.6,0.6,2.3
		s0.9,1.1,1.6,1.1c0.5,0,0.9-0.2,1.2-0.7c0.3-0.5,0.4-1.1,0.4-1.9c0-0.8-0.2-1.6-0.5-2.3c-0.4-0.7-0.9-1.1-1.6-1.1
		C31.8,14.4,31.5,14.5,31.2,14.8z M34.2,12.8c-0.1,0.1-0.3,0.2-0.5,0.2c-0.2,0-0.4-0.1-0.5-0.2C33,12.7,33,12.5,33,12.3
		c0-0.2,0.1-0.4,0.2-0.5c0.1-0.1,0.3-0.2,0.5-0.2c0.2,0,0.4,0.1,0.5,0.2c0.1,0.1,0.2,0.3,0.2,0.5C34.4,12.5,34.3,12.7,34.2,12.8z"/>
	<path d="M36.1,20.3c0.4,0,0.7-0.1,0.9-0.2s0.2-0.4,0.2-0.7v-3.2c0-0.5,0-0.8-0.1-1c-0.1-0.2-0.2-0.3-0.5-0.3c0,0-0.1,0-0.2,0
		c-0.1,0-0.2,0-0.2,0v-0.2c0.3-0.1,0.5-0.2,0.8-0.3c0.3-0.1,0.5-0.2,0.6-0.2c0.2-0.1,0.5-0.2,0.7-0.3c0,0,0.1,0,0.1,0
		c0,0,0,0.1,0,0.1v1.2c0.3-0.4,0.6-0.7,0.9-1S39.7,14,40,14c0.2,0,0.4,0.1,0.6,0.2c0.2,0.1,0.2,0.3,0.2,0.5c0,0.2-0.1,0.4-0.2,0.5
		c-0.1,0.1-0.3,0.2-0.4,0.2c-0.2,0-0.4-0.1-0.5-0.2c-0.2-0.2-0.3-0.2-0.4-0.2c-0.2,0-0.4,0.1-0.6,0.4s-0.4,0.5-0.4,0.8v3.2
		c0,0.4,0.1,0.7,0.3,0.8c0.2,0.2,0.5,0.2,0.9,0.2v0.2h-3.5V20.3z"/>
	<path d="M45.1,14.2c0.2,0.1,0.4,0.2,0.5,0.4v-2.2c0-0.3,0-0.5-0.1-0.6c-0.1-0.1-0.2-0.2-0.5-0.2c-0.1,0-0.1,0-0.1,0
		c0,0-0.1,0-0.3,0v-0.2l0.6-0.1c0.2-0.1,0.4-0.1,0.6-0.2c0.2-0.1,0.4-0.1,0.6-0.2c0.1,0,0.2-0.1,0.4-0.1l0,0l0,0.7
		c0,0.3,0,0.5,0,0.8s0,0.6,0,0.8l0,5.7c0,0.3,0,0.5,0.1,0.6s0.3,0.2,0.6,0.2c0.1,0,0.1,0,0.2,0c0.1,0,0.1,0,0.2,0v0.2
		c0,0-0.4,0.1-1,0.4l-1.1,0.4l0-0.1v-0.9c-0.3,0.3-0.5,0.5-0.7,0.6c-0.3,0.2-0.7,0.3-1.2,0.3c-0.8,0-1.4-0.3-1.9-0.9
		c-0.5-0.6-0.7-1.3-0.7-2.1c0-1,0.3-1.9,0.9-2.6c0.6-0.7,1.3-1.1,2.2-1.1C44.5,13.9,44.9,14,45.1,14.2z M45.3,19.6
		c0.2-0.2,0.3-0.4,0.3-0.6v-3c0-0.6-0.2-1-0.5-1.3c-0.3-0.3-0.6-0.4-1-0.4c-0.6,0-1,0.3-1.4,0.8c-0.3,0.5-0.5,1.2-0.5,1.9
		c0,0.8,0.2,1.4,0.5,2c0.3,0.6,0.9,0.9,1.6,0.9C44.8,19.9,45.1,19.8,45.3,19.6z"/>
	<path d="M53,14.7c0.5,0.5,0.7,1.1,0.7,1.9h-4.5c0,1.1,0.3,1.9,0.7,2.4c0.4,0.5,1,0.7,1.6,0.7c0.5,0,0.9-0.1,1.2-0.4
		s0.6-0.6,0.9-1.1l0.2,0.1c-0.2,0.6-0.6,1.1-1.1,1.7c-0.5,0.5-1.2,0.8-1.9,0.8c-0.9,0-1.6-0.3-2-1c-0.5-0.7-0.7-1.4-0.7-2.3
		c0-0.9,0.3-1.8,0.8-2.4c0.6-0.7,1.3-1,2.2-1C51.9,14,52.5,14.2,53,14.7z M49.7,15.2c-0.1,0.3-0.3,0.6-0.3,1h3
		c-0.1-0.5-0.1-0.8-0.3-1c-0.2-0.4-0.6-0.6-1.2-0.6C50.3,14.5,49.9,14.7,49.7,15.2z"/>
	<path d="M54.4,20.3c0.4,0,0.7-0.1,0.9-0.2c0.1-0.1,0.2-0.4,0.2-0.7v-3.2c0-0.5,0-0.8-0.1-1c-0.1-0.2-0.2-0.3-0.5-0.3
		c0,0-0.1,0-0.2,0c-0.1,0-0.2,0-0.2,0v-0.2c0.3-0.1,0.5-0.2,0.8-0.3c0.3-0.1,0.5-0.2,0.6-0.2c0.2-0.1,0.5-0.2,0.7-0.3
		c0,0,0.1,0,0.1,0c0,0,0,0.1,0,0.1v1.2c0.3-0.4,0.6-0.7,0.9-1s0.6-0.4,0.9-0.4c0.2,0,0.4,0.1,0.6,0.2c0.2,0.1,0.2,0.3,0.2,0.5
		c0,0.2-0.1,0.4-0.2,0.5c-0.1,0.1-0.3,0.2-0.4,0.2c-0.2,0-0.4-0.1-0.5-0.2c-0.2-0.2-0.3-0.2-0.4-0.2c-0.2,0-0.4,0.1-0.6,0.4
		c-0.2,0.3-0.4,0.5-0.4,0.8v3.2c0,0.4,0.1,0.7,0.3,0.8c0.2,0.2,0.5,0.2,0.9,0.2v0.2h-3.5V20.3z"/>
	<path d="M62.8,14.1v0.5h-1.4l0,4c0,0.4,0,0.6,0.1,0.8c0.1,0.3,0.3,0.5,0.7,0.5c0.2,0,0.3,0,0.4-0.1c0.1-0.1,0.3-0.2,0.4-0.4
		l0.2,0.2L63,19.8c-0.2,0.3-0.5,0.6-0.8,0.7c-0.3,0.1-0.5,0.2-0.8,0.2c-0.6,0-0.9-0.2-1.1-0.7c-0.1-0.3-0.2-0.6-0.2-1.1v-4.3h-0.8
		c0,0,0,0-0.1,0c0,0,0,0,0-0.1c0,0,0-0.1,0-0.1c0,0,0.1-0.1,0.2-0.2c0.3-0.3,0.6-0.5,0.7-0.7c0.1-0.2,0.5-0.6,1-1.3
		c0.1,0,0.1,0,0.1,0c0,0,0,0,0,0.1v1.7H62.8z"/>
	<path d="M71.1,14.2c0.2,0.1,0.4,0.2,0.5,0.4v-2.2c0-0.3,0-0.5-0.1-0.6c-0.1-0.1-0.2-0.2-0.5-0.2c-0.1,0-0.1,0-0.1,0
		c0,0-0.1,0-0.3,0v-0.2l0.6-0.1c0.2-0.1,0.4-0.1,0.6-0.2s0.4-0.1,0.6-0.2c0.1,0,0.2-0.1,0.4-0.1l0,0l0,0.7c0,0.3,0,0.5,0,0.8
		s0,0.6,0,0.8l0,5.7c0,0.3,0,0.5,0.1,0.6c0.1,0.1,0.3,0.2,0.6,0.2c0.1,0,0.1,0,0.2,0c0.1,0,0.1,0,0.2,0v0.2c0,0-0.4,0.1-1,0.4
		l-1.1,0.4l0-0.1v-0.9c-0.3,0.3-0.5,0.5-0.7,0.6c-0.3,0.2-0.7,0.3-1.2,0.3c-0.8,0-1.4-0.3-1.9-0.9c-0.5-0.6-0.7-1.3-0.7-2.1
		c0-1,0.3-1.9,0.9-2.6c0.6-0.7,1.3-1.1,2.2-1.1C70.5,13.9,70.8,14,71.1,14.2z M71.3,19.6c0.2-0.2,0.3-0.4,0.3-0.6v-3
		c0-0.6-0.2-1-0.5-1.3c-0.3-0.3-0.6-0.4-1-0.4c-0.6,0-1,0.3-1.4,0.8c-0.3,0.5-0.5,1.2-0.5,1.9c0,0.8,0.2,1.4,0.5,2
		c0.3,0.6,0.9,0.9,1.6,0.9C70.8,19.9,71.1,19.8,71.3,19.6z"/>
	<path d="M76.2,14.1v4.5c0,0.3,0,0.6,0.1,0.8c0.2,0.4,0.5,0.5,1,0.5c0.3,0,0.6-0.1,0.9-0.3c0.2-0.1,0.3-0.3,0.5-0.5v-3.8
		c0-0.4-0.1-0.6-0.2-0.7c-0.1-0.1-0.4-0.2-0.8-0.2v-0.2h2.3V19c0,0.3,0.1,0.5,0.2,0.7c0.1,0.1,0.4,0.2,0.7,0.2V20
		c-0.3,0.1-0.4,0.1-0.6,0.2c-0.1,0-0.3,0.1-0.6,0.2c-0.1,0-0.4,0.1-0.8,0.3c0,0,0,0,0,0c0,0,0,0,0-0.1v-1.1
		c-0.3,0.4-0.6,0.7-0.9,0.8c-0.4,0.3-0.8,0.4-1.3,0.4c-0.4,0-0.8-0.1-1.2-0.4C75.1,20,75,19.5,75,18.8v-3.6c0-0.4-0.1-0.6-0.2-0.7
		c-0.1-0.1-0.3-0.1-0.7-0.2v-0.2H76.2z"/>
	<path d="M81.2,20.3c0.4,0,0.7-0.1,0.9-0.2c0.1-0.1,0.2-0.4,0.2-0.7v-3.2c0-0.5,0-0.8-0.1-1c-0.1-0.2-0.2-0.3-0.5-0.3
		c0,0-0.1,0-0.2,0c-0.1,0-0.2,0-0.2,0v-0.2c0.3-0.1,0.5-0.2,0.8-0.3c0.3-0.1,0.5-0.2,0.6-0.2c0.2-0.1,0.5-0.2,0.7-0.3
		c0,0,0.1,0,0.1,0c0,0,0,0.1,0,0.1v1.2c0.3-0.4,0.6-0.7,0.9-1c0.3-0.2,0.6-0.4,0.9-0.4c0.2,0,0.4,0.1,0.6,0.2
		c0.2,0.1,0.2,0.3,0.2,0.5c0,0.2-0.1,0.4-0.2,0.5c-0.1,0.1-0.3,0.2-0.4,0.2c-0.2,0-0.4-0.1-0.5-0.2c-0.2-0.2-0.3-0.2-0.4-0.2
		c-0.2,0-0.4,0.1-0.6,0.4s-0.4,0.5-0.4,0.8v3.2c0,0.4,0.1,0.7,0.3,0.8c0.2,0.2,0.5,0.2,0.9,0.2v0.2h-3.5V20.3z"/>
	<path d="M91,14.4c0.4,0.3,0.6,0.6,0.6,1c0,0.2-0.1,0.3-0.2,0.4S91.2,16,91,16c-0.2,0-0.3-0.1-0.4-0.2c-0.1-0.1-0.2-0.3-0.3-0.5
		L90.2,15c-0.1-0.2-0.2-0.4-0.3-0.5c-0.2-0.1-0.4-0.1-0.6-0.1c-0.5,0-1,0.2-1.4,0.7c-0.4,0.5-0.6,1.1-0.6,1.9c0,0.7,0.2,1.3,0.6,1.9
		c0.4,0.6,1,0.8,1.6,0.8c0.5,0,0.9-0.2,1.3-0.5c0.2-0.2,0.5-0.5,0.7-0.9l0.2,0.1c-0.3,0.6-0.5,1-0.8,1.3c-0.6,0.6-1.2,0.9-2,0.9
		c-0.7,0-1.4-0.3-1.9-0.9c-0.6-0.6-0.8-1.4-0.8-2.3c0-1,0.3-1.8,0.9-2.5s1.4-1,2.3-1C90.1,14,90.6,14.1,91,14.4z"/>
	<path d="M92.4,20.4c0.4-0.1,0.6-0.1,0.8-0.3c0.1-0.1,0.2-0.5,0.2-1v-6.7c0-0.3,0-0.5-0.1-0.6c-0.1-0.1-0.2-0.2-0.5-0.2
		c-0.1,0-0.1,0-0.2,0c0,0-0.1,0-0.2,0v-0.3c0.2-0.1,0.5-0.1,0.8-0.2c0.3-0.1,0.5-0.1,0.6-0.2l0.7-0.2l0,0v4.3
		c0.3-0.3,0.6-0.6,0.8-0.7c0.4-0.3,0.9-0.4,1.3-0.4c0.8,0,1.3,0.3,1.6,1c0.1,0.3,0.2,0.8,0.2,1.3v2.9c0,0.5,0.1,0.8,0.2,1
		c0.1,0.2,0.3,0.2,0.7,0.3v0.2h-3v-0.2c0.4-0.1,0.7-0.2,0.8-0.3c0.1-0.1,0.2-0.5,0.2-1v-2.8c0-0.5-0.1-0.8-0.2-1.1
		c-0.2-0.3-0.4-0.4-0.9-0.4c-0.4,0-0.7,0.1-1.1,0.4c-0.3,0.3-0.5,0.4-0.5,0.5v3.5c0,0.5,0.1,0.9,0.2,1c0.1,0.1,0.4,0.2,0.8,0.3v0.2
		h-3.1V20.4z"/>
</g>
</svg>
