<?xml version="1.0" encoding="UTF-8"?>
<svg width="61px" height="44px" viewBox="0 0 61 44" version="1.1" xmlns="http://www.w3.org/2000/svg" xmlns:xlink="http://www.w3.org/1999/xlink">
    <!-- Generator: Sketch 41.2 (35397) - http://www.bohemiancoding.com/sketch -->
    <title>DATEN SUMMIT ‘17</title>
    <desc>Created with Sketch.</desc>
    <defs></defs>
    <g id="Page-1" stroke="none" stroke-width="1" fill="none" fill-rule="evenodd">
        <g id="Artboard" transform="translate(-28.000000, -20.000000)" fill="#112233">
            <path d="M33.344,30.048 C33.8666693,30.048 34.3466645,29.9546676 34.784,29.768 C35.2213355,29.5813324 35.5999984,29.325335 35.92,29 C36.2400016,28.674665 36.4906658,28.2880022 36.672,27.84 C36.8533342,27.3919978 36.944,26.9066693 36.944,26.384 C36.944,25.8613307 36.8533342,25.3786689 36.672,24.936 C36.4906658,24.4933311 36.2400016,24.109335 35.92,23.784 C35.5999984,23.458665 35.2213355,23.2026676 34.784,23.016 C34.3466645,22.8293324 33.8666693,22.736 33.344,22.736 L31.52,22.736 L31.52,30.048 L33.344,30.048 Z M29.456,21.104 C29.456,21.0186662 29.4826664,20.946667 29.536,20.888 C29.5893336,20.829333 29.6586662,20.8 29.744,20.8 L33.536,20.8 C34.3040038,20.8 35.0293299,20.9466652 35.712,21.24 C36.3946701,21.5333348 36.9919974,21.9333308 37.504,22.44 C38.0160026,22.9466692 38.4186652,23.5386633 38.712,24.216 C39.0053348,24.8933367 39.152,25.6159962 39.152,26.384 C39.152,27.1626706 39.0053348,27.8933299 38.712,28.576 C38.4186652,29.2586701 38.0160026,29.8533308 37.504,30.36 C36.9919974,30.8666692 36.3946701,31.2666652 35.712,31.56 C35.0293299,31.8533348 34.3040038,32 33.536,32 L29.744,32 C29.6586662,32 29.5893336,31.970667 29.536,31.912 C29.4826664,31.853333 29.456,31.7813338 29.456,31.696 L29.456,21.104 Z M46.72,28.176 L45.12,24.656 L45.072,24.656 L43.504,28.176 L46.72,28.176 Z M40.08,32 C39.9626661,32 39.874667,31.9573338 39.816,31.872 C39.757333,31.7866662 39.7546664,31.6906672 39.808,31.584 L44.784,20.816 C44.8373336,20.6986661 44.9279994,20.64 45.056,20.64 L45.216,20.64 C45.3013338,20.64 45.3626665,20.6559998 45.4,20.688 C45.4373335,20.7200002 45.4666666,20.7626664 45.488,20.816 L50.416,31.584 C50.4693336,31.6906672 50.466667,31.7866662 50.408,31.872 C50.349333,31.9573338 50.2613339,32 50.144,32 L48.752,32 C48.6346661,32 48.5413337,31.9760002 48.472,31.928 C48.4026663,31.8799998 48.3413336,31.7973339 48.288,31.68 L47.504,29.952 L42.72,29.952 L41.936,31.68 C41.9039998,31.7653338 41.850667,31.8399997 41.776,31.904 C41.701333,31.9680003 41.6000006,32 41.472,32 L40.08,32 Z M53.376,22.72 L50.928,22.72 C50.8426662,22.72 50.770667,22.690667 50.712,22.632 C50.653333,22.573333 50.624,22.5013338 50.624,22.416 L50.624,21.104 C50.624,21.0186662 50.653333,20.946667 50.712,20.888 C50.770667,20.829333 50.8426662,20.8 50.928,20.8 L57.92,20.8 C58.0053338,20.8 58.077333,20.829333 58.136,20.888 C58.194667,20.946667 58.224,21.0186662 58.224,21.104 L58.224,22.416 C58.224,22.5013338 58.194667,22.573333 58.136,22.632 C58.077333,22.690667 58.0053338,22.72 57.92,22.72 L55.472,22.72 L55.472,31.696 C55.472,31.7813338 55.442667,31.853333 55.384,31.912 C55.325333,31.970667 55.2533338,32 55.168,32 L53.68,32 C53.5946662,32 53.522667,31.970667 53.464,31.912 C53.405333,31.853333 53.376,31.7813338 53.376,31.696 L53.376,22.72 Z M59.888,21.104 C59.888,21.0186662 59.917333,20.946667 59.976,20.888 C60.034667,20.829333 60.1066662,20.8 60.192,20.8 L66.704,20.8 C66.7893338,20.8 66.861333,20.829333 66.92,20.888 C66.978667,20.946667 67.008,21.0186662 67.008,21.104 L67.008,22.416 C67.008,22.5013338 66.978667,22.573333 66.92,22.632 C66.861333,22.690667 66.7893338,22.72 66.704,22.72 L61.968,22.72 L61.968,25.344 L65.92,25.344 C66.0053338,25.344 66.077333,25.373333 66.136,25.432 C66.194667,25.490667 66.224,25.5626662 66.224,25.648 L66.224,26.976 C66.224,27.0613338 66.194667,27.133333 66.136,27.192 C66.077333,27.250667 66.0053338,27.28 65.92,27.28 L61.968,27.28 L61.968,30.08 L66.704,30.08 C66.7893338,30.08 66.861333,30.109333 66.92,30.168 C66.978667,30.226667 67.008,30.2986662 67.008,30.384 L67.008,31.696 C67.008,31.7813338 66.978667,31.853333 66.92,31.912 C66.861333,31.970667 66.7893338,32 66.704,32 L60.192,32 C60.1066662,32 60.034667,31.970667 59.976,31.912 C59.917333,31.853333 59.888,31.7813338 59.888,31.696 L59.888,21.104 Z M69.296,20.928 C69.296,20.8426662 69.325333,20.7733336 69.384,20.72 C69.442667,20.6666664 69.5146662,20.64 69.6,20.64 L70,20.64 L76.656,27.712 L76.672,27.712 L76.672,21.104 C76.672,21.0186662 76.701333,20.946667 76.76,20.888 C76.818667,20.829333 76.8906662,20.8 76.976,20.8 L78.448,20.8 C78.5333338,20.8 78.605333,20.829333 78.664,20.888 C78.722667,20.946667 78.752,21.0186662 78.752,21.104 L78.752,31.872 C78.752,31.9573338 78.722667,32.0266664 78.664,32.08 C78.605333,32.1333336 78.5333338,32.16 78.448,32.16 L78.064,32.16 L71.376,24.816 L71.36,24.816 L71.36,31.696 C71.36,31.7813338 71.330667,31.853333 71.272,31.912 C71.213333,31.970667 71.1413338,32 71.056,32 L69.6,32 C69.5146662,32 69.442667,31.970667 69.384,31.912 C69.325333,31.853333 69.296,31.7813338 69.296,31.696 L69.296,20.928 Z M28.88,46.912 C28.805333,46.837333 28.7546668,46.770667 28.728,46.712 C28.7013332,46.653333 28.725333,46.5600006 28.8,46.432 L29.376,45.44 C29.4400003,45.3226661 29.5279994,45.2613334 29.64,45.256 C29.7520006,45.2506666 29.845333,45.2746664 29.92,45.328 C29.9413334,45.3386667 30.0293326,45.3973328 30.184,45.504 C30.3386674,45.6106672 30.5333322,45.7226661 30.768,45.84 C31.0026678,45.9573339 31.2586653,46.0666662 31.536,46.168 C31.8133347,46.2693338 32.0799987,46.32 32.336,46.32 C32.7520021,46.32 33.0986653,46.2000012 33.376,45.96 C33.6533347,45.7199988 33.792,45.429335 33.792,45.088 C33.792,44.6826646 33.621335,44.3306682 33.28,44.032 C32.938665,43.7333318 32.4320034,43.4453347 31.76,43.168 C31.3866648,43.0186659 31.0186685,42.8426677 30.656,42.64 C30.2933315,42.4373323 29.9706681,42.1973347 29.688,41.92 C29.4053319,41.6426653 29.1786675,41.3226685 29.008,40.96 C28.8373325,40.5973315 28.752,40.1813357 28.752,39.712 C28.752,39.3599982 28.8213326,39.0000018 28.96,38.632 C29.0986674,38.2639982 29.3119986,37.9333348 29.6,37.64 C29.8880014,37.3466652 30.2586644,37.1066676 30.712,36.92 C31.1653356,36.7333324 31.7119968,36.64 32.352,36.64 C32.7573354,36.64 33.1386649,36.6853329 33.496,36.776 C33.8533351,36.8666671 34.1706653,36.9706661 34.448,37.088 C34.7253347,37.2053339 34.9573324,37.3226661 35.144,37.44 C35.3306676,37.5573339 35.4666662,37.6479997 35.552,37.712 C35.6373338,37.7653336 35.6879999,37.8453328 35.704,37.952 C35.7200001,38.0586672 35.7013336,38.1546662 35.648,38.24 L35.04,39.152 C34.9759997,39.2480005 34.8906672,39.3199998 34.784,39.368 C34.6773328,39.4160002 34.5760005,39.4080003 34.48,39.344 C34.4479998,39.3226666 34.3546674,39.2640005 34.2,39.168 C34.0453326,39.0719995 33.8613344,38.9733338 33.648,38.872 C33.4346656,38.7706662 33.2053346,38.6773338 32.96,38.592 C32.7146654,38.5066662 32.4800011,38.464 32.256,38.464 C31.797331,38.464 31.4480012,38.5866654 31.208,38.832 C30.9679988,39.0773346 30.848,39.3279987 30.848,39.584 C30.848,39.9573352 30.9999985,40.2826653 31.304,40.56 C31.6080015,40.8373347 32.0853301,41.109332 32.736,41.376 C33.1200019,41.5360008 33.511998,41.7173323 33.912,41.92 C34.312002,42.1226677 34.6719984,42.3653319 34.992,42.648 C35.3120016,42.9306681 35.5733323,43.2639981 35.776,43.648 C35.9786677,44.0320019 36.08,44.4799974 36.08,44.992 C36.08,45.4080021 35.9946675,45.8053314 35.824,46.184 C35.6533325,46.5626686 35.4080016,46.8986652 35.088,47.192 C34.7679984,47.4853348 34.3813356,47.7199991 33.928,47.896 C33.4746644,48.0720009 32.9653362,48.16 32.4,48.16 C31.8986642,48.16 31.448002,48.1093338 31.048,48.008 C30.647998,47.9066662 30.3013348,47.7866674 30.008,47.648 C29.7146652,47.5093326 29.472001,47.3706674 29.28,47.232 C29.087999,47.0933326 28.954667,46.986667 28.88,46.912 Z M37.968,37.104 C37.968,37.0186662 37.997333,36.946667 38.056,36.888 C38.114667,36.829333 38.1866662,36.8 38.272,36.8 L39.792,36.8 C39.8773338,36.8 39.949333,36.829333 40.008,36.888 C40.066667,36.946667 40.096,37.0186662 40.096,37.104 L40.096,43.648 C40.096,43.989335 40.1519994,44.3066652 40.264,44.6 C40.3760006,44.8933348 40.5333323,45.1493322 40.736,45.368 C40.9386677,45.5866678 41.1813319,45.7599994 41.464,45.888 C41.7466681,46.0160006 42.0639982,46.08 42.416,46.08 C42.7680018,46.08 43.0853319,46.0160006 43.368,45.888 C43.6506681,45.7599994 43.895999,45.5893344 44.104,45.376 C44.312001,45.1626656 44.4719994,44.9093348 44.584,44.616 C44.6960006,44.3226652 44.752,44.005335 44.752,43.664 L44.752,37.104 C44.752,37.0186662 44.781333,36.946667 44.84,36.888 C44.898667,36.829333 44.9706662,36.8 45.056,36.8 L46.576,36.8 C46.6613338,36.8 46.733333,36.829333 46.792,36.888 C46.850667,36.946667 46.88,37.0186662 46.88,37.104 L46.88,43.76 C46.88,44.368003 46.7653345,44.938664 46.536,45.472 C46.3066655,46.005336 45.992002,46.471998 45.592,46.872 C45.191998,47.272002 44.7200027,47.5866655 44.176,47.816 C43.6319973,48.0453345 43.0453365,48.16 42.416,48.16 C41.7866635,48.16 41.2026694,48.0453345 40.664,47.816 C40.1253306,47.5866655 39.656002,47.272002 39.256,46.872 C38.855998,46.471998 38.5413345,46.005336 38.312,45.472 C38.0826655,44.938664 37.968,44.368003 37.968,43.76 L37.968,37.104 Z M50.8,36.88 C50.8106667,36.8159997 50.8399998,36.7600002 50.888,36.712 C50.9360002,36.6639998 51.0026662,36.64 51.088,36.64 L51.344,36.64 C51.4720006,36.64 51.5626664,36.6933328 51.616,36.8 L55.136,44.352 L55.184,44.352 L58.704,36.8 C58.7573336,36.6933328 58.8479994,36.64 58.976,36.64 L59.232,36.64 C59.3173338,36.64 59.3839998,36.6639998 59.432,36.712 C59.4800002,36.7600002 59.5093333,36.8159997 59.52,36.88 L61.408,47.632 C61.4293334,47.7493339 61.4133336,47.8399997 61.36,47.904 C61.3066664,47.9680003 61.2266672,48 61.12,48 L59.664,48 C59.589333,48 59.5253336,47.9733336 59.472,47.92 C59.4186664,47.8666664 59.3813334,47.8133336 59.36,47.76 L58.416,41.696 L58.368,41.696 L55.568,47.984 C55.5253331,48.1013339 55.4346674,48.16 55.296,48.16 L55.008,48.16 C54.8799994,48.16 54.7893336,48.1013339 54.736,47.984 L51.904,41.696 L51.856,41.696 L50.928,47.76 C50.9173333,47.8133336 50.8853336,47.8666664 50.832,47.92 C50.7786664,47.9733336 50.714667,48 50.64,48 L49.2,48 C48.9653322,48 48.8639998,47.8773346 48.896,47.632 L50.8,36.88 Z M64.768,36.88 C64.7786667,36.8159997 64.8079998,36.7600002 64.856,36.712 C64.9040002,36.6639998 64.9706662,36.64 65.056,36.64 L65.312,36.64 C65.4400006,36.64 65.5306664,36.6933328 65.584,36.8 L69.104,44.352 L69.152,44.352 L72.672,36.8 C72.7253336,36.6933328 72.8159994,36.64 72.944,36.64 L73.2,36.64 C73.2853338,36.64 73.3519998,36.6639998 73.4,36.712 C73.4480002,36.7600002 73.4773333,36.8159997 73.488,36.88 L75.376,47.632 C75.3973334,47.7493339 75.3813336,47.8399997 75.328,47.904 C75.2746664,47.9680003 75.1946672,48 75.088,48 L73.632,48 C73.557333,48 73.4933336,47.9733336 73.44,47.92 C73.3866664,47.8666664 73.3493334,47.8133336 73.328,47.76 L72.384,41.696 L72.336,41.696 L69.536,47.984 C69.4933331,48.1013339 69.4026674,48.16 69.264,48.16 L68.976,48.16 C68.8479994,48.16 68.7573336,48.1013339 68.704,47.984 L65.872,41.696 L65.824,41.696 L64.896,47.76 C64.8853333,47.8133336 64.8533336,47.8666664 64.8,47.92 C64.7466664,47.9733336 64.682667,48 64.608,48 L63.168,48 C62.9333322,48 62.8319998,47.8773346 62.864,47.632 L64.768,36.88 Z M77.568,37.104 C77.568,37.0186662 77.597333,36.946667 77.656,36.888 C77.714667,36.829333 77.7866662,36.8 77.872,36.8 L79.36,36.8 C79.4453338,36.8 79.517333,36.829333 79.576,36.888 C79.634667,36.946667 79.664,37.0186662 79.664,37.104 L79.664,47.696 C79.664,47.7813338 79.634667,47.853333 79.576,47.912 C79.517333,47.970667 79.4453338,48 79.36,48 L77.872,48 C77.7866662,48 77.714667,47.970667 77.656,47.912 C77.597333,47.853333 77.568,47.7813338 77.568,47.696 L77.568,37.104 Z M84.08,38.72 L81.632,38.72 C81.5466662,38.72 81.474667,38.690667 81.416,38.632 C81.357333,38.573333 81.328,38.5013338 81.328,38.416 L81.328,37.104 C81.328,37.0186662 81.357333,36.946667 81.416,36.888 C81.474667,36.829333 81.5466662,36.8 81.632,36.8 L88.624,36.8 C88.7093338,36.8 88.781333,36.829333 88.84,36.888 C88.898667,36.946667 88.928,37.0186662 88.928,37.104 L88.928,38.416 C88.928,38.5013338 88.898667,38.573333 88.84,38.632 C88.781333,38.690667 88.7093338,38.72 88.624,38.72 L86.176,38.72 L86.176,47.696 C86.176,47.7813338 86.146667,47.853333 86.088,47.912 C86.029333,47.970667 85.9573338,48 85.872,48 L84.384,48 C84.2986662,48 84.226667,47.970667 84.168,47.912 C84.109333,47.853333 84.08,47.7813338 84.08,47.696 L84.08,38.72 Z M29.696,57.376 C29.5466659,57.376 29.3946674,57.346667 29.24,57.288 C29.0853326,57.229333 28.9440006,57.133334 28.816,57 C28.6879994,56.866666 28.5840004,56.6906678 28.504,56.472 C28.4239996,56.2533322 28.384,55.9786683 28.384,55.648 C28.384,55.2639981 28.4399994,54.9120016 28.552,54.592 C28.6640006,54.2719984 28.7973326,53.9920012 28.952,53.752 C29.1066674,53.5119988 29.2639992,53.3093342 29.424,53.144 C29.5840008,52.9786658 29.7173328,52.8480005 29.824,52.752 C29.9626674,52.6453328 30.0799995,52.6506661 30.176,52.768 L30.416,53.008 C30.5226672,53.1360006 30.5066674,53.2533328 30.368,53.36 C30.3253331,53.4026669 30.2453339,53.4746662 30.128,53.576 C30.0106661,53.6773338 29.8906673,53.8106658 29.768,53.976 C29.6453327,54.1413342 29.5333338,54.3359989 29.432,54.56 C29.3306662,54.7840011 29.28,55.0346653 29.28,55.312 C29.3013334,55.312 29.3546662,55.2986668 29.44,55.272 C29.5253338,55.2453332 29.6373326,55.232 29.776,55.232 C30.0640014,55.232 30.3146656,55.335999 30.528,55.544 C30.7413344,55.752001 30.848,56.0053318 30.848,56.304 C30.848,56.5920014 30.7386678,56.8426656 30.52,57.056 C30.3013322,57.2693344 30.0266683,57.376 29.696,57.376 Z M33.424,56.032 L32.016,56.336 C31.941333,56.3573334 31.8720003,56.3466669 31.808,56.304 C31.7439997,56.2613331 31.7066667,56.202667 31.696,56.128 L31.6,55.344 C31.5893333,55.2159994 31.6159997,55.1200003 31.68,55.056 L33.984,53.12 L35.104,53.12 C35.1893338,53.12 35.2586664,53.149333 35.312,53.208 C35.3653336,53.266667 35.392,53.3386662 35.392,53.424 L35.392,63.696 C35.392,63.7813338 35.3653336,63.853333 35.312,63.912 C35.2586664,63.970667 35.1893338,64 35.104,64 L33.728,64 C33.6426662,64 33.570667,63.970667 33.512,63.912 C33.453333,63.853333 33.424,63.7813338 33.424,63.696 L33.424,56.032 Z M37.728,63.52 L41.888,54.848 L37.664,54.848 C37.5786662,54.848 37.506667,54.818667 37.448,54.76 C37.389333,54.701333 37.36,54.6293338 37.36,54.544 L37.36,53.424 C37.36,53.3386662 37.389333,53.266667 37.448,53.208 C37.506667,53.149333 37.5786662,53.12 37.664,53.12 L44.32,53.12 C44.4053338,53.12 44.477333,53.149333 44.536,53.208 C44.594667,53.266667 44.624,53.3386662 44.624,53.424 L44.624,53.536 L39.856,63.568 C39.8026664,63.6960006 39.7333338,63.7999996 39.648,63.88 C39.5626662,63.9600004 39.4506674,64 39.312,64 L38.128,64 C38.0319995,64 37.9413338,63.9813335 37.856,63.944 C37.7706662,63.9066665 37.728,63.8240006 37.728,63.696 L37.728,63.52 Z" id="DATEN-SUMMIT-‘17"></path>
        </g>
    </g>
</svg>