<?xml version="1.0" encoding="utf-8"?>
<!-- Generator: Adobe Illustrator 21.0.0, SVG Export Plug-In . SVG Version: 6.00 Build 0)  -->
<svg version="1.1" id="Ebene_1" xmlns="http://www.w3.org/2000/svg" xmlns:xlink="http://www.w3.org/1999/xlink" x="0px" y="0px"
	 viewBox="0 0 830 365" style="enable-background:new 0 0 830 365;" xml:space="preserve">
<style type="text/css">
	.st0{fill:#D0D2D3;}
	.st1{fill:#FFFFFF;}
	.st2{fill:none;stroke:#808184;stroke-width:3.9;}
	.st3{fill:none;stroke:#00BAF0;stroke-width:6.199;stroke-linecap:round;stroke-dasharray:18.991,12.792;}
	.st4{fill:none;stroke:#00BAF0;stroke-width:6.199;stroke-linecap:round;}
	.st5{fill:none;stroke:#808184;stroke-width:4.596;}
	.st6{fill:none;stroke:#808184;stroke-width:4.677;}
	.st7{fill:none;stroke:#404041;stroke-width:4.677;}
	.st8{fill:none;stroke:#404041;stroke-width:4.069;}
	.st9{fill:none;stroke:#404041;stroke-width:3.781;}
	.st10{fill:none;stroke:#808184;stroke-width:3.778;}
	.st11{opacity:0.68;}
	.st12{clip-path:url(#SVGID_2_);fill:#BCEAFA;}
	.st13{fill:#70D5F6;}
	.st14{fill:#00BAF0;}
	.st15{fill:none;stroke:#00BAF0;stroke-width:6.081;stroke-linecap:round;stroke-dasharray:17.491,11.41;}
	.st16{fill:none;stroke:#00BAF0;stroke-width:6.081;stroke-linecap:round;}
	.st17{fill:none;stroke:#00BAF0;stroke-width:6.081;stroke-linecap:round;stroke-dasharray:19.248,13.167;}
	.st18{fill:none;stroke:#00BAF0;stroke-width:6.081;stroke-linecap:round;stroke-dasharray:18.387,12.306;}
	.st19{fill:#BCEAFA;}
	.st20{fill:#808184;}
	.st21{fill:none;stroke:#808184;stroke-width:4.563;}
</style>
<g>
	<path class="st0" d="M778.9,184.2l-72.5,29.9l-15.3-32l-108.6,61c0,0,11.9,16.2,21.5,41.9c10.1,27.1,14,46.8,14,46.8L784,279.1
		l-12-35l25.2-8.9L778.9,184.2z"/>
	<path class="st1" d="M772.4,212.3c-3.1-0.8-6.3,1-7.2,4.1c-0.8,3.1,1,6.3,4.1,7.2c3.1,0.8,6.3-1,7.2-4.1
		C777.4,216.4,775.5,213.2,772.4,212.3"/>
	<ellipse transform="matrix(0.2609 -0.9654 0.9654 0.2609 359.3156 905.2685)" class="st2" cx="770.9" cy="218" rx="5.9" ry="5.9"/>
	<path class="st1" d="M744.4,221.9c-3.1-0.8-6.3,1-7.2,4.1c-0.8,3.1,1,6.3,4.1,7.2c3.1,0.8,6.3-1,7.2-4.1
		C749.3,226,747.5,222.7,744.4,221.9"/>
	
		<ellipse transform="matrix(0.2609 -0.9654 0.9654 0.2609 329.3618 885.3018)" class="st2" cx="742.8" cy="227.6" rx="5.9" ry="5.9"/>
	<path class="st1" d="M716.4,231.5c-3.1-0.8-6.3,1-7.2,4.1c-0.8,3.1,1,6.3,4.1,7.2c3.1,0.8,6.3-1,7.2-4.1
		C721.3,235.5,719.5,232.3,716.4,231.5"/>
	
		<ellipse transform="matrix(0.2609 -0.9654 0.9654 0.2609 299.4062 865.334)" class="st2" cx="714.8" cy="237.1" rx="5.9" ry="5.9"/>
	<path class="st1" d="M688.3,241.1c-3.1-0.8-6.3,1-7.2,4.1c-0.8,3.1,1,6.3,4.1,7.2c3.1,0.8,6.3-1,7.2-4.1
		C693.3,245.1,691.5,241.9,688.3,241.1"/>
	
		<ellipse transform="matrix(0.2609 -0.9654 0.9654 0.2609 269.4405 845.3591)" class="st2" cx="686.8" cy="246.7" rx="5.9" ry="5.9"/>
	<path class="st1" d="M660.3,250.6c-3.1-0.8-6.3,1-7.2,4.1c-0.8,3.1,1,6.3,4.1,7.2c3.1,0.8,6.3-1,7.2-4.1
		C665.3,254.7,663.4,251.5,660.3,250.6"/>
	
		<ellipse transform="matrix(0.2609 -0.9654 0.9654 0.2609 239.4835 825.3904)" class="st2" cx="658.8" cy="256.3" rx="5.9" ry="5.9"/>
	<path class="st1" d="M758.9,261c-3.1-0.8-6.3,1-7.2,4.1c-0.8,3.1,1,6.3,4.1,7.2c3.1,0.8,6.3-1,7.2-4.1
		C763.9,265,762,261.8,758.9,261"/>
	
		<ellipse transform="matrix(0.2609 -0.9654 0.9654 0.2609 302.3797 928.1683)" class="st2" cx="757.4" cy="266.6" rx="5.9" ry="5.9"/>
	<path class="st1" d="M730.9,270.5c-3.1-0.8-6.3,1-7.2,4.1c-0.8,3.1,1,6.3,4.1,7.2c3.1,0.8,6.3-1,7.2-4.1
		C735.8,274.6,734,271.4,730.9,270.5"/>
	
		<ellipse transform="matrix(0.2609 -0.9654 0.9654 0.2609 272.4222 908.1985)" class="st2" cx="729.3" cy="276.2" rx="5.9" ry="5.9"/>
	<path class="st1" d="M702.8,280.1c-3.1-0.8-6.3,1-7.2,4.1c-0.8,3.1,1,6.3,4.1,7.2c3.1,0.8,6.3-1,7.2-4.1
		C707.8,284.2,706,281,702.8,280.1"/>
	
		<ellipse transform="matrix(0.2609 -0.9654 0.9654 0.2609 242.4691 888.2328)" class="st2" cx="701.3" cy="285.8" rx="5.9" ry="5.9"/>
	<path class="st1" d="M674.8,289.7c-3.1-0.8-6.3,1-7.2,4.1c-0.8,3.1,1,6.3,4.1,7.2c3.1,0.8,6.3-1,7.2-4.1
		C679.8,293.8,677.9,290.5,674.8,289.7"/>
	
		<ellipse transform="matrix(0.2609 -0.9654 0.9654 0.2609 212.5122 868.2645)" class="st2" cx="673.3" cy="295.3" rx="5.9" ry="5.9"/>
	<path class="st1" d="M207.5,343.2c2.7,1.8,6.3,1.1,8.1-1.6c1.8-2.7,1.1-6.3-1.6-8.1c-2.7-1.8-6.3-1.1-8.1,1.6
		C204.1,337.7,204.9,341.4,207.5,343.2"/>
	
		<ellipse transform="matrix(0.5592 -0.829 0.829 0.5592 -187.5475 323.8845)" class="st2" cx="210.8" cy="338.3" rx="5.9" ry="5.9"/>
	<path class="st1" d="M373.5,212.2c2.7,1.8,6.3,1.1,8.1-1.6c1.8-2.7,1.1-6.3-1.6-8.1c-2.7-1.8-6.3-1.1-8.1,1.6
		C370.1,206.7,370.9,210.4,373.5,212.2"/>
	<ellipse transform="matrix(0.5592 -0.829 0.829 0.5592 -5.7716 403.7688)" class="st2" cx="376.8" cy="207.3" rx="5.9" ry="5.9"/>
	<path class="st3" d="M599,315.9C574.2,211,476.9,138.4,368.7,145.2"/>
	<path class="st3" d="M331,150.8C244,178.1,156.5,266,160.3,352"/>
	<path class="st4" d="M362.4,145.7c-3.1,0.3-6.3,0.6-9.4,1.1c-3.2,0.4-6.3,0.9-9.4,1.5 M604.1,347.2c-0.3-3.1-0.6-6.3-1.1-9.4
		c-0.4-3.2-0.9-6.3-1.5-9.4"/>
	<path class="st0" d="M92.9,310.4L85.4,349h59.7c0,0,0.3-15.9,3.8-31.8c5.1-23.1,10.1-37.1,10.1-37.1L110,265l-32.7-10.2L27,266.1
		l36,37L92.9,310.4z"/>
</g>
<line class="st5" x1="113.4" y1="281" x2="90.2" y2="275.4"/>
<line class="st5" x1="108.3" y1="298.8" x2="85.1" y2="293.3"/>
<g>
	<path class="st0" d="M574.1,231.8l91.9-89.6l-62.9-58.7L519,176.1c0,0,11.9,6.1,30.2,25.9C566,220.1,574.1,231.8,574.1,231.8"/>
</g>
<line class="st5" x1="568.3" y1="143.9" x2="607.7" y2="179.8"/>
<line class="st5" x1="583.7" y1="127" x2="623.1" y2="163"/>
<line class="st5" x1="553" y1="160.7" x2="592.4" y2="196.7"/>
<line class="st5" x1="599" y1="110.2" x2="638.5" y2="146.1"/>
<line class="st6" x1="635.3" y1="193.2" x2="579.1" y2="236.5"/>
<g>
	<path class="st1" d="M635.5,187.9c-0.2,3.4,2.5,6.4,5.9,6.6c3.4,0.2,6.4-2.5,6.6-5.9c0.2-3.4-2.5-6.4-5.9-6.6
		C638.6,181.8,635.6,184.5,635.5,187.9"/>
	
		<ellipse transform="matrix(5.450046e-02 -0.9985 0.9985 5.450046e-02 418.7501 818.7358)" class="st7" cx="641.7" cy="188.3" rx="6.2" ry="6.2"/>
</g>
<line class="st6" x1="642.2" y1="223.7" x2="588" y2="252.1"/>
<g>
	<path class="st1" d="M643.2,219.2c-0.7,2.9,1,5.9,3.9,6.6c2.9,0.7,5.9-1,6.6-3.9c0.7-2.9-1-5.9-3.9-6.6
		C646.9,214.6,643.9,216.3,643.2,219.2"/>
	<ellipse transform="matrix(0.244 -0.9698 0.9698 0.244 276.3463 795.6054)" class="st8" cx="648.5" cy="220.6" rx="5.4" ry="5.4"/>
</g>
<line class="st6" x1="244.4" y1="112.7" x2="275.8" y2="160.8"/>
<g>
	<path class="st1" d="M240.2,112.3c2.8,0.4,5.3-1.6,5.7-4.3c0.4-2.8-1.6-5.3-4.3-5.7c-2.8-0.4-5.3,1.6-5.7,4.3
		C235.5,109.4,237.4,111.9,240.2,112.3"/>
	
		<ellipse transform="matrix(0.1327 -0.9912 0.9912 0.1327 102.5687 331.7835)" class="st9" cx="240.9" cy="107.3" rx="5.1" ry="5.1"/>
</g>
<line class="st6" x1="259" y1="90.5" x2="287.2" y2="155.2"/>
<g>
	<path class="st1" d="M255.7,95.8c4.7,1.6,9.8-1,11.4-5.8c1.6-4.7-1-9.8-5.8-11.4c-4.7-1.6-9.8,1-11.4,5.8
		C248.3,89.2,250.9,94.2,255.7,95.8"/>
	<ellipse transform="matrix(0.3111 -0.9504 0.9504 0.3111 95.1767 305.7397)" class="st8" cx="258.5" cy="87.2" rx="9" ry="9"/>
	<path class="st0" d="M467,93.1l-36.4-35.5l-33.5-2.1l-37.5,27.8l4.1,50.3c0,0,17.4-2.4,45.4,0.6c22.2,2.4,43.3,7.1,43.3,7.1
		L467,93.1z"/>
	<path class="st1" d="M372.9,96.9c2.4,2.1,5.9,1.8,8-0.5c2.1-2.4,1.8-5.9-0.5-8c-2.4-2.1-5.9-1.8-8,0.5
		C370.4,91.2,370.6,94.8,372.9,96.9"/>
	<ellipse transform="matrix(0.661 -0.7504 0.7504 0.661 58.1878 314.0595)" class="st10" cx="376.7" cy="92.6" rx="5.7" ry="5.7"/>
	<path class="st1" d="M407.7,100.4c2.4,2.1,5.9,1.8,8-0.5c2.1-2.4,1.8-5.9-0.5-8c-2.4-2.1-5.9-1.8-8,0.5
		C405.1,94.7,405.3,98.3,407.7,100.4"/>
	<ellipse transform="matrix(0.661 -0.7504 0.7504 0.661 67.3432 341.2981)" class="st10" cx="411.4" cy="96.1" rx="5.7" ry="5.7"/>
	<path class="st1" d="M409.3,76.7c2.4,2.1,5.9,1.8,8-0.5c2.1-2.4,1.8-5.9-0.5-8c-2.4-2.1-5.9-1.8-8,0.5
		C406.7,71.1,406.9,74.6,409.3,76.7"/>
	<ellipse transform="matrix(0.661 -0.7504 0.7504 0.661 85.6494 334.485)" class="st10" cx="413" cy="72.5" rx="5.7" ry="5.7"/>
	<path class="st1" d="M440.2,105.1c2.4,2.1,5.9,1.8,8-0.5c2.1-2.4,1.8-5.9-0.5-8c-2.4-2.1-5.9-1.8-8,0.5
		C437.6,99.4,437.8,103,440.2,105.1"/>
	<ellipse transform="matrix(0.661 -0.7504 0.7504 0.661 74.8509 367.2966)" class="st10" cx="443.9" cy="100.8" rx="5.7" ry="5.7"/>
	<path class="st1" d="M373.3,121.4c2.4,2.1,5.9,1.8,8-0.5c2.1-2.4,1.8-5.9-0.5-8c-2.4-2.1-5.9-1.8-8,0.5
		C370.7,115.7,370.9,119.3,373.3,121.4"/>
	<ellipse transform="matrix(0.661 -0.7504 0.7504 0.661 39.955 322.6288)" class="st10" cx="377" cy="117.1" rx="5.7" ry="5.7"/>
	<path class="st1" d="M405.3,124.2c2.4,2.1,5.9,1.8,8-0.5c2.1-2.4,1.8-5.9-0.5-8c-2.4-2.1-5.9-1.8-8,0.5
		C402.7,118.5,402.9,122.1,405.3,124.2"/>
	<ellipse transform="matrix(0.661 -0.7504 0.7504 0.661 48.6613 347.5719)" class="st10" cx="409" cy="119.9" rx="5.7" ry="5.7"/>
	<path class="st1" d="M436.6,128.2c2.4,2.1,5.9,1.8,8-0.5c2.1-2.4,1.8-5.9-0.5-8c-2.4-2.1-5.9-1.8-8,0.5
		C434,122.6,434.2,126.2,436.6,128.2"/>
	<ellipse transform="matrix(0.661 -0.7504 0.7504 0.661 56.2386 372.4546)" class="st10" cx="440.3" cy="124" rx="5.7" ry="5.7"/>
</g>
<g>
	<g class="st11">
		<g>
			<defs>
				<rect id="SVGID_1_" x="220.2" y="192.3" width="355.7" height="182.4"/>
			</defs>
			<clipPath id="SVGID_2_">
				<use xlink:href="#SVGID_1_"  style="overflow:visible;"/>
			</clipPath>
			<path class="st12" d="M558.6,321.8c16.2-16,2.8-68.6-41.1-65.2c-40.9,3.2-56.8,33.5-86.7,35.4c-29.9,1.9-38.2-40.1-72.8-57.5
				c-33.4-16.8-81-13-102.4-7.1c-35.8,9.9-24.5,45.9,2.5,51.1c27,5.2,55.3,11.2,71.6,28.2c32.3,33.7,83.2,29.2,119.4,18.4
				C473.2,318.1,532.4,347.7,558.6,321.8"/>
		</g>
	</g>
	<path class="st13" d="M255,349.9c-0.3-7,1.2-13.6,4.7-19.1c27.5-42.4,104,45.2,119.2,1.3c10-28.8,25.3-43,48.4-26.8
		c10,7,13.4,24.9,5.7,44.3c0,0-56.3-0.7-117.1-0.7"/>
	<path class="st14" d="M255.5,243.6c-5.3-19.9,4-45.4,17.8-44c20,1.9,5.2,36,23.4,33.6c11.9-1.6,22.8,7.5,18.1,17
		C307.3,265.4,261.6,266.5,255.5,243.6"/>
	<path class="st15" d="M578.9,318.4c-19.9,19.2-22.2,19.9-28.2,30.6"/>
	<path class="st16" d="M594,305.1c0,0-2.6,2-6.7,5.6"/>
	<path class="st17" d="M184.8,247.9c34.1,36.6,75.4,58.8,105.9,54.3"/>
	<path class="st18" d="M321.9,282.9c17.8-24,19.6-66.3,5.8-112.8"/>
	<path class="st16" d="M325.9,164.2c-0.9-2.9-1.9-5.8-3-8.7 M297.1,300.7c3.1-0.9,6.1-2.1,8.9-3.7c2.7-1.5,5.2-3.2,7.6-5.2
		 M170,230.5c2,2.5,4,5,6,7.5"/>
	<path class="st0" d="M74.2,107.8L193,228.1c0,0,11.7-14.2,24-26c9.5-9.1,27-24,27-24l-105.8-128L74.2,107.8z"/>
</g>
<line class="st5" x1="220.1" y1="182.3" x2="181" y2="139"/>
<line class="st5" x1="164.6" y1="120.9" x2="125.5" y2="77.6"/>
<line class="st5" x1="209.4" y1="192" x2="170.3" y2="148.7"/>
<line class="st5" x1="153.8" y1="130.6" x2="114.7" y2="87.3"/>
<line class="st5" x1="198.4" y1="202" x2="159.3" y2="158.7"/>
<line class="st5" x1="142.8" y1="140.6" x2="103.7" y2="97.3"/>
<g>
	<path class="st14" d="M144.8,245.4c-13.8,24.7-65.8,0.1-53-26.5C107,187,160.9,216.5,144.8,245.4"/>
</g>
<line class="st6" x1="168.9" y1="258.9" x2="118.2" y2="232"/>
<g>
	<path class="st1" d="M631.3,261.2c-3.1-0.8-6.3,1-7.2,4.1c-0.8,3.1,1,6.3,4.1,7.2c3.1,0.8,6.3-1,7.2-4.1
		C636.3,265.3,634.5,262.1,631.3,261.2"/>
	
		<ellipse transform="matrix(0.2609 -0.9654 0.9654 0.2609 207.8348 805.2527)" class="st2" cx="629.8" cy="266.9" rx="5.9" ry="5.9"/>
	<path class="st1" d="M647.7,299.2c-3.1-0.8-6.3,1-7.2,4.1c-0.8,3.1,1,6.3,4.1,7.2c3.1,0.8,6.3-1,7.2-4.1
		C652.7,303.3,650.8,300.1,647.7,299.2"/>
	<ellipse transform="matrix(0.261 -0.9653 0.9653 0.261 183.2216 849.1223)" class="st2" cx="646.2" cy="304.9" rx="5.9" ry="5.9"/>
	<path class="st19" d="M331,99.1c-17.3,5-34.2-32-9.6-38.3C344.6,54.8,352.6,92.9,331,99.1"/>
</g>
<line class="st6" x1="340.1" y1="137.7" x2="326.1" y2="82.1"/>
<polyline class="st6" points="521.6,288.4 436.1,256.3 421.3,188.5 507.4,150.7 "/>
<g>
	<path class="st1" d="M522.9,283.8c-3.4-0.8-6.7,1.3-7.5,4.7c-0.8,3.4,1.3,6.7,4.7,7.5c3.4,0.8,6.7-1.3,7.5-4.7
		C528.4,288,526.3,284.6,522.9,283.8"/>
	<ellipse transform="matrix(0.227 -0.9739 0.9739 0.227 120.7469 731.9644)" class="st7" cx="521.5" cy="289.9" rx="6.2" ry="6.3"/>
	<path class="st1" d="M439.1,248.3c-3.4-0.8-6.7,1.3-7.5,4.7c-0.8,3.4,1.3,6.7,4.7,7.5c3.4,0.8,6.7-1.3,7.5-4.7
		C444.5,252.4,442.5,249,439.1,248.3"/>
	
		<ellipse transform="matrix(0.2272 -0.9738 0.9738 0.2272 90.5485 622.7823)" class="st7" cx="437.7" cy="254.3" rx="6.2" ry="6.2"/>
	<path class="st1" d="M423,182.9c-3.4-0.8-6.7,1.3-7.5,4.7c-0.8,3.4,1.3,6.7,4.7,7.5c3.4,0.8,6.7-1.3,7.5-4.7
		C428.5,187.1,426.4,183.7,423,182.9"/>
	<ellipse transform="matrix(0.227 -0.9739 0.9739 0.227 141.8128 556.6647)" class="st7" cx="421.6" cy="189" rx="6.2" ry="6.3"/>
	<path class="st1" d="M507.9,144.2c-3.4-0.8-6.7,1.3-7.5,4.7c-0.8,3.4,1.3,6.7,4.7,7.5c3.4,0.8,6.7-1.3,7.5-4.7
		C513.4,148.3,511.3,145,507.9,144.2"/>
	<ellipse transform="matrix(0.227 -0.9739 0.9739 0.227 245.1899 609.4368)" class="st7" cx="506.5" cy="150.3" rx="6.2" ry="6.3"/>
</g>
<polyline class="st20" points="663,349.9 656.5,284.3 634.7,284 619.5,286.7 625.7,349.7 "/>
<g>
	<path class="st1" d="M616.4,304.6c-2,3.7-0.6,8.3,3.1,10.3c3.7,2,8.3,0.6,10.3-3.1c2-3.7,0.6-8.3-3.1-10.3
		C623,299.5,618.4,300.9,616.4,304.6"/>
	
		<ellipse transform="matrix(0.4753 -0.8798 0.8798 0.4753 55.7756 709.908)" class="st21" cx="623.1" cy="308.2" rx="7.6" ry="7.6"/>
</g>
<polygon class="st0" points="651.5,287.2 634.3,286.9 635.7,301.3 652.9,301.8 "/>
<polygon class="st0" points="653.3,306.1 636.1,305.8 637.6,320.3 654.8,320.7 "/>
<polygon class="st0" points="655.2,325 638,324.8 639.4,339.2 656.6,339.6 "/>
<polygon class="st0" points="657.1,344 639.9,343.7 640.5,349.9 657.7,349.9 "/>
</svg>
