<?xml version="1.0" encoding="utf-8"?>
<!-- Generator: Adobe Illustrator 21.0.0, SVG Export Plug-In . SVG Version: 6.00 Build 0)  -->
<svg version="1.1" id="Ebene_1" xmlns="http://www.w3.org/2000/svg" xmlns:xlink="http://www.w3.org/1999/xlink" x="0px" y="0px"
	 viewBox="0 0 868.5 627.6" style="enable-background:new 0 0 868.5 627.6;" xml:space="preserve">
<style type="text/css">
	.st0{fill:#3C3C3B;}
	.st1{fill:#878787;}
	.st2{fill:#44B4E8;}
</style>
<path class="st0" d="M12.5,552.8h18.9c20.1,0,29.4-10.6,29.4-33.5v-51.4c0-22.9-9.4-33.5-29.4-33.5H12.5c-2,0-3.6,1.6-3.6,3.6v111.2
	C8.9,551.3,10.5,552.8,12.5,552.8z M21.1,446.6h10.3c16.9,0,16.9,16.1,16.9,21.4v51.4c0,5.3,0,21.4-16.9,21.4H21.1V446.6z"/>
<path class="st0" d="M140.6,552.8c1.1,0,2.1-0.4,2.8-1.3c0.7-0.8,0.9-2,0.7-3.1l-25.5-111.2c-0.3-1.3-2.1-2.8-3.5-2.8H111
	c-1.3,0-3.1,1.5-3.5,2.9L81.8,548.6c-0.2,1.1,0,2.2,0.6,2.9c0.6,0.8,1.7,1.2,2.9,1.2h5.4c1.3,0,3.1-1.5,3.5-2.9l7-31.1h23.8
	l6.8,31.3c0.3,1.3,2.1,2.8,3.5,2.8H140.6z M104.2,506.7l8.5-48.4l3.4,15.1c2,9,2.8,14.4,3.4,19.2c0.5,3.5,0.9,6.6,1.8,10.3l0.9,3.8
	H104.2z"/>
<path class="st0" d="M210.8,443v-5.2c0-2-1.6-3.6-3.6-3.6h-48.4c-2,0-3.6,1.6-3.6,3.6v5.2c0,2,1.6,3.6,3.6,3.6h18v102.5
	c0,2,1.6,3.6,3.6,3.6h5c2,0,3.6-1.6,3.6-3.6V446.6h18.2C209.3,446.6,210.8,445,210.8,443z"/>
<path class="st0" d="M244.6,434.4c-2,0-3.6,1.6-3.6,3.6v111.3c0,2,1.6,3.6,3.6,3.6h39.9c2,0,3.6-1.6,3.6-3.6v-5c0-2-1.6-3.6-3.6-3.6
	h-31.3v-41.1h26.4c2,0,3.6-1.6,3.6-3.6v-5c0-2-1.6-3.6-3.6-3.6h-26.4v-40.9h31.3c2,0,3.6-1.6,3.6-3.6v-5c0-2-1.6-3.6-3.6-3.6H244.6z
	"/>
<path class="st0" d="M364.7,552.8h4.3c2,0,3.6-1.6,3.6-3.6V438c0-2-1.6-3.6-3.6-3.6h-5.2c-2,0-3.6,1.6-3.6,3.6v76.8l-31.6-78.3
	c-0.3-0.8-2.1-2.1-3.3-2.1h-4.4c-1.9,0-3.6,1.7-3.6,3.6v111.2c0,1.9,1.7,3.6,3.6,3.6h5.4c1.9,0,3.6-1.7,3.6-3.6v-76.8l31.6,78.3
	C361.8,551.5,363.7,552.8,364.7,552.8z"/>
<path class="st0" d="M431.8,552.6c17.9,0,27.4-9.9,27.4-28.7c0-16.3-11.2-24.9-23.1-34.1l-7.1-5.5l0.4,0
	c-6.8-5.8-12.7-12.4-12.7-20.8c0-14.7,9.5-16.9,15.1-16.9c10,0,15.1,7,15.1,20.8v2.6c0,2,1.6,3.6,3.6,3.6h5.2c2,0,3.6-1.6,3.6-3.6
	v-2.6c0-22-9.2-33.1-27.4-33.1c-17.7,0-27.4,10.6-27.4,29.8c0,15.2,9.5,24,20.3,32.7l3.5,2.6c8.8,6.8,18.7,14.5,18.7,25
	c0,10.9-4.9,16.2-15.1,16.2c-4.5,0-7.7-1.1-9.9-3.3c-3.5-3-5.2-8.4-5.2-17.5v-2.4c0-1.9-1.7-3.6-3.6-3.6H408c-2,0-3.6,1.6-3.6,3.6
	v2.4C404.4,542.2,413.1,552.6,431.8,552.6z"/>
<path class="st0" d="M516.1,434.4c-7.7,0-13.7,2.1-18.4,6.4c-5.9,5.5-9,14.7-9,26.5v52.3c0,12.1,2.8,20.6,8.9,26.6
	c4.6,4.4,10.4,6.5,18.5,6.5c7.7,0,13.9-2.2,18.4-6.5c5.9-5.9,8.7-14.4,8.7-26.6v-2.6c0-1.9-1.6-3.6-3.4-3.6h-5.4
	c-2,0-3.6,1.6-3.6,3.6v2.6c0,7.8-1.2,13-3.8,16.4c-2.6,2.9-6.8,4.6-11,4.6c-9.9,0-14.9-7.1-14.9-21v-52.3c0-13.8,5-20.8,14.9-20.8
	c6.7,0,14.7,3.6,14.7,20.8v2.6c0,2,1.6,3.6,3.6,3.6h5.4c1.8,0,3.4-1.6,3.4-3.6v-2.6c0-12.2-3-21.1-8.8-26.6
	C529.6,436.6,523.5,434.4,516.1,434.4z"/>
<path class="st0" d="M620.7,552.8c2,0,3.6-1.6,3.6-3.6V438c0-2-1.6-3.6-3.6-3.6h-5.2c-2,0-3.6,1.6-3.6,3.6v49.6h-26.7V438
	c0-2-1.6-3.6-3.6-3.6h-5.2c-2,0-3.6,1.6-3.6,3.6v111.2c0,2,1.6,3.6,3.6,3.6h5.2c2,0,3.6-1.6,3.6-3.6v-49.5h26.7v49.5
	c0,2,1.6,3.6,3.6,3.6H620.7z"/>
<path class="st0" d="M682.7,552.6c18.3,0,27.2-10.1,27.2-30.7v-84.1c0-2-1.6-3.6-3.6-3.6h-5.2c-1.8,0-3.4,1.6-3.4,3.6v84.1
	c0,12.3-5.1,18.6-15.1,18.6c-15.1,0-15.1-14-15.1-18.6v-84.1c0-2-1.6-3.6-3.6-3.6h-5.2c-1.8,0-3.4,1.6-3.4,3.6v84.1
	C655.5,542.6,664.4,552.6,682.7,552.6z"/>
<path class="st0" d="M785.1,552.8c2,0,3.6-1.6,3.6-3.6v-5c0-2-1.6-3.6-3.6-3.6h-30.6V438c0-1.9-1.6-3.6-3.4-3.6h-5.4
	c-2,0-3.6,1.6-3.6,3.6v111.3c0,2,1.6,3.6,3.6,3.6H785.1z"/>
<path class="st0" d="M859.8,552.8c2,0,3.6-1.6,3.6-3.6v-5c0-2-1.6-3.6-3.6-3.6h-31.4v-41.1h26.4c2,0,3.6-1.6,3.6-3.6v-5
	c0-2-1.6-3.6-3.6-3.6h-26.4v-40.9h31.4c2,0,3.6-1.6,3.6-3.6v-5c0-2-1.6-3.6-3.6-3.6h-39.9c-2,0-3.6,1.6-3.6,3.6v111.3
	c0,2,1.6,3.6,3.6,3.6H859.8z"/>
<g>
	<path class="st1" d="M405,94.7c23.3-5.8,47.5-5,70.3,2.2c4.4,1.4,9.2-1.1,10.6-5.5c1.4-4.4-1-9.2-5.5-10.6
		c-25.7-8.2-53.2-9-79.4-2.5C322.8,97.8,275,177.2,294.5,255.4c1,3.8,4.4,6.4,8.2,6.4c0.7,0,1.4-0.1,2-0.3c4.5-1.1,7.3-5.7,6.1-10.2
		C293.7,182.2,335.9,111.9,405,94.7z"/>
	<path class="st1" d="M544.9,188.2c-0.8-2.9-3.9-4.6-6.8-3.8c-2.9,0.8-4.6,3.9-3.8,6.8c15.2,53.1-15.6,108.6-68.6,123.8
		c-25.7,7.4-52.7,4.3-76.1-8.7c-23.4-13-40.3-34.3-47.7-60c-0.8-2.9-3.9-4.6-6.8-3.8c-2.9,0.8-4.6,3.9-3.8,6.8
		c14,48.7,58.6,80.6,106.9,80.6c10.1,0,20.4-1.4,30.6-4.3C527.6,308.8,561.8,247.1,544.9,188.2z"/>
</g>
<g>
	<g>
		<path class="st0" d="M360.2,179.6l39.4-29.9c-3.1-2.1-5.3-5.4-6.1-9.3l-41,31.1C356,173.1,358.7,176,360.2,179.6z"/>
		<path class="st0" d="M514.4,84.5l-25.5,48.8c3.7,1.2,6.8,3.9,8.6,7.4l26.8-51.1C520.3,89.2,516.9,87.4,514.4,84.5z"/>
		<path class="st0" d="M469.3,149.9c-0.5-3.5,0.2-6.9,1.9-9.9l-48.8-7.4c0.3,0.8,0.5,1.6,0.6,2.4c0.5,3,0,6-1.2,8.7l47.7,7.3
			C469.5,150.6,469.4,150.3,469.3,149.9z"/>
		<path class="st0" d="M405.4,257.5c1.5-2.1,3.6-3.7,5.9-4.8l-52.1-60c-0.3,0.4-0.5,0.9-0.8,1.3c-2,2.7-4.7,4.6-7.9,5.5l53.1,61.2
			C404.1,259.6,404.6,258.5,405.4,257.5z"/>
	</g>
	<path class="st2" d="M575.5,171.5c-1.8-4.3-6.7-6.4-11-4.6c-4.3,1.8-6.4,6.7-4.6,11c9.1,22.3,10.2,63.1-5.1,97.8
		c-13.4,30.4-36.4,51.7-68.4,63.5c-65,24-132.2-9.6-157.1-54.4c-2.3-4.1-7.4-5.5-11.5-3.3c-4.1,2.3-5.5,7.4-3.3,11.5
		c22.2,39.9,71.3,71.3,126.5,71.3c16.7,0,34-2.9,51.2-9.2c35.9-13.2,62.9-38.3,78-72.5C588.3,241.6,585.6,196.3,575.5,171.5z"/>
</g>
<path class="st2" d="M346.2,200.2c0.8,0,1.6-0.1,2.4-0.2c4-0.6,7.5-2.8,9.8-6c2.4-3.3,3.3-7.2,2.7-11.2c-1.3-8.1-8.8-13.8-17.2-12.5
	c-4,0.6-7.5,2.8-9.8,6c-2.4,3.3-3.3,7.2-2.7,11.2C332.5,194.9,338.8,200.2,346.2,200.2z M340.8,181.2c1.1-1.5,2.6-2.4,4.4-2.7
	c0.4-0.1,0.7-0.1,1.1-0.1c3.3,0,6.1,2.4,6.6,5.7c0.3,1.8-0.1,3.6-1.2,5c-1.1,1.5-2.6,2.4-4.4,2.7c-0.4,0.1-0.7,0.1-1.1,0.1
	c-3.3,0-6.1-2.4-6.6-5.7C339.3,184.5,339.7,182.7,340.8,181.2z"/>
<path class="st2" d="M408.2,152.4C408.2,152.4,408.2,152.4,408.2,152.4c0.8,0,1.6-0.1,2.4-0.2c4-0.6,7.5-2.8,9.8-6
	c2.4-3.3,3.3-7.2,2.7-11.2c-1.3-8.1-8.8-13.8-17.2-12.5c-4,0.6-7.5,2.8-9.8,6c-2.4,3.3-3.3,7.2-2.7,11.2
	C394.5,147.1,400.8,152.4,408.2,152.4z M407.2,130.7c0.4-0.1,0.7-0.1,1.1-0.1c3.3,0,6.1,2.4,6.6,5.7c0.3,1.8-0.1,3.6-1.2,5
	c-1.1,1.5-2.6,2.4-4.4,2.7c-0.4,0.1-0.7,0.1-1.1,0.1c0,0,0,0,0,0c-3.3,0-6.1-2.4-6.6-5.7C401,134.8,403.5,131.3,407.2,130.7z"/>
<path class="st2" d="M484.2,162.6c0.8,0,1.6-0.1,2.4-0.2c4-0.6,7.5-2.8,9.8-6c2.4-3.3,3.3-7.2,2.7-11.2c-1.3-8.1-8.9-13.8-17.2-12.5
	c-4,0.6-7.5,2.8-9.8,6c-2.4,3.3-3.3,7.2-2.7,11.2C470.5,157.3,476.7,162.6,484.2,162.6z M478.7,143.6c1.1-1.5,2.6-2.4,4.4-2.7
	c0.4-0.1,0.7-0.1,1.1-0.1c3.3,0,6.1,2.4,6.6,5.7c0.3,1.8-0.1,3.6-1.2,5c-1.1,1.5-2.6,2.4-4.4,2.7c-0.4,0.1-0.7,0.1-1.1,0.1
	c-3.3,0-6.1-2.4-6.6-5.7C477.2,146.8,477.7,145.1,478.7,143.6z"/>
<path class="st2" d="M525.8,89.7C525.8,89.7,525.8,89.7,525.8,89.7c0.8,0,1.6-0.1,2.4-0.2c4-0.6,7.5-2.8,9.8-6
	c2.4-3.3,3.3-7.2,2.7-11.2c-1.3-8.1-8.8-13.8-17.2-12.5c-8.2,1.3-13.8,9-12.5,17.2C512.1,84.4,518.3,89.7,525.8,89.7z M524.7,68
	c0.4-0.1,0.7-0.1,1.1-0.1c3.3,0,6.1,2.4,6.7,5.7c0.3,1.8-0.1,3.6-1.2,5c-1.1,1.5-2.6,2.4-4.4,2.7c-0.4,0.1-0.7,0.1-1.1,0.1h0
	c-3.3,0-6.1-2.4-6.6-5.7C518.5,72.1,521.1,68.6,524.7,68z"/>
<path class="st2" d="M415.2,251.5c-4,0.6-7.5,2.8-9.8,6c-2.4,3.3-3.3,7.2-2.7,11.2c1.2,7.3,7.4,12.7,14.8,12.7h0
	c0.8,0,1.6-0.1,2.4-0.2c8.2-1.3,13.8-9,12.5-17.2C431.1,255.8,423.6,250.2,415.2,251.5z M424.2,265.3c0.6,3.7-1.9,7.1-5.6,7.7
	c-0.4,0.1-0.7,0.1-1.1,0.1h0c-3.3,0-6.1-2.4-6.6-5.7c-0.6-3.7,1.9-7.1,5.6-7.7c0.4-0.1,0.7-0.1,1.1-0.1
	C420.8,259.6,423.7,262,424.2,265.3z"/>
</svg>
