<?xml version="1.0" encoding="utf-8"?>
<!-- Generator: Adobe Illustrator 21.0.0, SVG Export Plug-In . SVG Version: 6.00 Build 0)  -->
<svg version="1.1" id="Layer_1" xmlns="http://www.w3.org/2000/svg" xmlns:xlink="http://www.w3.org/1999/xlink" x="0px" y="0px"
	 viewBox="0 0 1024 550" style="enable-background:new 0 0 1024 550;" xml:space="preserve">
<style type="text/css">
	.st0{fill:none;stroke:#FFFFFF;stroke-width:3;stroke-linecap:round;stroke-miterlimit:10;stroke-dasharray:1.000000e-02,5;}
	.st1{fill:none;stroke:#FFFFFF;stroke-linecap:round;stroke-miterlimit:10;stroke-dasharray:0,5;}
	.st2{fill:none;stroke:#FFFFFF;stroke-width:3;stroke-linecap:round;stroke-miterlimit:10;stroke-dasharray:0,5;}
	.st3{opacity:0.9;fill:#FFFFFF;stroke:#FFFFFF;stroke-miterlimit:10;}
	.st4{opacity:0.6;fill:#FFFFFF;stroke:#FFFFFF;stroke-miterlimit:10;}
</style>
<title>160404-homepage-pattern</title>
<g>
	<g id="Ebene_1">
		<line class="st0" x1="306.6" y1="201.7" x2="234.1" y2="232.8"/>
		<line class="st0" x1="78.7" y1="236.4" x2="154.1" y2="246"/>
		<line class="st0" x1="379.9" y1="158.8" x2="306.6" y2="201.7"/>
		<polyline class="st0" points="78.7,236.4 0.4,290.7 74.5,313.9 154.7,319.9 223.9,360.7 299,401.1 373.3,407.5 448.2,430.9 
			526.3,392.6 601.9,386.3 677.5,341.2 754.4,342 831.2,319.6 901.9,273.8 833.4,273.9 758.7,258.7 684.2,227.2 610.4,173.1 
			534.9,180.4 460.3,157.1 379.9,158.8 		"/>
		<line class="st0" x1="154.1" y1="246" x2="234.1" y2="232.8"/>
		<line class="st1" x1="78.7" y1="236.4" x2="78.7" y2="236.4"/>
		<line class="st0" x1="301.1" y1="338.5" x2="375.7" y2="361.8"/>
		<line class="st0" x1="226.5" y1="315.1" x2="301.1" y2="338.5"/>
		<line class="st0" x1="155" y1="298.7" x2="226.5" y2="315.1"/>
		<line class="st0" x1="375.7" y1="361.8" x2="450.4" y2="385.2"/>
		<line class="st0" x1="526.3" y1="392.6" x2="450.4" y2="385.2"/>
		<line class="st0" x1="78.7" y1="236.4" x2="155" y2="298.7"/>
		<line class="st0" x1="527.2" y1="362.9" x2="452.6" y2="339.5"/>
		<line class="st0" x1="228.7" y1="269.4" x2="303.3" y2="292.8"/>
		<line class="st0" x1="303.3" y1="292.8" x2="378" y2="316.1"/>
		<line class="st0" x1="378" y1="316.1" x2="452.6" y2="339.5"/>
		<line class="st2" x1="154.1" y1="246" x2="154.1" y2="246"/>
		<line class="st0" x1="154.1" y1="246" x2="228.7" y2="269.4"/>
		<line class="st0" x1="527.2" y1="362.9" x2="601.9" y2="386.3"/>
		<line class="st0" x1="379" y1="270.8" x2="304.4" y2="247.4"/>
		<line class="st0" x1="451.5" y1="280.6" x2="379" y2="270.8"/>
		<line class="st0" x1="304.4" y1="247.4" x2="234.1" y2="232.8"/>
		<line class="st0" x1="528.3" y1="317.5" x2="451.5" y2="280.6"/>
		<line class="st0" x1="602.8" y1="317.9" x2="528.3" y2="317.5"/>
		<line class="st0" x1="677.5" y1="341.2" x2="602.8" y2="317.9"/>
		<line class="st2" x1="234.1" y1="232.8" x2="234.1" y2="232.8"/>
		<line class="st0" x1="530.5" y1="271.8" x2="457.9" y2="257.3"/>
		<line class="st0" x1="530.5" y1="271.8" x2="605.1" y2="295.2"/>
		<line class="st0" x1="679.8" y1="318.6" x2="605.1" y2="295.2"/>
		<line class="st2" x1="306.6" y1="201.7" x2="306.6" y2="201.7"/>
		<line class="st0" x1="679.8" y1="318.6" x2="754.4" y2="342"/>
		<line class="st0" x1="381.2" y1="225.1" x2="306.6" y2="201.7"/>
		<line class="st0" x1="457.9" y1="257.3" x2="381.2" y2="225.1"/>
		<line class="st0" x1="379.9" y1="158.8" x2="458" y2="202.8"/>
		<line class="st0" x1="532.7" y1="226.1" x2="607.3" y2="249.5"/>
		<line class="st0" x1="532.7" y1="226.1" x2="458" y2="202.8"/>
		<line class="st2" x1="379.9" y1="158.8" x2="379.9" y2="158.8"/>
		<line class="st0" x1="756.6" y1="296.3" x2="684" y2="281.7"/>
		<line class="st0" x1="684" y1="281.7" x2="607.3" y2="249.5"/>
		<line class="st0" x1="831.2" y1="319.6" x2="756.6" y2="296.3"/>
		<line class="st0" x1="450.4" y1="385.2" x2="527.2" y2="362.9"/>
		<line class="st0" x1="602.8" y1="317.9" x2="679.8" y2="318.6"/>
		<line class="st0" x1="374.7" y1="407.2" x2="450.4" y2="385.2"/>
		<line class="st0" x1="602.8" y1="317.9" x2="527.2" y2="362.9"/>
		<line class="st0" x1="756.6" y1="296.3" x2="679.8" y2="318.6"/>
		<line class="st0" x1="833.4" y1="273.9" x2="756.6" y2="296.3"/>
		<line class="st0" x1="760.8" y1="259.4" x2="684" y2="281.7"/>
		<line class="st0" x1="375.7" y1="361.8" x2="452.6" y2="339.5"/>
		<line class="st0" x1="684" y1="281.7" x2="605.1" y2="295.2"/>
		<line class="st0" x1="452.6" y1="339.5" x2="528.3" y2="317.5"/>
		<line class="st0" x1="300.5" y1="400.9" x2="375.7" y2="361.8"/>
		<line class="st0" x1="605.1" y1="295.2" x2="528.3" y2="317.5"/>
		<line class="st0" x1="301.1" y1="338.5" x2="378" y2="316.1"/>
		<line class="st0" x1="451.5" y1="280.6" x2="378" y2="316.1"/>
		<line class="st0" x1="225.4" y1="360.5" x2="301.1" y2="338.5"/>
		<line class="st0" x1="607.3" y1="249.5" x2="530.5" y2="271.8"/>
		<line class="st0" x1="684.2" y1="227.2" x2="607.3" y2="249.5"/>
		<line class="st0" x1="530.5" y1="271.8" x2="451.5" y2="280.6"/>
		<line class="st0" x1="532.7" y1="226.1" x2="610.4" y2="173.1"/>
		<line class="st0" x1="532.7" y1="226.1" x2="457.9" y2="257.3"/>
		<line class="st0" x1="156.8" y1="319.8" x2="226.5" y2="315.1"/>
		<line class="st0" x1="457.9" y1="257.3" x2="379" y2="270.8"/>
		<line class="st0" x1="379" y1="270.8" x2="303.3" y2="292.8"/>
		<line class="st0" x1="226.5" y1="315.1" x2="303.3" y2="292.8"/>
		<line class="st0" x1="228.7" y1="269.4" x2="155" y2="298.7"/>
		<line class="st0" x1="534.9" y1="180.4" x2="458" y2="202.8"/>
		<line class="st0" x1="228.7" y1="269.4" x2="304.4" y2="247.4"/>
		<line class="st0" x1="381.2" y1="225.1" x2="458" y2="202.8"/>
		<line class="st0" x1="381.2" y1="225.1" x2="304.4" y2="247.4"/>
		<line class="st0" x1="76.2" y1="313.7" x2="155" y2="298.7"/>
		<polygon class="st3" points="405.1,267 458.6,132.8 456.6,257.3 		"/>
		<polygon class="st3" points="503.9,267 458.6,132.8 456.6,257.3 		"/>
		<polygon class="st3" points="506.6,236.6 460.2,134 458.2,257.3 		"/>
		<polygon class="st3" points="573.6,335.9 603.5,225.7 602.1,318.6 		"/>
		<polygon class="st3" points="636.1,329.8 603.5,225.7 602.1,318.6 		"/>
		<polygon class="st3" points="641.7,319.2 603.8,226.6 602.3,318.6 		"/>
		<polygon class="st4" points="276.2,346.2 302,275.8 301.1,338.4 		"/>
		<polygon class="st4" points="323.9,345.5 302,275.8 301.1,338 		"/>
		<polygon class="st4" points="324.9,331.6 302.2,276.8 301.3,338.4 		"/>
	</g>
</g>
</svg>
