<?xml version="1.0" encoding="utf-8"?>
<!-- Generator: Adobe Illustrator 21.0.0, SVG Export Plug-In . SVG Version: 6.00 Build 0)  -->
<svg version="1.1" id="Ebene_1" xmlns="http://www.w3.org/2000/svg" xmlns:xlink="http://www.w3.org/1999/xlink" x="0px" y="0px"
	 viewBox="0 0 262 159.5" style="enable-background:new 0 0 262 159.5;" xml:space="preserve">
<style type="text/css">
	.st0{fill:#FFCB00;}
	.st1{fill:#FF0000;}
	.st2{fill:#1E1E1E;}
	.st3{fill:none;}
	.st4{font-family:'Times-Roman';}
	.st5{font-size:13px;}
</style>
<title>HG_Bilder</title>
<g id="_x35_e20b02f-a974-4dc0-9902-f9966126e853">
	<polygon class="st0" points="66.6,119.9 69.5,119.9 69.5,158.9 62.7,158.9 62.7,119.9 	"/>
	<polygon class="st1" points="66.6,80.7 69.5,80.7 69.5,119.9 62.7,119.9 62.7,80.7 	"/>
	<path class="st2" d="M32.7,56.1c0-0.4,0-0.9,0-1.3c0-0.2,0-0.5,0-0.9c3.9,0,7.3-2.9,7.3-6.1c-0.1-1.4-0.7-2.6-1.7-3.6l0.4-0.1
		c1.3,1.1,2.1,2.7,2.3,4.5C41,52.5,37.2,56.1,32.7,56.1 M28.8,42.7c-0.1-0.4-0.2-0.8-0.5-1.2c0-0.4,0.2-0.8,0.8-0.5
		c-0.4,0.4,0,1,0,1s0.7-0.3,0.6-0.8C30.8,41.5,30,42.9,28.8,42.7 M28,44.7c-0.1-0.6-0.4-1.1-0.8-1.6s-1-0.8-1.7-0.9
		c-0.4,0-0.9,0.1-1.3,0.3c-0.2-0.4-0.3-0.7-0.4-1.1c0-0.3,0.5-0.6,1.4-0.6c2,0,3.2,0.9,3.2,2.4C28.4,43.7,28.3,44.2,28,44.7
		 M33.1,70.6c0.2,0,0.3,0,0.5,0.1c0.8,1.7,1.8,3.2,2.9,4.7l0,0c1-0.2,2.1-0.3,3.1-0.3l0,0c0.1,0,0.3,0,0.4,0.1
		c0.1,0.1,0.1,0.3,0.1,0.4c0,0.4-0.1,0.7-0.3,1c-0.6-0.5-1.4-0.7-2.1-0.7c-0.3,0-0.6,0.1-0.9,0.1h-0.2l0.6,0.6c1,1,1.8,1.8,1.8,2.3
		c-0.1,0.4-0.3,0.7-0.6,1c-0.3-1.2-1-2.2-2-3l0,0v0.4c0,0.2,0,0.6,0,1c0,1.9-0.2,2.2-0.8,2.2c-0.1,0-0.2,0-0.4,0
		c0.4-0.6,0.6-1.4,0.5-2.1v-0.9c0-0.3,0-0.7,0-1v-0.1h-0.1c-0.4-0.1-0.9-0.1-1.3-0.1c-0.7-0.1-1.4,0.1-2,0.5
		c-0.3-0.2-0.5-0.6-0.6-0.9c0-0.4,0.2-0.4,0.6-0.4h0.5c0.7,0.1,1.5,0.2,2.3,0.1l0,0l0,0c-0.7-1.4-1.5-2.8-2.6-3.9
		c0.1-0.5,0.2-0.8,0.7-0.8 M21.1,75.2L21.1,75.2L21.1,75.2c0.7,0.1,1.5,0.1,2.3,0h0.5c0.3,0,0.6,0,0.6,0.4c-0.1,0.4-0.3,0.7-0.6,0.9
		c-0.6-0.4-1.3-0.6-2-0.5c-0.4,0-0.9,0.1-1.3,0.1h-0.1v0.1c0,0.3,0,0.7,0,1v0.9c-0.1,0.7,0.1,1.5,0.5,2.1c-0.1,0-0.2,0-0.4,0
		c-0.7,0-0.8-0.3-0.8-2.2c0-0.4,0-0.7,0-1v-0.4l0,0c-1.1,0.7-1.8,1.9-2.1,3.2c-0.3-0.2-0.6-0.6-0.6-1c0-0.5,0.8-1.4,1.8-2.3l0.6-0.5
		l0,0h-0.2c-0.3-0.1-0.6-0.1-0.9-0.1c-0.8-0.1-1.5,0.1-2.1,0.7c-0.2-0.3-0.3-0.7-0.3-1.1c0-0.1,0.1-0.3,0.2-0.4
		c0.1-0.1,0.2-0.1,0.4-0.1l0,0c1,0,2.1,0.1,3.1,0.3l0,0c1.1-1.5,2.1-3,2.9-4.7c0.1-0.1,0.3-0.1,0.5-0.1c0.4,0,0.6,0.3,0.7,0.8
		C22.6,72.6,21.7,73.9,21.1,75.2 M15,48.6c0.1-1.7,0.9-3.3,2.2-4.5l0.4,0.1c-1,1-1.6,2.3-1.7,3.6c0,3.2,3.5,6.1,7.4,6.1
		c0,0.3,0,0.6,0,0.9c0,0.4,0,0.9,0,1.3C18.9,56.1,14.9,52.5,15,48.6 M44.9,55.5c1.1,2.3,3.5,3.5,5.9,3.1c-1.5-1.2-2.8-2.7-3.9-4.4
		l-3.7-5.8c-0.4-1.8-1.3-3.5-2.7-4.7c0.5-0.2,0.9-0.4,1.2-0.7c-2.4,0-4.7-1.2-6-1.2c-0.7-0.1-1.3,0.4-1.4,1v0.1
		c0,0.7,0.8,1.5,2.2,1.5c0.4,0,0.8-0.1,1.2-0.1c0.8,0.9,1.3,2.1,1.4,3.4c0,2.6-3,4.6-6.1,4.6h-0.5c-0.6-0.9-1-1.9-1.2-2.9
		c0-2,1.3-3.7,1.3-5.7c0-0.9-0.3-1.7-0.8-2.4c0.4-0.3,0.7-0.7,0.9-1.1c-0.3,0.1-0.6,0.1-0.9,0.1c-1.6,0-2.8-0.3-4-0.3
		c-0.6,0-0.8,0.2-0.8,0.4c0,0.1,0,0.1,0,0.2c-0.2-0.1-0.5-0.2-0.8-0.2c-0.4-0.1-0.7-0.1-1.1-0.1c-1.4,0-1.9,0.6-1.9,1.1
		c0.1,0.6,0.4,1.2,0.7,1.8c0.5-0.3,1-0.4,1.5-0.5c0.8,0,1.4,0.7,1.8,1.6c-0.4,0-0.8,0-1.1,0c-0.9,0-1.7-0.2-2.5-0.5l0,0
		c0,0,0.4,0.7,1.2,1c0.9,0.3,1.9,0.5,2.8,0.6c-0.1,0.3-0.3,0.5-0.5,0.6c-0.1,0-0.1,0-0.2,0c-0.9-0.1-1.9-0.3-2.8-0.6l0,0
		c0,0.5,1.4,1.8,2.6,2.2c-1.3,1.4-2.4,3.1-3,4.9h-0.5c-3.1,0-6.1-2-6.1-4.6c0.1-1.2,0.5-2.4,1.4-3.4c0.4,0.1,0.8,0.1,1.2,0.1
		c1.4,0,2.2-0.8,2.2-1.5c0-0.7-0.6-1.2-1.3-1.2h-0.1c-1.3,0-3.7,1.2-6,1.2c0.3,0.2,0.7,0.4,1.1,0.5c-1.4,1.2-2.3,2.9-2.7,4.7
		l-3.6,5.8c-1,1.7-2.3,3.2-3.9,4.4c2.5,0.4,4.9-0.9,5.9-3.1l1.9-3c0.1,0.4,0.3,0.8,0.5,1.1L10,59.4c-1,1.7-2.3,3.2-3.9,4.4
		c2.4,0.4,4.9-0.9,5.9-3.1l3.2-5.1c0.2,0.3,0.5,0.5,0.8,0.7l-4.5,7.2c-1,1.7-2.3,3.2-3.9,4.5c2.5,0.4,4.9-0.9,5.9-3.2l4.4-7.1
		l0.9,0.5l-5.4,8.6c-1,1.7-2.3,3.2-3.9,4.4c2.4,0.4,4.9-0.9,5.9-3.1l5.5-8.8l1,0.4l-6.3,10c-1,1.7-2.3,3.2-3.9,4.4
		c2.4,0.4,4.9-0.9,5.9-3.1l6.7-10.7h0.2c0.2,0.5,0.3,1.1,0.3,1.7c0,3.4-2.2,6.3-4.9,8.6c0.2,0.1,0.5,0.1,0.7,0.1c0.4,0,0.8,0,1.1,0
		c-0.7,1.4-1.6,2.7-2.6,4c-1-0.2-2-0.3-2.9-0.3s-1,0.5-1,1c0,0.7,0.3,1.3,0.8,1.8c0.2-0.4,0.5-0.9,2.1-0.9h0.2
		c-0.5,0.5-1.9,1.8-1.9,2.6c0.1,0.8,0.8,1.5,1.6,1.6c0-0.2,0-0.4,0-0.5c0.1-0.9,0.6-1.7,1.2-2.3c0,0.1,0,0.3,0,0.4
		c0,1.8,0.2,2.6,1.3,2.6c0.4,0,0.8-0.1,1.1-0.3c-0.6-0.6-0.9-1.4-0.8-2.3c0-0.3,0-0.5,0-0.9c0-0.3,0-0.5,0-0.8c0.3,0,0.6,0,0.9,0
		c0,0,1.6-0.1,2,0.7c0.4-0.4,1.1-1,1.1-1.6c0-0.6-0.2-0.9-1-0.9c-0.3,0-1.3,0.2-2.2,0.2c0.6-1.1,1.3-2.1,2.1-3
		c0.1,0.5,0.4,0.9,0.8,1.2c0.1-1.5,0.7-2.9,1.5-4.1c0.2,1.2,0.3,2.3,0.3,3.5c0,4.5-1.1,7.8-3.4,8.5c0.3,0.6,0.9,0.9,1.6,1
		c0.8,0,1.3-1,1.8-1.8c0.2,0.7,0.9,2.3,1.6,2.3s1.3-1.6,1.6-2.3c0.5,0.9,0.9,1.8,1.8,1.8c0.7,0,1.3-0.4,1.6-1
		c-2.3-0.6-3.4-4-3.4-8.5c0-1.2,0.1-2.4,0.3-3.5c0.9,1.2,1.4,2.6,1.5,4.1c0.4-0.3,0.7-0.7,0.8-1.2c0.8,0.9,1.5,2,2.1,3
		c-0.8,0-1.8-0.2-2.2-0.2c-0.8,0-1,0.5-1,0.9c0,0.4,0.7,1.2,1.1,1.6c0.4-0.8,2-0.7,2-0.7c0.3,0,0.6,0,0.9,0c0,0.3,0,0.5,0,0.8
		c0,0.4,0,0.6,0,0.9c0.1,0.8-0.2,1.7-0.8,2.3c0.3,0.3,0.7,0.4,1.1,0.4c1.1,0,1.3-0.8,1.3-2.6c0-0.1,0-0.3,0-0.4
		c0.7,0.6,1.1,1.4,1.3,2.3c0,0.2,0,0.4,0,0.5c0.8-0.1,1.5-0.7,1.6-1.6c0-1-1.5-2.1-1.9-2.6h0.2c1.6,0,1.9,0.5,2.1,0.9
		c0.5-0.4,0.8-1.1,0.8-1.8c0-0.5-0.1-1-1-1c-1,0-2,0.1-2.9,0.3c-1-1.3-1.9-2.7-2.6-4.1c0.4,0,0.8,0,1.1,0s0.5,0,0.7-0.1
		c-2.6-2.3-4.9-5.3-4.9-8.6c0-0.6,0.1-1.1,0.3-1.7h0.2L38.3,71c1.1,2.2,3.5,3.5,5.9,3.1c-1.6-1.2-2.9-2.7-3.9-4.4l-6.3-10l1-0.4
		l5.5,8.8c1.1,2.2,3.5,3.5,5.9,3.1c-1.5-1.2-2.8-2.7-3.9-4.4l-5.4-8.6l0.9-0.5l4.4,7.1c1,2.3,3.4,3.6,5.9,3.2
		c-1.5-1.2-2.8-2.7-3.9-4.4l-4.5-7.2c0.3-0.2,0.5-0.5,0.8-0.7l3.2,5.1c1.1,2.3,3.5,3.5,5.9,3.1c-1.5-1.2-2.8-2.7-3.9-4.4l-3.7-6
		c0.2-0.4,0.4-0.8,0.5-1.1L44.9,55.5z"/>
	<polygon class="st2" points="69.5,41.8 69.5,80.9 66.6,80.9 62.7,80.9 62.7,41.8 	"/>
	<path class="st2" d="M90.7,53c0.1-0.8-0.2-1.7-0.7-2.3c-0.6-0.6-1.4-0.8-2.2-0.8h-2v6h1.8c0.8,0.1,1.6-0.1,2.3-0.5
		C90.5,54.8,90.8,53.9,90.7,53 M90.4,45.6c0.1-0.8-0.2-1.6-0.7-2.1c-0.6-0.4-1.3-0.6-2.1-0.5h-1.8v5.5h2
		C89.6,48.4,90.4,47.5,90.4,45.6 M92.6,53.1c0.2,1.3-0.3,2.6-1.2,3.5c-1,0.7-2.3,1-3.5,0.9H84V41.7h4.2c1.1-0.1,2.2,0.2,3.1,0.9
		c0.8,0.8,1.1,1.9,1,3.1c0,0.8-0.1,1.6-0.5,2.3c-0.5,0.6-1.1,1-1.9,1.1c0.9,0.1,1.7,0.7,2.2,1.4C92.5,51.3,92.7,52.2,92.6,53.1"/>
	<path class="st2" d="M103.1,57.4h-1.8V56c-0.6,1-1.6,1.6-2.8,1.6c-2,0-3-1.1-3-3.4v-7.9h1.8v7.1c0,0.7,0,1.3,0.2,1.9
		c0.2,0.6,0.9,1,1.6,1c1.5,0,2.2-1.1,2.2-3.2v-6.7h1.8V55C103,55.9,103,56.7,103.1,57.4"/>
	<path class="st2" d="M113.7,57.4h-1.8v-7.1c0-0.7,0-1.3-0.2-2c-0.2-0.6-0.9-1-1.5-1c-0.8,0-1.4,0.4-1.8,1.1
		c-0.4,0.7-0.5,1.5-0.5,2.3v6.6h-1.8v-8.7c0-1,0-1.8-0.1-2.4h1.8v1.5c0.5-1.1,1.7-1.8,2.9-1.8c2,0,2.9,1.2,2.9,3.5L113.7,57.4z"/>
	<path class="st2" d="M122.5,52c0-1.1-0.1-2.2-0.3-3.2c0-1-0.8-1.8-1.8-1.8s-1.8,0.8-1.8,1.8c-0.2,1-0.3,2-0.3,2.9
		c0,1.1,0.1,2.2,0.4,3.2c0.2,0.8,0.9,1.3,1.7,1.4c0.9,0.1,1.7-0.5,1.9-1.4C122.5,53.9,122.6,52.9,122.5,52 M124.3,57.4h-1.8v-1.2
		c-0.5,0.9-1.5,1.5-2.6,1.5c-1.3,0.1-2.5-0.7-2.9-1.9c-0.4-1.3-0.6-2.6-0.5-4c-0.1-1.3,0.1-2.6,0.6-3.8c0.5-1.1,1.6-1.8,2.8-1.8
		c1-0.1,2,0.4,2.5,1.3v-6h1.8v13.8C124.2,55.7,124.2,56.4,124.3,57.4"/>
	<path class="st2" d="M132.9,50.9c0-0.8,0-1.5-0.2-2.3c-0.2-0.8-0.9-1.4-1.8-1.3c-1.2,0-1.9,0.7-2,2.2c-0.1,0.5-0.1,1-0.1,1.4
		C128.8,50.9,132.9,50.9,132.9,50.9z M134.7,52.1h-5.8v0.8c0,0.8,0.1,1.7,0.3,2.5c0.3,0.7,1,1.1,1.8,1.1c1.3,0,2-0.8,2-2.5h1.8
		c0.2,1.9-1.2,3.5-3,3.7c-0.3,0-0.5,0-0.8,0c-1.3,0.1-2.5-0.5-3.2-1.6c-0.5-1.2-0.7-2.4-0.7-3.7c-0.1-1.4,0.1-2.9,0.5-4.2
		c0.6-1.3,2-2.2,3.4-2c1.3-0.2,2.6,0.6,3.2,1.8c0.4,1.2,0.6,2.5,0.5,3.8V52.1L134.7,52.1z"/>
	<path class="st2" d="M143.6,54.4c0,2.2-1.2,3.2-3.5,3.2c-2.4,0-3.5-1.2-3.3-3.5h1.8c0,0.2,0,0.4,0,0.6c0.1,1.2,0.6,1.8,1.6,1.8
		c0.8,0.2,1.6-0.4,1.8-1.2c0-0.2,0-0.4,0-0.6c0-0.5-0.2-1.1-0.5-1.4c-0.5-0.4-1-0.7-1.5-1c-0.7-0.3-1.4-0.8-2-1.2
		c-0.6-0.5-0.9-1.3-0.8-2c-0.1-0.8,0.3-1.7,1-2.2s1.5-0.7,2.4-0.7c0.9-0.1,1.8,0.2,2.5,0.8c0.5,0.7,0.8,1.6,0.8,2.5h-1.8
		c0-1.4-0.5-2.1-1.6-2.1c-0.4,0-0.8,0.1-1.1,0.4s-0.4,0.7-0.4,1.1c0,0.5,0.2,1,0.6,1.3c0.5,0.4,1.1,0.7,1.6,1
		c0.6,0.3,1.2,0.8,1.8,1.2C143.3,52.9,143.6,53.6,143.6,54.4"/>
	<path class="st2" d="M158.5,57.4h-1.8V50c0-0.6,0-1.2-0.2-1.8c-0.2-0.5-0.8-0.8-1.3-0.8c-1.3,0-2,1-2,3v7.1h-1.8v-7.6
		c0-0.6,0-1.1-0.2-1.6s-0.8-0.9-1.3-0.8c-0.7,0-1.2,0.4-1.5,1c-0.3,0.7-0.4,1.4-0.4,2.1v6.9h-1.7v-9.2c0-0.7,0-1.3-0.1-1.9h1.8v1.5
		c0.4-1.1,1.5-1.8,2.6-1.8c1.1-0.1,2.2,0.7,2.5,1.8c0.5-1.1,1.6-1.8,2.8-1.8c0.8,0,1.6,0.3,2.1,1c0.4,0.9,0.6,1.8,0.6,2.8
		C158.5,49.8,158.5,57.4,158.5,57.4z"/>
	<path class="st2" d="M163.5,57.4h-1.8V46.3h1.8V57.4z M163.6,43.6h-1.9v-1.9h1.9V43.6L163.6,43.6z"/>
	<path class="st2" d="M174.2,57.4h-1.8v-7.1c0-0.7,0-1.3-0.2-2c-0.2-0.6-0.9-1-1.5-1c-0.8,0-1.4,0.4-1.8,1.1
		c-0.4,0.7-0.5,1.5-0.5,2.3v6.6h-1.8v-8.7c0-1,0-1.8-0.1-2.4h1.8v1.5c0.5-1.1,1.7-1.8,2.9-1.8c2,0,2.9,1.2,2.9,3.5L174.2,57.4z"/>
	<path class="st2" d="M179.3,57.4h-1.8V46.3h1.8V57.4z M179.3,43.6h-1.9v-1.9h1.9V43.6z"/>
	<path class="st2" d="M188.6,54.4c0,2.2-1.2,3.2-3.5,3.2c-2.4,0-3.5-1.2-3.3-3.5h1.8c0,0.2,0,0.4,0,0.6c0.1,1.2,0.6,1.8,1.6,1.8
		c0.8,0.2,1.6-0.4,1.8-1.2c0-0.2,0-0.4,0-0.6c0-0.5-0.2-1.1-0.5-1.4c-0.4-0.4-0.9-0.7-1.4-1c-0.7-0.3-1.4-0.8-2-1.2
		c-0.6-0.5-0.9-1.3-0.8-2c0-0.8,0.3-1.7,1-2.2s1.5-0.7,2.4-0.7c0.9-0.1,1.8,0.2,2.4,0.8c0.5,0.7,0.8,1.5,0.8,2.4h-1.8
		c0-1.4-0.5-2.1-1.6-2.1c-0.4,0-0.8,0.1-1.1,0.4c-0.3,0.3-0.4,0.7-0.4,1.1c0,0.5,0.2,1,0.6,1.3c0.5,0.4,1,0.7,1.6,1
		c0.6,0.3,1.2,0.8,1.8,1.2C188.3,52.8,188.7,53.6,188.6,54.4"/>
	<path class="st2" d="M195.7,57.4c-0.4,0.1-0.9,0.1-1.3,0.1c-0.7,0.1-1.5-0.1-2-0.6c-0.4-0.6-0.5-1.4-0.5-2.1v-7.2h-1.7v-1.3h1.7v-2
		l1.8-0.8v2.8h2v1.3h-2.1v7.1c0,0.4,0,0.9,0.3,1.3c0.3,0.2,0.6,0.4,1,0.3h0.8V57.4z"/>
	<path class="st2" d="M203.2,50.9c0-0.8,0-1.5-0.2-2.3c-0.2-0.8-0.9-1.4-1.8-1.3c-1.2,0-1.9,0.7-2,2.2c-0.1,0.5-0.1,1-0.1,1.4
		C199.1,50.9,203.2,50.9,203.2,50.9z M205,52.1h-5.7v0.8c0,0.8,0.1,1.7,0.3,2.5c0.3,0.7,1,1.1,1.8,1.1c1.3,0,2-0.8,2-2.5h1.8
		c0.2,1.9-1.1,3.5-3,3.7c-0.2,0-0.5,0-0.7,0c-1.3,0.1-2.5-0.5-3.2-1.6c-0.6-1.2-0.8-2.5-0.8-3.8c-0.1-1.4,0.1-2.9,0.5-4.2
		c0.6-1.3,2-2.2,3.4-2c1.3-0.2,2.6,0.6,3.2,1.8c0.4,1.2,0.6,2.5,0.5,3.8L205,52.1z"/>
	<path class="st2" d="M212.4,47.8H212c-0.7-0.1-1.4,0.2-1.9,0.8c-0.4,0.6-0.6,1.3-0.6,2v6.9h-1.8v-9.1c0-0.8,0-1.4,0-2h1.8v1.4
		c0.5-1.1,1.6-1.8,2.8-1.8c0.1,0,0.2,0.6,0.2,1.8"/>
	<path class="st2" d="M216.2,57.4h-1.8V46.3h1.8V57.4z M216.3,43.6h-1.9v-1.9h1.9V43.6z"/>
	<path class="st2" d="M227,57.4h-1.8V56c-0.6,1-1.7,1.6-2.8,1.6c-2,0-3-1.1-3-3.4v-7.9h1.8v7.1c0,0.7,0,1.3,0.2,1.9
		c0.2,0.6,0.9,1,1.6,1c1.5,0,2.2-1.1,2.2-3.2v-6.7h1.8V55C227,55.9,227,56.7,227,57.4"/>
	<path class="st2" d="M242.5,57.4h-1.8V50c0-0.6,0-1.2-0.2-1.8c-0.2-0.5-0.8-0.9-1.3-0.8c-1.3,0-2,1-2,3v7.1h-1.8v-7.6
		c0-0.6,0-1.1-0.2-1.6s-0.8-0.9-1.3-0.8c-0.7,0-1.2,0.4-1.5,1c-0.3,0.7-0.5,1.4-0.4,2.1v6.9h-1.8v-9.2c0-0.7,0-1.3-0.1-1.9h1.8v1.5
		c0.4-1.1,1.5-1.8,2.6-1.8c1.1-0.1,2.2,0.7,2.5,1.8c0.5-1.1,1.6-1.8,2.8-1.8c0.8-0.1,1.7,0.3,2.2,1c0.4,0.9,0.6,1.8,0.6,2.8
		L242.5,57.4L242.5,57.4z"/>
	<path class="st2" d="M87.9,66.2h-0.7c-0.5-0.1-0.9,0.2-1.1,0.6c-0.1,0.4-0.2,0.9-0.2,1.3v1.6h1.9V71H86v9.8h-1.8V71h-1.6v-1.3h1.6
		v-1.2c-0.1-0.9,0.1-1.8,0.4-2.6c0.5-0.8,1.4-1.3,2.4-1.1h0.9V66.2z"/>
	<path class="st2" d="M97.7,80.9h-1.8v-1.4c-0.6,1-1.7,1.6-2.8,1.6c-2,0-3-1.1-3-3.4v-7.9h1.8v7.1c0,0.7,0,1.3,0.2,1.9s0.9,1,1.6,1
		c1.5,0,2.2-1.1,2.2-3.2v-6.7h1.8v8.7C97.6,79.3,97.6,80.1,97.7,80.9"/>
	<path class="st2" d="M93,67.2h-1.6v-2.1H93V67.2z M96.5,67.2h-1.8v-2.1h1.8V67.2z"/>
	<path class="st2" d="M105.5,71.2h-0.4c-0.7-0.1-1.4,0.2-1.9,0.8c-0.4,0.6-0.7,1.3-0.6,2v6.9h-1.8v-9.2c0-0.8,0-1.4,0-2h1.8v1.4
		c0.5-1.1,1.6-1.8,2.8-1.8C105.5,69.3,105.6,69.9,105.5,71.2"/>
	<polygon class="st2" points="122.3,64.9 118.1,80.9 115.8,80.9 111.7,64.9 113.7,64.9 117,79.1 120.4,64.9 	"/>
	<path class="st2" d="M129,74.3c0-0.8,0-1.5-0.2-2.3s-0.9-1.4-1.8-1.3c-1.2,0-1.9,0.7-2,2.2c-0.1,0.5-0.1,1-0.1,1.4
		C124.9,74.3,129,74.3,129,74.3z M130.8,75.5H125v0.8c0,0.8,0.1,1.7,0.3,2.5c0.3,0.7,1,1.1,1.8,1.1c1.3,0,2-0.8,2-2.5h1.8
		c0.2,1.9-1.1,3.5-3,3.7c-0.3,0-0.6,0-0.9,0c-1.3,0.1-2.5-0.5-3.2-1.6c-0.5-1.2-0.7-2.5-0.6-3.8c-0.1-1.4,0.1-2.9,0.5-4.2
		c0.6-1.3,2-2.2,3.4-2c1.3-0.2,2.6,0.6,3.2,1.8c0.4,1.2,0.6,2.5,0.5,3.8L130.8,75.5z"/>
	<path class="st2" d="M138.2,71.2h-0.4c-0.7-0.1-1.4,0.2-1.9,0.8c-0.4,0.6-0.7,1.3-0.6,2v6.9h-1.8v-9.2c0-0.8,0-1.4,0-2h1.8v1.4
		c0.5-1.1,1.6-1.8,2.8-1.8c0.1,0,0.2,0.6,0.2,1.8"/>
	<path class="st2" d="M142,80.9h-1.8V65h1.8V80.9z M147.8,80.9h-2l-3.7-6.2l3.3-4.9h2l-3.5,4.9L147.8,80.9z"/>
	<path class="st2" d="M155.1,74.3c0-0.8,0-1.5-0.2-2.3s-0.9-1.4-1.8-1.3c-1.2,0-1.9,0.7-2,2.2c-0.1,0.5-0.1,1-0.1,1.4
		C151,74.3,155.1,74.3,155.1,74.3z M156.9,75.5h-5.8v0.8c-0.1,0.8,0,1.7,0.2,2.5c0.3,0.7,1,1.1,1.8,1.1c1.3,0,2-0.8,2-2.5h1.8
		c0.2,1.9-1.1,3.5-3,3.7c-0.2,0-0.5,0-0.7,0c-1.3,0.1-2.5-0.5-3.2-1.6c-0.5-1.2-0.7-2.5-0.6-3.8c-0.1-1.4,0.1-2.9,0.5-4.2
		c0.6-1.3,2-2.2,3.4-2c1.3-0.2,2.6,0.6,3.2,1.8c0.4,1.2,0.5,2.5,0.5,3.8C156.9,75,156.9,75.5,156.9,75.5z"/>
	<path class="st2" d="M167,80.9h-1.8v-7.1c0.1-0.7,0-1.4-0.2-2.1c-0.2-0.6-0.9-1-1.5-1c-1.5,0-2.2,1.1-2.2,3.3v6.8h-1.8V64.9h1.8V71
		c0.6-1,1.7-1.5,2.8-1.5c1.9,0,2.9,1.2,2.9,3.5V80.9z"/>
	<path class="st2" d="M175,71.2h-0.4c-0.7-0.1-1.4,0.2-1.9,0.8c-0.4,0.6-0.7,1.3-0.6,2v6.9h-1.8v-9.2c0-0.8,0-1.4,0-2h1.8v1.4
		c0.5-1.1,1.6-1.8,2.8-1.8c0.1,0,0.2,0.6,0.2,1.8"/>
	<path class="st2" d="M189.9,80.9h-1.8v-1.4c-0.6,1-1.7,1.6-2.8,1.6c-2,0-3-1.1-3-3.4v-7.9h1.8v7.1c0,0.7,0,1.3,0.2,1.9s0.9,1,1.6,1
		c1.5,0,2.2-1.1,2.2-3.2v-6.7h1.8v8.7C189.9,79.3,189.9,80.1,189.9,80.9"/>
	<path class="st2" d="M200.6,80.9h-1.8v-7.1c0-0.7,0-1.3-0.2-2c-0.2-0.6-0.9-1-1.5-1c-0.8,0-1.4,0.4-1.8,1.1
		c-0.4,0.7-0.5,1.5-0.5,2.2v6.7H193v-8.7c0-1,0-1.8-0.1-2.4h1.8v1.5c0.5-1.1,1.7-1.8,2.9-1.8c2,0,2.9,1.2,2.9,3.5L200.6,80.9z"/>
	<path class="st2" d="M209.4,75.4c0-1.1-0.1-2.2-0.3-3.2c0-1-0.8-1.8-1.8-1.8s-1.8,0.8-1.8,1.8c-0.2,1-0.3,2-0.3,3
		c0,1.1,0.1,2.2,0.4,3.2c0.2,0.8,0.9,1.3,1.7,1.4c0.9,0.1,1.7-0.5,1.9-1.4C209.3,77.3,209.4,76.3,209.4,75.4 M211.2,80.8h-1.8v-1.3
		c-0.5,0.9-1.5,1.5-2.6,1.5c-1.3,0.1-2.5-0.7-2.9-1.9c-0.4-1.3-0.6-2.6-0.5-4c-0.1-1.3,0.1-2.6,0.6-3.8c0.5-1.1,1.6-1.8,2.8-1.8
		c1-0.1,2,0.4,2.5,1.3v-5.9h1.8v13.8C211,79.2,211.1,79.9,211.2,80.8"/>
	<path class="st2" d="M89.2,98.8c0-1.1-0.1-2.2-0.3-3.2c0-1-0.8-1.8-1.8-1.8s-1.8,0.8-1.8,1.8c-0.2,1-0.3,2-0.3,2.9
		c0,1.1,0.1,2.2,0.4,3.2c0.2,0.8,0.9,1.3,1.7,1.4c0.9,0.1,1.7-0.5,1.9-1.4C89.1,100.7,89.2,99.7,89.2,98.8 M91,104.2h-1.8v-1.3
		c-0.5,0.9-1.5,1.5-2.6,1.5c-1.3,0.1-2.5-0.7-2.9-1.9c-0.4-1.3-0.6-2.6-0.5-4c-0.1-1.3,0.1-2.6,0.6-3.8c0.5-1.1,1.6-1.8,2.8-1.8
		c1-0.1,2,0.4,2.5,1.3v-5.8h1.8v13.8C90.8,102.6,90.9,103.3,91,104.2"/>
	<path class="st2" d="M95.9,104.3h-1.8V93.2h1.8V104.3z M96,90.4h-1.9v-1.9H96V90.4z"/>
	<path class="st2" d="M104.7,98.4c0-0.9-0.1-1.9-0.3-2.8c-0.3-1-1.3-1.6-2.3-1.3c-0.7,0.2-1.2,0.8-1.3,1.5c-0.2,1-0.4,2-0.4,3
		c0,0.9,0,1.8,0.3,2.7c0.2,0.8,0.9,1.4,1.8,1.4c1,0,1.8-0.7,2-1.7C104.7,100.3,104.8,99.3,104.7,98.4 M106.5,93.1c0,0.2,0,0.5,0,0.9
		s0,0.7,0,1v9.7c0.1,1.1-0.2,2.1-1,3c-0.8,0.7-1.9,1-3,0.9c-2.4,0-3.5-1.1-3.5-3.2h1.8c0,1.4,0.6,2,1.8,2c0.7,0.1,1.4-0.3,1.8-1
		c0.2-0.7,0.4-1.4,0.3-2.1v-1.5c-0.6,0.8-1.5,1.3-2.6,1.3c-1.2,0.1-2.4-0.6-2.8-1.8c-0.4-1.1-0.6-2.3-0.5-3.5
		c-0.1-1.4,0.1-2.7,0.5-4c0.4-1.2,1.6-2,2.9-1.9c1.1-0.1,2.2,0.5,2.7,1.6v-1.3L106.5,93.1z"/>
	<path class="st2" d="M111.5,104.3h-1.8V93.2h1.8V104.3z M111.6,90.4h-1.9v-1.9h1.9V90.4z"/>
	<path class="st2" d="M119.1,104.3c-0.4,0.1-0.9,0.1-1.3,0.1c-0.7,0.1-1.5-0.1-2-0.6c-0.4-0.6-0.5-1.3-0.5-2v-7.2h-1.7v-1.3h1.7v-2
		l1.8-0.8v2.8h2v1.3h-2v7.1c0,0.4,0,0.9,0.3,1.3c0.3,0.2,0.6,0.4,1,0.3l0.8-0.1L119.1,104.3z"/>
	<path class="st2" d="M126.3,99.9v-1.3h-0.4c-2.4,0-3.5,0.8-3.5,2.4s0.5,2.3,1.6,2.1c0.7,0,1.4-0.4,1.8-1.1
		C126.1,101.4,126.3,100.7,126.3,99.9 M128.1,104.2h-1.8v-1.4c-0.7,1-1.8,1.6-3,1.6c-0.8,0-1.6-0.3-2.1-1s-0.7-1.5-0.7-2.3
		c-0.1-1.3,0.6-2.6,1.8-3.2c1.3-0.4,2.6-0.6,3.9-0.6v-0.5c0-0.6,0-1.3-0.2-1.9c-0.2-0.6-0.9-1-1.5-0.9c-0.5,0-1,0.1-1.3,0.4
		c-0.4,0.3-0.6,0.8-0.5,1.2v0.1h-1.8v-0.1c-0.1-0.9,0.4-1.8,1.1-2.3c0.8-0.5,1.7-0.7,2.6-0.6c1-0.1,2,0.2,2.7,0.9
		c0.5,0.8,0.8,1.8,0.7,2.8v4.1C128,102,128,103.2,128.1,104.2"/>
	<polygon class="st2" points="133,104.3 131.3,104.3 131.3,88.3 132.1,88.3 133,88.3 	"/>
	<path class="st2" d="M141.7,97.8c0-0.8,0-1.5-0.2-2.3s-0.9-1.4-1.8-1.3c-1.2,0-1.9,0.7-2,2.2c-0.1,0.5-0.1,1-0.1,1.4
		C137.6,97.8,141.7,97.8,141.7,97.8z M143.4,98.9h-5.8v0.8c0,0.8,0.1,1.7,0.3,2.5c0.3,0.7,1,1.1,1.8,1.1c1.3,0,2-0.8,2-2.4h1.8
		c0.2,1.9-1.1,3.5-3,3.7c-0.2,0-0.5,0-0.7,0c-1.3,0.1-2.5-0.5-3.2-1.6c-0.5-1.2-0.7-2.5-0.6-3.8c-0.1-1.4,0.1-2.9,0.5-4.2
		c0.5-1.3,1.9-2.1,3.3-2c1.3-0.2,2.6,0.6,3.2,1.8c0.4,1.2,0.6,2.5,0.5,3.8L143.4,98.9z"/>
	<polygon class="st2" points="153.7,104.3 151.8,104.3 151.8,88.3 152.8,88.3 153.7,88.3 	"/>
	<path class="st2" d="M164.7,104.3H163v-7.1c0-0.7,0-1.3-0.2-2c-0.2-0.6-0.9-1-1.5-1c-0.8,0-1.4,0.4-1.8,1.1
		c-0.4,0.7-0.5,1.5-0.5,2.2v6.7h-1.8v-8.7c0-1,0-1.8-0.1-2.4h1.8v1.5c0.5-1.1,1.7-1.8,2.9-1.8c2,0,2.9,1.2,2.9,3.5L164.7,104.3z"/>
	<path class="st2" d="M172.3,89.6h-0.7c-0.5,0-0.9,0.2-1.1,0.6c-0.1,0.4-0.2,0.9-0.2,1.3v1.6h1.9v1.3h-1.9v9.8h-1.8v-9.9h-1.6V93
		h1.6v-1.2c-0.1-0.9,0.1-1.8,0.5-2.6c0.5-0.8,1.4-1.3,2.4-1.1h0.9L172.3,89.6L172.3,89.6z"/>
	<path class="st2" d="M179.1,94.6h-0.4c-0.7-0.1-1.4,0.2-1.9,0.8c-0.4,0.6-0.6,1.3-0.5,2v6.9h-1.8v-9.1c0-0.8,0-1.4,0-2h1.8v1.5
		c0.5-1.1,1.6-1.8,2.8-1.8c0.1,0,0.2,0.6,0.2,1.8"/>
	<path class="st2" d="M186,99.9v-1.3h-0.4c-2.4,0-3.5,0.8-3.5,2.4s0.5,2.3,1.6,2.1c0.7,0,1.4-0.4,1.8-1.1
		C185.8,101.4,186,100.7,186,99.9 M187.8,104.2H186v-1.4c-0.7,1-1.8,1.6-3,1.6c-0.8,0-1.6-0.3-2.1-1s-0.7-1.5-0.7-2.3
		c-0.1-1.3,0.6-2.6,1.8-3.2c1.3-0.4,2.6-0.6,3.9-0.6v-0.5c0-0.6,0-1.3-0.2-1.9c-0.2-0.6-0.9-1-1.5-0.9c-0.5,0-1,0.1-1.3,0.4
		c-0.4,0.3-0.6,0.8-0.5,1.2v0.1h-1.8v-0.1c-0.1-0.9,0.4-1.8,1.1-2.3c0.8-0.5,1.7-0.7,2.6-0.7c1-0.1,2,0.2,2.7,0.9
		c0.5,0.8,0.8,1.8,0.7,2.8v4.1C187.6,102,187.6,103.1,187.8,104.2"/>
	<path class="st2" d="M197.1,101.2c0,2.2-1.2,3.2-3.5,3.2c-2.4,0-3.5-1.2-3.3-3.5h1.8c0,0.2,0,0.4,0,0.6c0.1,1.2,0.6,1.8,1.6,1.8
		c0.8,0.2,1.6-0.4,1.8-1.2c0-0.2,0-0.4,0-0.6c0-0.5-0.2-1.1-0.5-1.4c-0.4-0.4-0.9-0.7-1.5-1c-0.7-0.3-1.4-0.8-2-1.2
		c-0.6-0.5-0.9-1.3-0.8-2c0-0.8,0.3-1.7,1-2.2s1.5-0.7,2.4-0.7c0.9-0.1,1.8,0.2,2.4,0.8c0.5,0.7,0.8,1.6,0.8,2.5h-1.8
		c0-1.4-0.5-2.1-1.6-2.1c-0.4,0-0.8,0.1-1.1,0.4c-0.3,0.3-0.4,0.7-0.4,1.1c0,0.5,0.2,1,0.6,1.3c0.5,0.4,1,0.7,1.6,1
		c0.6,0.3,1.2,0.8,1.8,1.2C196.8,99.8,197.1,100.5,197.1,101.2"/>
	<path class="st2" d="M204,104.3c-0.4,0.1-0.9,0.1-1.3,0.1c-0.7,0.1-1.5-0.1-2-0.6c-0.4-0.6-0.5-1.4-0.5-2.1v-7.2h-1.7v-1.3h1.7v-2
		l1.8-0.8v2.8h2v1.3h-2v7.1c0,0.4,0,0.9,0.3,1.3c0.3,0.2,0.6,0.4,1,0.3l0.7-0.2V104.3z"/>
	<path class="st2" d="M210.8,94.6h-0.4c-0.7-0.1-1.4,0.2-1.9,0.8c-0.4,0.6-0.7,1.3-0.6,2v6.9h-1.8v-9.1c0-0.8,0-1.4,0-2h1.8v1.5
		c0.5-1.1,1.6-1.8,2.8-1.8c0.1,0,0.2,0.6,0.2,1.8"/>
	<path class="st2" d="M220.5,104.3h-1.8v-1.4c-0.6,1-1.6,1.6-2.8,1.6c-2,0-3-1.1-3-3.4v-7.9h1.8v7.1c0,0.7,0,1.3,0.2,1.9
		s0.9,1,1.6,1c1.4,0,2.1-1,2.1-3.2v-6.8h1.8v8.7C220.4,102.7,220.4,103.5,220.5,104.3"/>
	<path class="st2" d="M225.4,104.3h-1.8V88.4h1.8V104.3z M231.2,104.3h-2l-3.7-6.2l3.3-4.9h2l-3.5,4.9L231.2,104.3z"/>
	<path class="st2" d="M237.3,104.3c-0.4,0.1-0.9,0.1-1.3,0.1c-0.7,0.1-1.5-0.1-2-0.6c-0.4-0.6-0.5-1.4-0.5-2.1v-7.2h-1.7v-1.3h1.7
		v-2l1.8-0.8v2.8h2v1.3h-2v7.1c0,0.4,0,0.9,0.3,1.3c0.3,0.2,0.6,0.4,1,0.3l0.8-0.1L237.3,104.3z"/>
	<path class="st2" d="M247.1,104.3h-1.8v-1.4c-0.6,1-1.6,1.6-2.8,1.6c-2,0-3-1.1-3-3.4v-7.9h1.8v7.1c0,0.7,0,1.3,0.2,1.9
		s0.9,1,1.6,1c1.5,0,2.2-1.1,2.2-3.2v-6.7h1.8v8.7C247,102.7,247,103.5,247.1,104.3"/>
	<path class="st2" d="M254.9,94.6h-0.4c-0.7-0.1-1.4,0.2-1.9,0.8c-0.4,0.6-0.7,1.3-0.6,2v6.9h-1.8v-9.1c0-0.8,0-1.4,0-2h1.8v1.5
		c0.5-1.1,1.6-1.8,2.8-1.8c0.1,0,0.2,0.6,0.2,1.8"/>
</g>
<rect x="7.3" y="10" class="st3" width="183" height="27"/>
<text transform="matrix(1 0 0 1 7.2745 18.8789)" class="st4 st5">Gefördert durch</text>
</svg>
